<?xml version="1.0" standalone="no"?>
<!DOCTYPE svg PUBLIC "-//W3C//DTD SVG 1.1//EN" "http://www.w3.org/Graphics/SVG/1.1/DTD/svg11.dtd" >
<svg xmlns="http://www.w3.org/2000/svg" xmlns:xlink="http://www.w3.org/1999/xlink" version="1.1">
<metadata>
Created by FontForge 20170731 at Wed Feb  5 06:25:29 2014
 By Aleksey,,,
Copyright (c) 2012 by Jos Buivenga. All rights reserved.
</metadata>
<defs>
<font id="MuseoSansCyrillic-900Italic" horiz-adv-x="400" >
  <font-face 
    font-family="Museo Sans Cyrillic"
    font-weight="900"
    font-style="italic"
    font-stretch="normal"
    units-per-em="1000"
    panose-1="2 0 0 0 0 0 0 0 0 0"
    ascent="774"
    descent="-226"
    x-height="515"
    cap-height="715"
    bbox="-191 -210 1227 918"
    underline-thickness="50"
    underline-position="-200"
    slope="-11"
    unicode-range="U+0020-FB04"
  />
<missing-glyph horiz-adv-x="510" 
d="M505 0h-500v700h500v-700zM85 650l170 -255l170 255h-340zM285 350l170 -255v510zM55 605v-510l170 255zM255 305l-170 -255h340z" />
    <glyph glyph-name="f_f" unicode="ff" horiz-adv-x="763" 
d="M208 0h-173l74 380h-63l27 135h63l2 13q13 92 80 139q30 21 63 32q56 20 118 20q29 0 63 -3l-30 -146q-10 2 -26 2q-89 0 -97 -50l-1 -7h210l2 13q13 92 80 139q30 21 63 32q56 20 118 20q30 0 63 -3l-30 -146q-10 2 -26 2q-89 0 -97 -50l-1 -7h95l-26 -135h-95l-74 -380
h-173l74 380h-209z" />
    <glyph glyph-name="fi" unicode="fi" horiz-adv-x="673" 
d="M208 0h-173l74 380h-63l27 135h63l2 13q13 92 80 139q30 21 63 32q56 20 118 20q31 0 63 -3l-30 -146q-8 2 -26 2q-89 0 -97 -50l-1 -7h350l-100 -515h-172l73 380h-177zM669 580h-169l26 135h169z" />
    <glyph glyph-name="fl" unicode="fl" horiz-adv-x="703" 
d="M210 0h-173l72 371h-63l27 135h63l4 22q18 95 82 140q28 20 62 32q57 19 117 19q33 0 63 -3l-30 -146q-8 2 -26 2q-88 0 -97 -50l-3 -16h95l-26 -135h-95zM412 137q0 31 7 63l100 515h173l-96 -496q-5 -25 -5 -39q0 -33 39 -33q14 0 21 1l-29 -150q-30 -3 -47 -3
q-163 0 -163 142z" />
    <glyph glyph-name="f_f_i" unicode="ffi" horiz-adv-x="1056" 
d="M208 0h-173l74 380h-63l27 135h63l2 13q13 92 80 139q30 21 63 32q56 20 118 20q8 0 31 -1.5t32 -1.5l-30 -146q-10 2 -26 2q-89 0 -97 -50l-1 -7h210l2 13q13 92 80 139q30 21 63 32q56 20 118 20q30 0 63 -3l-30 -146q-18 2 -26 2q-89 0 -97 -50l-1 -7h351l-100 -515
h-172l73 380h-178l-74 -380h-173l74 380h-209zM1052 580h-169l26 135h169z" />
    <glyph glyph-name="f_f_l" unicode="ffl" horiz-adv-x="1084" 
d="M208 0h-173l74 380h-63l27 135h63l2 13q13 92 80 139q30 21 63 32q56 20 118 20q29 0 63 -3l-30 -146q-10 2 -26 2q-89 0 -97 -50l-1 -7h210l2 13q13 92 80 139q30 21 63 32q56 20 118 20q30 0 63 -3l-30 -146q-10 2 -26 2q-89 0 -97 -50l-1 -7h95l-26 -135h-95l-74 -380
h-173l74 380h-209zM793 137q0 31 7 63l100 515h173l-96 -496q-5 -25 -5 -39q0 -33 39 -33q14 0 21 1l-29 -150q-30 -3 -47 -3q-163 0 -163 142z" />
    <glyph glyph-name="f_j" unicode="fj" horiz-adv-x="675" 
d="M208 0h-173l74 380h-63l27 135h63l2 13q13 92 80 139q30 21 63 32q56 20 118 20q30 0 63 -3l-30 -146q-18 2 -26 2q-89 0 -97 -50l-1 -7h351l-102 -526q-24 -124 -117 -164q-74 -33 -147 -33q-28 0 -61 3l28 144q4 -1 22 -1q92 0 105 66l73 376h-178zM670 580h-169
l26 135h169z" />
    <glyph glyph-name=".notdef" horiz-adv-x="510" 
d="M505 0h-500v700h500v-700zM85 650l170 -255l170 255h-340zM285 350l170 -255v510zM55 605v-510l170 255zM255 305l-170 -255h340z" />
    <glyph glyph-name=".null" horiz-adv-x="0" 
 />
    <glyph glyph-name="nonmarkingreturn" horiz-adv-x="333" 
 />
    <glyph glyph-name="space" unicode=" " horiz-adv-x="250" 
 />
    <glyph glyph-name="exclam" unicode="!" horiz-adv-x="310" 
d="M213 221h-148l80 494h180zM177 0h-158l29 150h158z" />
    <glyph glyph-name="quotedbl" unicode="&#x22;" horiz-adv-x="437" 
d="M411 490h-122l47 240h122zM220 490h-122l47 240h122z" />
    <glyph glyph-name="numbersign" unicode="#" horiz-adv-x="714" 
d="M183 0h-137l66 180h-97l42 120h98l36 95h-96l43 120h96l74 200h137l-74 -200h108l74 200h137l-74 -200h102l-43 -120h-102l-36 -95h100l-43 -120h-100l-66 -180h-137l66 180h-108zM328 395l-36 -95h108l36 95h-108z" />
    <glyph glyph-name="dollar" unicode="$" horiz-adv-x="600" 
d="M2 90l104 124q30 -30 76.5 -47.5t92.5 -17.5q35 0 60.5 16.5t25.5 46.5q0 17 -20 33.5t-49.5 30.5t-64 35t-64 45t-49.5 62.5t-20 85.5q0 92 68 151t165 70l18 90h109l-18 -94q113 -21 168 -77l-94 -129q-26 23 -69.5 37t-83.5 14q-35 0 -61.5 -17t-26.5 -45
q0 -19 16 -32.5t58 -35t60 -32.5q135 -73 135 -192q0 -88 -69 -153q-68 -62 -176 -70l-16 -88h-109l18 95q-109 22 -184 94z" />
    <glyph glyph-name="percent" unicode="%" horiz-adv-x="884" 
d="M86 541q0 72 60 129q61 57 137 57q74 0 123 -47q48 -46 48 -116q0 -71 -62 -127q-61 -55 -136 -55t-123 45q-47 45 -47 114zM195 0h-159l674 715h159zM264 502q24 0 43 18.5t19 42.5q0 19 -13.5 31.5t-36.5 12.5t-42.5 -19t-19.5 -43q0 -19 13.5 -31t36.5 -12zM454 147
q0 72 60 129q62 57 137 57q74 0 123 -47q48 -46 48 -116q0 -71 -62 -127q-61 -55 -136 -55t-123 45q-47 45 -47 114zM582 151q0 -19 13.5 -31t36.5 -12q24 0 43 18.5t19 42.5q0 19 -13.5 31.5t-36.5 12.5t-42.5 -19t-19.5 -43z" />
    <glyph glyph-name="ampersand" unicode="&#x26;" horiz-adv-x="700" 
d="M25 194q0 59 45 113q44 54 111 74v2q-3 1 -7 3.5t-14.5 12t-19 21t-15 32.5t-6.5 46q0 59 24 105t64 72t85.5 39t93.5 13q54 0 108 -19l-64 -130q-12 4 -38 4q-41 0 -70 -24t-29 -65q0 -25 16 -39.5t45 -14.5h87l17 88h172l-17 -88h89l-29 -150h-89l-13 -69
q-22 -113 -97 -172.5t-196 -59.5q-118 0 -186 57q-67 58 -67 149zM209 207q0 -26 21 -43t54 -17q47 0 78.5 23t38.5 60l11 59h-98q-44 0 -74.5 -21t-30.5 -61z" />
    <glyph glyph-name="quotesingle" unicode="'" horiz-adv-x="249" 
d="M223 490h-125l47 240h125z" />
    <glyph glyph-name="parenleft" unicode="(" horiz-adv-x="335" 
d="M232 -95h-137q-59 136 -59 276q0 334 214 569h147q-211 -259 -211 -573q0 -147 46 -272z" />
    <glyph glyph-name="parenright" unicode=")" horiz-adv-x="334" 
d="M96 -95h-147q211 259 211 573q0 147 -46 272h137q59 -136 59 -276q0 -334 -214 -569z" />
    <glyph glyph-name="asterisk" unicode="*" horiz-adv-x="500" 
d="M270 407l-75 -98l-110 90l93 88l-101 21l73 140l93 -45l11 112h152l-34 -112l112 46l20 -146l-122 -26l60 -81l-131 -88z" />
    <glyph glyph-name="plus" unicode="+" horiz-adv-x="600" 
d="M310 0h-136l43 222h-205l25 130h205l43 223h136l-43 -223h205l-25 -130h-205z" />
    <glyph glyph-name="comma" unicode="," horiz-adv-x="306" 
d="M65 -111h-129l127 277h169z" />
    <glyph glyph-name="hyphen" unicode="-" horiz-adv-x="433" 
d="M356 212h-314l29 150h314z" />
    <glyph glyph-name="period" unicode="." horiz-adv-x="284" 
d="M167 0h-164l31 164h164z" />
    <glyph glyph-name="slash" unicode="/" horiz-adv-x="476" 
d="M121 -42h-153l408 792h154z" />
    <glyph glyph-name="zero" unicode="0" horiz-adv-x="642" 
d="M50 238q0 58 10 121t34.5 129.5t61 119t94.5 86t129 33.5q237 0 237 -248q0 -130 -45 -251q-27 -70 -62 -120q-38 -54 -96 -87t-127 -33q-236 0 -236 250zM231 246q0 -98 61 -98q34 0 62.5 34t45 85.5t25.5 104.5t9 97q0 98 -61 98q-33 0 -61.5 -33.5t-46.5 -87.5
q-34 -110 -34 -200z" />
    <glyph glyph-name="one" unicode="1" horiz-adv-x="553" 
d="M476 0h-473l27 150h152l57 285l12 55h-2q-14 -21 -36 -38l-50 -39l-87 118l236 184h151l-110 -565h152z" />
    <glyph glyph-name="two" unicode="2" horiz-adv-x="603" 
d="M497 0h-494q0 108 52 195q24 37 58 68q37 35 66 54q38 26 71 46l36 21l34 21l27 18q19 12 42 37q17 20 17 44q0 27 -18.5 42.5t-48.5 15.5q-71 0 -125 -76l-123 96q44 54 95 92q68 53 171 53q94 0 163 -54t69 -149q0 -101 -83 -174q-40 -36 -72 -57q-42 -26 -84 -50
q-64 -36 -88.5 -55t-30.5 -38h295z" />
    <glyph glyph-name="three" unicode="3" horiz-adv-x="589" 
d="M-12 82l100 124q50 -53 142 -53q58 0 90.5 24t32.5 61q0 65 -114 65h-59l-20 85l107 113q38 40 66 59l10 8v2q-27 -5 -69 -5h-163l29 150h451l-21 -109l-176 -177q52 -13 94 -61q41 -47 41 -122q0 -103 -78 -181q-77 -77 -217 -77q-155 0 -246 94z" />
    <glyph glyph-name="four" unicode="4" horiz-adv-x="634" 
d="M318 173h-316l19 106l346 436h229l-77 -397h85l-28 -145h-85l-34 -173h-173zM216 320v-2h130l31 160l21 80h-2q-25 -42 -49 -74z" />
    <glyph glyph-name="five" unicode="5" horiz-adv-x="589" 
d="M-1 82l102 125q59 -54 134 -54q52 0 89.5 29.5t37.5 71.5q0 35 -27.5 55.5t-73.5 20.5q-49 0 -87 -18l-13 -6l-92 36l102 373h405l-29 -150h-248l-17 -64l-9 -28h2q28 5 54 5q92 0 153 -61q61 -60 61 -154q0 -114 -90 -195q-89 -80 -220 -80q-67 0 -129.5 24.5
t-104.5 69.5z" />
    <glyph glyph-name="six" unicode="6" horiz-adv-x="619" 
d="M45 260q0 78 29 160t80 151q52 71 131 113.5t167 42.5q104 0 170 -33l-71 -142q-49 15 -97 15q-114 0 -177 -118h2q29 25 88 25q99 0 151 -61q52 -59 52 -154q0 -103 -75 -187q-73 -84 -189 -84q-112 0 -186 70q-75 70 -75 202zM223 258q0 -47 25 -78.5t61 -31.5
q38 0 64 32q25 31 25 72q0 37 -22.5 59t-66.5 22q-40 0 -63 -21t-23 -54z" />
    <glyph glyph-name="seven" unicode="7" horiz-adv-x="569" 
d="M192 0h-194l349 501q29 42 52 60l7 5v2q-10 -3 -46 -3h-271l29 150h513l-24 -122z" />
    <glyph glyph-name="eight" unicode="8" horiz-adv-x="627" 
d="M26 196q0 67 57 127q40 43 79 68q-48 51 -48 116q0 86 70 153t189 67q101 0 166 -51q65 -50 65 -139q0 -39 -24 -83q-30 -57 -81 -106q64 -52 64 -126q0 -90 -79 -162q-80 -72 -207 -72q-121 0 -186 59t-65 149zM377 416q51 54 51 104q0 25 -16.5 39t-47.5 14
q-34 0 -55 -19t-21 -48q0 -26 20.5 -45.5t68.5 -44.5zM210 209q0 -29 20 -48t52 -19q42 0 71.5 22.5t29.5 57.5q0 18 -18 35q-14 15 -34 28q-15 9 -56 30q-65 -53 -65 -106z" />
    <glyph glyph-name="nine" unicode="9" horiz-adv-x="620" 
d="M20 21l71 142q43 -15 97 -15q114 0 177 118h-2q-40 -25 -88 -25q-99 0 -151 60q-52 61 -52 155q0 64 32 126q32 63 95 103q63 42 140 42q110 0 184 -71t74 -201q0 -78 -29 -160t-80 -151q-52 -71 -131 -113.5t-167 -42.5q-104 0 -170 33zM333 382q40 0 63 21t23 54
q0 47 -25 78.5t-61 31.5q-38 0 -64 -32q-25 -31 -25 -72q0 -37 22.5 -59t66.5 -22z" />
    <glyph glyph-name="colon" unicode=":" horiz-adv-x="283" 
d="M234 351h-164l32 164h164zM165 0h-164l32 164h164z" />
    <glyph glyph-name="semicolon" unicode=";" horiz-adv-x="317" 
d="M258 351h-158l32 164h158zM65 -111h-129l127 277h169z" />
    <glyph glyph-name="less" unicode="&#x3c;" horiz-adv-x="600" 
d="M528 11l-504 223v107l504 223v-145l-330 -131v-2l330 -130v-145z" />
    <glyph glyph-name="equal" unicode="=" horiz-adv-x="600" 
d="M548 337h-506v130h506v-130zM548 107h-506v130h506v-130z" />
    <glyph glyph-name="greater" unicode="&#x3e;" horiz-adv-x="600" 
d="M571 234l-504 -223v145l330 130v2l-330 131v145l504 -223v-107z" />
    <glyph glyph-name="question" unicode="?" horiz-adv-x="518" 
d="M294 221h-166l9 50q8 45 40.5 85.5t71.5 64.5q93 56 93 103q0 22 -17 35.5t-43 13.5q-45 0 -103 -43l-79 127q39 31 97 52t113 21q88 0 151 -48t63 -132q0 -96 -75 -157q-16 -13 -59 -44t-64 -51.5t-25 -40.5zM248 0h-158l29 150h158z" />
    <glyph glyph-name="at" unicode="@" horiz-adv-x="850" 
d="M32 177q0 179 133 308q133 130 320 130q273 0 273 -204q0 -29 -7 -61l-33 -173h74l-23 -119h-268q-99 0 -154 46t-55 120q0 75 67 133q68 59 181 59h64q1 3 1 7q0 26 -36.5 41.5t-86.5 15.5q-114 0 -196 -93q-83 -92 -83 -199q0 -85 55 -137.5t155 -52.5l-25 -128
q-156 0 -257 87q-99 85 -99 220zM464 228q0 -24 14 -37.5t41 -13.5h39l26 134h-37q-36 0 -59.5 -24.5t-23.5 -58.5z" />
    <glyph glyph-name="A" unicode="A" horiz-adv-x="668" 
d="M130 0h-187l372 715h201l99 -715h-175l-15 150h-223zM338 429l-68 -139h141l-14 139l-6 123h-2q-29 -78 -51 -123z" />
    <glyph glyph-name="B" unicode="B" horiz-adv-x="650" 
d="M311 0h-293l139 715h230q80 0 125 -16q54 -19 83.5 -59.5t29.5 -94.5q0 -51 -30 -97t-81 -72v-2q43 -15 64.5 -52t21.5 -85q0 -80 -47.5 -138t-127.5 -83q-47 -16 -114 -16zM303 565l-25 -127h90q34 0 55.5 24t21.5 56q0 47 -55 47h-87zM251 298l-29 -148h105q28 0 49 12
q44 29 44 80q0 25 -16.5 40.5t-46.5 15.5h-106z" />
    <glyph glyph-name="C" unicode="C" horiz-adv-x="717" 
d="M45 305q0 173 124 297q125 125 296 125q82 0 155.5 -26.5t120.5 -76.5l-99 -120q-74 63 -171 63q-111 0 -178 -78q-67 -77 -67 -172q0 -75 43.5 -122t122.5 -47q103 0 209 85l68 -139q-50 -45 -131 -76q-80 -30 -156 -30q-155 0 -246 88t-91 229z" />
    <glyph glyph-name="D" unicode="D" horiz-adv-x="738" 
d="M298 0h-279l138 715h229q156 0 243.5 -74.5t87.5 -208.5q0 -183 -118 -307q-119 -125 -301 -125zM304 565l-81 -415h72q107 0 175 77q67 76 67 189q0 72 -42.5 110.5t-118.5 38.5h-72z" />
    <glyph glyph-name="E" unicode="E" horiz-adv-x="575" 
d="M480 0h-462l140 715h447l-29 -150h-273l-25 -130h217l-30 -150h-217l-26 -135h287z" />
    <glyph glyph-name="F" unicode="F" horiz-adv-x="540" 
d="M193 0h-174l138 715h437l-28 -150h-263l-29 -150h217l-28 -150h-218z" />
    <glyph glyph-name="G" unicode="G" horiz-adv-x="773" 
d="M45 304q0 174 124 298q125 125 307 125q73 0 150 -23q75 -22 125 -69l-101 -121q-28 23 -75.5 38t-94.5 15q-120 0 -187 -76q-66 -77 -66 -175q0 -79 47 -123.5t121 -44.5q79 0 155 52l11 55h-101l29 149h256l-79 -404h-146l4 20l7 30h-2q-62 -62 -175 -62
q-126 0 -217 85q-92 86 -92 231z" />
    <glyph glyph-name="H" unicode="H" horiz-adv-x="762" 
d="M193 0h-175l139 715h175l-56 -286h260l56 286h175l-139 -715h-175l54 280h-260z" />
    <glyph glyph-name="I" unicode="I" horiz-adv-x="327" 
d="M193 0h-175l139 715h175z" />
    <glyph glyph-name="J" unicode="J" horiz-adv-x="563" 
d="M-3 178q0 25 5 52l8 42h175l-7 -37q-4 -21 -4 -33q0 -54 53 -54q63 0 76 75l67 342h-191l29 150h366l-98 -505q-21 -108 -91 -165q-71 -57 -162 -57q-93 0 -160 50q-66 50 -66 140z" />
    <glyph glyph-name="K" unicode="K" horiz-adv-x="682" 
d="M193 0h-175l139 715h175l-54 -276h67l205 276h203l-271 -351v-2l130 -362h-186l-95 290h-82z" />
    <glyph glyph-name="L" unicode="L" horiz-adv-x="549" 
d="M484 0h-466l139 715h175l-110 -565h292z" />
    <glyph glyph-name="M" unicode="M" horiz-adv-x="878" 
d="M169 0h-176l191 715h191l47 -302l12 -118h2l60 118l163 302h192l-81 -715h-172l41 322l23 120h-2q-38 -76 -63 -120l-116 -207h-152l-36 207l-15 122h-2q-9 -64 -23 -122z" />
    <glyph glyph-name="N" unicode="N" horiz-adv-x="749" 
d="M193 0h-175l139 715h170l133 -334q13 -34 31 -102l5 -20h2q8 82 16 122l65 334h175l-139 -715h-169l-134 333q-16 42 -32 102l-5 20h-2q-6 -77 -15 -122z" />
    <glyph glyph-name="O" unicode="O" horiz-adv-x="820" 
d="M44 307q0 111 58 208q59 98 156 155t205 57q153 0 244 -88q93 -87 93 -224q0 -113 -60 -212q-58 -98 -156 -157q-97 -58 -204 -58q-152 0 -244 89q-92 90 -92 230zM224 317q0 -75 44 -122t114 -47q90 0 164 75q73 76 73 181q0 73 -44 118t-114 45q-91 0 -165 -74
q-72 -73 -72 -176z" />
    <glyph glyph-name="P" unicode="P" horiz-adv-x="631" 
d="M193 0h-175l139 715h273q65 0 109 -22q104 -50 104 -181q0 -88 -46 -161q-45 -72 -118 -106q-51 -24 -110 -24h-133zM303 565l-38 -194h85q36 0 59 15q54 36 54 110q0 33 -18.5 51t-53.5 18h-88z" />
    <glyph glyph-name="Q" unicode="Q" horiz-adv-x="820" 
d="M44 307q0 111 58 208q59 98 156 155t205 57q153 0 244 -88q93 -87 93 -224q0 -153 -111 -274l60 -61l-110 -102l-59 70q-88 -60 -200 -60q-152 0 -244 89q-92 90 -92 230zM224 317q0 -75 44 -122t114 -47q46 0 91 22l-62 67l110 102l59 -71q39 63 39 136t-44 118t-114 45
q-91 0 -165 -74q-72 -73 -72 -176z" />
    <glyph glyph-name="R" unicode="R" horiz-adv-x="653" 
d="M193 0h-175l139 715h266q62 0 105 -17q107 -44 107 -164q0 -73 -37 -143q-38 -69 -112 -99v-2q8 -13 18 -43l92 -247h-188l-80 241h-88zM303 565l-34 -174h75q49 0 80 29.5t31 80.5q0 30 -19.5 47t-53.5 17h-79z" />
    <glyph glyph-name="S" unicode="S" horiz-adv-x="580" 
d="M-7 90l104 124q30 -29 76.5 -47t92.5 -18q35 0 60.5 16.5t25.5 46.5q0 17 -20 34t-49.5 31t-64 35t-64 44.5t-49.5 62t-20 85.5q0 100 80 162q79 61 186 61q153 0 244 -83l-94 -129q-27 22 -69.5 36.5t-83.5 14.5q-35 0 -61.5 -17t-26.5 -45q0 -18 20 -35t50 -31
t64.5 -34.5t64.5 -44t50 -62t20 -85.5q0 -93 -76 -159q-77 -65 -190 -65q-75 0 -151 26q-73 25 -119 76z" />
    <glyph glyph-name="T" unicode="T" horiz-adv-x="630" 
d="M344 0h-175l110 565h-216l29 150h607l-29 -150h-216z" />
    <glyph glyph-name="U" unicode="U" horiz-adv-x="734" 
d="M56 210q0 28 6 58l87 447h175l-88 -452q-3 -15 -3 -28q0 -42 28 -64.5t77 -22.5q58 0 96.5 29.5t49.5 85.5l88 452h175l-89 -457q-24 -123 -112 -196q-88 -74 -214 -74q-117 0 -197 59q-79 58 -79 163z" />
    <glyph glyph-name="V" unicode="V" horiz-adv-x="685" 
d="M376 0h-188l-115 715h187l47 -407l5 -115h2q28 73 49 115l206 407h199z" />
    <glyph glyph-name="W" unicode="W" horiz-adv-x="995" 
d="M335 0h-201l-46 715h182l11 -447l-2 -75h2q9 36 26 75l196 447h145l21 -447l-2 -75h2q9 40 23 75l179 447h191l-314 -715h-203l-19 361q-2 56 2 84h-2q-8 -30 -31 -84z" />
    <glyph glyph-name="X" unicode="X" horiz-adv-x="655" 
d="M148 0h-197l286 360l-149 355h191l52 -144l28 -91h2q28 49 59 91l105 144h204l-291 -364l151 -351h-187l-56 147l-28 88h-2q-28 -47 -59 -88z" />
    <glyph glyph-name="Y" unicode="Y" horiz-adv-x="625" 
d="M337 0h-175l57 293l-149 422h189l48 -172l23 -103h2l63 103l109 172h210l-322 -429z" />
    <glyph glyph-name="Z" unicode="Z" horiz-adv-x="634" 
d="M536 0h-557l22 110l340 391q32 36 60 59l8 6v2q-23 -3 -54 -3h-253l28 150h540l-22 -108l-343 -393q-34 -40 -59 -58l-9 -7v-2q22 3 55 3h273z" />
    <glyph glyph-name="bracketleft" unicode="[" horiz-adv-x="354" 
d="M240 -95h-246l165 845h246l-24 -120h-102l-117 -605h102z" />
    <glyph glyph-name="backslash" unicode="\" horiz-adv-x="447" 
d="M354 -42h-138l-103 792h138z" />
    <glyph glyph-name="bracketright" unicode="]" horiz-adv-x="353" 
d="M-39 -95l23 120h102l117 605h-102l24 120h246l-165 -845h-245z" />
    <glyph glyph-name="asciicircum" unicode="^" horiz-adv-x="630" 
d="M201 241h-145l203 474h107l203 -474h-145l-112 300z" />
    <glyph glyph-name="underscore" unicode="_" horiz-adv-x="614" 
d="M-67 -130l24 130h596l-25 -130h-595z" />
    <glyph glyph-name="grave" unicode="`" horiz-adv-x="484" 
d="M296 761h-128l-88 150h165z" />
    <glyph glyph-name="a" unicode="a" horiz-adv-x="547" 
d="M-8 124q0 53 31 93.5t83 62.5q101 41 213 41h8q3 13 3 21q0 45 -66 45q-53 0 -149 -47l-37 130q31 18 97 38q63 19 123 19q36 0 69 -8t65 -25.5t51 -51t19 -79.5q0 -17 -5 -50l-60 -313h-158l6 31l9 32h-2q-24 -31 -64.5 -53t-87.5 -22q-62 0 -105 36q-43 37 -43 100z
M161 153q0 -36 43 -36q33 0 64 28q32 29 38 61l3 16h-18q-37 0 -78 -12q-24 -6 -38 -21t-14 -36z" />
    <glyph glyph-name="b" unicode="b" horiz-adv-x="634" 
d="M162 0h-161l138 715h173l-38 -194l-11 -46h2q53 52 135 52q93 0 146 -60.5t53 -163.5q0 -134 -86 -225q-85 -90 -196 -90q-100 0 -145 63h-2l-4 -29zM214 221q0 -40 21 -65t60 -25q47 0 88 44t41 115q0 42 -22 66.5t-59 24.5q-45 0 -87 -45q-42 -44 -42 -115z" />
    <glyph glyph-name="c" unicode="c" horiz-adv-x="554" 
d="M19 224q0 118 91 210q92 93 231 93q134 0 210 -76l-87 -108q-47 40 -115 40t-112 -47q-43 -46 -43 -102q0 -44 28 -73t78 -29q66 0 154 62l44 -131q-39 -31 -101 -54q-61 -21 -121 -21q-122 0 -190 66q-67 67 -67 170z" />
    <glyph glyph-name="d" unicode="d" horiz-adv-x="636" 
d="M20 209q0 140 85 228q85 90 204 90q93 0 130 -46h2l3 23l41 211h173l-139 -715h-162l7 34l7 30h-2q-57 -76 -149 -76q-93 0 -146.5 59.5t-53.5 161.5zM195 222q0 -42 22 -66.5t59 -24.5q46 0 86 45q42 46 42 114q0 41 -20.5 66t-59.5 25q-48 0 -89 -44q-40 -43 -40 -115z
" />
    <glyph glyph-name="e" unicode="e" horiz-adv-x="566" 
d="M19 213q0 135 85 224q86 90 212 90q106 0 163 -54t57 -148q0 -44 -19 -101h-325v-6q0 -39 27 -62.5t74 -23.5q71 0 153 52l44 -129q-34 -26 -93 -47q-60 -20 -115 -20q-127 0 -195 64q-68 65 -68 161zM215 323h152q1 4 1 18q0 27 -14.5 43t-40.5 16q-69 0 -98 -77z" />
    <glyph glyph-name="f" unicode="f" horiz-adv-x="385" 
d="M211 0h-173l72 371h-63l27 135h63l4 22q18 95 82 140q28 20 62 32q57 19 117 19q33 0 63 -3l-30 -146q-8 2 -26 2q-88 0 -97 -50l-3 -16h95l-26 -135h-95z" />
    <glyph glyph-name="g" unicode="g" horiz-adv-x="624" 
d="M-6 -157l68 124q50 -33 141 -33q121 0 138 99l3 17l4 19h-1q-51 -54 -124 -54q-98 0 -149 60q-51 61 -51 156q0 116 75 206q76 90 200 90q98 0 138 -55h3l2 16l5 27h162l-93 -478q-25 -129 -112 -188q-86 -59 -196 -59q-133 0 -213 53zM198 246q0 -40 20 -63.5t59 -23.5
q53 0 86 47q33 48 33 102q0 75 -83 75q-51 0 -83 -39t-32 -98z" />
    <glyph glyph-name="h" unicode="h" horiz-adv-x="627" 
d="M174 0h-173l139 715h173l-44 -226l-10 -44h2q22 35 68 58.5t95 23.5q76 0 119 -36.5t43 -109.5q0 -22 -7 -57l-63 -324h-173l58 296q3 18 3 30q0 44 -46 44q-50 0 -90 -42q-40 -43 -50 -100z" />
    <glyph glyph-name="i" unicode="i" horiz-adv-x="289" 
d="M284 580h-169l26 135h169zM173 0h-172l99 515h173z" />
    <glyph glyph-name="j" unicode="j" horiz-adv-x="290" 
d="M284 580h-169l26 135h169zM1 4l99 511h173l-102 -526q-24 -124 -117 -164q-74 -33 -147 -33q-28 0 -61 3l28 144q4 -1 22 -1q92 0 105 66z" />
    <glyph glyph-name="k" unicode="k" horiz-adv-x="596" 
d="M174 0h-173l139 715h173l-72 -370h47l136 170h201l-207 -244v-2l115 -269h-183l-75 200h-62z" />
    <glyph glyph-name="l" unicode="l" horiz-adv-x="324" 
d="M31 137q0 31 7 63l100 515h173l-96 -496q-5 -25 -5 -39q0 -33 39 -33q14 0 21 1l-29 -150q-30 -3 -47 -3q-163 0 -163 142z" />
    <glyph glyph-name="m" unicode="m" horiz-adv-x="909" 
d="M174 0h-173l100 515h167l-8 -40l-10 -37h2q69 89 156 89q110 0 137 -87h2q28 37 75.5 62t96.5 25q147 0 147 -141q0 -26 -8 -72l-60 -314h-173l59 300q3 16 3 30q0 40 -34 40q-44 0 -78 -44.5t-47 -112.5l-42 -213h-173l59 300q3 16 3 30q0 40 -34 40q-44 0 -78 -46
q-33 -43 -47 -111z" />
    <glyph glyph-name="n" unicode="n" horiz-adv-x="627" 
d="M174 0h-173l100 515h167l-5 -26l-13 -51h2q23 37 72 62q50 27 100 27q76 0 119 -36.5t43 -109.5q0 -22 -7 -57l-63 -324h-173l58 296q3 18 3 30q0 44 -46 44q-50 0 -90 -42q-40 -43 -50 -100z" />
    <glyph glyph-name="o" unicode="o" horiz-adv-x="640" 
d="M18 219q0 131 97 219q98 89 224 89q118 0 192 -64q75 -63 75 -167q0 -131 -98 -220q-97 -88 -223 -88q-118 0 -193 63q-74 63 -74 168zM193 227q0 -44 26 -69.5t69 -25.5q56 0 99 43q44 44 44 110q0 45 -26 71.5t-68 26.5q-54 0 -99 -45q-45 -44 -45 -111z" />
    <glyph glyph-name="p" unicode="p" horiz-adv-x="633" 
d="M172 -2l-38 -198h-172l138 715h156l-5 -26l-9 -33h2q59 71 155 71q92 0 145.5 -60.5t53.5 -163.5q0 -134 -86 -225q-86 -90 -196 -90q-86 0 -135 54h-2q-1 -8 -7 -44zM214 222q0 -41 20.5 -66t59.5 -25q48 0 89 44q40 43 40 115q0 42 -21.5 66.5t-58.5 24.5
q-45 0 -87 -45q-42 -44 -42 -114z" />
    <glyph glyph-name="q" unicode="q" horiz-adv-x="635" 
d="M20 209q0 140 85 228q85 90 204 90q93 0 139 -55h2l4 28l3 15h162l-139 -715h-173l39 202l11 44h-2q-55 -58 -135 -58q-93 0 -146.5 59.5t-53.5 161.5zM195 222q0 -42 22 -66.5t59 -24.5q46 0 86 45q42 46 42 114q0 41 -20.5 66t-59.5 25q-48 0 -89 -44q-40 -43 -40 -115
z" />
    <glyph glyph-name="r" unicode="r" horiz-adv-x="428" 
d="M174 0h-173l100 515h166l-17 -87l-8 -32h1q25 53 75 91q50 37 104 37q2 0 6 -0.5t11 -1t13 -0.5l-33 -170q-30 3 -34 3q-30 0 -63 -15q-36 -16 -69.5 -60.5t-44.5 -104.5z" />
    <glyph glyph-name="s" unicode="s" horiz-adv-x="468" 
d="M-17 58l82 116q51 -46 132 -46q55 0 55 30q0 13 -21 24t-51 22.5t-60 27.5t-51 48.5t-21 77.5q0 75 62 122q64 47 156 47q104 0 189 -57l-68 -120q-46 37 -126 37q-53 0 -53 -29q0 -18 72 -45q134 -44 133 -159q0 -75 -58 -121q-59 -45 -151 -45q-127 0 -221 70z" />
    <glyph glyph-name="t" unicode="t" horiz-adv-x="407" 
d="M60 160q0 15 5 40l34 171h-65l26 135h71l29 148h166l-29 -148h109l-26 -135h-109l-28 -147q-3 -14 -3 -27q0 -50 76 -50q18 0 27 1l-29 -150q-42 -3 -46 -3q-96 0 -152 42t-56 123z" />
    <glyph glyph-name="u" unicode="u" horiz-adv-x="620" 
d="M25 134q0 22 7 57l63 324h173l-58 -296q-3 -18 -3 -30q0 -44 46 -44q47 0 85 42q39 44 49 100l44 228h173l-100 -515h-167l5 26l13 51h-2q-24 -38 -70 -63.5t-96 -25.5q-76 0 -119 36.5t-43 109.5z" />
    <glyph glyph-name="v" unicode="v" horiz-adv-x="563" 
d="M322 0h-200l-77 515h171l26 -274l2 -89h2q18 52 36 89l133 274h183z" />
    <glyph glyph-name="w" unicode="w" horiz-adv-x="825" 
d="M280 0h-185l-44 515h172l4 -304l-4 -54h2l3 7q15 44 16 47l131 304h145l11 -304l-2 -54h2q4 23 17 54l123 304h184l-245 -515h-192l-11 238v55h-2q-6 -22 -20 -55z" />
    <glyph glyph-name="x" unicode="x" horiz-adv-x="549" 
d="M150 0h-197l216 260l-122 255h182l42 -110l11 -38h2q13 24 22 38l78 110h200l-220 -265l119 -250h-178l-46 111l-9 30h-2q-10 -21 -18 -30z" />
    <glyph glyph-name="y" unicode="y" horiz-adv-x="567" 
d="M-79 -170l75 120q20 -16 51 -16q62 0 93 52l15 24l-121 505h180l42 -255l5 -76h2q19 49 31 73l115 258h194l-322 -570q-44 -76 -103.5 -115.5t-121.5 -39.5q-74 0 -135 40z" />
    <glyph glyph-name="z" unicode="z" horiz-adv-x="544" 
d="M448 0h-470l16 86l229 237q15 15 47 43l6 4v2q-16 -2 -44 -2h-176l29 145h459l-16 -87l-229 -237q-18 -18 -49 -42l-7 -5v-2q13 3 47 3h187z" />
    <glyph glyph-name="braceleft" unicode="{" horiz-adv-x="395" 
d="M70 38q0 22 4 39l16 83q3 15 3 26q0 30 -18.5 49.5t-50.5 20.5l29 150q39 1 67 27.5t37 71.5l20 103q18 96 93 123q59 24 135 24q8 0 42 -2l-24 -124q-8 2 -25 2q-72 0 -83 -54l-26 -132q-9 -41 -38.5 -71t-70.5 -43v-2q29 -10 46 -39t17 -68q0 -14 -3 -32l-22 -112
q-1 -3 -1 -12q0 -42 64 -42q1 0 25 2l-24 -124q-24 -2 -44 -2q-51 0 -102 24q-30 13 -48 43t-18 71z" />
    <glyph glyph-name="bar" unicode="|" horiz-adv-x="356" 
d="M253 -165h-144v967h144v-967z" />
    <glyph glyph-name="braceright" unicode="}" horiz-adv-x="395" 
d="M8 24q72 0 83 54l28 139q9 41 38 71t71 43v2q-28 10 -45.5 38t-17.5 69q0 14 3 32l20 105q1 3 1 12q0 42 -64 42q-9 0 -25 -2l24 124q26 2 44 2q52 0 101 -24q31 -13 49 -43t18 -71q0 -14 -4 -39l-14 -76q-3 -15 -3 -26q0 -31 18.5 -49.5t50.5 -20.5l-29 -150
q-11 0 -24 -4t-29.5 -13.5t-30.5 -31t-20 -50.5l-22 -110q-30 -147 -228 -147q-2 0 -42 2l24 124q18 -2 25 -2z" />
    <glyph glyph-name="asciitilde" unicode="~" horiz-adv-x="622" 
d="M177 191h-134q0 203 174 203q61 0 101 -40q42 -40 71 -40q25 0 40 20t15 56h133q0 -203 -173 -203q-60 0 -102 40q-40 40 -71 40q-25 0 -39.5 -20t-14.5 -56z" />
    <glyph glyph-name="uni00A0" unicode="&#xa0;" horiz-adv-x="250" 
 />
    <glyph glyph-name="exclamdown" unicode="&#xa1;" horiz-adv-x="291" 
d="M236 365h-158l29 150h158zM139 -200h-180l112 494h148z" />
    <glyph glyph-name="cent" unicode="&#xa2;" horiz-adv-x="600" 
d="M302 -12h-110l18 92q-75 24 -119.5 86.5t-44.5 149.5q0 67 24 127t65 101q81 84 184 98l16 84h110l-17 -91q55 -13 100 -61q43 -46 54 -107l-155 -56q-5 33 -26 53t-54 20q-45 0 -86 -48q-41 -47 -41 -115q0 -42 21 -65.5t57 -23.5q71 0 113 71l149 -63
q-92 -153 -242 -171z" />
    <glyph glyph-name="sterling" unicode="&#xa3;" horiz-adv-x="600" 
d="M511 0h-523l29 150h54l29 149h-43l22 112h42l22 110q18 93 91 149q74 57 173 57q55 0 106.5 -24t87.5 -66l-109 -108q-39 41 -90 41q-30 0 -53.5 -17.5t-29.5 -46.5l-19 -95h166l-22 -112h-165l-29 -149h290z" />
    <glyph glyph-name="currency" unicode="&#xa4;" horiz-adv-x="647" 
d="M229 0h-175l28 142h-65l21 111h65l11 57h-65l26 134h65l53 271h272q100 0 152 -45.5t52 -128.5q0 -105 -79 -169q-80 -63 -194 -63h-107l-11 -56h244l-21 -111h-244zM342 580l-27 -136h71q41 0 72.5 22.5t31.5 59.5q0 54 -74 54h-74z" />
    <glyph glyph-name="yen" unicode="&#xa5;" horiz-adv-x="600" 
d="M330 0h-179l33 167h-163l18 96h163l6 28l-15 49h-139l19 96h92l-83 279h191l28 -143l22 -133h2q30 71 66 133l79 143h208l-192 -279h93l-19 -96h-140l-33 -49l-6 -28h164l-18 -96h-164z" />
    <glyph glyph-name="section" unicode="&#xa7;" horiz-adv-x="529" 
d="M251 179h-126l-22 263q-10 120 54 202q65 83 189 83q127 0 213 -82l-86 -98q-46 42 -127 42q-64 0 -93.5 -39.5t-23.5 -110.5zM-15 20l86 98q21 -19 57 -30.5t70 -11.5q64 0 93.5 39.5t23.5 110.5l-22 260h126l22 -263q11 -120 -54 -203q-64 -82 -189 -82
q-60 0 -117 21.5t-96 60.5z" />
    <glyph glyph-name="dieresis" unicode="&#xa8;" horiz-adv-x="485" 
d="M343 771h-126l28 140h126zM134 771h-126l28 140h126z" />
    <glyph glyph-name="copyright" unicode="&#xa9;" horiz-adv-x="820" 
d="M420 726q150 0 257 -108q106 -106 106 -260q0 -153 -106 -262q-107 -108 -257 -108q-148 0 -254 108q-105 110 -105 262q0 154 105 260q105 108 254 108zM174 358q0 -111 71 -190q71 -77 175 -77q106 0 178 77q73 77 73 190q0 112 -73 188q-72 77 -178 77
q-104 0 -175 -77t-71 -188zM422 542q57 0 101 -30.5t61 -84.5l-100 -39q-6 21 -22 35t-36 14q-24 0 -41.5 -23.5t-17.5 -58.5q0 -38 16 -60t43 -22q20 0 35.5 13.5t22.5 35.5l100 -39q-17 -50 -59 -82.5t-103 -32.5q-70 0 -121 54q-51 56 -51 133q0 78 51 132q51 55 121 55z
" />
    <glyph glyph-name="ordfeminine" unicode="&#xaa;" horiz-adv-x="431" 
d="M185 383q-39 0 -65.5 24.5t-26.5 62.5q0 32 16 57t40 38q22 12 53 19q48 10 90 10h10q3 10 3 17q0 27 -41 27q-33 0 -86 -25l-25 78q59 34 148 34q59 0 90 -27.5t31 -79.5q0 -15 -3 -33l-38 -195h-108l7 39h-2q-13 -19 -39 -32.5t-54 -13.5zM233 472q18 0 34 14t19 31
l1 5h-10q-64 0 -64 -35q0 -15 20 -15zM361 268h-304l16 85h305z" />
    <glyph glyph-name="guillemotleft" unicode="&#xab;" horiz-adv-x="664" 
d="M571 77h-153l-130 205l213 206h167l-227 -213zM311 77h-153l-130 205l191 206h164l-202 -213z" />
    <glyph glyph-name="logicalnot" unicode="&#xac;" horiz-adv-x="652" 
d="M436 337h-371v130h506v-335h-135v205z" />
    <glyph glyph-name="uni00AD" unicode="&#xad;" horiz-adv-x="433" 
d="M356 212h-314l29 150h314z" />
    <glyph glyph-name="registered" unicode="&#xae;" horiz-adv-x="820" 
d="M420 726q150 0 257 -108q106 -106 106 -260q0 -153 -106 -262q-107 -108 -257 -108q-148 0 -254 108q-105 110 -105 262q0 154 105 260q105 108 254 108zM174 358q0 -111 71 -190q71 -77 175 -77q106 0 178 77q73 77 73 190q0 112 -73 188q-72 77 -178 77
q-104 0 -175 -77t-71 -188zM398 187h-108v347h163q56 0 89 -31t33 -84q0 -34 -18.5 -58.5t-39.5 -30.5v-2q3 -2 13 -20l63 -121h-118l-49 118h-28v-118zM398 460v-83h27q40 0 40 42q0 41 -38 41h-29z" />
    <glyph glyph-name="overscore" unicode="&#xaf;" horiz-adv-x="485" 
d="M317 782h-275l22 112h275z" />
    <glyph glyph-name="degree" unicode="&#xb0;" horiz-adv-x="437" 
d="M85 540q0 74 60 132q61 58 135 58t121 -45q48 -43 48 -111q0 -75 -61 -132q-62 -57 -135 -57q-74 0 -121 44t-47 111zM323 563q0 21 -14 34t-37 13q-24 0 -42.5 -18.5t-18.5 -41.5q0 -20 13.5 -32.5t36.5 -12.5q24 0 43 17.5t19 40.5z" />
    <glyph glyph-name="plusminus" unicode="&#xb1;" horiz-adv-x="600" 
d="M332 0h-136v222h-205v130h205v223h136v-223h205v-130h-205v-222zM1 -200v130h526v-130h-526z" />
    <glyph glyph-name="twosuperior" unicode="&#xb2;" 
d="M390 423h-327q0 55 18 98q12 28 31 50.5t34 34t43 29.5q19 12 58 31.5t54 33t15 32.5q0 12 -11.5 19.5t-27.5 7.5q-33 0 -80 -45l-75 78q79 82 166 82q64 0 111 -34q48 -33 48 -95q0 -41 -21 -73.5t-52 -53t-62.5 -35.5t-56.5 -28t-30 -24h186z" />
    <glyph glyph-name="threesuperior" unicode="&#xb3;" 
d="M223 413q-100 0 -162 68l72 83q29 -36 91 -36q27 0 43.5 12.5t16.5 32.5q0 15 -15 24t-40 9h-37l-18 57l74 69l28 23v2q-28 -2 -34 -2h-103l21 109h294l-15 -79l-99 -92q35 -12 54.5 -43.5t19.5 -72.5q0 -65 -52 -114q-53 -50 -139 -50z" />
    <glyph glyph-name="acute" unicode="&#xb4;" horiz-adv-x="484" 
d="M184 761h-140l111 150h177z" />
    <glyph glyph-name="mu" unicode="&#xb5;" horiz-adv-x="633" 
d="M139 -96l-20 -104h-147l139 715h173l-58 -296q-3 -18 -3 -30q0 -44 46 -44q47 0 85 42q39 44 49 100l44 228h173l-100 -515h-167l5 26l13 51h-2q-24 -38 -70 -63.5t-96 -25.5q-23 0 -53 5h-2q-1 -48 -9 -89z" />
    <glyph glyph-name="mu" unicode="&#x3bc;" horiz-adv-x="633" 
d="M139 -96l-20 -104h-147l139 715h173l-58 -296q-3 -18 -3 -30q0 -44 46 -44q47 0 85 42q39 44 49 100l44 228h173l-100 -515h-167l5 26l13 51h-2q-24 -38 -70 -63.5t-96 -25.5q-23 0 -53 5h-2q-1 -48 -9 -89z" />
    <glyph glyph-name="paragraph" unicode="&#xb6;" horiz-adv-x="678" 
d="M322 -50h-120l57 291q-75 0 -134 60q-58 61 -58 150q0 107 83 185q82 79 186 79h372l-29 -150h-237zM504 -50h-120l110 565h120z" />
    <glyph glyph-name="middot" unicode="&#xb7;" horiz-adv-x="278" 
d="M201 213h-158l31 164h158z" />
    <glyph glyph-name="cedilla" unicode="&#xb8;" horiz-adv-x="484" 
d="M106 -82l57 111l70 -17l-21 -48q62 -14 62 -66q0 -56 -41 -82t-91 -26q-39 0 -75 9l16 85q18 -8 44 -8q43 0 43 26q0 18 -37 18q-1 0 -27 -2z" />
    <glyph glyph-name="onesuperior" unicode="&#xb9;" 
d="M388 423h-305l21 108h89l26 136l10 32h-2q-8 -12 -14 -15l-27 -20l-59 84l148 116h108l-64 -333h90z" />
    <glyph glyph-name="ordmasculine" unicode="&#xba;" horiz-adv-x="477" 
d="M266 385q-72 0 -117 40t-45 106q0 83 63 138q64 56 144 56q72 0 117 -40t45 -106q0 -84 -63 -139q-62 -55 -144 -55zM276 488q31 0 54 23.5t23 58.5q0 24 -14.5 38.5t-36.5 14.5q-30 0 -54 -24.5t-24 -59.5q0 -24 14 -37.5t38 -13.5zM402 268h-338l17 85h338z" />
    <glyph glyph-name="guillemotright" unicode="&#xbb;" horiz-adv-x="664" 
d="M439 77h-164l202 213l-130 198h153l130 -205zM157 77h-167l227 213l-130 198h153l130 -205z" />
    <glyph glyph-name="onequarter" unicode="&#xbc;" horiz-adv-x="1020" 
d="M874 0h-124l17 87h-196l15 84l216 270h157l-48 -247h53l-20 -107h-53zM717 196v-2h70l18 90l14 50h-2q-13 -27 -30 -46zM356 274h-305l21 108h89l26 136l10 32h-2q-8 -12 -14 -15l-27 -20l-59 84l148 116h108l-64 -333h90zM818 715l-474 -715h-126l474 715h126z" />
    <glyph glyph-name="onehalf" unicode="&#xbd;" horiz-adv-x="1010" 
d="M914 0h-327q0 54 18 98q12 28 31 50.5t34 34t43 29.5q19 12 58 31.5t54 33t15 32.5q0 12 -11.5 19.5t-27.5 7.5q-33 0 -80 -45l-75 78q79 82 166 82q64 0 111 -34q48 -33 48 -95q0 -41 -21 -73.5t-52 -53t-62.5 -35.5t-56.5 -28t-30 -24h186zM354 274h-305l21 108h89
l26 136l10 32h-2q-8 -12 -14 -15l-27 -20l-59 84l148 116h108l-64 -333h90zM820 715l-474 -715h-126l474 715h126z" />
    <glyph glyph-name="threequarters" unicode="&#xbe;" horiz-adv-x="1023" 
d="M876 0h-124l17 87h-196l15 84l216 270h157l-48 -247h53l-20 -107h-53zM719 196v-2h70l18 90l14 50h-2q-13 -27 -30 -46zM203 264q-100 0 -162 68l72 83q29 -36 91 -36q27 0 43.5 12.5t16.5 32.5q0 15 -15 24t-40 9h-37l-18 57l74 69l28 23v2q-28 -2 -34 -2h-103l21 109
h294l-15 -79l-99 -92q35 -12 54.5 -43.5t19.5 -72.5q0 -65 -52 -114q-53 -50 -139 -50zM820 715l-474 -715h-126l474 715h126z" />
    <glyph glyph-name="questiondown" unicode="&#xbf;" horiz-adv-x="512" 
d="M381 365h-158l29 150h158zM-23 -30q0 94 74 157q14 11 59 43.5t65.5 52.5t24.5 40l6 31h166l-8 -45q-8 -45 -40.5 -85.5t-72.5 -64.5q-92 -57 -92 -103q0 -22 17 -35.5t43 -13.5q45 0 103 43l79 -127q-37 -29 -96 -51q-57 -22 -114 -22q-88 0 -151 48t-63 132z" />
    <glyph glyph-name="Agrave" unicode="&#xc0;" horiz-adv-x="668" 
d="M130 0h-187l372 715h201l99 -715h-175l-15 150h-223zM338 429l-68 -139h141l-14 139l-6 123h-2q-29 -78 -51 -123zM482 761h-128l-88 150h165z" />
    <glyph glyph-name="Aacute" unicode="&#xc1;" horiz-adv-x="668" 
d="M130 0h-187l372 715h201l99 -715h-175l-15 150h-223zM338 429l-68 -139h141l-14 139l-6 123h-2q-29 -78 -51 -123zM491 761h-140l111 150h177z" />
    <glyph glyph-name="Acircumflex" unicode="&#xc2;" horiz-adv-x="668" 
d="M130 0h-187l372 715h201l99 -715h-175l-15 150h-223zM338 429l-68 -139h141l-14 139l-6 123h-2q-29 -78 -51 -123zM378 761h-140l129 150h168l69 -150h-130l-31 82h-2z" />
    <glyph glyph-name="Atilde" unicode="&#xc3;" horiz-adv-x="668" 
d="M130 0h-187l372 715h201l99 -715h-175l-15 150h-223zM338 429l-68 -139h141l-14 139l-6 123h-2q-29 -78 -51 -123zM346 761h-113q31 153 149 153q21 0 38 -9.5t26.5 -20.5t21 -20.5t22.5 -9.5q34 0 44 57h113q-30 -153 -148 -153q-29 0 -64 30t-45 30q-32 0 -44 -57z" />
    <glyph glyph-name="Adieresis" unicode="&#xc4;" horiz-adv-x="668" 
d="M130 0h-187l372 715h201l99 -715h-175l-15 150h-223zM338 429l-68 -139h141l-14 139l-6 123h-2q-29 -78 -51 -123zM596 771h-126l28 140h126zM387 771h-126l28 140h126z" />
    <glyph glyph-name="Aring" unicode="&#xc5;" horiz-adv-x="668" 
d="M130 0h-187l372 715h201l99 -715h-175l-15 150h-223zM338 429l-68 -139h141l-14 139l-6 123h-2q-29 -78 -51 -123zM428 747q-43 0 -71 19.5t-28 53.5q0 47 37 72q38 26 85 26q44 0 72 -20t28 -56q0 -46 -39 -71q-38 -24 -84 -24zM433 797q18 0 30.5 12.5t12.5 30.5
q0 28 -29 28q-18 0 -30 -12.5t-12 -32.5q0 -26 28 -26z" />
    <glyph glyph-name="AE" unicode="&#xc6;" horiz-adv-x="963" 
d="M130 0h-194l432 715h626l-29 -150h-273l-25 -130h218l-30 -150h-218l-26 -135h286l-29 -150h-461l56 288h-166zM458 565l-80 -137h112l26 137h-58z" />
    <glyph glyph-name="Ccedilla" unicode="&#xc7;" horiz-adv-x="717" 
d="M261 -82l39 77q-120 23 -187 105q-68 85 -68 205q0 173 124 297q125 125 296 125q82 0 155.5 -26.5t120.5 -76.5l-99 -120q-74 63 -171 63q-111 0 -178 -78q-67 -77 -67 -172q0 -75 43.5 -122t122.5 -47q103 0 209 85l68 -139q-50 -45 -131 -76q-80 -30 -156 -30h-5
l-10 -24q62 -14 62 -66q0 -56 -41 -82t-91 -26q-39 0 -75 9l16 85q18 -8 44 -8q43 0 43 26q0 18 -37 18q-1 0 -27 -2z" />
    <glyph glyph-name="Egrave" unicode="&#xc8;" horiz-adv-x="575" 
d="M480 0h-462l140 715h447l-29 -150h-273l-25 -130h217l-30 -150h-217l-26 -135h287zM454 761h-128l-88 150h165z" />
    <glyph glyph-name="Eacute" unicode="&#xc9;" horiz-adv-x="575" 
d="M480 0h-462l140 715h447l-29 -150h-273l-25 -130h217l-30 -150h-217l-26 -135h287zM463 761h-140l111 150h177z" />
    <glyph glyph-name="Ecircumflex" unicode="&#xca;" horiz-adv-x="575" 
d="M480 0h-462l140 715h447l-29 -150h-273l-25 -130h217l-30 -150h-217l-26 -135h287zM350 761h-140l129 150h168l69 -150h-130l-31 82h-2z" />
    <glyph glyph-name="Edieresis" unicode="&#xcb;" horiz-adv-x="575" 
d="M480 0h-462l140 715h447l-29 -150h-273l-25 -130h217l-30 -150h-217l-26 -135h287zM568 771h-126l28 140h126zM359 771h-126l28 140h126z" />
    <glyph glyph-name="Igrave" unicode="&#xcc;" horiz-adv-x="327" 
d="M193 0h-175l139 715h175zM310 761h-128l-88 150h165z" />
    <glyph glyph-name="Iacute" unicode="&#xcd;" horiz-adv-x="327" 
d="M193 0h-175l139 715h175zM318 761h-140l111 150h177z" />
    <glyph glyph-name="Icircumflex" unicode="&#xce;" horiz-adv-x="327" 
d="M193 0h-175l139 715h175zM205 761h-140l129 150h168l69 -150h-130l-31 82h-2z" />
    <glyph glyph-name="Idieresis" unicode="&#xcf;" horiz-adv-x="327" 
d="M423 771h-126l28 140h126zM214 771h-126l28 140h126zM193 0h-175l139 715h175z" />
    <glyph glyph-name="Eth" unicode="&#xd0;" horiz-adv-x="742" 
d="M302 0h-279l55 284h-57l27 140h57l56 291h229q156 0 243.5 -74.5t87.5 -208.5q0 -183 -118 -307q-119 -125 -301 -125zM253 284l-26 -134h72q107 0 175 77q67 76 67 189q0 72 -42.5 110.5t-118.5 38.5h-72l-28 -141h104l-27 -140h-104z" />
    <glyph glyph-name="Ntilde" unicode="&#xd1;" horiz-adv-x="749" 
d="M193 0h-175l139 715h170l133 -334q13 -34 31 -102l5 -20h2q8 82 16 122l65 334h175l-139 -715h-169l-134 333q-16 42 -32 102l-5 20h-2q-6 -77 -15 -122zM383 761h-113q32 153 149 153q21 0 38 -9.5t26.5 -20.5t21 -20.5t22.5 -9.5q33 0 44 57h113q-30 -153 -148 -153
q-29 0 -64 30t-45 30q-32 0 -44 -57z" />
    <glyph glyph-name="Ograve" unicode="&#xd2;" horiz-adv-x="820" 
d="M44 307q0 111 58 208q59 98 156 155t205 57q153 0 244 -88q93 -87 93 -224q0 -113 -60 -212q-58 -98 -156 -157q-97 -58 -204 -58q-152 0 -244 89q-92 90 -92 230zM224 317q0 -75 44 -122t114 -47q90 0 164 75q73 76 73 181q0 73 -44 118t-114 45q-91 0 -165 -74
q-72 -73 -72 -176zM555 761h-128l-88 150h165z" />
    <glyph glyph-name="Oacute" unicode="&#xd3;" horiz-adv-x="820" 
d="M44 307q0 111 58 208q59 98 156 155t205 57q153 0 244 -88q93 -87 93 -224q0 -113 -60 -212q-58 -98 -156 -157q-97 -58 -204 -58q-152 0 -244 89q-92 90 -92 230zM224 317q0 -75 44 -122t114 -47q90 0 164 75q73 76 73 181q0 73 -44 118t-114 45q-91 0 -165 -74
q-72 -73 -72 -176zM564 761h-140l111 150h177z" />
    <glyph glyph-name="Ocircumflex" unicode="&#xd4;" horiz-adv-x="820" 
d="M44 307q0 111 58 208q59 98 156 155t205 57q153 0 244 -88q93 -87 93 -224q0 -113 -60 -212q-58 -98 -156 -157q-97 -58 -204 -58q-152 0 -244 89q-92 90 -92 230zM224 317q0 -75 44 -122t114 -47q90 0 164 75q73 76 73 181q0 73 -44 118t-114 45q-91 0 -165 -74
q-72 -73 -72 -176zM451 761h-140l129 150h168l69 -150h-130l-31 82h-2z" />
    <glyph glyph-name="Otilde" unicode="&#xd5;" horiz-adv-x="820" 
d="M44 307q0 111 58 208q59 98 156 155t205 57q153 0 244 -88q93 -87 93 -224q0 -113 -60 -212q-58 -98 -156 -157q-97 -58 -204 -58q-152 0 -244 89q-92 90 -92 230zM224 317q0 -75 44 -122t114 -47q90 0 164 75q73 76 73 181q0 73 -44 118t-114 45q-91 0 -165 -74
q-72 -73 -72 -176zM419 761h-113q32 153 149 153q21 0 38 -9.5t26.5 -20.5t21 -20.5t22.5 -9.5q33 0 44 57h113q-30 -153 -148 -153q-29 0 -64 30t-45 30q-32 0 -44 -57z" />
    <glyph glyph-name="Odieresis" unicode="&#xd6;" horiz-adv-x="820" 
d="M44 307q0 111 58 208q59 98 156 155t205 57q153 0 244 -88q93 -87 93 -224q0 -113 -60 -212q-58 -98 -156 -157q-97 -58 -204 -58q-152 0 -244 89q-92 90 -92 230zM224 317q0 -75 44 -122t114 -47q90 0 164 75q73 76 73 181q0 73 -44 118t-114 45q-91 0 -165 -74
q-72 -73 -72 -176zM669 771h-126l28 140h126zM460 771h-126l28 140h126z" />
    <glyph glyph-name="multiply" unicode="&#xd7;" horiz-adv-x="600" 
d="M118 0l-92 92l182 195l-182 196l92 92l179 -192l180 192l92 -92l-183 -196l183 -195l-92 -92l-180 192z" />
    <glyph glyph-name="Oslash" unicode="&#xd8;" horiz-adv-x="820" 
d="M111 -28l-65 53l69 74q-71 86 -71 208q0 111 58 208q59 98 156 155t205 57q109 0 191 -48l59 64l65 -52l-59 -64q81 -84 81 -212q0 -113 -60 -212q-58 -98 -156 -157q-97 -58 -204 -58q-118 0 -203 56zM241 235l293 316q-33 16 -73 16q-91 0 -165 -74q-72 -73 -72 -176
q0 -45 17 -82zM596 494l-300 -323q38 -23 86 -23q90 0 164 75q73 76 73 181q0 49 -23 90z" />
    <glyph glyph-name="Ugrave" unicode="&#xd9;" horiz-adv-x="734" 
d="M56 210q0 28 6 58l87 447h175l-88 -452q-3 -15 -3 -28q0 -42 28 -64.5t77 -22.5q58 0 96.5 29.5t49.5 85.5l88 452h175l-89 -457q-24 -123 -112 -196q-88 -74 -214 -74q-117 0 -197 59q-79 58 -79 163zM513 761h-128l-88 150h165z" />
    <glyph glyph-name="Uacute" unicode="&#xda;" horiz-adv-x="734" 
d="M56 210q0 28 6 58l87 447h175l-88 -452q-3 -15 -3 -28q0 -42 28 -64.5t77 -22.5q58 0 96.5 29.5t49.5 85.5l88 452h175l-89 -457q-24 -123 -112 -196q-88 -74 -214 -74q-117 0 -197 59q-79 58 -79 163zM522 761h-140l111 150h177z" />
    <glyph glyph-name="Ucircumflex" unicode="&#xdb;" horiz-adv-x="734" 
d="M56 210q0 28 6 58l87 447h175l-88 -452q-3 -15 -3 -28q0 -42 28 -64.5t77 -22.5q58 0 96.5 29.5t49.5 85.5l88 452h175l-89 -457q-24 -123 -112 -196q-88 -74 -214 -74q-117 0 -197 59q-79 58 -79 163zM409 761h-140l129 150h168l69 -150h-130l-31 82h-2z" />
    <glyph glyph-name="Udieresis" unicode="&#xdc;" horiz-adv-x="734" 
d="M56 210q0 28 6 58l87 447h175l-88 -452q-3 -15 -3 -28q0 -42 28 -64.5t77 -22.5q58 0 96.5 29.5t49.5 85.5l88 452h175l-89 -457q-24 -123 -112 -196q-88 -74 -214 -74q-117 0 -197 59q-79 58 -79 163zM627 771h-126l28 140h126zM418 771h-126l28 140h126z" />
    <glyph glyph-name="Yacute" unicode="&#xdd;" horiz-adv-x="625" 
d="M337 0h-175l57 293l-149 422h189l48 -172l23 -103h2l63 103l109 172h210l-322 -429zM461 761h-140l111 150h177z" />
    <glyph glyph-name="Thorn" unicode="&#xde;" horiz-adv-x="631" 
d="M193 0h-175l139 715h175l-21 -106h99q99 0 156 -54.5t57 -148.5q0 -122 -81 -207q-80 -84 -193 -84h-134zM282 459l-37 -194h85q50 0 81.5 35t31.5 90q0 33 -18.5 51t-53.5 18h-89z" />
    <glyph glyph-name="germandbls" unicode="&#xdf;" horiz-adv-x="626" 
d="M174 0h-173l104 537q16 90 94 140q77 50 173 50q94 0 156 -47q63 -46 63 -122q0 -37 -15.5 -69.5t-37.5 -49.5q-52 -44 -52 -70q0 -31 48 -77q49 -45 49 -107q0 -80 -65 -136t-150 -56q-82 0 -135 21l28 139q36 -16 91 -16q24 0 41 12t17 35q0 18 -15.5 38.5t-34.5 37
t-34.5 42.5t-15.5 54q0 34 16.5 64.5t37 48t37 37t16.5 35.5q0 19 -14.5 30.5t-38.5 11.5q-76 0 -90 -68z" />
    <glyph glyph-name="agrave" unicode="&#xe0;" horiz-adv-x="547" 
d="M-8 124q0 53 31 93.5t83 62.5q101 41 213 41h8q3 13 3 21q0 45 -66 45q-53 0 -149 -47l-37 130q31 18 97 38q63 19 123 19q36 0 69 -8t65 -25.5t51 -51t19 -79.5q0 -17 -5 -50l-60 -313h-158l6 31l9 32h-2q-24 -31 -64.5 -53t-87.5 -22q-62 0 -105 36q-43 37 -43 100z
M161 153q0 -36 43 -36q33 0 64 28q32 29 38 61l3 16h-18q-37 0 -78 -12q-24 -6 -38 -21t-14 -36zM377 565h-128l-88 150h165z" />
    <glyph glyph-name="aacute" unicode="&#xe1;" horiz-adv-x="547" 
d="M-8 124q0 53 31 93.5t83 62.5q101 41 213 41h8q3 13 3 21q0 45 -66 45q-53 0 -149 -47l-37 130q31 18 97 38q63 19 123 19q36 0 69 -8t65 -25.5t51 -51t19 -79.5q0 -17 -5 -50l-60 -313h-158l6 31l9 32h-2q-24 -31 -64.5 -53t-87.5 -22q-62 0 -105 36q-43 37 -43 100z
M161 153q0 -36 43 -36q33 0 64 28q32 29 38 61l3 16h-18q-37 0 -78 -12q-24 -6 -38 -21t-14 -36zM386 565h-140l111 150h177z" />
    <glyph glyph-name="acircumflex" unicode="&#xe2;" horiz-adv-x="547" 
d="M-8 124q0 53 31 93.5t83 62.5q101 41 213 41h8q3 13 3 21q0 45 -66 45q-53 0 -149 -47l-37 130q31 18 97 38q63 19 123 19q36 0 69 -8t65 -25.5t51 -51t19 -79.5q0 -17 -5 -50l-60 -313h-158l6 31l9 32h-2q-24 -31 -64.5 -53t-87.5 -22q-62 0 -105 36q-43 37 -43 100z
M161 153q0 -36 43 -36q33 0 64 28q32 29 38 61l3 16h-18q-37 0 -78 -12q-24 -6 -38 -21t-14 -36zM273 565h-140l129 150h168l69 -150h-130l-31 82h-2z" />
    <glyph glyph-name="atilde" unicode="&#xe3;" horiz-adv-x="547" 
d="M-8 124q0 53 31 93.5t83 62.5q101 41 213 41h8q3 13 3 21q0 45 -66 45q-53 0 -149 -47l-37 130q31 18 97 38q63 19 123 19q36 0 69 -8t65 -25.5t51 -51t19 -79.5q0 -17 -5 -50l-60 -313h-158l6 31l9 32h-2q-24 -31 -64.5 -53t-87.5 -22q-62 0 -105 36q-43 37 -43 100z
M161 153q0 -36 43 -36q33 0 64 28q32 29 38 61l3 16h-18q-37 0 -78 -12q-24 -6 -38 -21t-14 -36zM241 565h-113q32 153 149 153q21 0 38 -9.5t26.5 -20.5t21 -20.5t22.5 -9.5q33 0 44 57h113q-30 -153 -148 -153q-29 0 -64 30t-45 30q-32 0 -44 -57z" />
    <glyph glyph-name="adieresis" unicode="&#xe4;" horiz-adv-x="547" 
d="M-8 124q0 53 31 93.5t83 62.5q101 41 213 41h8q3 13 3 21q0 45 -66 45q-53 0 -149 -47l-37 130q31 18 97 38q63 19 123 19q36 0 69 -8t65 -25.5t51 -51t19 -79.5q0 -17 -5 -50l-60 -313h-158l6 31l9 32h-2q-24 -31 -64.5 -53t-87.5 -22q-62 0 -105 36q-43 37 -43 100z
M161 153q0 -36 43 -36q33 0 64 28q32 29 38 61l3 16h-18q-37 0 -78 -12q-24 -6 -38 -21t-14 -36zM491 575h-126l28 140h126zM282 575h-126l28 140h126z" />
    <glyph glyph-name="aring" unicode="&#xe5;" horiz-adv-x="547" 
d="M-8 124q0 53 31 93.5t83 62.5q101 41 213 41h8q3 13 3 21q0 45 -66 45q-53 0 -149 -47l-37 130q31 18 97 38q63 19 123 19q36 0 69 -8t65 -25.5t51 -51t19 -79.5q0 -17 -5 -50l-60 -313h-158l6 31l9 32h-2q-24 -31 -64.5 -53t-87.5 -22q-62 0 -105 36q-43 37 -43 100z
M161 153q0 -36 43 -36q33 0 64 28q32 29 38 61l3 16h-18q-37 0 -78 -12q-24 -6 -38 -21t-14 -36zM323 551q-43 0 -71 19.5t-28 53.5q0 47 37 72q38 26 85 26q44 0 72 -20t28 -56q0 -46 -39 -71q-37 -24 -84 -24zM328 601q18 0 30.5 12.5t12.5 30.5q0 28 -29 28
q-18 0 -30 -12.5t-12 -32.5q0 -26 28 -26z" />
    <glyph glyph-name="ae" unicode="&#xe6;" horiz-adv-x="852" 
d="M-9 121q0 53 32 95.5t85 64.5q100 42 214 42h7q2 14 2 18q0 46 -65 46q-64 0 -149 -47l-37 130q113 57 220 57q87 0 146 -53h2q73 53 153 53q106 0 163 -54t57 -148q0 -48 -19 -101h-325q0 -14 4 -30q17 -62 97 -62q74 0 153 52l44 -129q-30 -24 -92 -46
q-60 -21 -116 -21q-144 0 -214 91h-2q-13 -21 -50 -52q-49 -39 -139 -39q-71 0 -121 35q-50 36 -50 98zM500 323h152q1 8 1 18q0 25 -14.5 40.5t-40.5 15.5q-69 0 -98 -74zM165 153q0 -33 42 -33q32 0 64 29t38 62l2 13h-16q-18 0 -37 -3t-41.5 -9.5t-37 -22t-14.5 -36.5z
" />
    <glyph glyph-name="ccedilla" unicode="&#xe7;" horiz-adv-x="555" 
d="M162 -82l40 78q-87 18 -135 79.5t-48 148.5q0 118 91 210q92 93 231 93q134 0 210 -76l-87 -108q-47 40 -115 40t-112 -47q-43 -46 -43 -102q0 -44 28 -73t78 -29q66 0 154 62l44 -131q-39 -32 -100 -53t-120 -22l-10 -24q62 -14 62 -66q0 -56 -41 -82t-91 -26
q-39 0 -75 9l16 85q18 -8 44 -8q43 0 43 26q0 18 -37 18q-1 0 -27 -2z" />
    <glyph glyph-name="egrave" unicode="&#xe8;" horiz-adv-x="566" 
d="M19 213q0 135 85 224q86 90 212 90q106 0 163 -54t57 -148q0 -44 -19 -101h-325v-6q0 -39 27 -62.5t74 -23.5q71 0 153 52l44 -129q-34 -26 -93 -47q-60 -20 -115 -20q-127 0 -195 64q-68 65 -68 161zM400 565h-128l-88 150h165zM215 323h152q1 4 1 18q0 27 -14.5 43
t-40.5 16q-69 0 -98 -77z" />
    <glyph glyph-name="eacute" unicode="&#xe9;" horiz-adv-x="566" 
d="M19 213q0 135 85 224q86 90 212 90q106 0 163 -54t57 -148q0 -44 -19 -101h-325v-6q0 -39 27 -62.5t74 -23.5q71 0 153 52l44 -129q-34 -26 -93 -47q-60 -20 -115 -20q-127 0 -195 64q-68 65 -68 161zM409 565h-140l111 150h177zM215 323h152q1 4 1 18q0 27 -14.5 43
t-40.5 16q-69 0 -98 -77z" />
    <glyph glyph-name="ecircumflex" unicode="&#xea;" horiz-adv-x="566" 
d="M19 213q0 135 85 224q86 90 212 90q106 0 163 -54t57 -148q0 -44 -19 -101h-325v-6q0 -39 27 -62.5t74 -23.5q71 0 153 52l44 -129q-34 -26 -93 -47q-60 -20 -115 -20q-127 0 -195 64q-68 65 -68 161zM296 565h-140l129 150h168l69 -150h-130l-31 82h-2zM215 323h152
q1 4 1 18q0 27 -14.5 43t-40.5 16q-69 0 -98 -77z" />
    <glyph glyph-name="edieresis" unicode="&#xeb;" horiz-adv-x="566" 
d="M19 213q0 135 85 224q86 90 212 90q106 0 163 -54t57 -148q0 -44 -19 -101h-325v-6q0 -39 27 -62.5t74 -23.5q71 0 153 52l44 -129q-34 -26 -93 -47q-60 -20 -115 -20q-127 0 -195 64q-68 65 -68 161zM305 575h-126l28 140h126zM514 575h-126l28 140h126zM215 323h152
q1 4 1 18q0 27 -14.5 43t-40.5 16q-69 0 -98 -77z" />
    <glyph glyph-name="igrave" unicode="&#xec;" horiz-adv-x="289" 
d="M173 0h-172l99 515h173zM252 565h-128l-88 150h165z" />
    <glyph glyph-name="iacute" unicode="&#xed;" horiz-adv-x="289" 
d="M173 0h-172l99 515h173zM260 565h-140l111 150h177z" />
    <glyph glyph-name="icircumflex" unicode="&#xee;" horiz-adv-x="289" 
d="M173 0h-172l99 515h173zM148 565h-140l129 150h168l69 -150h-130l-31 82h-2z" />
    <glyph glyph-name="idieresis" unicode="&#xef;" horiz-adv-x="289" 
d="M366 575h-126l28 140h126zM157 575h-126l28 140h126zM173 0h-172l99 515h173z" />
    <glyph glyph-name="eth" unicode="&#xf0;" horiz-adv-x="589" 
d="M15 202q0 103 79 182q80 80 200 80q30 0 66 -12l10 -4h2q-14 36 -62 76l-213 -80l20 98l104 39q-49 25 -90 33l70 124q122 -32 201 -89l188 70l-19 -98l-98 -37q85 -97 85 -237q0 -43 -10 -90t-33.5 -95.5t-57.5 -87t-86.5 -62.5t-115.5 -24q-115 0 -177 61
q-63 61 -63 153zM190 204q0 -72 66 -72q51 0 84 43q34 43 34 94q0 30 -18.5 46.5t-51.5 16.5q-52 0 -83 -37t-31 -91z" />
    <glyph glyph-name="ntilde" unicode="&#xf1;" horiz-adv-x="627" 
d="M174 0h-173l100 515h167l-5 -26l-13 -51h2q23 37 72 62q50 27 100 27q76 0 119 -36.5t43 -109.5q0 -22 -7 -57l-63 -324h-173l58 296q3 18 3 30q0 44 -46 44q-50 0 -90 -42q-40 -43 -50 -100zM291 565h-113q32 153 149 153q21 0 38 -9.5t26.5 -20.5t21 -20.5t22.5 -9.5
q33 0 44 57h113q-30 -153 -148 -153q-29 0 -64 30t-45 30q-32 0 -44 -57z" />
    <glyph glyph-name="ograve" unicode="&#xf2;" horiz-adv-x="640" 
d="M18 219q0 131 97 219q98 89 224 89q118 0 192 -64q75 -63 75 -167q0 -131 -98 -220q-97 -88 -223 -88q-118 0 -193 63q-74 63 -74 168zM193 227q0 -44 26 -69.5t69 -25.5q56 0 99 43q44 44 44 110q0 45 -26 71.5t-68 26.5q-54 0 -99 -45q-45 -44 -45 -111zM428 565h-128
l-88 150h165z" />
    <glyph glyph-name="oacute" unicode="&#xf3;" horiz-adv-x="640" 
d="M18 219q0 131 97 219q98 89 224 89q118 0 192 -64q75 -63 75 -167q0 -131 -98 -220q-97 -88 -223 -88q-118 0 -193 63q-74 63 -74 168zM193 227q0 -44 26 -69.5t69 -25.5q56 0 99 43q44 44 44 110q0 45 -26 71.5t-68 26.5q-54 0 -99 -45q-45 -44 -45 -111zM437 565h-140
l111 150h177z" />
    <glyph glyph-name="ocircumflex" unicode="&#xf4;" horiz-adv-x="640" 
d="M18 219q0 131 97 219q98 89 224 89q118 0 192 -64q75 -63 75 -167q0 -131 -98 -220q-97 -88 -223 -88q-118 0 -193 63q-74 63 -74 168zM193 227q0 -44 26 -69.5t69 -25.5q56 0 99 43q44 44 44 110q0 45 -26 71.5t-68 26.5q-54 0 -99 -45q-45 -44 -45 -111zM324 565h-140
l129 150h168l69 -150h-130l-31 82h-2z" />
    <glyph glyph-name="otilde" unicode="&#xf5;" horiz-adv-x="640" 
d="M18 219q0 131 97 219q98 89 224 89q118 0 192 -64q75 -63 75 -167q0 -131 -98 -220q-97 -88 -223 -88q-118 0 -193 63q-74 63 -74 168zM193 227q0 -44 26 -69.5t69 -25.5q56 0 99 43q44 44 44 110q0 45 -26 71.5t-68 26.5q-54 0 -99 -45q-45 -44 -45 -111zM292 565h-113
q31 153 149 153q21 0 38 -9.5t26.5 -20.5t21 -20.5t22.5 -9.5q34 0 44 57h113q-30 -153 -148 -153q-29 0 -64 30t-45 30q-32 0 -44 -57z" />
    <glyph glyph-name="odieresis" unicode="&#xf6;" horiz-adv-x="640" 
d="M18 219q0 131 97 219q98 89 224 89q118 0 192 -64q75 -63 75 -167q0 -131 -98 -220q-97 -88 -223 -88q-118 0 -193 63q-74 63 -74 168zM193 227q0 -44 26 -69.5t69 -25.5q56 0 99 43q44 44 44 110q0 45 -26 71.5t-68 26.5q-54 0 -99 -45q-45 -44 -45 -111zM542 575h-126
l28 140h126zM333 575h-126l28 140h126z" />
    <glyph glyph-name="divide" unicode="&#xf7;" horiz-adv-x="600" 
d="M371 440h-146v135h146v-135zM571 222h-546v130h546v-130zM371 0h-146v135h146v-135z" />
    <glyph glyph-name="oslash" unicode="&#xf8;" horiz-adv-x="640" 
d="M85 -50l-62 51l57 61q-62 65 -62 157q0 131 97 219q98 89 224 89q83 0 145 -32l60 64l62 -50l-58 -62q58 -62 58 -151q0 -131 -98 -220q-97 -88 -223 -88q-78 0 -138 28zM199 189l175 187q-14 7 -37 7q-54 0 -99 -45q-45 -44 -45 -111q0 -21 6 -38zM427 317l-169 -182
q14 -3 30 -3q56 0 99 43q44 44 44 110q0 15 -4 32z" />
    <glyph glyph-name="ugrave" unicode="&#xf9;" horiz-adv-x="620" 
d="M25 134q0 22 7 57l63 324h173l-58 -296q-3 -18 -3 -30q0 -44 46 -44q47 0 85 42q39 44 49 100l44 228h173l-100 -515h-167l5 26l13 51h-2q-24 -38 -70 -63.5t-96 -25.5q-76 0 -119 36.5t-43 109.5zM415 565h-128l-88 150h165z" />
    <glyph glyph-name="uacute" unicode="&#xfa;" horiz-adv-x="620" 
d="M25 134q0 22 7 57l63 324h173l-58 -296q-3 -18 -3 -30q0 -44 46 -44q47 0 85 42q39 44 49 100l44 228h173l-100 -515h-167l5 26l13 51h-2q-24 -38 -70 -63.5t-96 -25.5q-76 0 -119 36.5t-43 109.5zM424 565h-140l111 150h177z" />
    <glyph glyph-name="ucircumflex" unicode="&#xfb;" horiz-adv-x="620" 
d="M25 134q0 22 7 57l63 324h173l-58 -296q-3 -18 -3 -30q0 -44 46 -44q47 0 85 42q39 44 49 100l44 228h173l-100 -515h-167l5 26l13 51h-2q-24 -38 -70 -63.5t-96 -25.5q-76 0 -119 36.5t-43 109.5zM311 565h-140l129 150h168l69 -150h-130l-31 82h-2z" />
    <glyph glyph-name="udieresis" unicode="&#xfc;" horiz-adv-x="620" 
d="M25 134q0 22 7 57l63 324h173l-58 -296q-3 -18 -3 -30q0 -44 46 -44q47 0 85 42q39 44 49 100l44 228h173l-100 -515h-167l5 26l13 51h-2q-24 -38 -70 -63.5t-96 -25.5q-76 0 -119 36.5t-43 109.5zM529 575h-126l28 140h126zM320 575h-126l28 140h126z" />
    <glyph glyph-name="yacute" unicode="&#xfd;" horiz-adv-x="567" 
d="M-79 -170l75 120q20 -16 51 -16q62 0 93 52l15 24l-121 505h180l42 -255l5 -76h2q19 49 31 73l115 258h194l-322 -570q-44 -76 -103.5 -115.5t-121.5 -39.5q-74 0 -135 40zM400 565h-140l111 150h177z" />
    <glyph glyph-name="thorn" unicode="&#xfe;" horiz-adv-x="633" 
d="M172 -2l-38 -198h-172l177 915h170l-40 -208l-9 -33h2q56 53 137 53q92 0 145.5 -60.5t53.5 -163.5q0 -134 -86 -225q-86 -90 -196 -90q-38 0 -75 14.5t-60 39.5h-2q-1 -8 -7 -44zM214 222q0 -41 20.5 -66t59.5 -25q48 0 89 44q40 43 40 115q0 42 -21.5 66.5t-58.5 24.5
q-45 0 -87 -45q-42 -44 -42 -114z" />
    <glyph glyph-name="ydieresis" unicode="&#xff;" horiz-adv-x="567" 
d="M-79 -170l75 120q20 -16 51 -16q62 0 93 52l15 24l-121 505h180l42 -255l5 -76h2q19 49 31 73l115 258h194l-322 -570q-44 -76 -103.5 -115.5t-121.5 -39.5q-74 0 -135 40zM505 575h-126l28 140h126zM296 575h-126l28 140h126z" />
    <glyph glyph-name="Amacron" unicode="&#x100;" horiz-adv-x="668" 
d="M130 0h-187l372 715h201l99 -715h-175l-15 150h-223zM338 429l-68 -139h141l-14 139l-6 123h-2q-29 -78 -51 -123zM568 782h-275l22 112h275z" />
    <glyph glyph-name="amacron" unicode="&#x101;" horiz-adv-x="547" 
d="M-8 124q0 53 31 93.5t83 62.5q101 41 213 41h8q3 13 3 21q0 45 -66 45q-53 0 -149 -47l-37 130q31 18 97 38q63 19 123 19q36 0 69 -8t65 -25.5t51 -51t19 -79.5q0 -17 -5 -50l-60 -313h-158l6 31l9 32h-2q-24 -31 -64.5 -53t-87.5 -22q-62 0 -105 36q-43 37 -43 100z
M161 153q0 -36 43 -36q33 0 64 28q32 29 38 61l3 16h-18q-37 0 -78 -12q-24 -6 -38 -21t-14 -36zM463 586h-275l22 112h275z" />
    <glyph glyph-name="Abreve" unicode="&#x102;" horiz-adv-x="668" 
d="M130 0h-187l372 715h201l99 -715h-175l-15 150h-223zM338 429l-68 -139h141l-14 139l-6 123h-2q-29 -78 -51 -123zM437 756q-71 0 -117.5 32.5t-46.5 87.5q0 13 5 35h117q-4 -11 -4 -24q0 -22 13.5 -33.5t33.5 -11.5q26 0 46 18t25 51h117q-14 -75 -64.5 -115t-124.5 -40
z" />
    <glyph glyph-name="abreve" unicode="&#x103;" horiz-adv-x="547" 
d="M-8 124q0 53 31 93.5t83 62.5q101 41 213 41h8q3 13 3 21q0 45 -66 45q-53 0 -149 -47l-37 130q31 18 97 38q63 19 123 19q36 0 69 -8t65 -25.5t51 -51t19 -79.5q0 -17 -5 -50l-60 -313h-158l6 31l9 32h-2q-24 -31 -64.5 -53t-87.5 -22q-62 0 -105 36q-43 37 -43 100z
M161 153q0 -36 43 -36q33 0 64 28q32 29 38 61l3 16h-18q-37 0 -78 -12q-24 -6 -38 -21t-14 -36zM332 560q-71 0 -117.5 32.5t-46.5 87.5q0 13 5 35h117q-4 -11 -4 -24q0 -22 13.5 -33.5t33.5 -11.5q26 0 46 18t25 51h117q-14 -75 -64.5 -115t-124.5 -40z" />
    <glyph glyph-name="Aogonek" unicode="&#x104;" horiz-adv-x="668" 
d="M130 0h-187l372 715h201l99 -715q-54 -44 -54 -64q0 -8 8 -13.5t17 -6.5l8 -2l-66 -124q-10 0 -40 9q-31 8 -53 27t-22 48q0 66 87 126h-60l-15 150h-223zM338 429l-68 -139h141l-14 139l-6 123h-2q-29 -78 -51 -123z" />
    <glyph glyph-name="aogonek" unicode="&#x105;" horiz-adv-x="547" 
d="M-8 124q0 53 31 93.5t83 62.5q101 41 213 41h8q3 13 3 21q0 45 -66 45q-53 0 -149 -47l-37 130q31 18 97 38q63 19 123 19q36 0 69 -8t65 -25.5t51 -51t19 -79.5q0 -17 -5 -50l-60 -313q-54 -44 -54 -64q0 -8 8 -13.5t17 -6.5l8 -2l-66 -124q-10 0 -40 9q-31 8 -53 27
t-22 48q0 66 87 126h-43l6 31l9 32h-2q-24 -31 -64.5 -53t-87.5 -22q-62 0 -105 36q-43 37 -43 100zM161 153q0 -36 43 -36q33 0 64 28q32 29 38 61l3 16h-18q-37 0 -78 -12q-24 -6 -38 -21t-14 -36z" />
    <glyph glyph-name="Cacute" unicode="&#x106;" horiz-adv-x="717" 
d="M45 305q0 173 124 297q125 125 296 125q82 0 155.5 -26.5t120.5 -76.5l-99 -120q-74 63 -171 63q-111 0 -178 -78q-67 -77 -67 -172q0 -75 43.5 -122t122.5 -47q103 0 209 85l68 -139q-50 -45 -131 -76q-80 -30 -156 -30q-155 0 -246 88t-91 229zM557 761h-140l111 150
h177z" />
    <glyph glyph-name="cacute" unicode="&#x107;" horiz-adv-x="554" 
d="M19 224q0 118 91 210q92 93 231 93q134 0 210 -76l-87 -108q-47 40 -115 40t-112 -47q-43 -46 -43 -102q0 -44 28 -73t78 -29q66 0 154 62l44 -131q-39 -31 -101 -54q-61 -21 -121 -21q-122 0 -190 66q-67 67 -67 170zM413 565h-140l111 150h177z" />
    <glyph glyph-name="Ccircumflex" unicode="&#x108;" horiz-adv-x="717" 
d="M45 305q0 173 124 297q125 125 296 125q82 0 155.5 -26.5t120.5 -76.5l-99 -120q-74 63 -171 63q-111 0 -178 -78q-67 -77 -67 -172q0 -75 43.5 -122t122.5 -47q103 0 209 85l68 -139q-50 -45 -131 -76q-80 -30 -156 -30q-155 0 -246 88t-91 229zM444 761h-140l129 150
h168l69 -150h-130l-31 82h-2z" />
    <glyph glyph-name="ccircumflex" unicode="&#x109;" horiz-adv-x="554" 
d="M19 224q0 118 91 210q92 93 231 93q134 0 210 -76l-87 -108q-47 40 -115 40t-112 -47q-43 -46 -43 -102q0 -44 28 -73t78 -29q66 0 154 62l44 -131q-39 -31 -101 -54q-61 -21 -121 -21q-122 0 -190 66q-67 67 -67 170zM300 565h-140l129 150h168l69 -150h-130l-31 82h-2z
" />
    <glyph glyph-name="Cdotaccent" unicode="&#x10a;" horiz-adv-x="717" 
d="M45 305q0 173 124 297q125 125 296 125q82 0 155.5 -26.5t120.5 -76.5l-99 -120q-74 63 -171 63q-111 0 -178 -78q-67 -77 -67 -172q0 -75 43.5 -122t122.5 -47q103 0 209 85l68 -139q-50 -45 -131 -76q-80 -30 -156 -30q-155 0 -246 88t-91 229zM568 779h-143l26 132
h143z" />
    <glyph glyph-name="cdotaccent" unicode="&#x10b;" horiz-adv-x="554" 
d="M19 224q0 118 91 210q92 93 231 93q134 0 210 -76l-87 -108q-47 40 -115 40t-112 -47q-43 -46 -43 -102q0 -44 28 -73t78 -29q66 0 154 62l44 -131q-39 -31 -101 -54q-61 -21 -121 -21q-122 0 -190 66q-67 67 -67 170zM424 583h-143l26 132h143z" />
    <glyph glyph-name="Ccaron" unicode="&#x10c;" horiz-adv-x="717" 
d="M45 305q0 173 124 297q125 125 296 125q82 0 155.5 -26.5t120.5 -76.5l-99 -120q-74 63 -171 63q-111 0 -178 -78q-67 -77 -67 -172q0 -75 43.5 -122t122.5 -47q103 0 209 85l68 -139q-50 -45 -131 -76q-80 -30 -156 -30q-155 0 -246 88t-91 229zM581 761h-168l-69 150
h130l31 -82h2l63 82h140z" />
    <glyph glyph-name="ccaron" unicode="&#x10d;" horiz-adv-x="554" 
d="M19 224q0 118 91 210q92 93 231 93q134 0 210 -76l-87 -108q-47 40 -115 40t-112 -47q-43 -46 -43 -102q0 -44 28 -73t78 -29q66 0 154 62l44 -131q-39 -31 -101 -54q-61 -21 -121 -21q-122 0 -190 66q-67 67 -67 170zM437 565h-168l-69 150h130l31 -82h2l63 82h140z" />
    <glyph glyph-name="Dcaron" unicode="&#x10e;" horiz-adv-x="738" 
d="M298 0h-279l138 715h229q156 0 243.5 -74.5t87.5 -208.5q0 -183 -118 -307q-119 -125 -301 -125zM304 565l-81 -415h72q107 0 175 77q67 76 67 189q0 72 -42.5 110.5t-118.5 38.5h-72zM523 761h-168l-69 150h130l31 -82h2l63 82h140z" />
    <glyph glyph-name="dcaron" unicode="&#x10f;" horiz-adv-x="656" 
d="M20 209q0 140 85 228q85 90 204 90q93 0 130 -46h2l3 23l41 211h173l-139 -715h-162l7 34l7 30h-2q-57 -76 -149 -76q-93 0 -146.5 59.5t-53.5 161.5zM195 222q0 -42 22 -66.5t59 -24.5q46 0 86 45q42 46 42 114q0 41 -20.5 66t-59.5 25q-48 0 -89 -44q-40 -43 -40 -115z
M703 715h136v-18q0 -38 -11.5 -69t-41.5 -74h-123q24 43 33 70t9 61q0 2 -0.5 6t-1 11t-0.5 13z" />
    <glyph glyph-name="Dcroat" unicode="&#x110;" horiz-adv-x="742" 
d="M302 0h-279l55 284h-57l27 140h57l56 291h229q156 0 243.5 -74.5t87.5 -208.5q0 -183 -118 -307q-119 -125 -301 -125zM253 284l-26 -134h72q107 0 175 77q67 76 67 189q0 72 -42.5 110.5t-118.5 38.5h-72l-28 -141h104l-27 -140h-104z" />
    <glyph glyph-name="dslash" unicode="&#x111;" horiz-adv-x="635" 
d="M20 209q0 140 85 228q85 90 204 90q93 0 130 -46h2l3 23l9 50h-125l19 95h125l13 66h173l-13 -66h67l-19 -95h-67l-107 -554h-162l7 34l6 29h-2q-56 -75 -148 -75q-93 0 -146.5 59.5t-53.5 161.5zM195 222q0 -42 22 -66.5t59 -24.5q46 0 86 45q42 46 42 114
q0 41 -20.5 66t-59.5 25q-48 0 -89 -44q-40 -43 -40 -115z" />
    <glyph glyph-name="Emacron" unicode="&#x112;" horiz-adv-x="575" 
d="M480 0h-462l140 715h447l-29 -150h-273l-25 -130h217l-30 -150h-217l-26 -135h287zM540 782h-275l22 112h275z" />
    <glyph glyph-name="emacron" unicode="&#x113;" horiz-adv-x="566" 
d="M19 213q0 135 85 224q86 90 212 90q106 0 163 -54t57 -148q0 -44 -19 -101h-325v-6q0 -39 27 -62.5t74 -23.5q71 0 153 52l44 -129q-34 -26 -93 -47q-60 -20 -115 -20q-127 0 -195 64q-68 65 -68 161zM486 586h-275l22 112h275zM215 323h152q1 4 1 18q0 27 -14.5 43
t-40.5 16q-69 0 -98 -77z" />
    <glyph glyph-name="Ebreve" unicode="&#x114;" horiz-adv-x="575" 
d="M480 0h-462l140 715h447l-29 -150h-273l-25 -130h217l-30 -150h-217l-26 -135h287zM409 756q-71 0 -117.5 32.5t-46.5 87.5q0 13 5 35h117q-4 -11 -4 -24q0 -22 13.5 -33.5t33.5 -11.5q26 0 46 18t25 51h117q-14 -75 -64.5 -115t-124.5 -40z" />
    <glyph glyph-name="ebreve" unicode="&#x115;" horiz-adv-x="566" 
d="M19 213q0 135 85 224q86 90 212 90q106 0 163 -54t57 -148q0 -44 -19 -101h-325v-6q0 -39 27 -62.5t74 -23.5q71 0 153 52l44 -129q-34 -26 -93 -47q-60 -20 -115 -20q-127 0 -195 64q-68 65 -68 161zM355 560q-71 0 -117.5 32.5t-46.5 87.5q0 13 5 35h117q-4 -11 -4 -24
q0 -22 13.5 -33.5t33.5 -11.5q26 0 46 18t25 51h117q-14 -75 -64.5 -115t-124.5 -40zM215 323h152q1 4 1 18q0 27 -14.5 43t-40.5 16q-69 0 -98 -77z" />
    <glyph glyph-name="Edotaccent" unicode="&#x116;" horiz-adv-x="575" 
d="M480 0h-462l140 715h447l-29 -150h-273l-25 -130h217l-30 -150h-217l-26 -135h287zM474 779h-143l26 132h143z" />
    <glyph glyph-name="edotaccent" unicode="&#x117;" horiz-adv-x="566" 
d="M19 213q0 135 85 224q86 90 212 90q106 0 163 -54t57 -148q0 -44 -19 -101h-325v-6q0 -39 27 -62.5t74 -23.5q71 0 153 52l44 -129q-34 -26 -93 -47q-60 -20 -115 -20q-127 0 -195 64q-68 65 -68 161zM420 583h-143l26 132h143zM215 323h152q1 4 1 18q0 27 -14.5 43
t-40.5 16q-69 0 -98 -77z" />
    <glyph glyph-name="Eogonek" unicode="&#x118;" horiz-adv-x="575" 
d="M363 0h-345l140 715h447l-29 -150h-273l-25 -130h217l-30 -150h-217l-26 -135h287l-29 -150q-56 -45 -56 -64q0 -8 8.5 -13.5t18.5 -6.5l9 -2l-66 -124q-10 0 -40 9q-31 8 -53 27t-22 48q0 62 84 124v2z" />
    <glyph glyph-name="eogonek" unicode="&#x119;" horiz-adv-x="567" 
d="M19 213q0 135 85 224q86 90 212 90q106 0 163 -54t57 -148q0 -30 -14 -86l-5 -15h-323q-1 -3 -1 -12q0 -36 27 -58t73 -22q31 0 69 12.5t62 26.5l22 13l44 -129q-3 -3 -47 -28q-94 -54 -94 -91q0 -8 9 -13.5t20 -6.5l9 -2l-66 -124q-10 0 -40 9q-31 8 -53 27t-22 48
q0 59 71 112v2q-125 2 -191 65q-67 64 -67 160zM215 323h152q1 8 1 18q0 25 -14.5 40.5t-40.5 15.5q-69 0 -98 -74z" />
    <glyph glyph-name="Ecaron" unicode="&#x11a;" horiz-adv-x="575" 
d="M480 0h-462l140 715h447l-29 -150h-273l-25 -130h217l-30 -150h-217l-26 -135h287zM487 761h-168l-69 150h130l31 -82h2l63 82h140z" />
    <glyph glyph-name="ecaron" unicode="&#x11b;" horiz-adv-x="566" 
d="M19 213q0 135 85 224q86 90 212 90q106 0 163 -54t57 -148q0 -44 -19 -101h-325v-6q0 -39 27 -62.5t74 -23.5q71 0 153 52l44 -129q-34 -26 -93 -47q-60 -20 -115 -20q-127 0 -195 64q-68 65 -68 161zM433 565h-168l-69 150h130l31 -82h2l63 82h140zM215 323h152
q1 4 1 18q0 27 -14.5 43t-40.5 16q-69 0 -98 -77z" />
    <glyph glyph-name="Gcircumflex" unicode="&#x11c;" horiz-adv-x="773" 
d="M45 304q0 174 124 298q125 125 307 125q73 0 150 -23q75 -22 125 -69l-101 -121q-28 23 -75.5 38t-94.5 15q-120 0 -187 -76q-66 -77 -66 -175q0 -79 47 -123.5t121 -44.5q79 0 155 52l11 55h-101l29 149h256l-79 -404h-146l4 20l7 30h-2q-62 -62 -175 -62
q-126 0 -217 85q-92 86 -92 231zM443 761h-140l129 150h168l69 -150h-130l-31 82h-2z" />
    <glyph glyph-name="gcircumflex" unicode="&#x11d;" horiz-adv-x="624" 
d="M-6 -157l68 124q50 -33 141 -33q121 0 138 99l3 17l4 19h-1q-51 -54 -124 -54q-98 0 -149 60q-51 61 -51 156q0 116 75 206q76 90 200 90q98 0 138 -55h3l2 16l5 27h162l-93 -478q-25 -129 -112 -188q-86 -59 -196 -59q-133 0 -213 53zM198 246q0 -40 20 -63.5t59 -23.5
q53 0 86 47q33 48 33 102q0 75 -83 75q-51 0 -83 -39t-32 -98zM307 565h-140l129 150h168l69 -150h-130l-31 82h-2z" />
    <glyph glyph-name="Gbreve" unicode="&#x11e;" horiz-adv-x="773" 
d="M45 304q0 174 124 298q125 125 307 125q73 0 150 -23q75 -22 125 -69l-101 -121q-28 23 -75.5 38t-94.5 15q-120 0 -187 -76q-66 -77 -66 -175q0 -79 47 -123.5t121 -44.5q79 0 155 52l11 55h-101l29 149h256l-79 -404h-146l4 20l7 30h-2q-62 -62 -175 -62
q-126 0 -217 85q-92 86 -92 231zM502 756q-71 0 -117.5 32.5t-46.5 87.5q0 13 5 35h117q-4 -11 -4 -24q0 -22 13.5 -33.5t33.5 -11.5q26 0 46 18t25 51h117q-14 -75 -64.5 -115t-124.5 -40z" />
    <glyph glyph-name="gbreve" unicode="&#x11f;" horiz-adv-x="624" 
d="M-6 -157l68 124q50 -33 141 -33q121 0 138 99l3 17l4 19h-1q-51 -54 -124 -54q-98 0 -149 60q-51 61 -51 156q0 116 75 206q76 90 200 90q98 0 138 -55h3l2 16l5 27h162l-93 -478q-25 -129 -112 -188q-86 -59 -196 -59q-133 0 -213 53zM198 246q0 -40 20 -63.5t59 -23.5
q53 0 86 47q33 48 33 102q0 75 -83 75q-51 0 -83 -39t-32 -98zM366 560q-71 0 -117.5 32.5t-46.5 87.5q0 13 5 35h117q-4 -11 -4 -24q0 -22 13.5 -33.5t33.5 -11.5q26 0 46 18t25 51h117q-14 -75 -64.5 -115t-124.5 -40z" />
    <glyph glyph-name="Gdotaccent" unicode="&#x120;" horiz-adv-x="773" 
d="M45 304q0 174 124 298q125 125 307 125q73 0 150 -23q75 -22 125 -69l-101 -121q-28 23 -75.5 38t-94.5 15q-120 0 -187 -76q-66 -77 -66 -175q0 -79 47 -123.5t121 -44.5q79 0 155 52l11 55h-101l29 149h256l-79 -404h-146l4 20l7 30h-2q-62 -62 -175 -62
q-126 0 -217 85q-92 86 -92 231zM567 779h-143l26 132h143z" />
    <glyph glyph-name="gdotaccent" unicode="&#x121;" horiz-adv-x="624" 
d="M-6 -157l68 124q50 -33 141 -33q121 0 138 99l3 17l4 19h-1q-51 -54 -124 -54q-98 0 -149 60q-51 61 -51 156q0 116 75 206q76 90 200 90q98 0 138 -55h3l2 16l5 27h162l-93 -478q-25 -129 -112 -188q-86 -59 -196 -59q-133 0 -213 53zM198 246q0 -40 20 -63.5t59 -23.5
q53 0 86 47q33 48 33 102q0 75 -83 75q-51 0 -83 -39t-32 -98zM431 583h-143l26 132h143z" />
    <glyph glyph-name="Gcommaaccent" unicode="&#x122;" horiz-adv-x="773" 
d="M45 304q0 174 124 298q125 125 307 125q73 0 150 -23q75 -22 125 -69l-101 -121q-28 23 -75.5 38t-94.5 15q-120 0 -187 -76q-66 -77 -66 -175q0 -79 47 -123.5t121 -44.5q79 0 155 52l11 55h-101l29 149h256l-79 -404h-146l4 20l7 30h-2q-62 -62 -175 -62
q-126 0 -217 85q-92 86 -92 231zM251 -49h136v-18q0 -38 -11.5 -69t-41.5 -74h-123q24 43 33 70t9 61q0 2 -0.5 6t-1 11t-0.5 13z" />
    <glyph glyph-name="gcommaaccent" unicode="&#x123;" horiz-adv-x="624" 
d="M-6 -157l68 124q50 -33 141 -33q121 0 138 99l3 17l4 19h-1q-51 -54 -124 -54q-98 0 -149 60q-51 61 -51 156q0 116 75 206q76 90 200 90q98 0 138 -55h3l2 16l5 27h162l-93 -478q-25 -129 -112 -188q-86 -59 -196 -59q-133 0 -213 53zM198 246q0 -40 20 -63.5t59 -23.5
q53 0 86 47q33 48 33 102q0 75 -83 75q-51 0 -83 -39t-32 -98zM418 560h-135v18q0 65 53 137h122q-42 -73 -42 -126q0 -2 0.5 -6t1 -10.5t0.5 -12.5z" />
    <glyph glyph-name="Hcircumflex" unicode="&#x124;" horiz-adv-x="762" 
d="M193 0h-175l139 715h175l-56 -286h260l56 286h175l-139 -715h-175l54 280h-260zM423 761h-140l129 150h168l69 -150h-130l-31 82h-2z" />
    <glyph glyph-name="hcircumflex" unicode="&#x125;" horiz-adv-x="627" 
d="M174 0h-173l139 715h173l-44 -226l-10 -44h2q22 35 68 58.5t95 23.5q76 0 119 -36.5t43 -109.5q0 -22 -7 -57l-63 -324h-173l58 296q3 18 3 30q0 44 -46 44q-50 0 -90 -42q-40 -43 -50 -100zM188 761h-140l129 150h168l69 -150h-130l-31 82h-2z" />
    <glyph glyph-name="Hbar" unicode="&#x126;" horiz-adv-x="772" 
d="M199 0h-175l100 517h-61l21 107h61l18 91h175l-18 -91h260l18 91h175l-18 -91h60l-21 -107h-60l-100 -517h-175l54 280h-260zM299 517l-17 -88h260l17 88h-260z" />
    <glyph glyph-name="hbar" unicode="&#x127;" horiz-adv-x="627" 
d="M174 0h-173l107 554h-57l18 95h58l13 66h173l-13 -66h134l-18 -95h-135l-12 -65l-10 -44h2q22 35 68 58.5t95 23.5q76 0 119 -36.5t43 -109.5q0 -22 -7 -57l-63 -324h-173l58 296q3 18 3 30q0 44 -46 44q-50 0 -90 -42q-40 -43 -50 -100z" />
    <glyph glyph-name="Itilde" unicode="&#x128;" horiz-adv-x="327" 
d="M193 0h-175l139 715h175zM173 761h-113q32 153 149 153q21 0 38 -9.5t26.5 -20.5t21 -20.5t22.5 -9.5q33 0 44 57h113q-30 -153 -148 -153q-29 0 -64 30t-45 30q-32 0 -44 -57z" />
    <glyph glyph-name="itilde" unicode="&#x129;" horiz-adv-x="289" 
d="M116 565h-113q31 153 149 153q21 0 38 -9.5t26.5 -20.5t21 -20.5t22.5 -9.5q34 0 44 57h113q-30 -153 -148 -153q-29 0 -64 30t-45 30q-32 0 -44 -57zM173 0h-172l99 515h173z" />
    <glyph glyph-name="Imacron" unicode="&#x12a;" horiz-adv-x="327" 
d="M193 0h-175l139 715h175zM395 782h-275l22 112h275z" />
    <glyph glyph-name="imacron" unicode="&#x12b;" horiz-adv-x="289" 
d="M173 0h-172l99 515h173zM338 586h-275l22 112h275z" />
    <glyph glyph-name="Ibreve" unicode="&#x12c;" horiz-adv-x="327" 
d="M264 756q-71 0 -117.5 32.5t-46.5 87.5q0 13 5 35h117q-4 -11 -4 -24q0 -22 13.5 -33.5t33.5 -11.5q26 0 46 18t25 51h117q-14 -75 -64.5 -115t-124.5 -40zM193 0h-175l139 715h175z" />
    <glyph glyph-name="ibreve" unicode="&#x12d;" horiz-adv-x="289" 
d="M207 560q-71 0 -117.5 32.5t-46.5 87.5q0 13 5 35h117q-4 -11 -4 -24q0 -22 13.5 -33.5t33.5 -11.5q26 0 46 18t25 51h117q-14 -75 -64.5 -115t-124.5 -40zM173 0h-172l99 515h173z" />
    <glyph glyph-name="Iogonek" unicode="&#x12e;" horiz-adv-x="327" 
d="M78 0h-60l139 715h175l-139 -715q-54 -44 -54 -64q0 -8 8 -13.5t17 -6.5l8 -2l-66 -124q-10 0 -40 9q-31 8 -53 27t-22 48q0 66 87 126z" />
    <glyph glyph-name="iogonek" unicode="&#x12f;" horiz-adv-x="289" 
d="M58 0h-57l99 515h173l-100 -515q-54 -44 -54 -64q0 -8 8 -13.5t17 -6.5l8 -2l-66 -124q-10 0 -40 9q-31 8 -53 27t-22 48q0 66 87 126zM284 580h-169l26 135h169z" />
    <glyph glyph-name="Idot" unicode="&#x130;" horiz-adv-x="327" 
d="M193 0h-175l139 715h175zM329 779h-143l26 132h143z" />
    <glyph glyph-name="dotlessi" unicode="&#x131;" horiz-adv-x="289" 
d="M173 0h-172l99 515h173z" />
    <glyph glyph-name="IJ" unicode="&#x132;" horiz-adv-x="681" 
d="M261 -4l30 158q41 0 85 27q44 29 56 89l86 445h175l-87 -447q-25 -131 -97 -196q-33 -30 -74 -47q-72 -29 -174 -29zM193 0h-175l139 715h175z" />
    <glyph glyph-name="ij" unicode="&#x133;" horiz-adv-x="579" 
d="M573 580h-169l26 135h169zM290 4l99 511h173l-102 -526q-24 -124 -117 -164q-74 -33 -147 -33q-28 0 -61 3l28 144q4 -1 22 -1q91 0 105 66zM284 580h-169l26 135h169zM173 0h-172l99 515h173z" />
    <glyph glyph-name="Jcircumflex" unicode="&#x134;" horiz-adv-x="563" 
d="M-3 178q0 25 5 52l8 42h175l-7 -37q-4 -21 -4 -33q0 -54 53 -54q63 0 76 75l67 342h-191l29 150h366l-98 -505q-21 -108 -91 -165q-71 -57 -162 -57q-93 0 -160 50q-66 50 -66 140zM347 761h-140l129 150h168l69 -150h-130l-31 82h-2z" />
    <glyph glyph-name="jcircumflex" unicode="&#x135;" horiz-adv-x="290" 
d="M147 565h-140l129 150h168l69 -150h-130l-31 82h-2zM1 4l99 511h173l-102 -526q-24 -124 -117 -164q-74 -33 -147 -33l-61 3l28 144q6 -1 22 -1q92 0 105 66z" />
    <glyph glyph-name="Kcommaaccent" unicode="&#x136;" horiz-adv-x="682" 
d="M193 0h-175l139 715h175l-54 -276h67l205 276h203l-271 -351v-2l130 -362h-186l-95 290h-82zM216 -49h136v-18q0 -38 -11.5 -69t-41.5 -74h-123q24 43 33 70t9 61q0 2 -0.5 6t-1 11t-0.5 13z" />
    <glyph glyph-name="kcommaaccent" unicode="&#x137;" horiz-adv-x="596" 
d="M174 0h-173l139 715h173l-72 -370h47l136 170h201l-207 -244v-2l115 -269h-183l-75 200h-62zM202 -49h136v-18q0 -38 -11.5 -69t-41.5 -74h-123q24 43 33 70t9 61q0 2 -0.5 6t-1 11t-0.5 13z" />
    <glyph glyph-name="kgreenlandic" unicode="&#x138;" horiz-adv-x="594" 
d="M173 0h-173l101 515h173l-35 -180h49l140 180h201l-215 -254v-2l113 -259h-187l-67 190h-63z" />
    <glyph glyph-name="Lacute" unicode="&#x139;" horiz-adv-x="549" 
d="M484 0h-466l139 715h175l-110 -565h292zM317 761h-140l111 150h177z" />
    <glyph glyph-name="lacute" unicode="&#x13a;" horiz-adv-x="322" 
d="M31 137q0 31 7 63l100 515h173l-96 -496q-5 -25 -5 -39q0 -33 39 -33q14 0 21 1l-29 -150q-30 -3 -47 -3q-163 0 -163 142zM297 761h-140l111 150h177z" />
    <glyph glyph-name="Lcommaaccent" unicode="&#x13b;" horiz-adv-x="549" 
d="M484 0h-466l139 715h175l-110 -565h292zM176 -49h136v-18q0 -38 -11.5 -69t-41.5 -74h-123q24 43 33 70t9 61q0 2 -0.5 6t-1 11t-0.5 13z" />
    <glyph glyph-name="lcommaaccent" unicode="&#x13c;" horiz-adv-x="322" 
d="M31 137q0 31 7 63l100 515h173l-96 -496q-5 -25 -5 -39q0 -33 39 -33q14 0 21 1l-29 -150q-30 -3 -47 -3q-163 0 -163 142zM48 -49h136v-18q0 -38 -11.5 -69t-41.5 -74h-123q24 43 33 70t9 61z" />
    <glyph glyph-name="Lcaron" unicode="&#x13d;" horiz-adv-x="550" 
d="M484 0h-466l139 715h175l-110 -565h292zM402 715h136v-18q0 -38 -11.5 -69t-41.5 -74h-123q24 43 33 70t9 61z" />
    <glyph glyph-name="lcaron" unicode="&#x13e;" horiz-adv-x="342" 
d="M31 137q0 31 7 63l100 515h173l-96 -496q-5 -25 -5 -39q0 -33 39 -33q14 0 21 1l-29 -150q-30 -3 -47 -3q-163 0 -163 142zM358 715h136v-18q0 -38 -11.5 -69t-41.5 -74h-123q24 43 33 70t9 61z" />
    <glyph glyph-name="Ldot" unicode="&#x13f;" horiz-adv-x="552" 
d="M484 0h-466l139 715h175l-110 -565h292zM506 315h-158l31 164h158z" />
    <glyph glyph-name="ldot" unicode="&#x140;" horiz-adv-x="497" 
d="M31 137q0 31 7 63l100 515h173l-96 -496q-5 -25 -5 -39q0 -33 39 -33q14 0 21 1l-29 -150q-30 -3 -47 -3q-163 0 -163 142zM474 315h-158l31 164h158z" />
    <glyph glyph-name="Lslash" unicode="&#x141;" horiz-adv-x="553" 
d="M490 0h-467l39 204l-56 -29l31 166l58 30l67 344h175l-48 -244l113 58l-32 -166l-113 -58l-30 -155h292z" />
    <glyph glyph-name="lslash" unicode="&#x142;" horiz-adv-x="337" 
d="M41 137q0 31 7 63l4 23l-54 -28l32 166l54 28l64 326h173l-44 -226l77 40l-32 -166l-77 -40l-20 -104q-5 -25 -5 -39q0 -33 39 -33q14 0 21 1l-29 -150q-19 -3 -47 -3q-163 0 -163 142z" />
    <glyph glyph-name="Nacute" unicode="&#x143;" horiz-adv-x="749" 
d="M193 0h-175l139 715h170l133 -334q13 -34 31 -102l5 -20h2q8 82 16 122l65 334h175l-139 -715h-169l-134 333q-16 42 -32 102l-5 20h-2q-6 -77 -15 -122zM528 761h-140l111 150h177z" />
    <glyph glyph-name="nacute" unicode="&#x144;" horiz-adv-x="627" 
d="M174 0h-173l100 515h167l-5 -26l-13 -51h2q23 37 72 62q50 27 100 27q76 0 119 -36.5t43 -109.5q0 -22 -7 -57l-63 -324h-173l58 296q3 18 3 30q0 44 -46 44q-50 0 -90 -42q-40 -43 -50 -100zM436 565h-140l111 150h177z" />
    <glyph glyph-name="Ncommaaccent" unicode="&#x145;" horiz-adv-x="749" 
d="M193 0h-175l139 715h170l133 -334q13 -34 31 -102l5 -20h2q8 82 16 122l65 334h175l-139 -715h-169l-134 333q-16 42 -32 102l-5 20h-2q-6 -77 -15 -122zM252 -49h136v-18q0 -38 -11.5 -69t-41.5 -74h-123q24 43 33 70t9 61q0 2 -0.5 6t-1 11t-0.5 13z" />
    <glyph glyph-name="ncommaaccent" unicode="&#x146;" horiz-adv-x="627" 
d="M174 0h-173l100 515h167l-5 -26l-13 -51h2q23 37 72 62q50 27 100 27q76 0 119 -36.5t43 -109.5q0 -22 -7 -57l-63 -324h-173l58 296q3 18 3 30q0 44 -46 44q-50 0 -90 -42q-40 -43 -50 -100zM188 -49h136v-18q0 -38 -11.5 -69t-41.5 -74h-123q24 43 33 70t9 61
q0 2 -0.5 6t-1 11t-0.5 13z" />
    <glyph glyph-name="Ncaron" unicode="&#x147;" horiz-adv-x="749" 
d="M193 0h-175l139 715h170l133 -334q13 -34 31 -102l5 -20h2q8 82 16 122l65 334h175l-139 -715h-169l-134 333q-16 42 -32 102l-5 20h-2q-6 -77 -15 -122zM552 761h-168l-69 150h130l31 -82h2l63 82h140z" />
    <glyph glyph-name="ncaron" unicode="&#x148;" horiz-adv-x="627" 
d="M174 0h-173l100 515h167l-5 -26l-13 -51h2q23 37 72 62q50 27 100 27q76 0 119 -36.5t43 -109.5q0 -22 -7 -57l-63 -324h-173l58 296q3 18 3 30q0 44 -46 44q-50 0 -90 -42q-40 -43 -50 -100zM460 565h-168l-69 150h130l31 -82h2l63 82h140z" />
    <glyph glyph-name="napostrophe" unicode="&#x149;" horiz-adv-x="627" 
d="M174 0h-173l100 515h167l-5 -26l-13 -51h2q23 37 72 62q50 27 100 27q76 0 119 -36.5t43 -109.5q0 -22 -7 -57l-63 -324h-173l58 296q3 18 3 30q0 44 -46 44q-50 0 -90 -42q-40 -43 -50 -100zM44 715h136v-18q0 -38 -11.5 -69t-41.5 -74h-123q24 43 33 70t9 61
q0 2 -0.5 6t-1 11t-0.5 13z" />
    <glyph glyph-name="Eng" unicode="&#x14a;" horiz-adv-x="749" 
d="M193 0h-175l139 715h170l133 -334q13 -34 31 -102l5 -20h2q8 82 16 122l65 334h175l-126 -647q-28 -140 -103 -203q-29 -27 -77 -44q-71 -25 -165 -25l30 158q35 0 71.5 15t56.5 44l-129 320q-16 42 -32 102l-5 20h-2q-6 -77 -15 -122z" />
    <glyph glyph-name="eng" unicode="&#x14b;" horiz-adv-x="627" 
d="M174 0h-173l100 515h167l-5 -26l-13 -51h2q23 37 72 62q50 27 100 27q76 0 119 -36.5t43 -109.5q0 -22 -7 -57l-65 -335q-24 -124 -117 -164q-74 -33 -147 -33l-61 3l28 144q6 -1 22 -1q91 0 105 66l57 292q3 18 3 30q0 44 -46 44q-50 0 -90 -42q-40 -43 -50 -100z" />
    <glyph glyph-name="Omacron" unicode="&#x14c;" horiz-adv-x="820" 
d="M44 307q0 111 58 208q59 98 156 155t205 57q153 0 244 -88q93 -87 93 -224q0 -113 -60 -212q-58 -98 -156 -157q-97 -58 -204 -58q-152 0 -244 89q-92 90 -92 230zM224 317q0 -75 44 -122t114 -47q90 0 164 75q73 76 73 181q0 73 -44 118t-114 45q-91 0 -165 -74
q-72 -73 -72 -176zM641 782h-275l22 112h275z" />
    <glyph glyph-name="omacron" unicode="&#x14d;" horiz-adv-x="640" 
d="M18 219q0 131 97 219q98 89 224 89q118 0 192 -64q75 -63 75 -167q0 -131 -98 -220q-97 -88 -223 -88q-118 0 -193 63q-74 63 -74 168zM193 227q0 -44 26 -69.5t69 -25.5q56 0 99 43q44 44 44 110q0 45 -26 71.5t-68 26.5q-54 0 -99 -45q-45 -44 -45 -111zM514 586h-275
l22 112h275z" />
    <glyph glyph-name="Obreve" unicode="&#x14e;" horiz-adv-x="820" 
d="M44 307q0 111 58 208q59 98 156 155t205 57q153 0 244 -88q93 -87 93 -224q0 -113 -60 -212q-58 -98 -156 -157q-97 -58 -204 -58q-152 0 -244 89q-92 90 -92 230zM224 317q0 -75 44 -122t114 -47q90 0 164 75q73 76 73 181q0 73 -44 118t-114 45q-91 0 -165 -74
q-72 -73 -72 -176zM510 756q-71 0 -117.5 32.5t-46.5 87.5q0 13 5 35h117q-4 -11 -4 -24q0 -22 13.5 -33.5t33.5 -11.5q26 0 46 18t25 51h117q-14 -75 -64.5 -115t-124.5 -40z" />
    <glyph glyph-name="obreve" unicode="&#x14f;" horiz-adv-x="640" 
d="M18 219q0 131 97 219q98 89 224 89q118 0 192 -64q75 -63 75 -167q0 -131 -98 -220q-97 -88 -223 -88q-118 0 -193 63q-74 63 -74 168zM193 227q0 -44 26 -69.5t69 -25.5q56 0 99 43q44 44 44 110q0 45 -26 71.5t-68 26.5q-54 0 -99 -45q-45 -44 -45 -111zM383 560
q-71 0 -117.5 32.5t-46.5 87.5q0 13 5 35h117q-4 -11 -4 -24q0 -22 13.5 -33.5t33.5 -11.5q26 0 46 18t25 51h117q-14 -75 -64.5 -115t-124.5 -40z" />
    <glyph glyph-name="Ohungarumlaut" unicode="&#x150;" horiz-adv-x="820" 
d="M44 307q0 111 58 208q59 98 156 155t205 57q153 0 244 -88q93 -87 93 -224q0 -113 -60 -212q-58 -98 -156 -157q-97 -58 -204 -58q-152 0 -244 89q-92 90 -92 230zM224 317q0 -75 44 -122t114 -47q90 0 164 75q73 76 73 181q0 73 -44 118t-114 45q-91 0 -165 -74
q-72 -73 -72 -176zM654 761h-132l111 150h169zM456 761h-142l106 150h145z" />
    <glyph glyph-name="ohungarumlaut" unicode="&#x151;" horiz-adv-x="640" 
d="M18 219q0 131 97 219q98 89 224 89q118 0 192 -64q75 -63 75 -167q0 -131 -98 -220q-97 -88 -223 -88q-118 0 -193 63q-74 63 -74 168zM193 227q0 -44 26 -69.5t69 -25.5q56 0 99 43q44 44 44 110q0 45 -26 71.5t-68 26.5q-54 0 -99 -45q-45 -44 -45 -111zM527 565h-132
l111 150h169zM329 565h-142l106 150h145z" />
    <glyph glyph-name="OE" unicode="&#x152;" horiz-adv-x="989" 
d="M43 306q0 111 61 208q62 98 159 153q98 56 203 56q36 0 94 -4t71 -4h388l-29 -150h-273l-25 -130h218l-30 -150h-218l-26 -135h288l-29 -150h-388q-10 0 -58.5 -4t-75.5 -4q-143 0 -237 89q-93 89 -93 225zM222 313q0 -74 46 -120q47 -47 120 -47q42 0 74 7l79 409
q-35 7 -70 7q-97 0 -173 -76t-76 -180z" />
    <glyph glyph-name="oe" unicode="&#x153;" horiz-adv-x="974" 
d="M18 219q0 131 97 219q98 89 224 89q119 0 193 -80h2q80 80 190 80q106 0 163 -54t57 -148q0 -48 -19 -101h-325q0 -14 4 -30q17 -62 97 -62q67 0 153 52l44 -129q-35 -26 -94 -47q-60 -20 -114 -20q-128 0 -199 83h-2q-89 -83 -204 -83q-118 0 -193 63q-74 63 -74 168z
M623 323h152q1 4 1 18q0 25 -14.5 40.5t-40.5 15.5q-69 0 -98 -74zM193 227q0 -44 26 -69.5t69 -25.5q56 0 99 43q44 44 44 110q0 45 -26 71.5t-68 26.5q-54 0 -99 -45q-45 -44 -45 -111z" />
    <glyph glyph-name="Racute" unicode="&#x154;" horiz-adv-x="653" 
d="M193 0h-175l139 715h266q62 0 105 -17q107 -44 107 -164q0 -73 -37 -143q-38 -69 -112 -99v-2q8 -13 18 -43l92 -247h-188l-80 241h-88zM303 565l-34 -174h75q49 0 80 29.5t31 80.5q0 30 -19.5 47t-53.5 17h-79zM472 761h-140l111 150h177z" />
    <glyph glyph-name="racute" unicode="&#x155;" horiz-adv-x="428" 
d="M174 0h-173l100 515h166l-17 -87l-8 -32h1q25 53 75 91q50 37 104 37q2 0 6 -0.5t11 -1t13 -0.5l-33 -170q-30 3 -34 3q-30 0 -63 -15q-36 -16 -69.5 -60.5t-44.5 -104.5zM369 565h-140l111 150h177z" />
    <glyph glyph-name="Rcommaaccent" unicode="&#x156;" horiz-adv-x="653" 
d="M193 0h-175l139 715h266q62 0 105 -17q107 -44 107 -164q0 -73 -37 -143q-38 -69 -112 -99v-2q8 -13 18 -43l92 -247h-188l-80 241h-88zM303 565l-34 -174h75q49 0 80 29.5t31 80.5q0 30 -19.5 47t-53.5 17h-79zM216 -49h136v-18q0 -38 -11.5 -69t-41.5 -74h-123
q24 43 33 70t9 61q0 2 -0.5 6t-1 11t-0.5 13z" />
    <glyph glyph-name="rcommaaccent" unicode="&#x157;" horiz-adv-x="428" 
d="M174 0h-173l100 515h166l-17 -87l-8 -32h1q25 53 75 91q50 37 104 37q2 0 6 -0.5t11 -1t13 -0.5l-33 -170q-30 3 -34 3q-30 0 -63 -15q-36 -16 -69.5 -60.5t-44.5 -104.5zM14 -49h136v-18q0 -38 -11.5 -69t-41.5 -74h-123q24 43 33 70t9 61z" />
    <glyph glyph-name="Rcaron" unicode="&#x158;" horiz-adv-x="653" 
d="M193 0h-175l139 715h266q62 0 105 -17q107 -44 107 -164q0 -73 -37 -143q-38 -69 -112 -99v-2q8 -13 18 -43l92 -247h-188l-80 241h-88zM303 565l-34 -174h75q49 0 80 29.5t31 80.5q0 30 -19.5 47t-53.5 17h-79zM496 761h-168l-69 150h130l31 -82h2l63 82h140z" />
    <glyph glyph-name="rcaron" unicode="&#x159;" horiz-adv-x="428" 
d="M174 0h-173l100 515h166l-17 -87l-8 -32h1q25 53 75 91q50 37 104 37q2 0 6 -0.5t11 -1t13 -0.5l-33 -170q-30 3 -34 3q-30 0 -63 -15q-36 -16 -69.5 -60.5t-44.5 -104.5zM393 565h-168l-69 150h130l31 -82h2l63 82h140z" />
    <glyph glyph-name="Sacute" unicode="&#x15a;" horiz-adv-x="580" 
d="M-7 90l104 124q30 -29 76.5 -47t92.5 -18q35 0 60.5 16.5t25.5 46.5q0 17 -20 34t-49.5 31t-64 35t-64 44.5t-49.5 62t-20 85.5q0 100 80 162q79 61 186 61q153 0 244 -83l-94 -129q-27 22 -69.5 36.5t-83.5 14.5q-35 0 -61.5 -17t-26.5 -45q0 -18 20 -35t50 -31
t64.5 -34.5t64.5 -44t50 -62t20 -85.5q0 -93 -76 -159q-77 -65 -190 -65q-75 0 -151 26q-73 25 -119 76zM447 761h-140l111 150h177z" />
    <glyph glyph-name="sacute" unicode="&#x15b;" horiz-adv-x="468" 
d="M-17 58l82 116q51 -46 132 -46q55 0 55 30q0 13 -21 24t-51 22.5t-60 27.5t-51 48.5t-21 77.5q0 75 62 122q64 47 156 47q104 0 189 -57l-68 -120q-46 37 -126 37q-53 0 -53 -29q0 -18 72 -45q134 -44 133 -159q0 -75 -58 -121q-59 -45 -151 -45q-127 0 -221 70zM349 565
h-140l111 150h177z" />
    <glyph glyph-name="Scircumflex" unicode="&#x15c;" horiz-adv-x="580" 
d="M-7 90l104 124q30 -29 76.5 -47t92.5 -18q35 0 60.5 16.5t25.5 46.5q0 17 -20 34t-49.5 31t-64 35t-64 44.5t-49.5 62t-20 85.5q0 100 80 162q79 61 186 61q153 0 244 -83l-94 -129q-27 22 -69.5 36.5t-83.5 14.5q-35 0 -61.5 -17t-26.5 -45q0 -18 20 -35t50 -31
t64.5 -34.5t64.5 -44t50 -62t20 -85.5q0 -93 -76 -159q-77 -65 -190 -65q-75 0 -151 26q-73 25 -119 76zM334 761h-140l129 150h168l69 -150h-130l-31 82h-2z" />
    <glyph glyph-name="scircumflex" unicode="&#x15d;" horiz-adv-x="468" 
d="M-17 58l82 116q51 -46 132 -46q55 0 55 30q0 13 -21 24t-51 22.5t-60 27.5t-51 48.5t-21 77.5q0 75 62 122q64 47 156 47q104 0 189 -57l-68 -120q-46 37 -126 37q-53 0 -53 -29q0 -18 72 -45q134 -44 133 -159q0 -75 -58 -121q-59 -45 -151 -45q-127 0 -221 70zM236 565
h-140l129 150h168l69 -150h-130l-31 82h-2z" />
    <glyph glyph-name="Scedilla" unicode="&#x15e;" horiz-adv-x="581" 
d="M157 -82l38 76q-133 20 -201 96l104 124q30 -29 76.5 -47t92.5 -18q35 0 60.5 16.5t25.5 46.5q0 17 -20 34t-49.5 31t-64 35t-64 44.5t-49.5 62t-20 85.5q0 100 80 162q79 61 186 61q153 0 244 -83l-94 -129q-27 22 -69.5 36.5t-83.5 14.5q-35 0 -61.5 -17t-26.5 -45
q0 -18 20 -35t50 -31t64.5 -34.5t64.5 -44t50 -62t20 -85.5q0 -93 -73 -157t-184 -67l-10 -24q62 -14 62 -66q0 -56 -41 -82t-91 -26q-39 0 -75 9l16 85q18 -8 44 -8q43 0 43 26q0 18 -37 18q-1 0 -27 -2z" />
    <glyph glyph-name="scedilla" unicode="&#x15f;" horiz-adv-x="469" 
d="M87 -82l40 78q-85 18 -144 62l82 116q51 -46 132 -46q55 0 55 30q0 13 -21 24t-51 22.5t-60 27.5t-51 48.5t-21 77.5q0 75 62 122q64 47 156 47q104 0 189 -57l-68 -120q-46 37 -126 37q-53 0 -53 -29q0 -18 72 -45q134 -44 133 -159q0 -75 -58 -121q-59 -45 -151 -45h-1
l-10 -24q62 -14 62 -66q0 -56 -41 -82t-91 -26q-39 0 -75 9l16 85q18 -8 44 -8q43 0 43 26q0 18 -37 18q-1 0 -27 -2z" />
    <glyph glyph-name="Scaron" unicode="&#x160;" horiz-adv-x="580" 
d="M-7 90l104 124q30 -29 76.5 -47t92.5 -18q35 0 60.5 16.5t25.5 46.5q0 17 -20 34t-49.5 31t-64 35t-64 44.5t-49.5 62t-20 85.5q0 100 80 162q79 61 186 61q153 0 244 -83l-94 -129q-27 22 -69.5 36.5t-83.5 14.5q-35 0 -61.5 -17t-26.5 -45q0 -18 20 -35t50 -31
t64.5 -34.5t64.5 -44t50 -62t20 -85.5q0 -93 -76 -159q-77 -65 -190 -65q-75 0 -151 26q-73 25 -119 76zM471 761h-168l-69 150h130l31 -82h2l63 82h140z" />
    <glyph glyph-name="scaron" unicode="&#x161;" horiz-adv-x="468" 
d="M-17 58l82 116q51 -46 132 -46q55 0 55 30q0 13 -21 24t-51 22.5t-60 27.5t-51 48.5t-21 77.5q0 75 62 122q64 47 156 47q104 0 189 -57l-68 -120q-46 37 -126 37q-53 0 -53 -29q0 -18 72 -45q134 -44 133 -159q0 -75 -58 -121q-59 -45 -151 -45q-127 0 -221 70zM373 565
h-168l-69 150h130l31 -82h2l63 82h140z" />
    <glyph glyph-name="Tcommaaccent" unicode="&#x162;" horiz-adv-x="630" 
d="M214 0h-45l110 565h-216l29 150h607l-29 -150h-216l-110 -565h-51l-15 -36q62 -14 62 -66q0 -56 -41 -82t-91 -26q-39 0 -75 9l16 85q18 -8 44 -8q43 0 43 26q0 18 -37 18q-1 0 -27 -2z" />
    <glyph glyph-name="tcommaaccent" unicode="&#x163;" horiz-adv-x="407" 
d="M79 -82l55 107q-74 41 -74 135q0 15 5 40l34 171h-65l26 135h71l29 148h166l-29 -148h109l-26 -135h-109l-28 -147q-3 -14 -3 -27q0 -50 76 -50q18 0 27 1l-29 -150q-42 -3 -46 -3q-36 0 -67 6l-16 -37q62 -14 62 -66q0 -56 -41 -82t-91 -26q-39 0 -75 9l16 85
q18 -8 44 -8q43 0 43 26q0 18 -37 18q-1 0 -27 -2z" />
    <glyph glyph-name="Tcaron" unicode="&#x164;" horiz-adv-x="630" 
d="M344 0h-175l110 565h-216l29 150h607l-29 -150h-216zM492 761h-168l-69 150h130l31 -82h2l63 82h140z" />
    <glyph glyph-name="tcaron" unicode="&#x165;" horiz-adv-x="407" 
d="M60 160q0 15 5 40l34 171h-65l26 135h71l29 148h166l-29 -148h109l-26 -135h-109l-28 -147q-3 -14 -3 -27q0 -50 76 -50q18 0 27 1l-29 -150q-42 -3 -46 -3q-96 0 -152 42t-56 123zM381 715h136v-17q0 -36 -11.5 -65t-41.5 -69h-123q24 41 33 66t9 57q0 2 -2 28z" />
    <glyph glyph-name="Tbar" unicode="&#x166;" horiz-adv-x="641" 
d="M349 0h-175l53 272h-142l25 127h141l33 166h-216l29 150h607l-29 -150h-216l-33 -166h149l-25 -127h-148z" />
    <glyph glyph-name="tbar" unicode="&#x167;" horiz-adv-x="409" 
d="M62 160q0 15 5 40l2 9h-66l21 107h66l11 55h-65l26 135h71l29 148h166l-29 -148h109l-26 -135h-109l-11 -55h109l-21 -107h-108q-1 -4 -1 -17q5 -45 77 -45l27 1l-29 -150q-25 -3 -46 -3q-96 0 -152 42t-56 123z" />
    <glyph glyph-name="Utilde" unicode="&#x168;" horiz-adv-x="734" 
d="M56 210q0 28 6 58l87 447h175l-88 -452q-3 -15 -3 -28q0 -42 28 -64.5t77 -22.5q58 0 96.5 29.5t49.5 85.5l88 452h175l-89 -457q-24 -123 -112 -196q-88 -74 -214 -74q-117 0 -197 59q-79 58 -79 163zM377 761h-113q32 153 149 153q21 0 38 -9.5t26.5 -20.5t21 -20.5
t22.5 -9.5q33 0 44 57h113q-30 -153 -148 -153q-29 0 -64 30t-45 30q-32 0 -44 -57z" />
    <glyph glyph-name="utilde" unicode="&#x169;" horiz-adv-x="620" 
d="M25 134q0 22 7 57l63 324h173l-58 -296q-3 -18 -3 -30q0 -44 46 -44q47 0 85 42q39 44 49 100l44 228h173l-100 -515h-167l5 26l13 51h-2q-24 -38 -70 -63.5t-96 -25.5q-76 0 -119 36.5t-43 109.5zM279 565h-113q32 153 149 153q21 0 38 -9.5t26.5 -20.5t21 -20.5
t22.5 -9.5q33 0 44 57h113q-30 -153 -148 -153q-29 0 -64 30t-45 30q-32 0 -44 -57z" />
    <glyph glyph-name="Umacron" unicode="&#x16a;" horiz-adv-x="734" 
d="M56 210q0 28 6 58l87 447h175l-88 -452q-3 -15 -3 -28q0 -42 28 -64.5t77 -22.5q58 0 96.5 29.5t49.5 85.5l88 452h175l-89 -457q-24 -123 -112 -196q-88 -74 -214 -74q-117 0 -197 59q-79 58 -79 163zM599 782h-275l22 112h275z" />
    <glyph glyph-name="umacron" unicode="&#x16b;" horiz-adv-x="620" 
d="M25 134q0 22 7 57l63 324h173l-58 -296q-3 -18 -3 -30q0 -44 46 -44q47 0 85 42q39 44 49 100l44 228h173l-100 -515h-167l5 26l13 51h-2q-24 -38 -70 -63.5t-96 -25.5q-76 0 -119 36.5t-43 109.5zM501 586h-275l22 112h275z" />
    <glyph glyph-name="Ubreve" unicode="&#x16c;" horiz-adv-x="734" 
d="M56 210q0 28 6 58l87 447h175l-88 -452q-3 -15 -3 -28q0 -42 28 -64.5t77 -22.5q58 0 96.5 29.5t49.5 85.5l88 452h175l-89 -457q-24 -123 -112 -196q-88 -74 -214 -74q-117 0 -197 59q-79 58 -79 163zM468 756q-71 0 -117.5 32.5t-46.5 87.5q0 13 5 35h117
q-4 -11 -4 -24q0 -22 13.5 -33.5t33.5 -11.5q26 0 46 18t25 51h117q-14 -75 -64.5 -115t-124.5 -40z" />
    <glyph glyph-name="ubreve" unicode="&#x16d;" horiz-adv-x="620" 
d="M25 134q0 22 7 57l63 324h173l-58 -296q-3 -18 -3 -30q0 -44 46 -44q47 0 85 42q39 44 49 100l44 228h173l-100 -515h-167l5 26l13 51h-2q-24 -38 -70 -63.5t-96 -25.5q-76 0 -119 36.5t-43 109.5zM370 560q-71 0 -117.5 32.5t-46.5 87.5q0 13 5 35h117q-4 -11 -4 -24
q0 -22 13.5 -33.5t33.5 -11.5q26 0 46 18t25 51h117q-14 -75 -64.5 -115t-124.5 -40z" />
    <glyph glyph-name="Uring" unicode="&#x16e;" horiz-adv-x="734" 
d="M56 210q0 28 6 58l87 447h175l-88 -452q-3 -15 -3 -28q0 -42 28 -64.5t77 -22.5q58 0 96.5 29.5t49.5 85.5l88 452h175l-89 -457q-24 -123 -112 -196q-88 -74 -214 -74q-117 0 -197 59q-79 58 -79 163zM459 747q-43 0 -71 19.5t-28 53.5q0 47 37 72q38 26 85 26
q44 0 72 -20t28 -56q0 -46 -39 -71q-37 -24 -84 -24zM464 797q18 0 30.5 12.5t12.5 30.5q0 28 -29 28q-18 0 -30 -12.5t-12 -32.5q0 -26 28 -26z" />
    <glyph glyph-name="uring" unicode="&#x16f;" horiz-adv-x="620" 
d="M25 134q0 22 7 57l63 324h173l-58 -296q-3 -18 -3 -30q0 -44 46 -44q47 0 85 42q39 44 49 100l44 228h173l-100 -515h-167l5 26l13 51h-2q-24 -38 -70 -63.5t-96 -25.5q-76 0 -119 36.5t-43 109.5zM361 551q-43 0 -71 19.5t-28 53.5q0 47 37 72q38 26 85 26q44 0 72 -20
t28 -56q0 -46 -39 -71q-37 -24 -84 -24zM366 601q18 0 30.5 12.5t12.5 30.5q0 28 -29 28q-18 0 -30 -12.5t-12 -32.5q0 -26 28 -26z" />
    <glyph glyph-name="Uhungarumlaut" unicode="&#x170;" horiz-adv-x="734" 
d="M56 210q0 28 6 58l87 447h175l-88 -452q-3 -15 -3 -28q0 -42 28 -64.5t77 -22.5q58 0 96.5 29.5t49.5 85.5l88 452h175l-89 -457q-24 -123 -112 -196q-88 -74 -214 -74q-117 0 -197 59q-79 58 -79 163zM612 761h-132l111 150h169zM414 761h-142l106 150h145z" />
    <glyph glyph-name="uhungarumlaut" unicode="&#x171;" horiz-adv-x="620" 
d="M25 134q0 22 7 57l63 324h173l-58 -296q-3 -18 -3 -30q0 -44 46 -44q47 0 85 42q39 44 49 100l44 228h173l-100 -515h-167l5 26l13 51h-2q-24 -38 -70 -63.5t-96 -25.5q-76 0 -119 36.5t-43 109.5zM514 565h-132l111 150h169zM316 565h-142l106 150h145z" />
    <glyph glyph-name="Uogonek" unicode="&#x172;" horiz-adv-x="733" 
d="M55 210q0 28 6 58l88 447h174l-88 -452q-3 -15 -3 -28q0 -42 28 -64.5t77 -22.5q58 0 96 29.5t49 85.5l89 452h175l-90 -457q-18 -92 -64 -145q-49 -55 -110 -92q-49 -30 -71 -49t-22 -36q0 -8 9 -13.5t20 -6.5l9 -2l-66 -124q-10 0 -40 9q-31 8 -53 27t-22 48
q0 59 71 112v2q-114 5 -188 62q-74 59 -74 160z" />
    <glyph glyph-name="uogonek" unicode="&#x173;" horiz-adv-x="620" 
d="M25 134q0 22 7 57l63 324h173l-58 -296q-3 -18 -3 -30q0 -44 46 -44q47 0 85 42q39 44 49 100l44 228h173l-100 -515q-54 -44 -54 -64q0 -8 7.5 -13.5t16.5 -6.5l9 -2l-66 -124q-10 0 -40 9q-31 8 -53 27t-22 48q0 66 87 126h-52l5 26l13 51h-2q-24 -38 -70 -63.5
t-96 -25.5q-76 0 -119 36.5t-43 109.5z" />
    <glyph glyph-name="Wcircumflex" unicode="&#x174;" horiz-adv-x="995" 
d="M335 0h-201l-46 715h182l11 -447l-2 -75h2q9 36 26 75l196 447h145l21 -447l-2 -75h2q9 40 23 75l179 447h191l-314 -715h-203l-19 361q-2 56 2 84h-2q-8 -30 -31 -84zM536 761h-140l129 150h168l69 -150h-130l-31 82h-2z" />
    <glyph glyph-name="wcircumflex" unicode="&#x175;" horiz-adv-x="825" 
d="M280 0h-185l-44 515h172l4 -304l-4 -54h2l3 7q15 44 16 47l131 304h145l11 -304l-2 -54h2q4 23 17 54l123 304h184l-245 -515h-192l-11 238v55h-2q-6 -22 -20 -55zM409 565h-140l129 150h168l69 -150h-130l-31 82h-2z" />
    <glyph glyph-name="Ycircumflex" unicode="&#x176;" horiz-adv-x="625" 
d="M337 0h-175l57 293l-149 422h189l48 -172l23 -103h2l63 103l109 172h210l-322 -429zM348 761h-140l129 150h168l69 -150h-130l-31 82h-2z" />
    <glyph glyph-name="ycircumflex" unicode="&#x177;" horiz-adv-x="567" 
d="M-79 -170l75 120q20 -16 51 -16q62 0 93 52l15 24l-121 505h180l42 -255l5 -76h2q19 49 31 73l115 258h194l-322 -570q-44 -76 -103.5 -115.5t-121.5 -39.5q-74 0 -135 40zM287 565h-140l129 150h168l69 -150h-130l-31 82h-2z" />
    <glyph glyph-name="Ydieresis" unicode="&#x178;" horiz-adv-x="625" 
d="M337 0h-175l57 293l-149 422h189l48 -172l23 -103h2l63 103l109 172h210l-322 -429zM566 771h-126l28 140h126zM357 771h-126l28 140h126z" />
    <glyph glyph-name="Zacute" unicode="&#x179;" horiz-adv-x="634" 
d="M536 0h-557l22 110l340 391q32 36 60 59l8 6v2q-23 -3 -54 -3h-253l28 150h540l-22 -108l-343 -393q-34 -40 -59 -58l-9 -7v-2q22 3 55 3h273zM482 761h-140l111 150h177z" />
    <glyph glyph-name="zacute" unicode="&#x17a;" horiz-adv-x="544" 
d="M448 0h-470l16 86l229 237q15 15 47 43l6 4v2q-16 -2 -44 -2h-176l29 145h459l-16 -87l-229 -237q-18 -18 -49 -42l-7 -5v-2q13 3 47 3h187zM383 565h-140l111 150h177z" />
    <glyph glyph-name="Zdotaccent" unicode="&#x17b;" horiz-adv-x="634" 
d="M536 0h-557l22 110l340 391q32 36 60 59l8 6v2q-23 -3 -54 -3h-253l28 150h540l-22 -108l-343 -393q-34 -40 -59 -58l-9 -7v-2q22 3 55 3h273zM493 779h-143l26 132h143z" />
    <glyph glyph-name="zdotaccent" unicode="&#x17c;" horiz-adv-x="544" 
d="M448 0h-470l16 86l229 237q15 15 47 43l6 4v2q-16 -2 -44 -2h-176l29 145h459l-16 -87l-229 -237q-18 -18 -49 -42l-7 -5v-2q13 3 47 3h187zM394 583h-143l26 132h143z" />
    <glyph glyph-name="Zcaron" unicode="&#x17d;" horiz-adv-x="634" 
d="M536 0h-557l22 110l340 391q32 36 60 59l8 6v2q-23 -3 -54 -3h-253l28 150h540l-22 -108l-343 -393q-34 -40 -59 -58l-9 -7v-2q22 3 55 3h273zM506 761h-168l-69 150h130l31 -82h2l63 82h140z" />
    <glyph glyph-name="zcaron" unicode="&#x17e;" horiz-adv-x="544" 
d="M448 0h-470l16 86l229 237q15 15 47 43l6 4v2q-16 -2 -44 -2h-176l29 145h459l-16 -87l-229 -237q-18 -18 -49 -42l-7 -5v-2q13 3 47 3h187zM407 565h-168l-69 150h130l31 -82h2l63 82h140z" />
    <glyph glyph-name="longs" unicode="&#x17f;" horiz-adv-x="346" 
d="M210 0h-173l72 371h-63l27 135h63l4 22q18 95 82 140q28 20 62 32q57 19 117 19l63 -3l-30 -146q-14 2 -26 2q-88 0 -97 -50z" />
    <glyph glyph-name="florin" unicode="&#x192;" horiz-adv-x="600" 
d="M-52 -116l29 143q40 -6 67 -6q89 0 105 64l62 225h-62l27 135h74l29 100q53 182 271 182q26 0 102 -9l-29 -144q-47 6 -74 6q-87 0 -103 -64l-20 -71h95l-27 -135h-107l-70 -254q-25 -91 -93 -134q-29 -20 -64 -30q-53 -18 -117 -18q-34 0 -95 10z" />
    <glyph glyph-name="Scommaaccent" unicode="&#x218;" horiz-adv-x="580" 
d="M-7 90l104 124q30 -29 76.5 -47t92.5 -18q35 0 60.5 16.5t25.5 46.5q0 17 -20 34t-49.5 31t-64 35t-64 44.5t-49.5 62t-20 85.5q0 100 80 162q79 61 186 61q153 0 244 -83l-94 -129q-27 22 -69.5 36.5t-83.5 14.5q-35 0 -61.5 -17t-26.5 -45q0 -18 20 -35t50 -31
t64.5 -34.5t64.5 -44t50 -62t20 -85.5q0 -93 -76 -159q-77 -65 -190 -65q-75 0 -151 26q-73 25 -119 76zM147 -49h136v-18q0 -38 -11.5 -69t-41.5 -74h-123q24 43 33 70t9 61q0 2 -0.5 6t-1 11t-0.5 13z" />
    <glyph glyph-name="scommaaccent" unicode="&#x219;" horiz-adv-x="468" 
d="M-17 58l82 116q51 -46 132 -46q55 0 55 30q0 13 -21 24t-51 22.5t-60 27.5t-51 48.5t-21 77.5q0 75 62 122q64 47 156 47q104 0 189 -57l-68 -120q-46 37 -126 37q-53 0 -53 -29q0 -18 72 -45q134 -44 133 -159q0 -75 -58 -121q-59 -45 -151 -45q-127 0 -221 70zM92 -49
h136v-18q0 -38 -11.5 -69t-41.5 -74h-123q24 43 33 70t9 61z" />
    <glyph glyph-name="uni021A" unicode="&#x21a;" horiz-adv-x="630" 
d="M344 0h-175l110 565h-216l29 150h607l-29 -150h-216zM175 -49h136v-18q0 -38 -11.5 -69t-41.5 -74h-123q24 43 33 70t9 61q0 2 -0.5 6t-1 11t-0.5 13z" />
    <glyph glyph-name="uni021B" unicode="&#x21b;" horiz-adv-x="407" 
d="M60 160q0 15 5 40l34 171h-65l26 135h71l29 148h166l-29 -148h109l-26 -135h-109l-28 -147q-3 -14 -3 -27q0 -50 76 -50q18 0 27 1l-29 -150q-42 -3 -46 -3q-96 0 -152 42t-56 123zM96 -49h136v-18q0 -38 -11.5 -69t-41.5 -74h-123q24 43 33 70t9 61z" />
    <glyph glyph-name="circumflex" unicode="&#x2c6;" horiz-adv-x="486" 
d="M126 761h-140l129 150h168l69 -150h-130l-31 82h-2z" />
    <glyph glyph-name="caron" unicode="&#x2c7;" horiz-adv-x="486" 
d="M263 761h-168l-69 150h130l31 -82h2l63 82h140z" />
    <glyph glyph-name="breve" unicode="&#x2d8;" horiz-adv-x="484" 
d="M184 756q-71 0 -117.5 32.5t-46.5 87.5q0 13 5 35h117q-4 -11 -4 -24q0 -22 13.5 -33.5t33.5 -11.5q26 0 46 18t25 51h117q-14 -75 -64.5 -115t-124.5 -40z" />
    <glyph glyph-name="dotaccent" unicode="&#x2d9;" horiz-adv-x="485" 
d="M249 779h-143l26 132h143z" />
    <glyph glyph-name="ring" unicode="&#x2da;" horiz-adv-x="485" 
d="M175 747q-43 0 -71 19.5t-28 53.5q0 47 37 72q38 26 85 26q44 0 72 -20t28 -56q0 -46 -39 -71q-37 -24 -84 -24zM180 797q18 0 30.5 12.5t12.5 30.5q0 28 -29 28q-18 0 -30 -12.5t-12 -32.5q0 -26 28 -26z" />
    <glyph glyph-name="ogonek" unicode="&#x2db;" horiz-adv-x="486" 
d="M82 -126q0 46 40 86q38 38 93 68l87 -14q1 2 -18 -13t-37 -35t-17 -30q0 -8 7.5 -13.5t16.5 -6.5l9 -2l-66 -124q-10 0 -40 9q-31 8 -53 27t-22 48z" />
    <glyph glyph-name="tilde" unicode="&#x2dc;" horiz-adv-x="485" 
d="M90 761h-113q32 153 149 153q21 0 38 -9.5t26.5 -20.5t21 -20.5t22.5 -9.5q34 0 44 57h113q-30 -153 -148 -153q-29 0 -64 30t-45 30q-32 0 -44 -57z" />
    <glyph glyph-name="hungarumlaut" unicode="&#x2dd;" horiz-adv-x="485" 
d="M285 761h-132l111 150h169zM87 761h-142l106 150h145z" />
    <glyph glyph-name="uni0400" unicode="&#x400;" horiz-adv-x="577" 
d="M480 0h-462l140 715h447l-29 -150h-273l-25 -130h217l-30 -150h-217l-26 -135h287zM482 761h-128l-88 150h165z" />
    <glyph glyph-name="uni0401" unicode="&#x401;" horiz-adv-x="577" 
d="M480 0h-462l140 715h447l-29 -150h-273l-25 -130h217l-30 -150h-217l-26 -135h287zM564 771h-126l28 140h126zM355 771h-126l28 140h126z" />
    <glyph glyph-name="uni0402" unicode="&#x402;" horiz-adv-x="761" 
d="M302 0h-175l110 565h-176l29 150h567l-29 -150h-216l-21 -108l-9 -32h2q61 31 153 31q91 0 143 -55q53 -56 53 -141q0 -107 -77 -190q-76 -82 -196 -82q-24 0 -56 3l29 145q10 -2 19 -2q44 0 74.5 28.5t30.5 68.5q0 33 -22.5 52t-63.5 19q-59 0 -117 -33z" />
    <glyph glyph-name="uni0403" unicode="&#x403;" horiz-adv-x="526" 
d="M193 0h-175l139 715h438l-29 -150h-263zM424 761h-140l111 150h177z" />
    <glyph glyph-name="uni0404" unicode="&#x404;" horiz-adv-x="721" 
d="M43 300q0 110 57 208q59 99 160 158q101 61 222 61q75 0 145.5 -26t114.5 -73l-95 -131q-31 32 -78 52t-94 20q-73 0 -130 -38t-90 -103h291l-27 -140h-294q3 -142 167 -142q104 0 207 81l75 -130q-53 -47 -139 -79q-85 -30 -166 -30q-150 0 -239 86q-87 87 -87 226z" />
    <glyph glyph-name="uni0405" unicode="&#x405;" horiz-adv-x="580" 
d="M-7 90l104 124q30 -29 76.5 -47t92.5 -18q35 0 60.5 16.5t25.5 46.5q0 17 -20 34t-49.5 31t-64 35t-64 44.5t-49.5 62t-20 85.5q0 100 80 162q79 61 186 61q153 0 244 -83l-94 -129q-27 22 -69.5 36.5t-83.5 14.5q-35 0 -61.5 -17t-26.5 -45q0 -18 20 -35t50 -31
t64.5 -34.5t64.5 -44t50 -62t20 -85.5q0 -93 -76 -159q-77 -65 -190 -65q-75 0 -151 26q-73 25 -119 76z" />
    <glyph glyph-name="uni0406" unicode="&#x406;" horiz-adv-x="327" 
d="M193 0h-175l139 715h175z" />
    <glyph glyph-name="uni0407" unicode="&#x407;" horiz-adv-x="327" 
d="M424 771h-126l28 140h126zM215 771h-126l28 140h126zM193 0h-175l139 715h175z" />
    <glyph glyph-name="uni0408" unicode="&#x408;" horiz-adv-x="563" 
d="M-3 178q0 25 5 52l8 42h175l-7 -37q-4 -21 -4 -33q0 -54 53 -54q63 0 76 75l67 342h-191l29 150h366l-98 -505q-21 -108 -91 -165q-71 -57 -162 -57q-93 0 -160 50q-66 50 -66 140z" />
    <glyph glyph-name="uni0409" unicode="&#x409;" horiz-adv-x="1000" 
d="M-39 -5l30 159q71 4 114 63t75 219l54 279h473l-51 -261h109q94 0 150 -59q57 -59 57 -147q0 -102 -78 -175q-77 -73 -191 -73h-310l110 565h-120l-25 -129q-41 -213 -125 -324q-89 -117 -272 -117zM627 304l-30 -154h89q44 0 76 26t32 67q0 28 -21.5 44.5t-59.5 16.5
h-86z" />
    <glyph glyph-name="uni040A" unicode="&#x40a;" horiz-adv-x="1040" 
d="M193 0h-175l139 715h175l-52 -266h241l52 266h174l-51 -266h112q90 0 147 -59q57 -58 57 -145q0 -102 -78 -174q-79 -71 -194 -71h-307l58 299h-240zM667 299l-30 -149h89q40 0 74 23q33 24 33 63q0 63 -80 63h-86z" />
    <glyph glyph-name="uni040B" unicode="&#x40b;" horiz-adv-x="761" 
d="M302 0h-175l110 565h-176l29 150h567l-29 -150h-216l-21 -106l-9 -34h2q77 31 158 31q88 0 133.5 -46t45.5 -128q0 -37 -7 -69l-42 -213h-179l38 197q4 23 4 37q0 64 -77 64q-54 0 -103 -26z" />
    <glyph glyph-name="uni040C" unicode="&#x40c;" horiz-adv-x="682" 
d="M193 0h-175l139 715h175l-54 -276h67l205 276h203l-271 -351v-2l130 -362h-186l-95 290h-82zM512 761h-140l111 150h177z" />
    <glyph glyph-name="uni040D" unicode="&#x40d;" horiz-adv-x="756" 
d="M194 0h-176l139 715h175l-65 -334l-32 -122h2q48 77 84 122l263 334h177l-139 -715h-175l65 333q8 44 25 101l6 21h-2q-51 -83 -83 -122zM543 761h-128l-88 150h165z" />
    <glyph glyph-name="uni040E" unicode="&#x40e;" horiz-adv-x="630" 
d="M4 42l85 125q31 -30 83 -30q41 0 66 40l-171 538h180l71 -257l22 -97h2q18 47 45 96l135 258h195l-311 -536q-44 -77 -94 -129q-60 -62 -146 -62q-93 0 -162 54zM415 747q-78 0 -126 35.5t-48 90.5q0 11 5 38h130q-3 -11 -3 -22q0 -22 13.5 -35.5t37.5 -13.5q64 0 75 71
h126q-13 -83 -72 -124q-58 -40 -138 -40z" />
    <glyph glyph-name="uni040F" unicode="&#x40f;" horiz-adv-x="750" 
d="M240 0h-222l139 715h175l-110 -566h248l110 566h175l-139 -715h-221l-28 -140h-155z" />
    <glyph glyph-name="uni0410" unicode="&#x410;" horiz-adv-x="668" 
d="M130 0h-187l372 715h201l99 -715h-175l-15 150h-223zM338 429l-68 -139h141l-14 139l-6 123h-2q-29 -78 -51 -123z" />
    <glyph glyph-name="uni0411" unicode="&#x411;" horiz-adv-x="635" 
d="M325 0h-307l139 715h465l-29 -150h-290l-22 -111h112q94 0 149 -55q55 -54 55 -143q0 -102 -80 -179t-192 -77zM252 304l-30 -154h89q43 0 74 26t31 67q0 28 -20 44.5t-58 16.5h-86z" />
    <glyph glyph-name="uni0412" unicode="&#x412;" horiz-adv-x="650" 
d="M311 0h-293l139 715h230q80 0 125 -16q54 -19 83.5 -59.5t29.5 -94.5q0 -51 -30 -97t-81 -72v-2q43 -15 64.5 -52t21.5 -85q0 -80 -47.5 -138t-127.5 -83q-47 -16 -114 -16zM303 565l-25 -127h90q34 0 55.5 24t21.5 56q0 47 -55 47h-87zM251 298l-29 -148h105q28 0 49 12
q44 29 44 80q0 25 -16.5 40.5t-46.5 15.5h-106z" />
    <glyph glyph-name="uni0413" unicode="&#x413;" horiz-adv-x="526" 
d="M193 0h-175l139 715h438l-29 -150h-263z" />
    <glyph glyph-name="uni0414" unicode="&#x414;" horiz-adv-x="775" 
d="M242 149h213l80 416h-143l-6 -33q-16 -91 -56 -203q-40 -111 -88 -180zM85 -140h-160l57 289h74q121 163 166 397l33 169h485l-110 -566h80l-57 -289h-155l28 140h-413z" />
    <glyph glyph-name="uni0415" unicode="&#x415;" horiz-adv-x="577" 
d="M480 0h-462l140 715h447l-29 -150h-273l-25 -130h217l-30 -150h-217l-26 -135h287z" />
    <glyph glyph-name="uni0416" unicode="&#x416;" horiz-adv-x="1018" 
d="M159 0h-205l271 387v2l-132 326h178l109 -276h67l54 276h175l-54 -276h67l177 276h208l-247 -357v-2l119 -356h-180l-90 290h-83l-56 -290h-175l56 290h-67z" />
    <glyph glyph-name="uni0417" unicode="&#x417;" horiz-adv-x="572" 
d="M-18 97l100 112q57 -68 142 -68q49 0 82 25.5t33 67.5q0 54 -73 54h-103l27 140h87q40 0 69.5 25.5t29.5 62.5q0 59 -70 59q-66 0 -151 -59l-62 127q107 84 242 84q97 0 162 -47q64 -46 64 -132q0 -59 -34.5 -107t-92.5 -72l-1 -2q39 -18 62 -55.5t23 -84.5
q0 -105 -89 -173q-89 -66 -204 -66q-73 0 -138 29t-105 80z" />
    <glyph glyph-name="uni0418" unicode="&#x418;" horiz-adv-x="756" 
d="M194 0h-176l139 715h175l-65 -334l-32 -122h2q48 77 84 122l263 334h177l-139 -715h-175l65 333q8 44 25 101l6 21h-2q-51 -83 -83 -122z" />
    <glyph glyph-name="uni0419" unicode="&#x419;" horiz-adv-x="756" 
d="M194 0h-176l139 715h175l-65 -334l-32 -122h2q48 77 84 122l263 334h177l-139 -715h-175l65 333q8 44 25 101l6 21h-2q-51 -83 -83 -122zM476 747q-78 0 -126 35.5t-48 90.5q0 11 5 38h130q-3 -11 -3 -22q0 -22 13.5 -35.5t37.5 -13.5q64 0 75 71h126q-13 -83 -72 -124
q-58 -40 -138 -40z" />
    <glyph glyph-name="uni041A" unicode="&#x41a;" horiz-adv-x="682" 
d="M193 0h-175l139 715h175l-54 -276h67l205 276h203l-271 -351v-2l130 -362h-186l-95 290h-82z" />
    <glyph glyph-name="uni041B" unicode="&#x41b;" horiz-adv-x="714" 
d="M719 715l-139 -715h-175l110 565h-139l-17 -87q-51 -262 -148 -373q-96 -113 -255 -113l31 159q71 9 121 80t85 249l46 235h480z" />
    <glyph glyph-name="uni041C" unicode="&#x41c;" horiz-adv-x="878" 
d="M169 0h-176l191 715h191l47 -302l12 -118h2l60 118l163 302h192l-81 -715h-172l41 322l23 120h-2q-38 -76 -63 -120l-116 -207h-152l-36 207l-15 122h-2q-9 -64 -23 -122z" />
    <glyph glyph-name="uni041D" unicode="&#x41d;" horiz-adv-x="762" 
d="M193 0h-175l139 715h175l-56 -286h260l56 286h175l-139 -715h-175l54 280h-260z" />
    <glyph glyph-name="uni041E" unicode="&#x41e;" horiz-adv-x="820" 
d="M44 307q0 111 58 208q59 98 156 155t205 57q153 0 244 -88q93 -87 93 -224q0 -113 -60 -212q-58 -98 -156 -157q-97 -58 -204 -58q-152 0 -244 89q-92 90 -92 230zM224 317q0 -75 44 -122t114 -47q90 0 164 75q73 76 73 181q0 73 -44 118t-114 45q-91 0 -165 -74
q-72 -73 -72 -176z" />
    <glyph glyph-name="uni041F" unicode="&#x41f;" horiz-adv-x="756" 
d="M193 0h-175l139 715h604l-139 -715h-175l110 566h-254z" />
    <glyph glyph-name="uni0420" unicode="&#x420;" horiz-adv-x="627" 
d="M193 0h-175l139 715h273q65 0 109 -22q104 -50 104 -181q0 -88 -46 -161q-45 -72 -118 -106q-51 -24 -110 -24h-133zM303 565l-38 -194h85q36 0 59 15q54 36 54 110q0 33 -18.5 51t-53.5 18h-88z" />
    <glyph glyph-name="uni0421" unicode="&#x421;" horiz-adv-x="717" 
d="M45 305q0 173 124 297q125 125 296 125q82 0 155.5 -26.5t120.5 -76.5l-99 -120q-74 63 -171 63q-111 0 -178 -78q-67 -77 -67 -172q0 -75 43.5 -122t122.5 -47q103 0 209 85l68 -139q-50 -45 -131 -76q-80 -30 -156 -30q-155 0 -246 88t-91 229z" />
    <glyph glyph-name="uni0422" unicode="&#x422;" horiz-adv-x="632" 
d="M345 0h-175l110 565h-216l29 150h607l-29 -150h-216z" />
    <glyph glyph-name="uni0423" unicode="&#x423;" horiz-adv-x="630" 
d="M4 42l85 125q31 -30 83 -30q41 0 66 40l-171 538h180l71 -257l22 -97h2q18 47 45 96l135 258h195l-311 -536q-44 -77 -94 -129q-60 -62 -146 -62q-93 0 -162 54z" />
    <glyph glyph-name="uni0424" unicode="&#x424;" horiz-adv-x="863" 
d="M37 342q0 140 107 235q108 96 276 100l15 73h175l-15 -73q119 0 193 -73q75 -72 75 -185q0 -141 -112 -241q-112 -99 -272 -100l-18 -90h-175l18 90q-119 0 -193 73q-74 74 -74 191zM567 531l-60 -307q70 1 124 58q54 58 54 129q0 53 -32.5 86.5t-85.5 33.5zM215 348
q0 -55 32 -89.5t85 -34.5l60 307q-73 -2 -125 -56q-52 -55 -52 -127z" />
    <glyph glyph-name="uni0425" unicode="&#x425;" horiz-adv-x="655" 
d="M148 0h-197l286 360l-149 355h191l52 -144l28 -91h2q28 49 59 91l105 144h204l-291 -364l151 -351h-187l-56 147l-28 88h-2q-28 -47 -59 -88z" />
    <glyph glyph-name="uni0426" unicode="&#x426;" horiz-adv-x="795" 
d="M550 0h-532l139 715h175l-110 -566h248l110 566h175l-110 -566h89l-57 -289h-155z" />
    <glyph glyph-name="uni0427" unicode="&#x427;" horiz-adv-x="689" 
d="M270 253q-98 0 -152 45t-54 126q0 25 8 68l43 223h179l-38 -197q-4 -15 -4 -36q0 -70 79 -70q69 0 133 38l51 265h179l-139 -715h-179l49 254l9 32h-2q-88 -33 -162 -33z" />
    <glyph glyph-name="uni0428" unicode="&#x428;" horiz-adv-x="1037" 
d="M903 0h-885l139 715h175l-110 -566h180l110 566h175l-110 -566h180l110 566h175z" />
    <glyph glyph-name="uni0429" unicode="&#x429;" horiz-adv-x="1082" 
d="M837 0h-819l139 715h175l-110 -566h180l110 566h175l-110 -566h180l110 566h175l-110 -566h89l-57 -289h-155z" />
    <glyph glyph-name="uni042A" unicode="&#x42a;" horiz-adv-x="734" 
d="M426 0h-302l110 565h-180l29 150h355l-43 -221h117q90 0 143 -57t53 -153q0 -110 -80 -198q-80 -86 -202 -86zM366 344l-38 -194h89q48 0 80.5 36t32.5 87q0 33 -21 52t-57 19h-86z" />
    <glyph glyph-name="uni042B" unicode="&#x42b;" horiz-adv-x="927" 
d="M793 0h-175l139 715h175zM310 0h-292l139 715h175l-43 -221h107q90 0 143 -57t53 -153q0 -110 -80 -198q-80 -86 -202 -86zM260 344l-38 -194h79q48 0 80 35.5t32 87.5q0 33 -20.5 52t-56.5 19h-76z" />
    <glyph glyph-name="uni042C" unicode="&#x42c;" horiz-adv-x="628" 
d="M320 0h-302l139 715h175l-43 -221h117q90 0 143 -57t53 -153q0 -111 -81 -198q-80 -86 -201 -86zM260 344l-38 -194h89q48 0 80.5 36t32.5 87q0 33 -21 52t-57 19h-86z" />
    <glyph glyph-name="uni042D" unicode="&#x42d;" horiz-adv-x="719" 
d="M493 288h-297l27 140h296q-5 70 -47 105.5t-113 35.5q-101 0 -201 -78l-74 130q69 55 134 80.5t149 25.5q159 0 246 -87t87 -222q0 -170 -128 -301q-127 -129 -308 -129q-79 0 -152 28.5t-125 81.5l96 120q71 -72 183 -72q77 0 136 38.5t91 103.5z" />
    <glyph glyph-name="uni042E" unicode="&#x42e;" horiz-adv-x="1112" 
d="M193 0h-175l139 715h175l-56 -286h89q42 129 153 213q110 85 242 85q149 0 240 -88q92 -87 92 -224q3 -109 -57.5 -210t-158 -160.5t-199.5 -56.5q-142 0 -232 81q-89 82 -98 211h-100zM526 317q0 -75 42.5 -122t110.5 -47q89 0 160 75q72 77 72 181q0 73 -42.5 118
t-110.5 45q-90 0 -161 -74t-71 -176z" />
    <glyph glyph-name="uni042F" unicode="&#x42f;" horiz-adv-x="661" 
d="M157 0h-203l181 230l42 47v2q-81 54 -81 163q0 147 107 222q74 51 179 51h284l-139 -715h-175l47 241h-60zM351 386h76l35 179h-59q-63 0 -96 -27q-34 -28 -34 -79q0 -73 78 -73z" />
    <glyph glyph-name="uni0430" unicode="&#x430;" horiz-adv-x="546" 
d="M-9 124q0 53 31 93.5t83 62.5q101 41 213 41h8q3 13 3 21q0 45 -66 45q-53 0 -149 -47l-37 130q31 18 97 38q63 19 123 19q36 0 69 -8t65 -25.5t51 -51t19 -79.5q0 -17 -5 -50l-60 -313h-158l6 31l9 32h-2q-24 -31 -64.5 -53t-87.5 -22q-61 0 -105 36q-43 37 -43 100z
M160 153q0 -36 43 -36q33 0 64 28q32 29 38 61l3 16h-18q-37 0 -78 -12q-24 -6 -38 -21t-14 -36z" />
    <glyph glyph-name="uni0431" unicode="&#x431;" horiz-adv-x="619" 
d="M31 244q0 113 52 218q42 85 116.5 140.5t193.5 91.5l182 56l33 -139l-212 -62q-76 -22 -112.5 -48t-48.5 -72h2q57 45 143 45q91 0 144.5 -54.5t53.5 -144.5q0 -118 -88 -203q-88 -84 -219 -84q-114 0 -177 68.5t-63 187.5zM201 213q0 -38 23 -61t59 -23q48 0 84 38
q37 37 37 90q0 38 -23 60t-61 22q-50 0 -85 -39q-34 -37 -34 -87z" />
    <glyph glyph-name="uni0432" unicode="&#x432;" horiz-adv-x="569" 
d="M286 0h-286l101 515h276q72 0 114 -31.5t42 -87.5q0 -39 -22 -73.5t-63 -54.5v-1q30 -12 46 -40.5t16 -63.5q0 -76 -68 -120q-67 -43 -156 -43zM253 408l-19 -96h65q25 0 43.5 17.5t18.5 40.5q0 38 -45 38h-63zM214 211l-20 -103h76q27 0 47 18.5t20 44.5q0 40 -46 40
h-77z" />
    <glyph glyph-name="uni0433" unicode="&#x433;" horiz-adv-x="438" 
d="M173 0h-173l101 515h363l-29 -145h-190z" />
    <glyph glyph-name="uni0434" unicode="&#x434;" horiz-adv-x="652" 
d="M221 137h132l46 241h-90l-4 -19q-29 -139 -84 -222zM93 -120h-159l49 257h60q78 102 103 236l27 142h425l-73 -378h74l-50 -257h-154l23 120h-302z" />
    <glyph glyph-name="uni0435" unicode="&#x435;" horiz-adv-x="566" 
d="M19 213q0 135 85 224q86 90 212 90q106 0 163 -54t57 -148q0 -44 -19 -101h-325v-6q0 -39 27 -62.5t74 -23.5q71 0 153 52l44 -129q-34 -26 -93 -47q-60 -20 -115 -20q-127 0 -195 64q-68 65 -68 161zM215 323h152q1 4 1 18q0 27 -14.5 43t-40.5 16q-69 0 -98 -77z" />
    <glyph glyph-name="uni0436" unicode="&#x436;" horiz-adv-x="828" 
d="M140 0h-186l186 274v2l-79 239h168l58 -183h47l36 183h161l-36 -183h45l125 183h187l-189 -264v-1l96 -250h-177l-62 187h-53l-37 -187h-161l37 187h-48z" />
    <glyph glyph-name="uni0437" unicode="&#x437;" horiz-adv-x="473" 
d="M-26 61l75 108q59 -51 121 -51q30 0 51 15t21 41q0 32 -49 32h-63l23 114h52q28 0 47 13t19 36q0 32 -52 32q-55 0 -125 -39l-41 109q86 56 206 56q85 0 134.5 -37t49.5 -98q0 -86 -91 -126v-2q62 -38 62 -107q0 -80 -69 -125q-68 -44 -162 -44q-124 0 -209 73z" />
    <glyph glyph-name="uni0438" unicode="&#x438;" horiz-adv-x="619" 
d="M170 0h-170l101 515h160l-43 -217l-13 -53h2q12 20 40 53l186 217h170l-101 -515h-160l42 215l13 54h-2q-15 -24 -40 -53z" />
    <glyph glyph-name="uni0439" unicode="&#x439;" horiz-adv-x="619" 
d="M170 0h-170l101 515h160l-43 -217l-13 -53h2q12 20 40 53l186 217h170l-101 -515h-160l42 215l13 54h-2q-15 -24 -40 -53zM381 549q-78 0 -126 35.5t-48 90.5q0 11 5 38h130q-3 -11 -3 -22q0 -22 13.5 -35.5t37.5 -13.5q64 0 75 71h126q-13 -83 -72 -124
q-58 -40 -138 -40z" />
    <glyph glyph-name="uni043A" unicode="&#x43a;" horiz-adv-x="591" 
d="M173 0h-173l101 515h173l-36 -181h52l125 181h198l-199 -266v-2l119 -247h-187l-82 189h-54z" />
    <glyph glyph-name="uni043B" unicode="&#x43b;" horiz-adv-x="597" 
d="M-38 -5l29 151q42 6 72 39q39 39 64 165l32 165h422l-100 -515h-173l73 378h-86l-5 -29q-34 -172 -109 -263t-219 -91z" />
    <glyph glyph-name="uni043C" unicode="&#x43c;" horiz-adv-x="762" 
d="M144 0h-166l149 515h196l36 -226l6 -62h2q18 40 30 62l124 226h199l-52 -515h-164l35 237l16 88h-2q-31 -59 -41 -76l-103 -180h-140l-33 180l-13 78h-2q-9 -49 -18 -90z" />
    <glyph glyph-name="uni043D" unicode="&#x43d;" horiz-adv-x="622" 
d="M173 0h-173l101 515h173l-36 -182h159l36 182h173l-101 -515h-173l37 188h-159z" />
    <glyph glyph-name="uni043E" unicode="&#x43e;" horiz-adv-x="640" 
d="M18 219q0 131 97 219q98 89 224 89q118 0 192 -64q75 -63 75 -167q0 -131 -98 -220q-97 -88 -223 -88q-118 0 -193 63q-74 63 -74 168zM193 227q0 -44 26 -69.5t69 -25.5q56 0 99 43q44 44 44 110q0 45 -26 71.5t-68 26.5q-54 0 -99 -45q-45 -44 -45 -111z" />
    <glyph glyph-name="uni043F" unicode="&#x43f;" horiz-adv-x="616" 
d="M173 0h-173l101 515h499l-101 -515h-173l72 370h-153z" />
    <glyph glyph-name="uni0440" unicode="&#x440;" horiz-adv-x="633" 
d="M172 -2l-38 -198h-172l138 715h156l-5 -26l-9 -33h2q59 71 155 71q92 0 145.5 -60.5t53.5 -163.5q0 -134 -86 -225q-86 -90 -196 -90q-86 0 -135 54h-2q-1 -8 -7 -44zM214 222q0 -41 20.5 -66t59.5 -25q48 0 89 44q40 43 40 115q0 42 -21.5 66.5t-58.5 24.5
q-45 0 -87 -45q-42 -44 -42 -114z" />
    <glyph glyph-name="uni0441" unicode="&#x441;" horiz-adv-x="554" 
d="M19 224q0 118 91 210q92 93 231 93q134 0 210 -76l-87 -108q-47 40 -115 40t-112 -47q-43 -46 -43 -102q0 -44 28 -73t78 -29q66 0 154 62l44 -131q-39 -31 -101 -54q-61 -21 -121 -21q-122 0 -190 66q-67 67 -67 170z" />
    <glyph glyph-name="uni0442" unicode="&#x442;" horiz-adv-x="516" 
d="M286 0h-173l72 370h-156l29 145h486l-29 -145h-157z" />
    <glyph glyph-name="uni0443" unicode="&#x443;" horiz-adv-x="565" 
d="M-81 -170l75 120q20 -16 51 -16q62 0 93 52l15 24l-121 505h180l42 -255l5 -76h2q19 49 31 73l115 258h194l-322 -570q-44 -76 -103.5 -115.5t-121.5 -39.5q-74 0 -135 40z" />
    <glyph glyph-name="uni0444" unicode="&#x444;" horiz-adv-x="791" 
d="M20 225q0 123 96 207q98 85 242 95l34 173h163l-34 -173q98 -3 166 -69t68 -169q0 -123 -96 -207q-97 -84 -242 -94l-37 -188h-163l37 188q-99 3 -167 68q-67 66 -67 169zM495 391l-52 -267q61 6 101 52q42 46 42 108q0 47 -24.5 75.5t-66.5 31.5zM186 230
q0 -45 25.5 -73.5t68.5 -32.5l52 267q-60 -6 -104 -53q-42 -46 -42 -108z" />
    <glyph glyph-name="uni0445" unicode="&#x445;" horiz-adv-x="549" 
d="M150 0h-197l216 260l-122 255h182l42 -110l11 -38h2q13 24 22 38l78 110h200l-220 -265l119 -250h-178l-46 111l-9 30h-2q-10 -21 -18 -30z" />
    <glyph glyph-name="uni0446" unicode="&#x446;" horiz-adv-x="647" 
d="M412 0h-411l100 515h173l-72 -370h146l72 370h173l-72 -370h73l-51 -265h-154z" />
    <glyph glyph-name="uni0447" unicode="&#x447;" horiz-adv-x="574" 
d="M196 162q-76 0 -120 35t-44 99q0 22 4 39l35 180h170l-25 -126q-6 -35 -6 -38q0 -24 15 -38t41 -14q41 0 81 25l38 191h173l-101 -515h-173l33 166l6 23h-2q-53 -27 -125 -27z" />
    <glyph glyph-name="uni0448" unicode="&#x448;" horiz-adv-x="838" 
d="M721 0h-721l101 515h163l-72 -370h116l72 370h163l-72 -370h116l72 370h163z" />
    <glyph glyph-name="uni0449" unicode="&#x449;" horiz-adv-x="876" 
d="M641 0h-640l100 515h163l-72 -370h116l72 370h163l-72 -370h116l72 370h163l-72 -370h73l-51 -265h-154z" />
    <glyph glyph-name="uni044A" unicode="&#x44a;" horiz-adv-x="617" 
d="M345 0h-268l72 370h-130l29 145h303l-32 -161h85q87 0 130.5 -40t43.5 -114q0 -92 -63 -146t-170 -54zM297 242l-25 -129h53q31 0 54 22.5t23 55.5q0 51 -55 51h-50z" />
    <glyph glyph-name="uni044B" unicode="&#x44b;" horiz-adv-x="804" 
d="M687 0h-173l101 515h173zM263 0h-263l101 515h173l-32 -161h80q87 0 130.5 -40t43.5 -114q0 -92 -63 -146t-170 -54zM220 242l-25 -129h48q31 0 54 22.5t23 55.5q0 51 -55 51h-45z" />
    <glyph glyph-name="uni044C" unicode="&#x44c;" horiz-adv-x="540" 
d="M268 0h-268l101 515h173l-32 -161h85q87 0 130.5 -40t43.5 -114q0 -92 -63 -146t-170 -54zM220 242l-25 -129h53q31 0 54 22.5t23 55.5q0 51 -55 51h-50z" />
    <glyph glyph-name="uni044D" unicode="&#x44d;" horiz-adv-x="551" 
d="M335 202h-193l22 114h194q-14 77 -110 77q-81 0 -138 -51l-60 114q37 33 96.5 52t120.5 19q122 0 186 -67q65 -67 65 -164q0 -125 -98 -217q-97 -91 -237 -91q-58 0 -115 19q-58 19 -93 56l70 111q24 -24 63 -38t78 -14q98 0 149 80z" />
    <glyph glyph-name="uni044E" unicode="&#x44e;" horiz-adv-x="889" 
d="M173 0h-173l101 515h173l-37 -186h63q35 89 119 143q83 55 183 55q108 0 179 -64q73 -64 73 -173q0 -126 -95 -215q-95 -87 -223 -87q-100 0 -171 54q-70 55 -82 150h-72zM456 231q0 -47 23 -73t63 -26q53 0 95 42q42 44 42 107q0 48 -25 75t-66 27q-52 0 -93 -44
q-39 -43 -39 -108z" />
    <glyph glyph-name="uni044F" unicode="&#x44f;" horiz-adv-x="564" 
d="M148 0h-191l132 160l31 31v2q-66 41 -66 131q0 80 61 135q62 56 149 56h284l-101 -515h-173l31 157h-36zM226 323q0 -51 60 -51h41l27 136h-42q-37 0 -61.5 -23.5t-24.5 -61.5z" />
    <glyph glyph-name="uni0450" unicode="&#x450;" horiz-adv-x="566" 
d="M19 213q0 135 85 224q86 90 212 90q106 0 163 -54t57 -148q0 -44 -19 -101h-325v-6q0 -39 27 -62.5t74 -23.5q71 0 153 52l44 -129q-34 -26 -93 -47q-60 -20 -115 -20q-127 0 -195 64q-68 65 -68 161zM424 565h-128l-88 150h165zM215 323h152q1 4 1 18q0 27 -14.5 43
t-40.5 16q-69 0 -98 -77z" />
    <glyph glyph-name="uni0451" unicode="&#x451;" horiz-adv-x="566" 
d="M19 213q0 135 85 224q86 90 212 90q106 0 163 -54t57 -148q0 -44 -19 -101h-325v-6q0 -39 27 -62.5t74 -23.5q71 0 153 52l44 -129q-34 -26 -93 -47q-60 -20 -115 -20q-127 0 -195 64q-68 65 -68 161zM306 575h-126l28 140h126zM515 575h-126l28 140h126zM215 323h152
q1 4 1 18q0 27 -14.5 43t-40.5 16q-69 0 -98 -77z" />
    <glyph glyph-name="uni0452" unicode="&#x452;" horiz-adv-x="627" 
d="M102 522h-58l22 115h59l15 78h173l-15 -78h163l-22 -115h-164l-19 -100l-12 -42h2q22 34 69 57q48 23 97 23q75 0 117.5 -36.5t42.5 -109.5q0 -22 -7 -57l-47 -250q-19 -99 -85 -155q-76 -62 -179 -60l-66 3l29 145q22 -2 36 -2q80 0 96 91l39 200q3 18 3 30q0 44 -45 44
q-50 0 -90 -42q-40 -43 -50 -100l-32 -161h-173z" />
    <glyph glyph-name="uni0453" unicode="&#x453;" horiz-adv-x="438" 
d="M173 0h-173l101 515h363l-29 -145h-190zM336 565h-140l111 150h177z" />
    <glyph glyph-name="uni0454" unicode="&#x454;" horiz-adv-x="558" 
d="M18 224q0 120 99 212q100 91 235 91t200 -71l-78 -112q-21 21 -58 33.5t-73 12.5q-94 0 -143 -74h194l-22 -114h-196q15 -80 122 -80q77 0 156 64l49 -124q-34 -30 -106 -53q-71 -21 -130 -21q-120 0 -185 66q-64 67 -64 170z" />
    <glyph glyph-name="uni0455" unicode="&#x455;" horiz-adv-x="468" 
d="M-17 58l82 116q51 -46 132 -46q55 0 55 30q0 13 -21 24t-51 22.5t-60 27.5t-51 48.5t-21 77.5q0 75 62 122q64 47 156 47q104 0 189 -57l-68 -120q-46 37 -126 37q-53 0 -53 -29q0 -18 72 -45q134 -44 133 -159q0 -75 -58 -121q-59 -45 -151 -45q-127 0 -221 70z" />
    <glyph glyph-name="uni0456" unicode="&#x456;" horiz-adv-x="289" 
d="M284 580h-169l26 135h169zM173 0h-172l99 515h173z" />
    <glyph glyph-name="uni0457" unicode="&#x457;" horiz-adv-x="289" 
d="M367 575h-126l28 140h126zM158 575h-126l28 140h126zM173 0h-172l99 515h173z" />
    <glyph glyph-name="uni0458" unicode="&#x458;" horiz-adv-x="290" 
d="M284 580h-169l26 135h169zM1 4l99 511h173l-102 -526q-24 -124 -117 -164q-74 -33 -147 -33q-28 0 -61 3l28 144q4 -1 22 -1q92 0 105 66z" />
    <glyph glyph-name="uni0459" unicode="&#x459;" horiz-adv-x="825" 
d="M-36 -5l28 151q43 6 74 35q40 37 64 159l34 175h401l-35 -177h75q180 0 180 -149q0 -89 -64.5 -139t-171.5 -50h-258l73 378h-65l-6 -31q-36 -180 -106 -265q-76 -91 -223 -87zM508 224l-22 -111h56q32 0 55 17.5t23 46.5q0 47 -59 47h-53z" />
    <glyph glyph-name="uni045A" unicode="&#x45a;" horiz-adv-x="871" 
d="M173 0h-173l101 515h173l-34 -175h165l34 175h173l-35 -177h75q180 0 180 -149q0 -89 -64.5 -139t-171.5 -50h-258l41 207h-165zM555 224l-22 -111h56q32 0 55 17.5t23 46.5q0 47 -59 47h-53z" />
    <glyph glyph-name="uni045B" unicode="&#x45b;" horiz-adv-x="628" 
d="M102 522h-59l23 115h59l15 78h173l-16 -78h164l-23 -115h-163l-19 -98l-10 -44h2q22 35 68 58.5t95 23.5q76 0 119 -36.5t43 -109.5q0 -22 -7 -57l-50 -259h-173l45 231q3 18 3 30q0 44 -46 44q-49 0 -90 -42q-40 -43 -50 -100l-31 -163h-173z" />
    <glyph glyph-name="uni045C" unicode="&#x45c;" horiz-adv-x="591" 
d="M173 0h-173l101 515h173l-36 -181h52l125 181h198l-199 -266v-2l119 -247h-187l-82 189h-54zM412 565h-140l111 150h177z" />
    <glyph glyph-name="uni045D" unicode="&#x45d;" horiz-adv-x="619" 
d="M170 0h-170l101 515h160l-43 -217l-13 -53h2q12 20 40 53l186 217h170l-101 -515h-160l42 215l13 54h-2q-15 -24 -40 -53zM440 565h-128l-88 150h165z" />
    <glyph glyph-name="uni045E" unicode="&#x45e;" horiz-adv-x="565" 
d="M-81 -170l75 120q20 -16 51 -16q62 0 93 52l15 24l-121 505h180l42 -255l5 -76h2q19 49 31 73l115 258h194l-322 -570q-44 -76 -103.5 -115.5t-121.5 -39.5q-74 0 -135 40zM340 551q-78 0 -126 35.5t-48 90.5q0 11 5 38h130q-3 -11 -3 -22q0 -22 13.5 -35.5t37.5 -13.5
q64 0 75 71h126q-13 -83 -72 -124q-58 -40 -138 -40z" />
    <glyph glyph-name="uni045F" unicode="&#x45f;" horiz-adv-x="609" 
d="M170 0h-169l100 515h173l-72 -370h146l72 370h173l-100 -515h-169l-23 -120h-154z" />
    <glyph glyph-name="uni0462" unicode="&#x462;" horiz-adv-x="715" 
d="M413 0h-307l104 539h-160l26 130h164l15 81h171l-15 -81h204l-26 -130h-204l-16 -85h112q93 0 148 -55q56 -54 56 -139q0 -106 -80 -183t-192 -77zM340 304l-30 -154h89q43 0 73.5 25t30.5 66q0 63 -77 63h-86z" />
    <glyph glyph-name="uni0463" unicode="&#x463;" horiz-adv-x="596" 
d="M325 0h-268l89 456h-122l23 121h121l27 138h173l-27 -138h161l-23 -121h-160l-20 -102h85q178 0 178 -154q0 -90 -66 -146q-64 -54 -171 -54zM277 242l-25 -129h58q33 0 56 22.5t23 57.5q0 22 -15 35.5t-42 13.5h-55z" />
    <glyph glyph-name="uni0472" unicode="&#x472;" horiz-adv-x="820" 
d="M44 307q0 111 58 208q59 98 156 155t205 57q153 0 244 -88q93 -87 93 -224q0 -113 -60 -212q-58 -98 -156 -157q-97 -58 -204 -58q-152 0 -244 89q-92 90 -92 230zM242 424h381q-7 67 -51 107.5t-111 40.5t-127.5 -41t-91.5 -107zM382 143q64 0 125 41q59 40 91 108h-378
q8 -68 52 -108.5t110 -40.5z" />
    <glyph glyph-name="uni0473" unicode="&#x473;" horiz-adv-x="641" 
d="M19 224q0 128 98 215q98 88 231 88q111 0 184 -64q75 -63 75 -172q0 -127 -99 -216q-98 -87 -230 -87q-110 0 -185 63q-74 65 -74 173zM286 112q49 0 91 27t62 74h-264q4 -49 33.5 -75t77.5 -26zM341 403q-46 0 -88 -26.5t-63 -69.5h260q-7 47 -35.5 71.5t-73.5 24.5z
" />
    <glyph glyph-name="uni0474" unicode="&#x474;" horiz-adv-x="695" 
d="M370 0h-182l-114 715h182l47 -407l5 -115h2q22 61 49 115l178 349q17 33 37.5 45.5t57.5 12.5h133l-29 -150h-25q-20 0 -31.5 -8.5t-23.5 -30.5z" />
    <glyph glyph-name="uni0475" unicode="&#x475;" horiz-adv-x="598" 
d="M332 0h-211l-77 515h174l26 -274l2 -89h2q18 52 36 89l87 177q25 54 56 75.5t83 21.5h115l-29 -145h-24q-26 0 -39 -9.5t-28 -37.5z" />
    <glyph glyph-name="uni048A" unicode="&#x48a;" horiz-adv-x="822" 
d="M194 0h-176l139 715h175l-65 -334l-32 -122h2q48 77 84 122l263 334h177l-110 -565h137l-18 -91l-128 -199h-117l61 140h-139l65 333q8 44 25 101l6 21h-2q-51 -83 -83 -122zM469 747q-78 0 -126 35.5t-48 90.5q0 11 5 38h130q-3 -11 -3 -22q0 -22 13.5 -35.5t37.5 -13.5
q64 0 75 71h126q-13 -83 -72 -124q-58 -40 -138 -40z" />
    <glyph glyph-name="uni048B" unicode="&#x48b;" horiz-adv-x="696" 
d="M170 0h-170l101 515h160l-43 -217l-13 -53h2q12 20 40 53l186 217h170l-73 -370h125l-16 -86l-114 -179h-111l51 120h-123l42 215l13 54h-2q-15 -24 -40 -53zM361 551q-78 0 -126 35.5t-48 90.5q0 11 5 38h130q-3 -11 -3 -22q0 -22 13.5 -35.5t37.5 -13.5q64 0 75 71h126
q-13 -83 -72 -124q-58 -40 -138 -40z" />
    <glyph glyph-name="uni048C" unicode="&#x48c;" horiz-adv-x="715" 
d="M412 0h-307l106 547h-160l25 130h164l14 73h171l-14 -73h204l-25 -130h-204l-18 -93h112q90 0 147 -59q57 -58 57 -146q0 -103 -78 -176q-77 -73 -194 -73zM339 304l-30 -154h89q41 0 74 24q33 26 33 67q0 63 -80 63h-86z" />
    <glyph glyph-name="uni048D" unicode="&#x48d;" horiz-adv-x="596" 
d="M325 0h-268l89 456h-122l23 121h121l27 138h173l-27 -138h161l-23 -121h-160l-20 -102h85q178 0 178 -154q0 -90 -66 -146q-64 -54 -171 -54zM277 242l-25 -129h58q33 0 56 22.5t23 57.5q0 22 -15 35.5t-42 13.5h-55z" />
    <glyph glyph-name="uni048E" unicode="&#x48e;" horiz-adv-x="646" 
d="M193 0h-175l139 715h273q65 0 109 -22q104 -50 104 -181q0 -130 -93 -219l50 -60l-74 -64l-59 71q-44 -19 -98 -19h-133zM375 351l-47 57l74 64l57 -69q24 42 24 93q0 33 -18.5 51t-53.5 18h-108l-40 -214h105h7z" />
    <glyph glyph-name="uni048F" unicode="&#x48f;" horiz-adv-x="648" 
d="M172 -2l-38 -198h-172l138 715h156l-5 -26l-9 -33h2q59 71 158 71q90 0 143 -61t53 -164q0 -135 -89 -227l58 -71l-77 -63l-60 75q-55 -28 -114 -28q-86 0 -135 54h-2q-1 -8 -7 -44zM340 127l-56 71l77 63l56 -71q26 41 26 89q0 46 -23.5 74t-65.5 28q-56 0 -98 -45
t-42 -112q0 -47 22.5 -75t63.5 -28q20 0 40 6z" />
    <glyph glyph-name="uni0490" unicode="&#x490;" horiz-adv-x="542" 
d="M193 0h-175l139 715h314l24 120h140l-53 -270h-279z" />
    <glyph glyph-name="uni0491" unicode="&#x491;" horiz-adv-x="454" 
d="M174 0h-173l100 515h248l23 120h131l-51 -265h-206z" />
    <glyph glyph-name="uni0492" unicode="&#x492;" horiz-adv-x="536" 
d="M197 0h-175l54 281h-55l23 120h56l61 314h438l-29 -150h-263l-32 -164h155l-23 -120h-156z" />
    <glyph glyph-name="uni0493" unicode="&#x493;" horiz-adv-x="451" 
d="M181 0h-173l34 177h-59l20 105h60l46 233h363l-29 -145h-190l-17 -88h121l-20 -105h-122z" />
    <glyph glyph-name="uni0494" unicode="&#x494;" horiz-adv-x="653" 
d="M193 0h-175l139 715h439l-29 -150h-264l-30 -154q48 16 110 16q107 0 164 -63.5t57 -179.5q0 -104 -44 -194q-44 -89 -129 -140t-192 -40l27 140q65 0 108 64q44 65 44 149q0 56 -23 83t-76 27q-35 0 -75 -13z" />
    <glyph glyph-name="uni0495" unicode="&#x495;" horiz-adv-x="544" 
d="M174 0h-173l100 515h381l-26 -136h-208l-19 -96q39 16 87 16q81 0 127 -48.5t46 -134.5q0 -99 -57.5 -183.5t-160.5 -142.5l-76 120q53 29 92 83q37 52 37 103q0 31 -18 49t-51 18q-24 0 -51 -13z" />
    <glyph glyph-name="uni0496" unicode="&#x496;" horiz-adv-x="1070" 
d="M159 0h-205l271 387v2l-132 326h178l109 -276h67l54 276h175l-54 -276h67l177 276h208l-247 -357v-2l69 -207h131l-57 -289h-155l28 140h-77l-90 290h-83l-56 -290h-175l56 290h-67z" />
    <glyph glyph-name="uni0497" unicode="&#x497;" horiz-adv-x="881" 
d="M140 0h-186l186 274v2l-79 239h168l58 -183h47l36 183h161l-36 -183h45l125 183h187l-189 -264v-1l40 -105h129l-51 -265h-153l23 120h-69l-62 187h-53l-37 -187h-161l37 187h-48z" />
    <glyph glyph-name="uni0498" unicode="&#x498;" horiz-adv-x="573" 
d="M-18 97l100 112q57 -68 142 -68q49 0 82 25.5t33 67.5q0 54 -73 54h-103l27 140h87q40 0 69.5 25.5t29.5 62.5q0 59 -70 59q-66 0 -151 -59l-62 127q107 84 242 84q97 0 162 -47q64 -46 64 -132q0 -59 -34.5 -107t-92.5 -72l-1 -2q39 -18 62 -55.5t23 -84.5
q0 -85 -60 -147q-58 -61 -149 -82l-27 -138h-155l27 136q-112 23 -172 101z" />
    <glyph glyph-name="uni0499" unicode="&#x499;" horiz-adv-x="474" 
d="M-26 61l75 108q59 -51 121 -51q30 0 51 15t21 41q0 32 -49 32h-63l23 114h52q28 0 47 13t19 36q0 32 -52 32q-55 0 -125 -39l-41 109q86 56 206 56q85 0 134.5 -37t49.5 -98q0 -86 -91 -126v-2q62 -38 62 -107q0 -61 -43.5 -103.5t-114.5 -57.5l-22 -116h-150l22 117
q-77 17 -132 64z" />
    <glyph glyph-name="uni049A" unicode="&#x49a;" horiz-adv-x="724" 
d="M193 0h-175l139 715h175l-54 -276h67l205 276h203l-271 -351v-2l76 -213h116l-57 -289h-155l28 140h-64l-95 290h-82z" />
    <glyph glyph-name="uni049B" unicode="&#x49b;" horiz-adv-x="642" 
d="M173 0h-173l101 515h173l-36 -181h52l125 181h198l-199 -266v-2l49 -102h130l-51 -265h-153l23 120h-66l-82 189h-54z" />
    <glyph glyph-name="uni049C" unicode="&#x49c;" horiz-adv-x="804" 
d="M193 0h-175l139 715h175l-54 -276h51l21 106h120l-21 -106h30l182 276h204l-260 -367v-2l136 -346h-181l-110 290h-30l-21 -109h-120l21 109h-51z" />
    <glyph glyph-name="uni049D" unicode="&#x49d;" horiz-adv-x="691" 
d="M173 0h-173l101 515h173l-36 -181h31l18 93h100l-18 -93h18l128 181h198l-201 -259v-2l121 -254h-187l-82 189h-23l-18 -94h-100l18 94h-31z" />
    <glyph glyph-name="uni049E" unicode="&#x49e;" horiz-adv-x="689" 
d="M125 515h-65l22 112h65l17 88h175l-17 -88h69l-22 -112h-69l-15 -76h67l205 276h203l-271 -351v-2l130 -362h-186l-95 290h-82l-56 -290h-175z" />
    <glyph glyph-name="uni049F" unicode="&#x49f;" horiz-adv-x="596" 
d="M103 527h-68l22 110h68l15 78h173l-15 -78h82l-22 -110h-82l-35 -182h47l136 170h201l-207 -244v-2l115 -269h-183l-75 200h-62l-39 -200h-173z" />
    <glyph glyph-name="uni04A0" unicode="&#x4a0;" horiz-adv-x="804" 
d="M315 0h-175l110 565h-184l29 150h359l-54 -276h67l205 276h203l-271 -351v-2l130 -362h-186l-95 290h-82z" />
    <glyph glyph-name="uni04A1" unicode="&#x4a1;" horiz-adv-x="668" 
d="M250 0h-173l72 370h-129l28 145h303l-36 -181h52l125 181h198l-199 -266v-2l119 -247h-187l-82 189h-54z" />
    <glyph glyph-name="uni04A2" unicode="&#x4a2;" horiz-adv-x="811" 
d="M193 0h-175l139 715h175l-56 -286h260l56 286h175l-110 -566h114l-57 -289h-155l28 140h-134l54 280h-260z" />
    <glyph glyph-name="uni04A3" unicode="&#x4a3;" horiz-adv-x="678" 
d="M173 0h-173l101 515h173l-36 -182h159l36 182h173l-73 -370h99l-51 -265h-153l23 120h-119l37 188h-159z" />
    <glyph glyph-name="uni04A4" unicode="&#x4a4;" horiz-adv-x="961" 
d="M193 0h-175l139 715h175l-56 -286h260l56 286h438l-29 -150h-263l-110 -565h-175l54 280h-260z" />
    <glyph glyph-name="uni04A5" unicode="&#x4a5;" horiz-adv-x="762" 
d="M173 0h-173l101 515h173l-36 -182h159l36 182h355l-29 -145h-182l-72 -370h-173l37 188h-159z" />
    <glyph glyph-name="uni04A6" unicode="&#x4a6;" horiz-adv-x="1006" 
d="M193 0h-175l139 715h534l-57 -294q48 16 110 16q107 0 163 -64.5t56 -183.5q0 -105 -44 -195t-128 -142q-85 -52 -193 -42l27 140q64 0 108 65q44 67 44 153q0 58 -22.5 86.5t-74.5 28.5q-35 0 -75 -13l-53 -270h-175l110 567h-183z" />
    <glyph glyph-name="uni04A7" unicode="&#x4a7;" horiz-adv-x="866" 
d="M174 0h-173l100 515h475l-38 -190q51 18 96 18q81 0 130 -61t49 -164q0 -128 -76 -216t-175 -112l-44 129q120 49 120 185q0 44 -20.5 70.5t-56.5 26.5q-21 0 -48 -12l-37 -189h-173l72 370h-129z" />
    <glyph glyph-name="uni04A8" unicode="&#x4a8;" horiz-adv-x="955" 
d="M46 312q0 130 75 242t194 174l71 -158q-71 -42 -116 -107q-46 -67 -46 -145q0 -77 44.5 -123.5t129.5 -46.5q31 0 51 4q-71 89 -71 206q0 90 37 168q37 80 113 135q75 54 171 54q111 0 172 -69q62 -70 62 -172q0 -87 -45 -174t-124 -158q18 -2 41 -2h65l-27 -140h-68
q-91 0 -172 37q-105 -49 -215 -49q-148 0 -245 88t-97 236zM555 355q0 -85 48 -139q69 47 110 113t41 137q0 90 -71 90q-45 0 -76 -36q-52 -61 -52 -165z" />
    <glyph glyph-name="uni04A9" unicode="&#x4a9;" horiz-adv-x="833" 
d="M21 234q0 95 58 174q59 80 155 119l58 -137q-48 -23 -80.5 -64t-32.5 -87q0 -51 35 -84.5t98 -33.5q26 0 45 4q-53 64 -53 145q0 104 78 181q77 76 194 76q94 0 150 -53q55 -52 55 -130q0 -115 -118 -218h23h90l-25 -126h-80q-89 0 -168 29q-102 -41 -194 -41
q-117 0 -203 65q-85 64 -85 181zM464 275q0 -59 42 -97q115 66 115 157q0 63 -59 63q-46 0 -72 -36t-26 -87z" />
    <glyph glyph-name="uni04AA" unicode="&#x4aa;" horiz-adv-x="717" 
d="M45 305q0 173 124 297q125 125 296 125q82 0 155.5 -26.5t120.5 -76.5l-99 -120q-74 63 -171 63q-111 0 -178 -78q-67 -77 -67 -172q0 -75 43.5 -122t122.5 -47q103 0 209 85l68 -139q-46 -40 -113 -68.5t-136 -35.5l-26 -130h-155l28 143q-105 29 -163.5 109.5
t-58.5 192.5z" />
    <glyph glyph-name="uni04AB" unicode="&#x4ab;" horiz-adv-x="556" 
d="M20 224q0 118 91 210q91 93 231 93q134 0 210 -76l-87 -108q-47 40 -115 40t-112 -47q-43 -46 -43 -102q0 -44 28 -73t78 -29q66 0 154 62l44 -131q-69 -59 -178 -72l-21 -111h-150l24 123q-74 24 -114 83t-40 138z" />
    <glyph glyph-name="uni04AC" unicode="&#x4ac;" horiz-adv-x="636" 
d="M303 0h-135l110 565h-216l29 150h607l-29 -150h-216l-81 -416h115l-57 -289h-155z" />
    <glyph glyph-name="uni04AD" unicode="&#x4ad;" horiz-adv-x="525" 
d="M231 0h-118l72 370h-156l29 145h486l-29 -145h-157l-44 -225h98l-51 -265h-153z" />
    <glyph glyph-name="uni04AE" unicode="&#x4ae;" horiz-adv-x="610" 
d="M333 0h-175l57 293l-149 422h189l48 -172l23 -103h2l63 103l109 172h210l-322 -429z" />
    <glyph glyph-name="uni04AF" unicode="&#x4af;" horiz-adv-x="564" 
d="M100 -200l39 200l-97 515h175l31 -254l2 -87h2q20 52 36 87l128 254h190l-295 -515l-39 -200h-172z" />
    <glyph glyph-name="uni04B0" unicode="&#x4b0;" horiz-adv-x="608" 
d="M196 189h-104l23 120h95l-148 406h191l48 -172l23 -103h2q28 51 63 103l113 172h207l-306 -406h107l-23 -120h-116l-37 -189h-175z" />
    <glyph glyph-name="uni04B1" unicode="&#x4b1;" horiz-adv-x="565" 
d="M140 0h-120l21 110h78l-76 405h176l31 -254l2 -87h2q20 52 36 87l128 254h189l-232 -405h78l-21 -110h-120l-39 -200h-172z" />
    <glyph glyph-name="uni04B2" unicode="&#x4b2;" horiz-adv-x="701" 
d="M148 0h-197l286 360l-149 355h191l52 -144l28 -91h2q28 49 59 91l105 144h204l-291 -364l87 -202h128l-57 -289h-155l28 140h-67l-56 147l-28 88h-2q-28 -47 -59 -88z" />
    <glyph glyph-name="uni04B3" unicode="&#x4b3;" horiz-adv-x="590" 
d="M150 0h-197l216 260l-122 255h182l42 -110l11 -38h2q13 24 22 38l78 110h200l-220 -265l50 -105h123l-51 -265h-153l23 120h-51l-46 111l-9 30h-2q-10 -21 -18 -30z" />
    <glyph glyph-name="uni04B4" unicode="&#x4b4;" horiz-adv-x="933" 
d="M698 0h-557l109 565h-185l30 150h545l-30 -150h-185l-80 -416h264l110 566h175l-110 -566h98l-57 -289h-155z" />
    <glyph glyph-name="uni04B5" unicode="&#x4b5;" horiz-adv-x="764" 
d="M534 0h-460l72 370h-114l28 145h402l-28 -145h-115l-44 -225h186l72 370h173l-72 -370h82l-51 -264h-154z" />
    <glyph glyph-name="uni04B6" unicode="&#x4b6;" horiz-adv-x="739" 
d="M270 253q-98 0 -152 45t-54 126q0 25 8 68l43 223h179l-38 -197q-4 -15 -4 -36q0 -70 79 -70q69 0 133 38l51 265h179l-110 -566h115l-57 -289h-155l28 140h-139l49 254l9 32h-2q-88 -33 -162 -33z" />
    <glyph glyph-name="uni04B7" unicode="&#x4b7;" horiz-adv-x="628" 
d="M196 162q-76 0 -120 35t-44 99q0 22 4 39l35 180h170l-25 -126q-6 -35 -6 -38q0 -24 15 -38t41 -14q41 0 81 25l38 191h173l-73 -370h97l-51 -265h-153l23 120h-117l33 166l6 23h-2q-53 -27 -125 -27z" />
    <glyph glyph-name="uni04B8" unicode="&#x4b8;" horiz-adv-x="728" 
d="M376 166h-120l18 92q-101 2 -156 45.5t-55 120.5q0 25 8 68l43 223h179l-38 -197q-4 -15 -4 -36q0 -53 53 -67l26 130h120l-24 -123q52 14 77 28l51 265h179l-139 -715h-179l52 264l9 32h-2q-49 -18 -78 -25z" />
    <glyph glyph-name="uni04B9" unicode="&#x4b9;" horiz-adv-x="634" 
d="M306 85h-100l15 77q-88 0 -137 37.5t-49 111.5q0 23 6 52l30 152h170l-25 -122q-4 -21 -4 -33q0 -45 37 -55l22 112h100l-22 -113q25 5 58 20l38 191h173l-101 -515h-173l33 166l6 23h-1q-27 -11 -59 -17z" />
    <glyph glyph-name="uni04BA" unicode="&#x4ba;" horiz-adv-x="656" 
d="M194 0h-175l138 715h175l-49 -256l-9 -34h2q75 31 158 31q88 0 133.5 -46t45.5 -128q0 -37 -7 -69l-42 -213h-179l38 197q4 23 4 37q0 64 -77 64q-54 0 -103 -26z" />
    <glyph glyph-name="uni04BB" unicode="&#x4bb;" horiz-adv-x="627" 
d="M174 0h-173l139 715h173l-44 -226l-10 -44h2q22 35 68 58.5t95 23.5q76 0 119 -36.5t43 -109.5q0 -22 -7 -57l-63 -324h-173l58 296q3 18 3 30q0 44 -46 44q-50 0 -90 -42q-40 -43 -50 -100z" />
    <glyph glyph-name="uni04BC" unicode="&#x4bc;" horiz-adv-x="915" 
d="M57 481q0 69 46 167h160q-49 -91 -49 -143q0 -54 42 -61q44 122 146 202q104 81 237 81q127 0 194 -73q69 -72 69 -190q0 -73 -29 -154h-461q0 -73 42.5 -117.5t116.5 -44.5q52 0 106 21.5t91 51.5l69 -138q-24 -19 -51 -35t-97 -39q-67 -21 -138 -21q-150 0 -235 85
q-86 86 -86 224v14q-79 2 -126 45.5t-47 124.5zM438 443h292q3 16 3 31q0 46 -30.5 73t-83.5 27q-69 0 -118 -42t-63 -89z" />
    <glyph glyph-name="uni04BD" unicode="&#x4bd;" horiz-adv-x="718" 
d="M31 365q0 54 30 111h134q-33 -58 -33 -97t28 -46q33 86 108 140t175 54t157.5 -54.5t57.5 -145.5q0 -46 -19 -103h-325v-6q0 -39 27 -62.5t74 -23.5q71 0 153 52l44 -129q-38 -29 -96 -48t-121 -19q-110 0 -183 62q-71 62 -71 174v2q-68 4 -104 40t-36 99zM367 323h152
q1 4 1 18q0 27 -15.5 43t-42.5 16q-32 0 -57 -20.5t-38 -56.5z" />
    <glyph glyph-name="uni04BE" unicode="&#x4be;" horiz-adv-x="917" 
d="M58 481q0 69 46 167h160q-49 -91 -49 -143q0 -54 42 -61q44 122 146 202q103 81 237 81q127 0 194 -73q69 -72 69 -190q0 -73 -29 -154h-461q0 -73 42.5 -117.5t116.5 -44.5q52 0 106 21.5t91 51.5l69 -138q-107 -83 -256 -94l-25 -129h-155l28 146q-95 31 -147 108
t-52 183v14q-79 2 -126 45.5t-47 124.5zM439 443h292q3 16 3 31q0 46 -30.5 73t-83.5 27q-68 0 -118 -42q-49 -42 -63 -89z" />
    <glyph glyph-name="uni04BF" unicode="&#x4bf;" horiz-adv-x="720" 
d="M32 365q0 54 30 111h134q-33 -58 -33 -97t28 -46q33 86 108 140t175 54t157.5 -54.5t57.5 -145.5q0 -46 -19 -103h-325v-6q0 -39 27 -62.5t74 -23.5q71 0 153 52l44 -129q-76 -56 -182 -65l-21 -110h-150l24 127q-67 25 -104.5 81t-37.5 136v2q-68 4 -104 40t-36 99z
M368 323h152q1 4 1 18q0 27 -15.5 43t-42.5 16q-32 0 -57 -20.5t-38 -56.5z" />
    <glyph glyph-name="uni04C0" unicode="&#x4c0;" horiz-adv-x="327" 
d="M193 0h-175l139 715h175z" />
    <glyph glyph-name="uni04C1" unicode="&#x4c1;" horiz-adv-x="1018" 
d="M159 0h-205l271 387v2l-132 326h178l109 -276h67l54 276h175l-54 -276h67l177 276h208l-247 -357v-2l119 -356h-180l-90 290h-83l-56 -290h-175l56 290h-67zM602 747q-78 0 -126 35.5t-48 90.5q0 11 5 38h130q-3 -11 -3 -22q0 -22 13.5 -35.5t37.5 -13.5q64 0 75 71h126
q-13 -83 -72 -124q-58 -40 -138 -40z" />
    <glyph glyph-name="uni04C2" unicode="&#x4c2;" horiz-adv-x="828" 
d="M140 0h-186l186 274v2l-79 239h168l58 -183h47l36 183h161l-36 -183h45l125 183h187l-189 -264v-1l96 -250h-177l-62 187h-53l-37 -187h-161l37 187h-48zM467 551q-78 0 -126 35.5t-48 90.5q0 11 5 38h130q-3 -11 -3 -22q0 -22 13.5 -35.5t37.5 -13.5q64 0 75 71h126
q-13 -83 -72 -124q-58 -40 -138 -40z" />
    <glyph glyph-name="uni04C3" unicode="&#x4c3;" horiz-adv-x="695" 
d="M193 0h-175l139 715h175l-53 -276q58 0 71 -1l192 277h202l-232 -320q111 -67 111 -224q0 -133 -80 -248q-40 -58 -108.5 -89t-150.5 -24l28 145q36 0 63 23t39 60q24 69 24 133q0 63 -28.5 93t-97.5 30h-61z" />
    <glyph glyph-name="uni04C4" unicode="&#x4c4;" horiz-adv-x="596" 
d="M174 0h-173l100 515h173l-35 -181q22 0 52 -2l124 183h201l-179 -235q84 -64 84 -179q0 -99 -63 -181q-64 -84 -159 -130l-69 118q55 27 91 79q37 50 37 107q0 95 -103 95h-44z" />
    <glyph glyph-name="uni04C5" unicode="&#x4c5;" horiz-adv-x="781" 
d="M545 0h-140l110 565h-139l-17 -87q-51 -262 -148 -373q-96 -113 -255 -113l31 159q71 9 121 80t85 249l46 235h480l-110 -565h138l-18 -91l-128 -199h-117z" />
    <glyph glyph-name="uni04C6" unicode="&#x4c6;" horiz-adv-x="666" 
d="M-38 -5l29 151q42 6 72 39q39 39 64 165l32 165h422l-72 -370h115l-16 -86l-114 -179h-111l51 120h-126l73 378h-86l-5 -29q-34 -172 -109 -263t-219 -91z" />
    <glyph glyph-name="uni04C7" unicode="&#x4c7;" horiz-adv-x="762" 
d="M193 0h-175l139 715h175l-56 -286h260l56 286h175l-120 -625q-34 -178 -121 -237q-79 -56 -203 -44l30 152q49 -1 75 24q25 25 43 111l36 184h-260z" />
    <glyph glyph-name="uni04C8" unicode="&#x4c8;" horiz-adv-x="622" 
d="M174 0h-173l100 515h173l-35 -182h159l35 182h173l-90 -462q-18 -97 -69 -155q-51 -60 -147 -108l-75 121l44 26q10 5 32 26q31 30 45 104l23 121h-159z" />
    <glyph glyph-name="uni04C9" unicode="&#x4c9;" horiz-adv-x="828" 
d="M193 0h-175l139 715h175l-56 -286h260l56 286h175l-110 -565h137l-18 -91l-128 -199h-117l61 140h-139l54 280h-260z" />
    <glyph glyph-name="uni04CA" unicode="&#x4ca;" horiz-adv-x="701" 
d="M173 0h-173l101 515h173l-36 -182h159l36 182h173l-73 -370h127l-16 -86l-114 -179h-111l51 120h-138l37 188h-159z" />
    <glyph glyph-name="uni04CB" unicode="&#x4cb;" horiz-adv-x="689" 
d="M270 253q-98 0 -152 45t-54 126q0 25 8 68l43 223h179l-38 -197q-4 -15 -4 -36q0 -70 79 -70q69 0 133 38l51 265h179l-139 -715h-138l-28 -140h-155l57 289h113l21 105l9 32h-2q-88 -33 -162 -33z" />
    <glyph glyph-name="uni04CC" unicode="&#x4cc;" horiz-adv-x="571" 
d="M314 -120h-153l44 225h97l16 81l6 23h-1q-53 -27 -126 -27q-76 0 -120 35t-44 99q0 22 4 39l31 160h170l-21 -106q-6 -35 -6 -38q0 -24 15 -38t41 -14q41 0 81 25l34 171h173l-100 -515h-118z" />
    <glyph glyph-name="uni04CD" unicode="&#x4cd;" horiz-adv-x="948" 
d="M169 0h-176l191 715h191l47 -302l12 -118h2l60 118l163 302h192l-64 -565h133l-18 -91l-128 -199h-117l61 140h-120l41 322l23 120h-2q-38 -76 -63 -120l-116 -207h-152l-36 207l-15 122h-2q-9 -64 -23 -122z" />
    <glyph glyph-name="uni04CE" unicode="&#x4ce;" horiz-adv-x="840" 
d="M144 0h-166l149 515h196l36 -226l6 -62h2q18 40 30 62l124 226h199l-38 -370h121l-16 -86l-114 -179h-111l51 120h-109l35 237l16 88h-2q-31 -59 -41 -76l-103 -180h-140l-33 180l-13 78h-2q-9 -49 -18 -90z" />
    <glyph glyph-name="uni04CF" unicode="&#x4cf;" horiz-adv-x="293" 
d="M176 0h-175l139 715h175z" />
    <glyph glyph-name="uni04D0" unicode="&#x4d0;" horiz-adv-x="668" 
d="M130 0h-187l372 715h201l99 -715h-175l-15 150h-223zM338 429l-68 -139h141l-14 139l-6 123h-2q-29 -78 -51 -123zM431 747q-78 0 -126 35.5t-48 90.5q0 11 5 38h130q-3 -11 -3 -22q0 -22 13.5 -35.5t37.5 -13.5q64 0 75 71h126q-13 -83 -72 -124q-58 -40 -138 -40z" />
    <glyph glyph-name="uni04D1" unicode="&#x4d1;" horiz-adv-x="547" 
d="M-8 124q0 53 31 93.5t83 62.5q101 41 213 41h8q3 13 3 21q0 45 -66 45q-53 0 -149 -47l-37 130q31 18 97 38q63 19 123 19q36 0 69 -8t65 -25.5t51 -51t19 -79.5q0 -17 -5 -50l-60 -313h-158l6 31l9 32h-2q-24 -31 -64.5 -53t-87.5 -22q-62 0 -105 36q-43 37 -43 100z
M161 153q0 -36 43 -36q33 0 64 28q32 29 38 61l3 16h-18q-37 0 -78 -12q-24 -6 -38 -21t-14 -36zM340 551q-78 0 -126 35.5t-48 90.5q0 11 5 38h130q-3 -11 -3 -22q0 -22 13.5 -35.5t37.5 -13.5q64 0 75 71h126q-13 -83 -72 -124q-58 -40 -138 -40z" />
    <glyph glyph-name="uni04D2" unicode="&#x4d2;" horiz-adv-x="668" 
d="M130 0h-187l372 715h201l99 -715h-175l-15 150h-223zM338 429l-68 -139h141l-14 139l-6 123h-2q-29 -78 -51 -123zM595 771h-126l28 140h126zM386 771h-126l28 140h126z" />
    <glyph glyph-name="uni04D3" unicode="&#x4d3;" horiz-adv-x="547" 
d="M-8 124q0 53 31 93.5t83 62.5q101 41 213 41h8q3 13 3 21q0 45 -66 45q-53 0 -149 -47l-37 130q31 18 97 38q63 19 123 19q36 0 69 -8t65 -25.5t51 -51t19 -79.5q0 -17 -5 -50l-60 -313h-158l6 31l9 32h-2q-24 -31 -64.5 -53t-87.5 -22q-62 0 -105 36q-43 37 -43 100z
M161 153q0 -36 43 -36q33 0 64 28q32 29 38 61l3 16h-18q-37 0 -78 -12q-24 -6 -38 -21t-14 -36zM490 575h-126l28 140h126zM281 575h-126l28 140h126z" />
    <glyph glyph-name="uni04D4" unicode="&#x4d4;" horiz-adv-x="963" 
d="M128 0h-194l432 715h626l-29 -150h-273l-25 -130h218l-30 -150h-218l-26 -135h286l-29 -150h-461l56 288h-166zM456 565l-80 -137h112l26 137h-58z" />
    <glyph glyph-name="uni04D5" unicode="&#x4d5;" horiz-adv-x="852" 
d="M-9 121q0 53 32 95.5t85 64.5q100 42 214 42h7q2 14 2 18q0 46 -65 46q-64 0 -149 -47l-37 130q113 57 220 57q87 0 146 -53h2q73 53 153 53q106 0 163 -54t57 -148q0 -48 -19 -101h-325q0 -14 4 -30q17 -62 97 -62q74 0 153 52l44 -129q-30 -24 -92 -46
q-60 -21 -116 -21q-144 0 -214 91h-2q-13 -21 -50 -52q-49 -39 -139 -39q-71 0 -121 35q-50 36 -50 98zM500 323h152q1 8 1 18q0 25 -14.5 40.5t-40.5 15.5q-69 0 -98 -74zM165 153q0 -33 42 -33q32 0 64 29t38 62l2 13h-16q-18 0 -37 -3t-41.5 -9.5t-37 -22t-14.5 -36.5z
" />
    <glyph glyph-name="uni04D6" unicode="&#x4d6;" horiz-adv-x="577" 
d="M480 0h-462l140 715h447l-29 -150h-273l-25 -130h217l-30 -150h-217l-26 -135h287zM400 747q-78 0 -126 35.5t-48 90.5q0 11 5 38h130q-3 -11 -3 -22q0 -22 13.5 -35.5t37.5 -13.5q64 0 75 71h126q-13 -83 -72 -124q-58 -40 -138 -40z" />
    <glyph glyph-name="uni04D7" unicode="&#x4d7;" horiz-adv-x="566" 
d="M19 213q0 135 85 224q86 90 212 90q106 0 163 -54t57 -148q0 -44 -19 -101h-325v-6q0 -39 27 -62.5t74 -23.5q71 0 153 52l44 -129q-34 -26 -93 -47q-60 -20 -115 -20q-127 0 -195 64q-68 65 -68 161zM352 551q-78 0 -126 35.5t-48 90.5q0 11 5 38h130q-3 -11 -3 -22
q0 -22 13.5 -35.5t37.5 -13.5q64 0 75 71h126q-13 -83 -72 -124q-58 -40 -138 -40zM215 323h152q1 4 1 18q0 27 -14.5 43t-40.5 16q-69 0 -98 -77z" />
    <glyph glyph-name="uni04D8" unicode="&#x4d8;" horiz-adv-x="733" 
d="M37 264q0 73 31 151h461v2q0 70 -40 110t-112 40q-54 0 -110.5 -21.5t-95.5 -51.5l-69 136q17 14 52 34q32 18 104 41q69 22 139 22q150 0 231 -91q82 -91 82 -226q0 -161 -106 -288q-50 -61 -125.5 -97.5t-160.5 -36.5q-128 0 -205 77q-76 76 -76 199zM207 246
q0 -50 30 -77.5t87 -27.5q68 0 116 39t63 102h-292q-4 -15 -4 -36z" />
    <glyph glyph-name="uni04D9" unicode="&#x4d9;" horiz-adv-x="572" 
d="M19 186q0 57 21 114h323q1 3 1 12q0 38 -28 58.5t-77 20.5q-34 0 -73.5 -11t-63.5 -24l-21 -11l-45 125l30 15q17 9 77 26q57 16 114 16q120 0 189.5 -63t69.5 -172q0 -124 -86 -215q-86 -89 -216 -89q-102 0 -158 55q-57 55 -57 143zM177 181q0 -29 17.5 -46t47.5 -17
q36 0 68 25t43 62h-173q-3 -15 -3 -24z" />
    <glyph glyph-name="uni04DA" unicode="&#x4da;" horiz-adv-x="733" 
d="M37 254q0 72 31 161h461q0 25 -6 46q-12 49 -50.5 77.5t-95.5 28.5q-54 0 -110.5 -21.5t-95.5 -51.5l-67 137q30 26 116 62q83 34 180 34q150 0 229 -93q81 -92 81 -227q0 -78 -28.5 -153.5t-79.5 -135.5q-52 -59 -127 -94.5t-158 -35.5q-130 0 -205 76t-75 190zM207 246
q0 -50 30 -77.5t87 -27.5q68 0 116 39t63 102h-292q-4 -15 -4 -36zM609 771h-126l28 140h126zM400 771h-126l28 140h126z" />
    <glyph glyph-name="uni04DB" unicode="&#x4db;" horiz-adv-x="572" 
d="M19 186q0 57 21 114h323q1 3 1 12q0 38 -28 58.5t-77 20.5q-34 0 -73.5 -11t-63.5 -24l-21 -11l-45 125l30 15q17 9 77 26q57 16 114 16q120 0 189.5 -63t69.5 -172q0 -124 -86 -215q-86 -89 -216 -89q-102 0 -158 55q-57 55 -57 143zM177 181q0 -29 17.5 -46t47.5 -17
q36 0 68 25t43 62h-173q-3 -15 -3 -24zM488 575h-126l28 140h126zM279 575h-126l28 140h126z" />
    <glyph glyph-name="uni04DC" unicode="&#x4dc;" horiz-adv-x="1018" 
d="M159 0h-205l271 387v2l-132 326h178l109 -276h67l54 276h175l-54 -276h67l177 276h208l-247 -357v-2l119 -356h-180l-90 290h-83l-56 -290h-175l56 290h-67zM765 771h-126l28 140h126zM556 771h-126l28 140h126z" />
    <glyph glyph-name="uni04DD" unicode="&#x4dd;" horiz-adv-x="828" 
d="M140 0h-186l186 274v2l-79 239h168l58 -183h47l36 183h161l-36 -183h45l125 183h187l-189 -264v-1l96 -250h-177l-62 187h-53l-37 -187h-161l37 187h-48zM630 575h-126l28 140h126zM421 575h-126l28 140h126z" />
    <glyph glyph-name="uni04DE" unicode="&#x4de;" horiz-adv-x="572" 
d="M-18 97l100 112q57 -68 142 -68q49 0 82 25.5t33 67.5q0 54 -73 54h-103l27 140h87q40 0 69.5 25.5t29.5 62.5q0 59 -70 59q-66 0 -151 -59l-62 127q107 84 242 84q97 0 162 -47q64 -46 64 -132q0 -59 -34.5 -107t-92.5 -72l-1 -2q39 -18 62 -55.5t23 -84.5
q0 -105 -89 -173q-89 -66 -204 -66q-73 0 -138 29t-105 80zM535 771h-126l28 140h126zM326 771h-126l28 140h126z" />
    <glyph glyph-name="uni04DF" unicode="&#x4df;" horiz-adv-x="473" 
d="M-26 61l75 108q59 -51 121 -51q30 0 51 15t21 41q0 32 -49 32h-63l23 114h52q28 0 47 13t19 36q0 32 -52 32q-55 0 -125 -39l-41 109q86 56 206 56q85 0 134.5 -37t49.5 -98q0 -86 -91 -126v-2q62 -38 62 -107q0 -80 -69 -125q-68 -44 -162 -44q-124 0 -209 73zM442 575
h-126l28 140h126zM233 575h-126l28 140h126z" />
    <glyph glyph-name="uni04E0" unicode="&#x4e0;" horiz-adv-x="544" 
d="M-17 47l63 124q24 -16 65.5 -28.5t78.5 -12.5q53 0 94 27q40 27 40 70q0 30 -26 42.5t-87 12.5h-112l21 110l158 147q19 17 40 29l7 4v2q-23 -4 -57 -4h-174l28 145h436l-27 -137l-161 -138l-41 -29v-2q79 -4 121.5 -51t42.5 -120q0 -111 -91 -180q-91 -68 -214 -68
q-114 0 -205 57z" />
    <glyph glyph-name="uni04E1" unicode="&#x4e1;" horiz-adv-x="504" 
d="M-79 -153l63 124q24 -16 65.5 -28.5t78.5 -12.5q54 0 94 27t40 70q0 30 -26 42.5t-87 12.5h-112l21 110l158 147q19 17 40 29l7 4v2q-23 -4 -57 -4h-174l28 145h436l-27 -137l-161 -138l-41 -29v-2q79 -4 121.5 -51t42.5 -120q0 -112 -91 -179q-90 -69 -214 -69
q-114 0 -205 57z" />
    <glyph glyph-name="uni04E2" unicode="&#x4e2;" horiz-adv-x="756" 
d="M194 0h-176l139 715h175l-65 -334l-32 -122h2q48 77 84 122l263 334h177l-139 -715h-175l65 333q8 44 25 101l6 21h-2q-51 -83 -83 -122zM627 783h-275l22 112h275z" />
    <glyph glyph-name="uni04E3" unicode="&#x4e3;" horiz-adv-x="619" 
d="M170 0h-170l101 515h160l-43 -217l-13 -53h2q12 20 40 53l186 217h170l-101 -515h-160l42 215l13 54h-2q-15 -24 -40 -53zM509 586h-275l22 112h275z" />
    <glyph glyph-name="uni04E4" unicode="&#x4e4;" horiz-adv-x="756" 
d="M194 0h-176l139 715h175l-65 -334l-32 -122h2q48 77 84 122l263 334h177l-139 -715h-175l65 333q8 44 25 101l6 21h-2q-51 -83 -83 -122zM638 771h-126l28 140h126zM429 771h-126l28 140h126z" />
    <glyph glyph-name="uni04E5" unicode="&#x4e5;" horiz-adv-x="619" 
d="M170 0h-170l101 515h160l-43 -217l-13 -53h2q12 20 40 53l186 217h170l-101 -515h-160l42 215l13 54h-2q-15 -24 -40 -53zM532 575h-126l28 140h126zM323 575h-126l28 140h126z" />
    <glyph glyph-name="uni04E6" unicode="&#x4e6;" horiz-adv-x="820" 
d="M44 307q0 111 58 208q59 98 156 155t205 57q153 0 244 -88q93 -87 93 -224q0 -113 -60 -212q-58 -98 -156 -157q-97 -58 -204 -58q-152 0 -244 89q-92 90 -92 230zM224 317q0 -75 44 -122t114 -47q90 0 164 75q73 76 73 181q0 73 -44 118t-114 45q-91 0 -165 -74
q-72 -73 -72 -176zM668 771h-126l28 140h126zM459 771h-126l28 140h126z" />
    <glyph glyph-name="uni04E7" unicode="&#x4e7;" horiz-adv-x="640" 
d="M18 219q0 131 97 219q98 89 224 89q118 0 192 -64q75 -63 75 -167q0 -131 -98 -220q-97 -88 -223 -88q-118 0 -193 63q-74 63 -74 168zM193 227q0 -44 26 -69.5t69 -25.5q56 0 99 43q44 44 44 110q0 45 -26 71.5t-68 26.5q-54 0 -99 -45q-45 -44 -45 -111zM539 575h-126
l28 140h126zM330 575h-126l28 140h126z" />
    <glyph glyph-name="uni04E8" unicode="&#x4e8;" horiz-adv-x="820" 
d="M44 307q0 111 58 208q59 98 156 155t205 57q153 0 244 -88q93 -87 93 -224q0 -113 -60 -212q-58 -98 -156 -157q-97 -58 -204 -58q-152 0 -244 89q-92 90 -92 230zM242 424h381q-7 67 -51 107.5t-111 40.5t-127.5 -41t-91.5 -107zM382 143q64 0 125 41q59 40 91 108h-378
q8 -68 52 -108.5t110 -40.5z" />
    <glyph glyph-name="uni04E9" unicode="&#x4e9;" horiz-adv-x="641" 
d="M19 224q0 128 98 215q98 88 231 88q111 0 184 -64q75 -63 75 -172q0 -127 -99 -216q-98 -87 -230 -87q-110 0 -185 63q-74 65 -74 173zM286 112q49 0 91 27t62 74h-264q4 -49 33.5 -75t77.5 -26zM341 403q-46 0 -88 -26.5t-63 -69.5h260q-7 47 -35.5 71.5t-73.5 24.5z
" />
    <glyph glyph-name="uni04EA" unicode="&#x4ea;" horiz-adv-x="820" 
d="M44 307q0 111 58 208q59 98 156 155t205 57q153 0 244 -88q93 -87 93 -224q0 -113 -60 -212q-58 -98 -156 -157q-97 -58 -204 -58q-152 0 -244 89q-92 90 -92 230zM242 424h381q-7 67 -51 107.5t-111 40.5t-127.5 -41t-91.5 -107zM382 143q64 0 125 41q59 40 91 108h-378
q8 -68 52 -108.5t110 -40.5zM668 771h-126l28 140h126zM459 771h-126l28 140h126z" />
    <glyph glyph-name="uni04EB" unicode="&#x4eb;" horiz-adv-x="641" 
d="M19 224q0 128 98 215q98 88 231 88q111 0 184 -64q75 -63 75 -172q0 -127 -99 -216q-98 -87 -230 -87q-110 0 -185 63q-74 65 -74 173zM286 112q49 0 91 27t62 74h-264q4 -49 33.5 -75t77.5 -26zM341 403q-46 0 -88 -26.5t-63 -69.5h260q-7 47 -35.5 71.5t-73.5 24.5z
M335 575h-126l28 140h126zM544 575h-126l28 140h126z" />
    <glyph glyph-name="uni04EC" unicode="&#x4ec;" horiz-adv-x="719" 
d="M493 288h-297l27 140h296q-5 70 -47 105.5t-113 35.5q-101 0 -201 -78l-74 130q69 55 134 80.5t149 25.5q159 0 246 -87t87 -222q0 -170 -128 -301q-127 -129 -308 -129q-79 0 -152 28.5t-125 81.5l96 120q71 -72 183 -72q77 0 136 38.5t91 103.5zM373 771h-126l28 140
h126zM582 771h-126l28 140h126z" />
    <glyph glyph-name="uni04ED" unicode="&#x4ed;" horiz-adv-x="551" 
d="M335 202h-193l22 114h194q-14 77 -110 77q-81 0 -138 -51l-60 114q37 33 96.5 52t120.5 19q122 0 186 -67q65 -67 65 -164q0 -125 -98 -217q-97 -91 -237 -91q-58 0 -115 19q-58 19 -93 56l70 111q24 -24 63 -38t78 -14q98 0 149 80zM267 575h-126l28 140h126zM476 575
h-126l28 140h126z" />
    <glyph glyph-name="uni04EE" unicode="&#x4ee;" horiz-adv-x="630" 
d="M4 42l85 125q31 -30 83 -30q41 0 66 40l-171 538h180l71 -257l22 -97h2q18 47 45 96l135 258h195l-311 -536q-44 -77 -94 -129q-60 -62 -146 -62q-93 0 -162 54zM546 782h-275l22 112h275z" />
    <glyph glyph-name="uni04EF" unicode="&#x4ef;" horiz-adv-x="565" 
d="M-81 -170l75 120q20 -16 51 -16q62 0 93 52l15 24l-121 505h180l42 -255l5 -76h2q19 49 31 73l115 258h194l-322 -570q-44 -76 -103.5 -115.5t-121.5 -39.5q-74 0 -135 40zM477 586h-275l22 112h275z" />
    <glyph glyph-name="uni04F0" unicode="&#x4f0;" horiz-adv-x="630" 
d="M4 42l85 125q31 -30 83 -30q41 0 66 40l-171 538h180l71 -257l22 -97h2q18 47 45 96l135 258h195l-311 -536q-44 -77 -94 -129q-60 -62 -146 -62q-93 0 -162 54zM580 771h-126l28 140h126zM371 771h-126l28 140h126z" />
    <glyph glyph-name="uni04F1" unicode="&#x4f1;" horiz-adv-x="565" 
d="M-81 -170l75 120q20 -16 51 -16q62 0 93 52l15 24l-121 505h180l42 -255l5 -76h2q19 49 31 73l115 258h194l-322 -570q-44 -76 -103.5 -115.5t-121.5 -39.5q-74 0 -135 40zM500 575h-126l28 140h126zM291 575h-126l28 140h126z" />
    <glyph glyph-name="uni04F2" unicode="&#x4f2;" horiz-adv-x="630" 
d="M4 42l85 125q31 -30 83 -30q41 0 66 40l-171 538h180l71 -257l22 -97h2q18 47 45 96l135 258h195l-311 -536q-44 -77 -94 -129q-60 -62 -146 -62q-93 0 -162 54zM571 761h-132l111 150h169zM373 761h-142l106 150h145z" />
    <glyph glyph-name="uni04F3" unicode="&#x4f3;" horiz-adv-x="565" 
d="M-81 -170l75 120q20 -16 51 -16q62 0 93 52l15 24l-121 505h180l42 -255l5 -76h2q19 49 31 73l115 258h194l-322 -570q-44 -76 -103.5 -115.5t-121.5 -39.5q-74 0 -135 40zM489 565h-132l111 150h169zM291 565h-142l106 150h145z" />
    <glyph glyph-name="uni04F4" unicode="&#x4f4;" horiz-adv-x="689" 
d="M270 253q-98 0 -152 45t-54 126q0 25 8 68l43 223h179l-38 -197q-4 -15 -4 -36q0 -70 79 -70q69 0 133 38l51 265h179l-139 -715h-179l49 254l9 32h-2q-88 -33 -162 -33zM591 771h-126l28 140h126zM382 771h-126l28 140h126z" />
    <glyph glyph-name="uni04F5" unicode="&#x4f5;" horiz-adv-x="574" 
d="M196 162q-76 0 -120 35t-44 99q0 22 4 39l35 180h170l-25 -126q-6 -35 -6 -38q0 -24 15 -38t41 -14q41 0 81 25l38 191h173l-101 -515h-173l33 166l6 23h-2q-53 -27 -125 -27zM494 575h-126l28 140h126zM285 575h-126l28 140h126z" />
    <glyph glyph-name="uni04F6" unicode="&#x4f6;" horiz-adv-x="531" 
d="M153 0h-135l139 715h438l-29 -150h-263l-81 -416h115l-57 -289h-155z" />
    <glyph glyph-name="uni04F7" unicode="&#x4f7;" horiz-adv-x="443" 
d="M119 0h-119l101 515h363l-29 -145h-190l-44 -225h99l-51 -265h-153z" />
    <glyph glyph-name="uni04F8" unicode="&#x4f8;" horiz-adv-x="927" 
d="M793 0h-175l139 715h175zM310 0h-292l139 715h175l-43 -221h107q90 0 143 -57t53 -153q0 -110 -80 -198q-80 -86 -202 -86zM260 344l-38 -194h79q48 0 80 35.5t32 87.5q0 33 -20.5 52t-56.5 19h-76zM723 771h-126l28 140h126zM514 771h-126l28 140h126z" />
    <glyph glyph-name="uni04F9" unicode="&#x4f9;" horiz-adv-x="804" 
d="M687 0h-173l101 515h173zM263 0h-263l101 515h173l-32 -161h80q87 0 130.5 -40t43.5 -114q0 -92 -63 -146t-170 -54zM220 242l-25 -129h48q31 0 54 22.5t23 55.5q0 51 -55 51h-45zM623 575h-126l28 140h126zM414 575h-126l28 140h126z" />
    <glyph glyph-name="uni0524" unicode="&#x524;" horiz-adv-x="805" 
d="M193 0h-175l139 715h604l-110 -566h114l-57 -289h-155l28 140h-134l110 566h-254z" />
    <glyph glyph-name="uni0525" unicode="&#x525;" horiz-adv-x="672" 
d="M174 0h-173l100 515h499l-72 -370h98l-51 -265h-154l23 120h-117l72 370h-153z" />
    <glyph glyph-name="uni1E9E" unicode="&#x1e9e;" horiz-adv-x="702" 
d="M188 0h-175l96 495q19 100 87 160q67 60 163 60h356l-23 -120l-118 -149l-26 -29v-2q44 -15 71 -63q28 -46 28 -103q0 -76 -43 -138q-44 -64 -113 -92q-44 -19 -149 -19h-85l29 150h69q55 0 74 12q38 24 38 72q0 26 -15 38t-53 12h-67l24 120l68 97q28 41 49 59l6 6v2
q-6 -3 -42 -3h-76q-28 0 -50 -23t-29 -58z" />
    <glyph glyph-name="thinspace" unicode="&#x2009;" horiz-adv-x="20" 
 />
    <glyph glyph-name="endash" unicode="&#x2013;" horiz-adv-x="720" 
d="M643 222h-596l25 130h596z" />
    <glyph glyph-name="emdash" unicode="&#x2014;" horiz-adv-x="914" 
d="M840 222h-796l25 130h796z" />
    <glyph glyph-name="quoteleft" unicode="&#x2018;" horiz-adv-x="289" 
d="M233 475h-158l138 255h123z" />
    <glyph glyph-name="quoteright" unicode="&#x2019;" horiz-adv-x="282" 
d="M204 475h-123l103 255h158z" />
    <glyph glyph-name="quotesinglbase" unicode="&#x201a;" horiz-adv-x="290" 
d="M-46 -89l103 255h158l-138 -255h-123z" />
    <glyph glyph-name="quotedblleft" unicode="&#x201c;" horiz-adv-x="487" 
d="M431 475h-158l138 255h123zM233 475h-158l138 255h123z" />
    <glyph glyph-name="quotedblright" unicode="&#x201d;" horiz-adv-x="480" 
d="M402 475h-123l103 255h158zM204 475h-123l103 255h158z" />
    <glyph glyph-name="quotedblbase" unicode="&#x201e;" horiz-adv-x="488" 
d="M275 -89h-123l103 255h158zM77 -89h-123l103 255h158z" />
    <glyph glyph-name="dagger" unicode="&#x2020;" horiz-adv-x="496" 
d="M262 -50h-165l85 435h-130l25 130h130l39 200h165l-39 -200h131l-25 -130h-131z" />
    <glyph glyph-name="daggerdbl" unicode="&#x2021;" horiz-adv-x="522" 
d="M275 -50h-165l39 200h-129l24 130h130l21 105h-130l25 130h130l39 200h165l-39 -200h131l-25 -130h-131l-21 -105h131l-25 -130h-131z" />
    <glyph glyph-name="bullet" unicode="&#x2022;" horiz-adv-x="527" 
d="M393 159q-54 -54 -131 -54q-76 0 -132 54q-54 55 -54 132t54 131q55 55 132 55t131 -55q55 -54 55 -131t-55 -132z" />
    <glyph glyph-name="ellipsis" unicode="&#x2026;" horiz-adv-x="926" 
d="M809 0h-158l31 164h158zM485 0h-158l31 164h158zM161 0h-158l31 164h158z" />
    <glyph glyph-name="perthousand" unicode="&#x2030;" horiz-adv-x="1286" 
d="M252 382q-72 0 -118.5 43.5t-46.5 110.5q0 73 62 132t140 59q73 0 119 -45q47 -45 47 -113q0 -74 -63 -131q-64 -56 -140 -56zM196 0h-159l674 715h159zM265 502q24 0 43 18.5t19 42.5q0 19 -13.5 31.5t-36.5 12.5t-42.5 -19t-19.5 -43q0 -19 13.5 -31t36.5 -12zM859 142
q0 73 62 132t140 59q73 0 119 -45q47 -45 47 -113q0 -74 -63 -131q-64 -56 -140 -56q-72 0 -118.5 43.5t-46.5 110.5zM455 142q0 73 62 132t140 59q73 0 119 -45q47 -45 47 -113q0 -74 -63 -131q-64 -56 -140 -56q-72 0 -118.5 43.5t-46.5 110.5zM987 151q0 -19 13.5 -31
t36.5 -12q24 0 43 18.5t19 42.5q0 19 -13.5 31.5t-36.5 12.5t-42.5 -19t-19.5 -43zM583 151q0 -19 13.5 -31t36.5 -12q24 0 43 18.5t19 42.5q0 19 -13.5 31.5t-36.5 12.5t-42.5 -19t-19.5 -43z" />
    <glyph glyph-name="guilsinglleft" unicode="&#x2039;" horiz-adv-x="390" 
d="M311 77h-153l-130 205l191 206h164l-202 -213z" />
    <glyph glyph-name="guilsinglright" unicode="&#x203a;" horiz-adv-x="388" 
d="M163 77h-164l202 213l-130 198h153l130 -205z" />
    <glyph glyph-name="fraction" unicode="&#x2044;" horiz-adv-x="196" 
d="M409 715l-474 -715h-126l474 715h126z" />
    <glyph glyph-name="zerosuperior" unicode="&#x2070;" 
d="M242 413q-154 0 -154 156q0 69 18 135q20 66 67 118q48 52 118 52q155 0 155 -156q0 -104 -46 -199q-24 -49 -65 -77.5t-93 -28.5zM243 528q31 0 52 57q22 56 22 124q0 49 -27 49q-30 0 -53 -57q-21 -57 -21 -124q0 -49 27 -49z" />
    <glyph glyph-name="foursuperior" unicode="&#x2074;" 
d="M354 423h-124l17 87h-196l15 84l216 270h157l-48 -247h53l-20 -107h-53zM197 619v-2h70l18 90l14 50h-2q-13 -27 -30 -46z" />
    <glyph glyph-name="fivesuperior" unicode="&#x2075;" 
d="M228 413q-98 0 -163 65l74 86q36 -36 89 -36q26 0 46.5 14.5t20.5 38.5q0 18 -15 29t-38 11q-37 0 -67 -13l-64 24l65 232h269l-21 -109h-164l-6 -23l-6 -16l1 -1q12 4 39 4q55 0 96 -38q40 -37 40 -93q0 -67 -55 -121t-141 -54z" />
    <glyph glyph-name="sixsuperior" unicode="&#x2076;" 
d="M253 413q-72 0 -118 45t-46 124q0 67 31 132q31 66 93 113t134 47q64 0 111 -26l-49 -102q-31 12 -66 12q-58 0 -86 -52h2q20 6 38 6q57 0 94 -36.5t37 -90.5q0 -64 -50 -119q-50 -53 -125 -53zM302 580q0 41 -44 41q-23 0 -31.5 -10t-8.5 -31q0 -23 12 -37.5t30 -14.5
q17 0 29.5 16t12.5 36z" />
    <glyph glyph-name="sevensuperior" unicode="&#x2077;" 
d="M202 423h-144l235 308l22 24v2q-26 -2 -32 -2h-153l21 109h334l-16 -85z" />
    <glyph glyph-name="eightsuperior" unicode="&#x2078;" 
d="M240 413q-72 0 -121 33t-49 92q0 61 88 125q-28 28 -28 66q0 69 52 106q52 39 117 39q71 0 112 -30t41 -81q0 -25 -18 -55q-24 -43 -55 -69q45 -33 45 -81q0 -67 -58 -106t-126 -39zM298 682q10 7 20.5 25t10.5 35q0 12 -10.5 19t-26.5 7q-18 0 -30 -9t-12 -26
q0 -29 48 -51zM296 558q0 15 -14.5 27t-48.5 29q-35 -33 -35 -61q-2 -21 22 -30t49.5 1t26.5 34z" />
    <glyph glyph-name="ninesuperior" unicode="&#x2079;" 
d="M75 439l49 102q27 -12 66 -12q58 0 86 52h-2q-19 -6 -38 -6q-57 0 -94 36.5t-37 90.5q0 66 49 118q50 54 126 54q72 0 118 -45t46 -124q0 -64 -32 -133q-32 -68 -92 -113q-61 -46 -134 -46q-64 0 -111 26zM275 666q23 0 31.5 10t8.5 31q0 23 -12 37.5t-30 14.5
q-17 0 -29.5 -16t-12.5 -36q0 -41 44 -41z" />
    <glyph glyph-name="zeroinferior" unicode="&#x2080;" 
d="M129 -167q-154 0 -154 156q0 71 19 135q18 65 66 118q48 52 118 52q155 0 155 -156q0 -105 -46 -198q-24 -49 -65 -78t-93 -29zM130 -52q31 0 52 57q22 56 22 124q0 49 -27 49q-31 0 -53 -57q-21 -57 -21 -124q0 -49 27 -49z" />
    <glyph glyph-name="oneinferior" unicode="&#x2081;" 
d="M276 -157h-305l21 108h89l26 136l10 32h-2q-8 -12 -14 -15l-27 -20l-59 84l148 116h108l-64 -333h90z" />
    <glyph glyph-name="twoinferior" unicode="&#x2082;" 
d="M278 -157h-327q0 57 19 99q16 38 41 62.5t66 50.5q19 12 58 31.5t54 33t15 32.5q0 12 -11.5 19.5t-27.5 7.5q-33 0 -80 -45l-75 78q79 82 166 82q64 0 111 -34q48 -33 48 -95q0 -41 -21 -73.5t-52 -53t-62.5 -35.5t-56.5 -28t-30 -24h186z" />
    <glyph glyph-name="threeinferior" unicode="&#x2083;" 
d="M110 -167q-100 0 -162 68l72 83q29 -36 91 -36q27 0 43.5 12.5t16.5 32.5q0 15 -15 24t-40 9h-37l-18 57l74 69l28 23v2q-28 -2 -34 -2h-103l21 109h294l-15 -79l-99 -92q35 -12 54.5 -43.5t19.5 -72.5q0 -65 -52 -114q-53 -50 -139 -50z" />
    <glyph glyph-name="fourinferior" unicode="&#x2084;" 
d="M241 -157h-124l17 87h-196l15 84l216 270h157l-48 -247h53l-20 -107h-53zM84 39v-2h70l18 90l14 50h-2q-13 -27 -30 -46z" />
    <glyph glyph-name="fiveinferior" unicode="&#x2085;" 
d="M115 -167q-98 0 -163 65l74 86q36 -36 89 -36q26 0 46.5 14.5t20.5 38.5q0 18 -15 29t-38 11q-37 0 -67 -13l-64 24l65 232h269l-21 -109h-164l-6 -23l-6 -16l1 -1q12 4 39 4q55 0 96 -38q40 -37 40 -93q0 -67 -55 -121q-56 -54 -141 -54z" />
    <glyph glyph-name="sixinferior" unicode="&#x2086;" 
d="M141 -167q-72 0 -118 45t-46 124q0 67 31 132q31 66 93 113t134 47q64 0 111 -26l-49 -102q-31 12 -66 12q-58 0 -86 -52h2q19 6 38 6q57 0 94 -36.5t37 -90.5q0 -65 -50 -118q-49 -54 -125 -54zM190 0q0 41 -44 41q-23 0 -31.5 -10t-8.5 -31q0 -23 12 -37.5t30 -14.5
q17 0 29.5 16t12.5 36z" />
    <glyph glyph-name="seveninferior" unicode="&#x2087;" 
d="M90 -157h-144l235 308l22 24v2q-26 -2 -32 -2h-153l21 109h334l-16 -85z" />
    <glyph glyph-name="eightinferior" unicode="&#x2088;" 
d="M127 -167q-71 0 -121 33q-49 33 -49 92q0 61 88 125q-28 28 -28 66q0 69 52 106q53 39 117 39q71 0 112 -30t41 -81q0 -25 -18 -55q-24 -43 -55 -69q45 -33 45 -81q0 -67 -58 -106q-59 -39 -126 -39zM185 102q10 7 20.5 25t10.5 35q0 12 -11 19t-26 7q-18 0 -30 -9
t-12 -26q0 -29 48 -51zM183 -22q0 15 -14.5 27t-48.5 29q-35 -33 -35 -61q-2 -21 22 -30t49.5 1t26.5 34z" />
    <glyph glyph-name="nineinferior" unicode="&#x2089;" 
d="M-37 -141l49 102q27 -12 66 -12q58 0 86 52h-2q-20 -6 -38 -6q-57 0 -94 36.5t-37 90.5q0 66 49 118q50 54 126 54q72 0 118 -45t46 -124q0 -65 -32 -132q-31 -67 -92 -113q-62 -47 -134 -47q-64 0 -111 26zM163 86q23 0 31.5 10t8.5 31q0 23 -12 37.5t-30 14.5
q-17 0 -29.5 -16t-12.5 -36q0 -41 44 -41z" />
    <glyph glyph-name="Euro" unicode="&#x20ac;" horiz-adv-x="600" 
d="M95 237h-81l19 96h55q2 24 6 48h-52l19 96h63q53 112 149 180q97 70 220 70q79 0 146 -22l-70 -150q-46 10 -77 10q-106 0 -172 -88h217l-39 -96h-221q-5 -26 -7 -48h209l-39 -96h-154q38 -84 134 -84q46 0 98 15v-163q-51 -17 -108 -17q-126 0 -209 67q-84 68 -106 182z
" />
    <glyph glyph-name="numero" unicode="&#x2116;" horiz-adv-x="1119" 
d="M765 431q0 75 60 133q61 59 139 59q66 0 107 -42q41 -41 41 -102q0 -75 -61 -132q-60 -57 -140 -57q-65 0 -105.5 40t-40.5 101zM889 446q0 -18 10.5 -29t28.5 -11q24 0 42.5 18t18.5 42q0 18 -11 29.5t-29 11.5q-23 0 -41.5 -18.5t-18.5 -42.5zM1033 132h-319l22 115
h319zM190 0h-175l139 715h170l133 -334q13 -34 31 -102l5 -20h2q8 82 16 122l65 334h175l-139 -715h-169l-134 333q-16 42 -32 102l-5 20h-2q-6 -77 -15 -122z" />
    <glyph glyph-name="trademark" unicode="&#x2122;" horiz-adv-x="1089" 
d="M684 268h-127l35 447h118l73 -175l13 -44h2q9 34 13 44l73 175h118l33 -447h-127l-10 174l1 32h-2l-51 -125h-98l-51 125h-2l1 -32zM398 268h-126v338h-142v109h408v-109h-140v-338z" />
    <glyph glyph-name="minus" unicode="&#x2212;" horiz-adv-x="600" 
d="M570 222h-546v130h546v-130z" />
    <glyph glyph-name="infinity" unicode="&#x221e;" horiz-adv-x="519" 
d="M270 554q86 0 145 -60q60 -60 60 -145t-60 -146q-60 -60 -145 -60q-84 0 -146 60q-60 61 -60 146t60 145q62 60 146 60z" />
    <glyph glyph-name="approxequal" unicode="&#x2248;" horiz-adv-x="600" 
d="M96 322l-63 99q81 81 165 81q49 0 107 -35q59 -35 91 -35q56 0 102 54l63 -99q-81 -81 -165 -81q-49 0 -108 35q-58 35 -90 35q-52 0 -102 -54zM96 93l-63 99q81 81 165 81q49 0 107 -35q59 -35 91 -35q56 0 102 54l63 -99q-81 -81 -165 -81q-49 0 -108 35q-58 35 -90 35
q-52 0 -102 -54z" />
    <glyph glyph-name="notequal" unicode="&#x2260;" horiz-adv-x="600" 
d="M170 0l-78 47l38 60h-88v130h171l64 100h-235v130h319l69 108l76 -49l-38 -59h80v-130h-163l-64 -100h227v-130h-310z" />
    <glyph glyph-name="lessequal" unicode="&#x2264;" horiz-adv-x="600" 
d="M509 11l-504 223v107l504 223v-145l-330 -131v-2l330 -130v-145zM8 -200v130h501v-130h-501z" />
    <glyph glyph-name="greaterequal" unicode="&#x2265;" horiz-adv-x="600" 
d="M532 234l-504 -223v145l330 130v2l-330 131v145l504 -223v-107zM29 -200v130h501v-130h-501z" />
    <glyph glyph-name="commaaccent" unicode="&#xf6c3;" horiz-adv-x="335" 
d="M53 -49h136v-18q0 -38 -11.5 -69t-41.5 -74h-123q24 43 33 70t9 61z" />
    <glyph glyph-name="cyrbreve" unicode="&#xf6d4;" horiz-adv-x="276" 
d="M202 747q-78 0 -126 35.5t-48 90.5q0 11 5 38h130q-3 -11 -3 -22q0 -22 13.5 -35.5t37.5 -13.5q64 0 75 71h126q-13 -83 -72 -124q-58 -40 -138 -40z" />
    <glyph glyph-name="apple" unicode="&#xf8ff;" horiz-adv-x="1130" 
d="M432 -146l-265 141v152l-126 72v278l126 71v151l265 142l134 -71l132 71l265 -142v-151l124 -71v-278l-124 -72v-152l-265 -141l-132 71zM207 169v-139l238 -126l121 66l118 -66l238 126v139l114 64v249l-114 66v136l-238 126l-118 -64l-121 64l-238 -126v-136l-114 -66
v-249zM456 -50l-215 114v121l-99 60v225l99 58v123l215 114l110 -59l107 59l214 -114v-123l100 -58v-225l-100 -60v-121l-214 -114l-107 58zM446 551v-460h43v228h228v40h-228v192h199q17 0 23 -6.5t6 -22.5v-42h42v54q0 30 -13 43.5t-45 13.5h-320v-40h65z" />
    <glyph glyph-name="NULL" horiz-adv-x="0" 
 />
    <glyph glyph-name="CR" horiz-adv-x="333" 
 />
    <glyph glyph-name="zero.tnum" horiz-adv-x="600" 
d="M29 238q0 58 10 121t34.5 129.5t61 119t94.5 86t129 33.5q237 0 237 -248q0 -130 -45 -251q-27 -70 -62 -120q-38 -54 -96 -87t-127 -33q-236 0 -236 250zM210 246q0 -98 61 -98q34 0 62.5 34t45 85.5t25.5 104.5t9 97q0 98 -61 98q-33 0 -61.5 -33.5t-46.5 -87.5
q-34 -110 -34 -200z" />
    <glyph glyph-name="one.tnum" horiz-adv-x="600" 
d="M499 0h-473l27 150h152l57 285l12 55h-2q-14 -21 -36 -38l-50 -39l-87 118l236 184h151l-110 -565h152z" />
    <glyph glyph-name="two.tnum" horiz-adv-x="600" 
d="M495 0h-494q0 108 52 195q24 37 58 68q37 35 66 54q38 26 71 46l36 21l34 21l27 18q19 12 42 37q17 20 17 44q0 27 -18.5 42.5t-48.5 15.5q-71 0 -125 -76l-123 96q44 54 95 92q68 53 171 53q94 0 163 -54t69 -149q0 -101 -83 -174q-40 -36 -72 -57q-42 -26 -84 -50
q-64 -36 -88.5 -55t-30.5 -38h295z" />
    <glyph glyph-name="three.tnum" horiz-adv-x="600" 
d="M-7 82l100 124q50 -53 142 -53q58 0 90.5 24t32.5 61q0 65 -114 65h-59l-20 85l107 113q38 40 66 59l10 8v2q-27 -5 -69 -5h-163l29 150h451l-21 -109l-176 -177q52 -13 94 -61q41 -47 41 -122q0 -103 -78 -181q-77 -77 -217 -77q-155 0 -246 94z" />
    <glyph glyph-name="four.tnum" horiz-adv-x="600" 
d="M301 173h-316l19 106l346 436h229l-77 -397h85l-28 -145h-85l-34 -173h-173zM199 320v-2h130l31 160l21 80h-2q-25 -42 -49 -74z" />
    <glyph glyph-name="five.tnum" horiz-adv-x="600" 
d="M4 82l102 125q59 -54 134 -54q52 0 89.5 29.5t37.5 71.5q0 35 -27.5 55.5t-73.5 20.5q-49 0 -87 -18l-13 -6l-92 36l102 373h405l-29 -150h-248l-17 -64l-9 -28h2q28 5 54 5q92 0 153 -61q61 -60 61 -154q0 -114 -90 -195q-89 -80 -220 -80q-67 0 -129.5 24.5
t-104.5 69.5z" />
    <glyph glyph-name="six.tnum" horiz-adv-x="600" 
d="M35 260q0 78 29 160t80 151q52 71 131 113.5t167 42.5q104 0 170 -33l-71 -142q-49 15 -97 15q-114 0 -177 -118h2q29 25 88 25q99 0 151 -61q52 -59 52 -154q0 -103 -75 -187q-73 -84 -189 -84q-112 0 -186 70q-75 70 -75 202zM213 258q0 -47 25 -78.5t61 -31.5
q38 0 64 32q25 31 25 72q0 37 -22.5 59t-66.5 22q-40 0 -63 -21t-23 -54z" />
    <glyph glyph-name="seven.tnum" horiz-adv-x="600" 
d="M206 0h-194l349 501q29 42 52 60l7 5v2q-10 -3 -46 -3h-271l29 150h513l-24 -122z" />
    <glyph glyph-name="eight.tnum" horiz-adv-x="600" 
d="M12 196q0 67 57 127q40 43 79 68q-48 51 -48 116q0 86 70 153t189 67q101 0 166 -51q65 -50 65 -139q0 -39 -24 -83q-30 -57 -81 -106q64 -52 64 -126q0 -90 -79 -162q-80 -72 -207 -72q-121 0 -186 59t-65 149zM363 416q51 54 51 104q0 25 -16.5 39t-47.5 14
q-34 0 -55 -19t-21 -48q0 -26 20.5 -45.5t68.5 -44.5zM196 209q0 -29 20 -48t52 -19q42 0 71.5 22.5t29.5 57.5q0 18 -18 35q-14 15 -34 28q-15 9 -56 30q-65 -53 -65 -106z" />
    <glyph glyph-name="nine.tnum" horiz-adv-x="600" 
d="M10 21l71 142q44 -15 97 -15q114 0 177 118h-2q-40 -25 -88 -25q-99 0 -151 60q-52 61 -52 155q0 64 32 126q32 63 95 103q63 42 140 42q110 0 184 -71t74 -201q0 -78 -29 -160t-80 -151q-52 -71 -131 -113.5t-167 -42.5q-104 0 -170 33zM323 382q40 0 63 21t23 54
q0 47 -25 78.5t-61 31.5q-38 0 -64 -32q-25 -31 -25 -72q0 -37 22.5 -59t66.5 -22z" />
    <glyph glyph-name="hyphen.case" horiz-adv-x="434" 
d="M368 272h-314l29 150h314z" />
    <glyph glyph-name="parenleft.case" horiz-adv-x="334" 
d="M237 -65h-137q-59 136 -59 276q0 334 214 569h147q-211 -259 -211 -573q0 -146 46 -272z" />
    <glyph glyph-name="parenright.case" horiz-adv-x="334" 
d="M102 -65h-147q211 259 211 573q0 147 -46 272h137q59 -136 59 -276q0 -334 -214 -569z" />
    <glyph glyph-name="bracketleft.case" horiz-adv-x="353" 
d="M245 -65h-246l165 845h246l-24 -120h-102l-117 -605h102z" />
    <glyph glyph-name="bracketright.case" horiz-adv-x="353" 
d="M-33 -65l23 120h102l117 605h-102l24 120h246l-165 -845h-245z" />
    <glyph glyph-name="braceleft.case" horiz-adv-x="396" 
d="M76 68q0 22 4 39l16 83q3 15 3 26q0 30 -18.5 49.5t-50.5 20.5l29 150q39 1 67 27.5t37 71.5l20 103q18 96 93 123q59 24 135 24q8 0 42 -2l-24 -124q-8 2 -25 2q-72 0 -83 -54l-26 -132q-9 -41 -38.5 -71t-70.5 -43v-2q29 -10 46 -39t17 -68q0 -14 -3 -32l-22 -112
q-1 -3 -1 -12q0 -42 64 -42q1 0 25 2l-24 -124q-24 -2 -44 -2q-51 0 -102 24q-30 13 -48 43t-18 71z" />
    <glyph glyph-name="braceright.case" horiz-adv-x="395" 
d="M14 54q72 0 83 54l28 139q9 41 38 71t71 43v2q-28 10 -45.5 38t-17.5 69q0 14 3 32l20 105q1 3 1 12q0 42 -64 42q-9 0 -25 -2l24 124q26 2 44 2q52 0 101 -24q31 -13 49 -43t18 -71q0 -14 -4 -39l-14 -76q-3 -15 -3 -26q0 -31 18.5 -49.5t50.5 -20.5l-29 -150
q-11 0 -24 -4t-29.5 -13.5t-30.5 -31t-20 -50.5l-22 -110q-30 -147 -228 -147q-2 0 -42 2l24 124q18 -2 25 -2z" />
    <glyph glyph-name="at.case" horiz-adv-x="849" 
d="M53 293q0 179 133 308q133 130 320 130q273 0 273 -204q0 -27 -6 -56l-34 -178h74l-23 -119h-268q-99 0 -154 46t-55 120q0 75 67 133q68 59 181 59h64l1 3v4q0 26 -36 41.5t-87 15.5q-113 0 -196 -93q-83 -92 -83 -199q0 -85 55 -137.5t155 -52.5l-25 -128
q-156 0 -257 86q-99 87 -99 221zM485 344q0 -24 14 -37.5t41 -13.5h39l26 134h-37q-36 0 -59.5 -24.5t-23.5 -58.5z" />
    <glyph glyph-name="guillemotleft.case" horiz-adv-x="662" 
d="M583 137h-153l-130 205l213 206h167l-227 -213zM323 137h-153l-130 205l191 206h164l-202 -213z" />
    <glyph glyph-name="guillemotright.case" horiz-adv-x="664" 
d="M450 137h-164l202 213l-130 198h153l130 -205zM168 137h-167l227 213l-130 198h153l130 -205z" />
    <glyph glyph-name="guilsinglleft.case" horiz-adv-x="391" 
d="M323 137h-153l-130 205l191 206h164l-202 -213z" />
    <glyph glyph-name="guilsinglright.case" horiz-adv-x="387" 
d="M173 137h-164l202 213l-130 198h153l130 -205z" />
    <glyph glyph-name="endash.case" horiz-adv-x="715" 
d="M651 282h-596l25 130h596z" />
    <glyph glyph-name="emdash.case" horiz-adv-x="918" 
d="M853 282h-796l25 130h796z" />
    <glyph glyph-name="periodcentered.case" horiz-adv-x="279" 
d="M211 263h-158l31 164h158z" />
    <glyph glyph-name="questiondown.case" horiz-adv-x="518" 
d="M425 565h-158l29 150h158zM19 168q0 94 74 157q14 11 59 43.5t65.5 52.5t24.5 40l7 33h166l-9 -47q-8 -45 -40.5 -85.5t-72.5 -64.5q-92 -57 -92 -103q0 -22 17 -35.5t43 -13.5q48 0 103 43l79 -127q-36 -29 -96 -52q-59 -21 -114 -21q-88 0 -151 48t-63 132z" />
    <glyph glyph-name="exclamdown.case" horiz-adv-x="311" 
d="M285 565h-158l29 150h158zM188 0h-180l112 494h148z" />
    <glyph glyph-name="bullet.case" horiz-adv-x="526" 
d="M405 224q-54 -54 -131 -54q-76 0 -132 54q-54 56 -54 132q0 77 54 131q55 55 132 55t131 -55q55 -54 55 -131t-55 -132z" />
    <glyph glyph-name="zero.p_osf" horiz-adv-x="590" 
d="M28 210q0 126 71 238q36 55 94 87t127 32q118 0 176 -60t58 -163q0 -85 -32 -166q-32 -80 -99 -135t-160 -55q-119 0 -177 59.5t-58 162.5zM202 213q0 -81 61 -81q37 0 66 35q51 65 51 172q0 84 -60 84q-38 0 -67 -36q-51 -66 -51 -174z" />
    <glyph glyph-name="one.p_osf" horiz-adv-x="521" 
d="M443 0h-444l28 145h143l30 155l16 74h-2q-17 -17 -45 -32l-58 -29l-58 123l216 119h147l-79 -410h134z" />
    <glyph glyph-name="two.p_osf" horiz-adv-x="560" 
d="M463 0h-469l23 115q317 174 317 259q0 22 -15.5 33.5t-40.5 11.5q-63 0 -148 -70l-72 121q44 42 113 70q69 27 135 27q84 0 144 -42t60 -127q0 -90 -79 -159q-72 -61 -156 -97v-2q27 5 69 5h148z" />
    <glyph glyph-name="three.p_osf" horiz-adv-x="550" 
d="M-48 -41l91 111q59 -54 141 -54q54 0 86.5 24t32.5 62q0 34 -32.5 52.5t-80.5 18.5h-59l-26 79l95 97q32 32 64 56l10 7v1q-20 -4 -68 -4h-131l28 146h431l-19 -98l-178 -168q63 -11 102.5 -60.5t39.5 -120.5q0 -93 -83 -164q-82 -72 -212 -72q-66 0 -131 22
q-66 23 -101 65z" />
    <glyph glyph-name="four.p_osf" horiz-adv-x="610" 
d="M271 23h-306l20 106l333 426h227l-76 -387h85l-28 -145h-85l-27 -139h-170zM178 170v-2h121l31 156q17 80 21 80h-2q-26 -45 -49 -74z" />
    <glyph glyph-name="five.p_osf" horiz-adv-x="559" 
d="M-36 -42l89 112q59 -54 141 -54q47 0 86 27t39 76q0 35 -26 54.5t-69 19.5q-49 0 -106 -22l-88 33l97 351h392l-28 -146h-238l-17 -64l-9 -27h2q24 7 53 7q96 0 155 -57q60 -56 60 -141q0 -114 -90 -184q-91 -71 -213 -71q-65 0 -126.5 22.5t-103.5 63.5z" />
    <glyph glyph-name="six.p_osf" horiz-adv-x="606" 
d="M37 239q0 102 46 201q47 102 138 172q94 71 208 71q102 0 169 -34l-68 -128q-34 18 -96 18q-53 0 -98.5 -32.5t-74.5 -84.5h2q12 9 40 16t49 7q98 0 150 -58q54 -57 54 -143q0 -95 -75 -176q-74 -80 -188 -80q-111 0 -184 64q-72 64 -72 187zM211 238q0 -46 23.5 -76
t61.5 -30q34 0 59.5 30.5t25.5 72.5q0 35 -21.5 56t-64.5 21q-39 0 -61.5 -20.5t-22.5 -53.5z" />
    <glyph glyph-name="seven.p_osf" horiz-adv-x="540" 
d="M160 -116h-190l329 466q27 38 45 56l5 5v2q-5 -3 -41 -3h-260l28 145h502l-23 -115z" />
    <glyph glyph-name="eight.p_osf" horiz-adv-x="602" 
d="M18 176q0 57 40 106q41 51 87 83q-43 43 -43 102q0 85 67 149q67 66 181 66q100 0 163 -45q64 -43 64 -122q0 -35 -21 -80q-25 -56 -72 -111q57 -46 57 -114q0 -85 -77 -154q-77 -68 -201 -68q-117 0 -182 53q-63 54 -63 135zM365 389q42 47 42 99q0 51 -62 51
q-35 0 -55.5 -18.5t-20.5 -45.5q0 -26 22 -44.5t74 -41.5zM193 197q0 -28 20.5 -47t52.5 -19q42 0 71 21.5t29 55.5q0 19 -25 39q-11 9 -39 22l-48 24q-61 -42 -61 -96z" />
    <glyph glyph-name="nine.p_osf" horiz-adv-x="590" 
d="M-8 -94l68 128q36 -18 96 -18q53 0 98.5 32.5t74.5 84.5h-2q-12 -9 -40 -16t-49 -7q-97 0 -151 57q-53 59 -53 144q0 95 74 175q75 81 189 81q112 0 183 -64q73 -64 73 -187q0 -103 -46 -202q-47 -101 -139 -171q-92 -71 -207 -71q-102 0 -169 34zM295 243
q39 0 61.5 20.5t22.5 53.5q0 46 -23.5 76t-61.5 30q-34 0 -59.5 -30.5t-25.5 -72.5q0 -35 21.5 -56t64.5 -21z" />
    <glyph glyph-name="zero.t_osf" horiz-adv-x="600" 
d="M32 210q0 126 71 238q36 55 94 87t127 32q118 0 176 -60t58 -163q0 -85 -32 -166q-32 -80 -99 -135t-160 -55q-119 0 -177 59.5t-58 162.5zM206 213q0 -81 61 -81q37 0 66 35q51 65 51 172q0 84 -60 84q-38 0 -67 -36q-51 -66 -51 -174z" />
    <glyph glyph-name="one.t_osf" horiz-adv-x="600" 
d="M483 0h-444l28 145h143l30 155l16 74h-2q-17 -17 -45 -32l-58 -29l-58 123l216 119h147l-79 -410h134z" />
    <glyph glyph-name="two.t_osf" horiz-adv-x="600" 
d="M485 0h-469l23 115q317 174 317 259q0 22 -15.5 33.5t-40.5 11.5q-63 0 -148 -70l-72 121q44 42 113 70q69 27 135 27q84 0 144 -42t60 -127q0 -90 -79 -159q-72 -61 -156 -97v-2q27 5 69 5h148z" />
    <glyph glyph-name="three.t_osf" horiz-adv-x="600" 
d="M-21 -39l91 111q58 -54 140 -54q54 0 86.5 24t32.5 62q0 33 -33 51.5t-80 18.5h-59l-25 79l94 97q28 28 64 55l10 7v1q-20 -4 -68 -4h-130l28 146h429l-19 -98l-177 -167q62 -11 101.5 -61t39.5 -119q0 -94 -82 -164q-83 -71 -212 -71q-65 0 -130 22q-66 21 -101 64z" />
    <glyph glyph-name="four.t_osf" horiz-adv-x="600" 
d="M268 23h-306l20 106l333 426h227l-76 -387h85l-28 -145h-85l-27 -139h-170zM175 170v-2h121l31 156q17 80 21 80h-2q-26 -45 -49 -74z" />
    <glyph glyph-name="five.t_osf" horiz-adv-x="600" 
d="M-15 -42l89 112q58 -54 141 -54q47 0 86 27t39 76q0 35 -26 54.5t-69 19.5q-49 0 -106 -22l-88 33l97 351h392l-28 -146h-238l-17 -64l-9 -27h2q24 7 53 7q96 0 155 -57q60 -56 60 -141q0 -114 -90 -184q-91 -71 -213 -71q-65 0 -126.5 22.5t-103.5 63.5z" />
    <glyph glyph-name="six.t_osf" horiz-adv-x="600" 
d="M36 239q0 102 46 201q47 102 138 172q94 71 208 71q102 0 169 -34l-68 -128q-31 18 -96 18q-53 0 -98.5 -32.5t-74.5 -84.5h2q12 9 40 16t49 7q98 0 150 -58q54 -57 54 -143q0 -95 -75 -176q-74 -80 -188 -80q-111 0 -184 64q-72 64 -72 187zM210 238q0 -46 23.5 -76
t61.5 -30q34 0 59.5 30.5t25.5 72.5q0 35 -21.5 56t-64.5 21q-39 0 -61.5 -20.5t-22.5 -53.5z" />
    <glyph glyph-name="seven.t_osf" horiz-adv-x="600" 
d="M189 -116h-190l329 466q28 38 45 56l5 5v2q-4 -3 -41 -3h-260l28 145h502l-23 -115z" />
    <glyph glyph-name="eight.t_osf" horiz-adv-x="600" 
d="M17 176q0 57 40 106q41 51 87 83q-43 43 -43 102q0 85 67 149q68 66 181 66q100 0 163 -45q64 -43 64 -122q0 -35 -21 -80q-25 -56 -72 -111q57 -46 57 -114q0 -85 -77 -154q-77 -68 -201 -68q-117 0 -182 53q-63 54 -63 135zM364 389q42 47 42 99q0 51 -62 51
q-35 0 -55.5 -18.5t-20.5 -45.5q0 -26 22 -44.5t74 -41.5zM192 197q0 -28 20.5 -47t52.5 -19q42 0 71 21.5t29 55.5q0 19 -25 39q-11 9 -39 22l-48 24q-61 -42 -61 -96z" />
    <glyph glyph-name="nine.t_osf" horiz-adv-x="600" 
d="M-3 -94l68 128q36 -18 96 -18q53 0 98.5 32.5t74.5 84.5h-2q-12 -9 -40 -16t-49 -7q-97 0 -151 57q-53 59 -53 144q0 95 74 175q75 81 189 81q112 0 183 -64q73 -64 73 -187q0 -103 -46 -202q-47 -101 -139 -171q-92 -71 -207 -71q-102 0 -169 34zM300 243
q39 0 61.5 20.5t22.5 53.5q0 46 -23.5 76t-61.5 30q-34 0 -59.5 -30.5t-25.5 -72.5q0 -35 21.5 -56t64.5 -21z" />
    <glyph glyph-name="dollar.osf" horiz-adv-x="549" 
d="M-4 83l94 118q67 -61 141 -61q33 0 53.5 10t20.5 27q0 21 -82 57q-150 67 -149 175q0 66 56 119t153 65l18 91h109l-19 -93q87 -13 147 -66l-82 -128q-23 21 -58.5 34.5t-67.5 13.5q-76 0 -76 -38q0 -13 24 -26t58 -28t67.5 -34.5t57.5 -54.5t24 -80q0 -80 -62 -131
q-63 -51 -149 -61l-17 -92h-109l19 95q-102 19 -171 88z" />
    <glyph glyph-name="cent.osf" horiz-adv-x="563" 
d="M290 -30h-114l17 87q-73 21 -113.5 76.5t-40.5 130.5q0 98 69 181q70 83 181 104l16 80h114l-16 -79q89 -17 150 -79l-93 -113q-39 45 -104 45q-68 0 -105 -39q-37 -37 -37 -83q0 -37 26.5 -60.5t75.5 -23.5q60 0 119 51l57 -132q-77 -62 -187 -71z" />
    <glyph glyph-name="sterling.osf" horiz-adv-x="620" 
d="M515 0h-518l28 145h55l16 86h-43l21 108h43l10 47q21 99 98 155t182 56q117 0 194 -66l-90 -116q-42 30 -114 30q-34 0 -62 -18.5t-34 -45.5l-9 -42h180l-21 -108h-180l-16 -86h289z" />
    <glyph glyph-name="yen.osf" horiz-adv-x="673" 
d="M212 125h-161l19 96h161l1 6l-27 65h-122l19 96h65l-74 197h190l31 -118l27 -110h2q27 58 60 110l74 118h208l-151 -197h74l-19 -96h-131l-51 -65l-1 -6h170l-19 -96h-170l-24 -125h-175z" />
    <glyph glyph-name="florin.osf" horiz-adv-x="596" 
d="M-30 -116l29 143q30 -6 67 -6q89 0 105 64l49 181h-62l27 135h74l29 100q53 182 265 182q25 0 102 -9l-29 -144q-35 6 -74 6q-87 0 -103 -64l-20 -71h95l-27 -135h-107l-57 -210q-32 -114 -123 -152q-72 -30 -145 -30q-45 0 -95 10z" />
    <glyph glyph-name="Euro.osf" horiz-adv-x="589" 
d="M107 184h-88l17 86h63q0 15 6 45h-60l17 86h72q42 85 125 141q82 55 195 55q79 0 131 -20l-59 -127q-32 9 -68 9q-80 0 -132 -58h182l-36 -86h-193q-7 -24 -7 -45h185l-33 -86h-131q33 -55 108 -55q36 0 89 14v-139q-45 -16 -95 -16q-116 0 -191 53t-97 143z" />
    <glyph glyph-name="zero.numerator" 
d="M213 264q-154 0 -154 156q0 69 18 135q20 66 67 118q48 52 118 52q155 0 155 -156q0 -104 -46 -199q-24 -49 -65 -77.5t-93 -28.5zM214 379q31 0 52 57q22 56 22 124q0 49 -27 49q-31 0 -53 -57q-21 -57 -21 -124q0 -49 27 -49z" />
    <glyph glyph-name="one.numerator" 
d="M359 274h-305l21 108h89l26 136l10 32h-2q-8 -12 -14 -15l-27 -20l-59 84l148 116h108l-64 -333h90z" />
    <glyph glyph-name="two.numerator" 
d="M361 274h-327q0 54 18 98q12 28 31 50.5t34 34t43 29.5q19 12 58 31.5t54 33t15 32.5q0 12 -11.5 19.5t-27.5 7.5q-34 0 -80 -45l-75 78q79 82 166 82q64 0 111 -34q48 -33 48 -95q0 -41 -21 -73.5t-52 -53t-62.5 -35.5t-56.5 -28t-30 -24h186z" />
    <glyph glyph-name="three.numerator" 
d="M194 264q-100 0 -162 68l72 83q29 -36 91 -36q27 0 43.5 12.5t16.5 32.5q0 15 -15 24t-40 9h-37l-18 57l74 69l28 23v2q-28 -2 -34 -2h-103l21 109h294l-15 -79l-99 -92q35 -12 54.5 -43.5t19.5 -72.5q0 -65 -52 -114q-53 -50 -139 -50z" />
    <glyph glyph-name="four.numerator" 
d="M325 274h-124l17 87h-196l15 84l216 270h157l-48 -247h53l-20 -107h-53zM168 470v-2h70l18 90l14 50h-2q-13 -27 -30 -46z" />
    <glyph glyph-name="five.numerator" 
d="M198 264q-98 0 -163 65l74 86q36 -36 89 -36q26 0 46.5 14.5t20.5 38.5q0 18 -15 29t-38 11q-37 0 -67 -13l-64 24l65 232h269l-21 -109h-164l-6 -23l-6 -16l1 -1q12 4 39 4q55 0 96 -38q40 -37 40 -93q0 -67 -55 -121t-141 -54z" />
    <glyph glyph-name="six.numerator" 
d="M224 264q-72 0 -118 45t-46 124q0 67 31 132q31 66 93 113t134 47q64 0 111 -26l-49 -102q-32 12 -66 12q-58 0 -86 -52h2q20 6 38 6q57 0 94 -36.5t37 -90.5q0 -64 -50 -119q-50 -53 -125 -53zM273 431q0 41 -44 41q-23 0 -31.5 -10t-8.5 -31q0 -23 12 -37.5t30 -14.5
q17 0 29.5 16t12.5 36z" />
    <glyph glyph-name="seven.numerator" 
d="M174 274h-144l235 308l22 24v2q-26 -2 -32 -2h-153l21 109h334l-16 -85z" />
    <glyph glyph-name="eight.numerator" 
d="M210 264q-72 0 -121 33t-49 92q0 61 88 125q-28 28 -28 66q0 69 52 106q52 39 117 39q71 0 112 -30t41 -81q0 -25 -18 -55q-24 -43 -55 -69q45 -33 45 -81q0 -67 -58 -106t-126 -39zM268 533q10 7 20.5 25t10.5 35q0 12 -10.5 19t-26.5 7q-18 0 -30 -9t-12 -26
q0 -28 48 -51zM266 409q0 15 -14.5 27t-48.5 29q-35 -33 -35 -61q-2 -21 22 -30t49.5 1t26.5 34z" />
    <glyph glyph-name="nine.numerator" 
d="M47 290l49 102q27 -12 66 -12q58 0 86 52h-2q-20 -6 -38 -6q-57 0 -94 36.5t-37 90.5q0 66 49 118q50 54 126 54q72 0 118 -45t46 -124q0 -64 -32 -133q-32 -68 -92 -113q-61 -46 -134 -46q-64 0 -111 26zM247 517q23 0 31.5 10t8.5 31q0 23 -12 37.5t-30 14.5
q-17 0 -29.5 -16t-12.5 -36q0 -41 44 -41z" />
    <glyph glyph-name="zero.denominator" 
d="M160 -10q-154 0 -154 156q0 69 18 135q20 66 67 118q48 52 118 52q155 0 155 -156q0 -104 -46 -199q-24 -49 -65 -77.5t-93 -28.5zM161 105q31 0 52 57q22 56 22 124q0 49 -27 49q-30 0 -53 -57q-21 -57 -21 -124q0 -49 27 -49z" />
    <glyph glyph-name="one.denominator" 
d="M306 0h-305l21 108h89l26 136l10 32h-2q-8 -12 -14 -15l-27 -20l-59 84l148 116h108l-64 -333h90z" />
    <glyph glyph-name="two.denominator" 
d="M307 0h-327q0 56 19 98q11 28 30 50.5t34 34t43 29.5q19 12 58 31.5t54 33t15 32.5q0 12 -11.5 19.5t-27.5 7.5q-34 0 -80 -45l-75 78q79 82 166 82q64 0 111 -34q48 -33 48 -95q0 -41 -21 -73.5t-52 -53t-62.5 -35.5t-56.5 -28t-30 -24h186z" />
    <glyph glyph-name="three.denominator" 
d="M141 -10q-100 0 -162 68l72 83q29 -36 91 -36q27 0 43.5 12.5t16.5 32.5q0 15 -15 24t-40 9h-37l-18 57l74 69l28 23v2q-28 -2 -34 -2h-103l21 109h294l-15 -79l-99 -92q35 -12 54.5 -43.5t19.5 -72.5q0 -65 -52 -114q-53 -50 -139 -50z" />
    <glyph glyph-name="four.denominator" 
d="M272 0h-124l17 87h-196l15 84l216 270h157l-48 -247h53l-20 -107h-53zM115 196v-2h70l18 90l14 50h-2q-13 -27 -30 -46z" />
    <glyph glyph-name="five.denominator" 
d="M145 -10q-98 0 -163 65l74 86q36 -36 89 -36q26 0 46.5 14.5t20.5 38.5q0 18 -15 29t-38 11q-37 0 -67 -13l-64 24l65 232h269l-21 -109h-164l-6 -23l-6 -16l1 -1q12 4 39 4q55 0 96 -38q40 -37 40 -93q0 -67 -55 -121q-56 -54 -141 -54z" />
    <glyph glyph-name="six.denominator" 
d="M171 -10q-72 0 -118 45t-46 124q0 67 31 132q31 66 93 113t134 47q64 0 111 -26l-49 -102q-31 12 -66 12q-58 0 -86 -52h2q19 6 38 6q57 0 94 -36.5t37 -90.5q0 -64 -50 -119q-50 -53 -125 -53zM220 157q0 41 -44 41q-23 0 -31.5 -10t-8.5 -31q0 -23 12 -37.5t30 -14.5
q17 0 29.5 16t12.5 36z" />
    <glyph glyph-name="seven.denominator" 
d="M120 0h-144l235 308l22 24v2q-26 -2 -32 -2h-153l21 109h334l-16 -85z" />
    <glyph glyph-name="eight.denominator" 
d="M158 -10q-72 0 -121 33t-49 92q0 61 88 125q-28 28 -28 66q0 69 52 106q52 39 117 39q71 0 112 -30t41 -81q0 -25 -18 -55q-24 -43 -55 -69q45 -33 45 -81q0 -67 -58 -106t-126 -39zM216 259q10 7 20.5 25t10.5 35q0 12 -11 19t-26 7q-18 0 -30 -9t-12 -26q0 -28 48 -51z
M214 135q0 15 -14.5 27t-48.5 29q-35 -33 -35 -61q-2 -21 22 -30t49.5 1t26.5 34z" />
    <glyph glyph-name="nine.denominator" 
d="M-7 16l49 102q27 -12 66 -12q58 0 86 52h-2q-20 -6 -38 -6q-57 0 -94 36.5t-37 90.5q0 66 49 118q50 54 126 54q72 0 118 -45t46 -124q0 -64 -32 -133q-32 -68 -92 -113q-61 -46 -134 -46q-64 0 -111 26zM193 243q23 0 31.5 10t8.5 31q0 23 -12 37.5t-30 14.5
q-17 0 -29.5 -16t-12.5 -36q0 -41 44 -41z" />
    <glyph glyph-name="uni0433.BUL" horiz-adv-x="478" 
d="M-3 129q0 41 21.5 74t53.5 52.5t69.5 36t69.5 27t53.5 23.5t21.5 27q0 18 -27 18q-87 0 -145 -36l-49 123q95 53 210 53q81 0 129 -37t48 -102q0 -47 -28.5 -86t-73.5 -62q-31 -16 -82 -36t-78 -33.5t-27 -24.5t8 -14.5t28 -3.5q82 0 152 47l65 -122q-107 -65 -235 -65
q-88 0 -136 38.5t-48 102.5z" />
    <glyph glyph-name="uni0434.BUL" horiz-adv-x="624" 
d="M-6 -157l68 124q50 -33 141 -33q121 0 138 99l3 17l4 19h-1q-51 -54 -124 -54q-98 0 -149 60q-51 61 -51 156q0 116 75 206q76 90 200 90q98 0 138 -55h3l2 16l5 27h162l-93 -478q-25 -129 -112 -188q-86 -59 -196 -59q-133 0 -213 53zM198 246q0 -40 20 -63.5t59 -23.5
q53 0 86 47q33 48 33 102q0 75 -83 75q-51 0 -83 -39t-32 -98z" />
    <glyph glyph-name="uni0436.BUL" horiz-adv-x="843" 
d="M139 0h-186l189 276v2l-82 237h168l61 -183h54l75 383h161l-75 -383h55l114 183h187l-178 -262v-2l88 -251h-174l-57 187h-63l-37 -187h-161l37 187h-55z" />
    <glyph glyph-name="uni0438.BUL" horiz-adv-x="620" 
d="M25 134q0 22 7 57l63 324h173l-58 -296q-3 -18 -3 -30q0 -44 46 -44q47 0 85 42q39 44 49 100l44 228h173l-100 -515h-167l5 26l13 51h-2q-24 -38 -70 -63.5t-96 -25.5q-76 0 -119 36.5t-43 109.5z" />
    <glyph glyph-name="uni0439.BUL" horiz-adv-x="620" 
d="M25 134q0 22 7 57l63 324h173l-58 -296q-3 -18 -3 -30q0 -44 46 -44q47 0 85 42q39 44 49 100l44 228h173l-100 -515h-167l5 26l13 51h-2q-24 -38 -70 -63.5t-96 -25.5q-76 0 -119 36.5t-43 109.5zM365 551q-78 0 -126 35.5t-48 90.5q0 11 5 38h130q-3 -11 -3 -22
q0 -22 13.5 -35.5t37.5 -13.5q64 0 75 71h126q-13 -83 -72 -124q-58 -40 -138 -40z" />
    <glyph glyph-name="uni043A.BUL" horiz-adv-x="596" 
d="M174 0h-173l139 715h173l-72 -370h47l136 170h201l-207 -244v-2l115 -269h-183l-75 200h-62z" />
    <glyph glyph-name="uni043B.BUL" horiz-adv-x="573" 
d="M136 0h-189l278 515h211l74 -515h-175l-25 274l-2 89h-2q-20 -57 -36 -89z" />
    <glyph glyph-name="uni043F.BUL" horiz-adv-x="627" 
d="M174 0h-173l100 515h167l-5 -26l-13 -51h2q23 37 72 62q50 27 100 27q76 0 119 -36.5t43 -109.5q0 -22 -7 -57l-63 -324h-173l58 296q3 18 3 30q0 44 -46 44q-50 0 -90 -42q-40 -43 -50 -100z" />
    <glyph glyph-name="uni0442.BUL" horiz-adv-x="909" 
d="M174 0h-173l100 515h167l-8 -40l-10 -37h2q69 89 156 89q110 0 137 -87h2q28 37 75.5 62t96.5 25q147 0 147 -141q0 -26 -8 -72l-60 -314h-173l59 300q3 16 3 30q0 40 -34 40q-44 0 -78 -44.5t-47 -112.5l-42 -213h-173l59 300q3 16 3 30q0 40 -34 40q-44 0 -78 -46
q-33 -43 -47 -111z" />
    <glyph glyph-name="uni0446.BUL" horiz-adv-x="667" 
d="M25 134q0 22 7 57l63 324h173l-58 -296q-3 -18 -3 -30q0 -44 46 -44q47 0 85 42q39 44 49 100l44 228h173l-72 -370h86l-51 -265h-153l23 120h-100l5 26l13 51h-2q-24 -38 -70 -63.5t-96 -25.5q-76 0 -119 36.5t-43 109.5z" />
    <glyph glyph-name="uni0448.BUL" horiz-adv-x="907" 
d="M718 515h173l-100 -515h-167l8 40l10 37h-2q-69 -89 -156 -89q-110 0 -137 87h-2q-28 -37 -75.5 -62t-96.5 -25q-147 0 -147 141q0 26 8 72l60 314h173l-59 -300q-3 -17 -3 -30q0 -40 34 -40q44 0 78 44.5t47 112.5l42 213h173l-59 -300q-3 -17 -3 -30q0 -40 34 -40
q43 0 78 45q33 45 47 112z" />
    <glyph glyph-name="uni0449.BUL" horiz-adv-x="954" 
d="M718 515h173l-72 -370h86l-51 -265h-153l23 120h-100l8 40l10 37h-2q-69 -89 -156 -89q-110 0 -137 87h-2q-28 -37 -75.5 -62t-96.5 -25q-147 0 -147 141q0 26 8 72l60 314h173l-59 -300q-3 -17 -3 -30q0 -40 34 -40q44 0 78 44.5t47 112.5l42 213h173l-59 -300
q-3 -17 -3 -30q0 -40 34 -40q43 0 78 45q33 45 47 112z" />
    <glyph glyph-name="uni044A.BUL" horiz-adv-x="603" 
d="M87 158q0 25 7 60l31 152h-94l28 145h267l-26 -129q-7 -31 -8 -35h2q52 29 112 29q74 0 117.5 -44.5t43.5 -119.5q0 -102 -77 -165q-76 -63 -195 -63q-96 0 -152 43t-56 127zM262 189q-6 -31 7.5 -53t43.5 -22q34 0 56 26.5t22 62.5q0 50 -52 50q-28 0 -50 -18t-27 -46z
" />
    <glyph glyph-name="uni044C.BUL" horiz-adv-x="544" 
d="M28 158q0 25 7 60l59 297h173l-26 -129q-7 -31 -8 -35h2q52 29 112 29q74 0 117.5 -44.5t43.5 -119.5q0 -102 -77 -165t-195 -63q-96 0 -152 43t-56 127zM201 170q0 -25 13.5 -40.5t39.5 -15.5q34 0 56 26.5t22 62.5q0 50 -52 50q-34 0 -56.5 -24t-22.5 -59z" />
    <glyph glyph-name="uni044E.BUL" horiz-adv-x="891" 
d="M173 0h-172l138 715h173l-75 -386h63q36 90 118 143q82 55 177 55q115 0 188 -64q74 -63 74 -167q0 -132 -96 -220q-95 -88 -220 -88q-109 0 -180 55q-71 56 -81 149h-70zM454 227q0 -44 25 -69.5t65 -25.5q53 0 95 43q43 43 43 110q0 45 -25 71.5t-64 26.5
q-53 0 -96 -45q-43 -43 -43 -111z" />
    <glyph glyph-name="uni0432.BUL" horiz-adv-x="619" 
d="M29 205q0 27 6 55l38 196q24 127 102.5 199t199.5 72q95 0 151 -43.5t56 -110.5q0 -51 -31 -88t-92 -70v-2q53 -9 86 -54t33 -111q0 -114 -91 -187q-89 -73 -217 -73q-107 0 -175 60q-66 60 -66 157zM254 496l-17 -69h2q16 16 63 41l27 15q34 20 42 25q40 25 40 52
q0 36 -53 36q-80 0 -104 -100zM197 210q0 -36 21.5 -54.5t58.5 -18.5q54 0 89 34q37 34 37 83q0 69 -82 69q-54 0 -89 -32.5t-35 -80.5z" />
    <glyph glyph-name="uni0437.BUL" horiz-adv-x="476" 
d="M-88 -157l74 127q41 -34 109 -34q52 0 87.5 31t35.5 78q0 61 -77 61h-77l27 135h79q41 0 71.5 25.5t30.5 60.5q0 27 -20.5 42t-54.5 15q-60 0 -104 -37l-68 110q95 70 219 70q92 0 147 -46t55 -122q0 -61 -37.5 -111.5t-97.5 -74.5v-2q80 -48 80 -139q0 -73 -44 -129
q-43 -56 -108 -84.5t-138 -28.5q-51 0 -107 15q-54 15 -82 38z" />
    <glyph glyph-name="uni0414.ALT" horiz-adv-x="747" 
d="M75 -140h-154l57 290h74l310 565h182l89 -565h79l-57 -290h-155l28 140h-425zM370 407l-130 -257h217l-31 257l-7 115h-2q-27 -76 -47 -115z" />
    <glyph glyph-name="uni041B.ALT" horiz-adv-x="675" 
d="M134 0h-197l391 715h182l113 -715h-179l-49 407l-5 115h-2q-22 -61 -49 -115z" />
    <glyph glyph-name="uni0434.ALT" horiz-adv-x="656" 
d="M84 -120h-153l50 257h67l210 378h221l62 -378h71l-50 -257h-154l23 120h-324zM307 294l-82 -157h151l-21 157l-5 89h-2q-22 -54 -41 -89z" />
    <glyph glyph-name="uni043B.ALT" horiz-adv-x="573" 
d="M136 0h-189l278 515h211l74 -515h-175l-25 274l-2 89h-2q-20 -57 -36 -89z" />
    <glyph glyph-name="uni0409.ALT" horiz-adv-x="956" 
d="M134 0h-190l376 715h345l-51 -261h109q94 0 150 -59q57 -59 57 -147q0 -102 -78 -175q-77 -73 -191 -73h-310l110 565h-39zM585 304l-30 -154h89q44 0 76 26t32 67q0 28 -21.5 44.5t-59.5 16.5h-86z" />
    <glyph glyph-name="uni0459.ALT" horiz-adv-x="834" 
d="M124 0h-179l301 515h329l-35 -177h75q180 0 180 -149q0 -89 -64.5 -139t-171.5 -50h-258l76 390h-35zM518 224l-22 -111h56q32 0 55 17.5t23 46.5q0 47 -59 47h-53z" />
    <glyph glyph-name="uni04C5.ALT" horiz-adv-x="794" 
d="M133 0h-196l391 715h182l89 -565h167l-18 -91l-128 -199h-117l61 140h-121l-49 407q-5 34 -5 96v19h-2q-28 -73 -49 -115z" />
    <glyph glyph-name="uni04C6.ALT" horiz-adv-x="658" 
d="M443 0h-110l-26 274l-1 89h-2q-18 -50 -37 -89l-133 -274h-187l277 515h211l54 -370h144l-16 -86l-114 -179h-111z" />
    </font>
</defs>
</svg>
