<?xml version="1.0" standalone="no"?>
<!DOCTYPE svg PUBLIC "-//W3C//DTD SVG 1.1//EN" "http://www.w3.org/Graphics/SVG/1.1/DTD/svg11.dtd" >
<svg xmlns="http://www.w3.org/2000/svg" xmlns:xlink="http://www.w3.org/1999/xlink" version="1.1">
<metadata>
Created by FontForge 20170731 at Wed Feb  5 06:25:28 2014
 By Aleksey,,,
Copyright (c) 2012 by Jos Buivenga. All rights reserved.
</metadata>
<defs>
<font id="MuseoSansCyrillic-700Italic" horiz-adv-x="392" >
  <font-face 
    font-family="Museo Sans Cyrillic"
    font-weight="700"
    font-style="italic"
    font-stretch="normal"
    units-per-em="1000"
    panose-1="2 0 0 0 0 0 0 0 0 0"
    ascent="773"
    descent="-227"
    x-height="510"
    cap-height="710"
    bbox="-184 -210 1122 902"
    underline-thickness="50"
    underline-position="-200"
    slope="-11"
    unicode-range="U+0020-FB04"
  />
<missing-glyph horiz-adv-x="510" 
d="M505 0h-500v700h500v-700zM85 650l170 -255l170 255h-340zM285 350l170 -255v510zM55 605v-510l170 255zM255 305l-170 -255h340z" />
    <glyph glyph-name="f_f" unicode="ff" horiz-adv-x="712" 
d="M165 0h-127l80 409h-63l20 101h63l3 17q16 92 75 137q74 52 160 50q23 0 52 -3l-23 -108q-8 2 -24 2q-100 0 -115 -84l-2 -11h230l3 17q16 92 75 137q74 52 160 50q25 0 52 -3l-23 -108q-8 2 -24 2q-100 0 -115 -84l-2 -11h110l-19 -101h-110l-80 -409h-127l80 409h-229z
" />
    <glyph glyph-name="fi" unicode="fi" horiz-adv-x="616" 
d="M165 0h-127l80 409h-63l20 101h63l3 17q16 92 75 137q74 52 160 50q26 0 52 -3l-23 -108q-8 2 -24 2q-100 0 -115 -84l-2 -11h327l-100 -510h-126l79 409h-199zM608 597h-127l22 113h127z" />
    <glyph glyph-name="fl" unicode="fl" horiz-adv-x="646" 
d="M167 0h-127l78 402h-63l20 101h63l5 23q17 93 77 138q70 52 158 50q28 0 52 -3l-23 -108q-8 2 -24 2q-98 0 -115 -83l-3 -19h109l-19 -101h-110zM392 116q0 23 5 51l106 543h127l-103 -528q-4 -23 -4 -36q0 -38 43 -38q11 0 18 1l-22 -111q-24 -3 -37 -3q-133 0 -133 121
z" />
    <glyph glyph-name="f_f_i" unicode="ffi" horiz-adv-x="974" 
d="M165 0h-127l80 409h-63l20 101h63l3 17q16 92 75 137q74 52 160 50q25 0 52 -3l-23 -108q-10 2 -24 2q-100 0 -115 -84l-2 -11h230l3 17q16 92 75 137q74 52 160 50q25 0 52 -3l-23 -108q-14 2 -24 2q-100 0 -115 -84l-2 -11h329l-99 -510h-127l79 409h-201l-80 -409
h-127l80 409h-229zM966 597h-127l22 113h127z" />
    <glyph glyph-name="f_f_l" unicode="ffl" horiz-adv-x="1001" 
d="M165 0h-127l80 409h-63l20 101h63l3 17q16 92 75 137q74 52 160 50q23 0 52 -3l-23 -108q-8 2 -24 2q-100 0 -115 -84l-2 -11h230l3 17q16 92 75 137q74 52 160 50q25 0 52 -3l-23 -108q-8 2 -24 2q-100 0 -115 -84l-2 -11h110l-19 -101h-110l-80 -409h-127l80 409h-229z
M747 116q0 23 5 51l106 543h127l-103 -528q-4 -23 -4 -36q0 -38 43 -38q11 0 18 1l-22 -111q-24 -3 -37 -3q-133 0 -133 121z" />
    <glyph glyph-name="f_j" unicode="fj" horiz-adv-x="619" 
d="M165 0h-127l80 409h-63l20 101h63l3 17q16 92 75 137q74 52 160 50q23 0 52 -3l-23 -108q-14 2 -24 2q-100 0 -115 -84l-2 -11h329l-102 -524q-18 -96 -78 -142q-25 -20 -56 -32q-49 -19 -102 -19q-23 0 -52 3l21 107q16 -2 22 -2q102 0 120 94l80 414h-201zM610 597
h-127l21 113h127z" />
    <glyph glyph-name=".notdef" horiz-adv-x="510" 
d="M505 0h-500v700h500v-700zM85 650l170 -255l170 255h-340zM285 350l170 -255v510zM55 605v-510l170 255zM255 305l-170 -255h340z" />
    <glyph glyph-name=".null" horiz-adv-x="0" 
 />
    <glyph glyph-name="nonmarkingreturn" horiz-adv-x="333" 
 />
    <glyph glyph-name="space" unicode=" " horiz-adv-x="250" 
 />
    <glyph glyph-name="exclam" unicode="!" horiz-adv-x="289" 
d="M181 205h-111l88 505h132zM149 0h-123l23 119h123z" />
    <glyph glyph-name="quotedbl" unicode="&#x22;" horiz-adv-x="394" 
d="M365 514h-94l41 209h94zM205 514h-94l41 209h94z" />
    <glyph glyph-name="numbersign" unicode="#" horiz-adv-x="719" 
d="M172 0h-104l69 187h-116l32 91h117l52 140h-115l33 92h115l74 200h104l-74 -200h137l74 200h104l-74 -200h118l-33 -92h-118l-52 -140h117l-33 -91h-117l-69 -187h-104l68 187h-136zM326 418l-52 -140h137l52 140h-137z" />
    <glyph glyph-name="dollar" unicode="$" horiz-adv-x="586" 
d="M12 85l78 91q66 -69 169 -69q51 0 87.5 26t36.5 70q0 51 -98 99q-39 19 -63 33.5t-55 40t-46 59t-15 74.5q0 89 66 146q68 58 161 65l19 91h85l-18 -94q107 -15 162 -73l-71 -95q-26 24 -68 39t-82 15q-48 0 -86 -25q-39 -24 -39 -68q0 -49 98 -97q37 -17 63 -32.5
t56 -40.5t45.5 -59.5t15.5 -76.5q0 -88 -67 -149q-66 -60 -169 -66l-17 -90h-85l18 95q-112 18 -181 91z" />
    <glyph glyph-name="percent" unicode="%" horiz-adv-x="819" 
d="M246 406q-66 0 -108 40.5t-42 103.5q0 66 56 119t126 53q66 0 108 -41.5t42 -104.5q0 -66 -56 -119q-56 -51 -126 -51zM147 0h-122l669 710h123zM252 498q31 0 54.5 23t23.5 55q0 24 -15.5 39t-42.5 15q-30 0 -54 -24t-24 -55q0 -23 16 -38t42 -15zM414 131q0 66 56 119
t126 53q66 0 108 -41t42 -104q0 -66 -56 -119q-56 -51 -126 -51q-67 0 -108.5 40t-41.5 103zM512 133q0 -23 16 -38t42 -15q31 0 54.5 23t23.5 55q0 24 -16 39t-42 15q-30 0 -54 -24t-24 -55z" />
    <glyph glyph-name="ampersand" unicode="&#x26;" horiz-adv-x="684" 
d="M31 182q0 65 46 121q46 58 116 77v2q-1 0 -7.5 3t-16.5 12t-19.5 21.5t-16.5 34.5t-7 48q0 104 76 162q77 59 179 59q49 0 98 -16l-48 -98q-19 6 -47 6q-51 0 -91 -32q-38 -32 -38 -84q0 -73 91 -73h114l18 92h127l-18 -92h91l-21 -112h-92l-16 -84q-24 -119 -96 -180
t-187 -61q-109 0 -172 53t-63 141zM166 190q0 -37 28.5 -60.5t75.5 -23.5q61 0 101 33.5t53 96.5l14 77h-120q-61 0 -107 -31q-45 -31 -45 -92z" />
    <glyph glyph-name="quotesingle" unicode="'" horiz-adv-x="235" 
d="M207 514h-96l41 209h96z" />
    <glyph glyph-name="parenleft" unicode="(" horiz-adv-x="310" 
d="M200 -95h-104q-54 134 -54 271q0 323 209 565h112q-209 -260 -209 -568q0 -145 46 -268z" />
    <glyph glyph-name="parenright" unicode=")" horiz-adv-x="310" 
d="M69 -95h-112q210 261 210 568q0 141 -47 268h104q54 -132 54 -271q0 -323 -209 -565z" />
    <glyph glyph-name="asterisk" unicode="*" horiz-adv-x="498" 
d="M274 432l-91 -111l-83 68l104 103l-116 30l55 106l111 -49l16 131h115l-35 -131l132 49l15 -109l-139 -35l65 -98l-98 -66z" />
    <glyph glyph-name="plus" unicode="+" horiz-adv-x="586" 
d="M287 0h-103l46 236h-217l19 99h216l47 237h103l-46 -237h215l-18 -99h-216z" />
    <glyph glyph-name="comma" unicode="," horiz-adv-x="287" 
d="M50 -105h-99l112 234h129z" />
    <glyph glyph-name="hyphen" unicode="-" horiz-adv-x="433" 
d="M353 230h-300l21 111h300z" />
    <glyph glyph-name="period" unicode="." horiz-adv-x="260" 
d="M137 0h-127l24 128h128z" />
    <glyph glyph-name="slash" unicode="/" horiz-adv-x="452" 
d="M91 -42h-116l407 788h116z" />
    <glyph glyph-name="zero" unicode="0" horiz-adv-x="632" 
d="M56 228q0 127 44 252q23 66 59 120q37 55 95 88.5t126 33.5q219 0 219 -239q0 -128 -45 -252q-25 -70 -60 -121q-37 -55 -94 -88.5t-125 -33.5q-219 0 -219 240zM188 232q0 -126 91 -126q46 0 84 38t60 99q43 123 43 233q0 127 -91 127q-45 0 -83 -37.5t-60 -98.5
q-44 -121 -44 -235z" />
    <glyph glyph-name="one" unicode="1" horiz-adv-x="515" 
d="M435 0h-432l20 111h154l76 384l11 48h-2q-12 -18 -40 -40l-66 -54l-66 88l217 173h113l-117 -599h153z" />
    <glyph glyph-name="two" unicode="2" horiz-adv-x="585" 
d="M475 0h-470q1 97 53 176q22 33 57 65q38 34 65 52q21 14 72 46l25 15q26 14 50 30q15 10 41 29q34 24 48 47t18 57q0 38 -25.5 60.5t-67.5 22.5q-85 0 -147 -84l-91 71q108 135 251 135q91 0 152 -52q62 -51 62 -139q-6 -90 -62 -150q-28 -28 -39 -38q-16 -14 -47 -35
l-47 -31q-38 -22 -49 -29q-26 -15 -74 -46q-67 -43 -79 -91h326z" />
    <glyph glyph-name="three" unicode="3" horiz-adv-x="577" 
d="M-4 83l76 91q57 -64 156 -64q66 0 109 36q44 38 44 91q0 43 -34.5 66t-95.5 23h-57l-15 66l154 154q34 34 55 48l8 6v2q-23 -3 -64 -3h-205l21 111h433l-15 -81l-212 -207q60 -9 108 -54q49 -45 49 -126q0 -102 -78 -178q-77 -76 -204 -76q-147 0 -233 95z" />
    <glyph glyph-name="four" unicode="4" horiz-adv-x="619" 
d="M341 183h-332l15 79l382 448h164l-81 -420h91l-21 -107h-91l-36 -183h-127zM173 292v-2h189l42 220l19 74h-2q-18 -29 -47 -65z" />
    <glyph glyph-name="five" unicode="5" horiz-adv-x="576" 
d="M6 84l79 90q58 -64 142 -64q65 0 114 41q48 41 48 100q0 47 -34 75t-89 28q-54 0 -100 -22l-15 -8l-71 27l103 359h377l-21 -111h-262l-34 -115l-11 -33h2q34 14 78 14q91 0 150 -59q60 -58 60 -149q0 -111 -87 -190q-85 -79 -210 -79q-65 0 -123.5 25t-95.5 71z" />
    <glyph glyph-name="six" unicode="6" horiz-adv-x="607" 
d="M51 252q0 153 103 306q51 74 128.5 119t164.5 45q89 0 155 -32l-55 -104q-51 17 -98 17q-79 0 -137 -55q-58 -54 -90 -135h2q21 23 57.5 36.5t72.5 13.5q92 0 144.5 -55.5t52.5 -146.5q0 -103 -74 -189q-73 -84 -187 -84q-105 0 -172 70t-67 194zM182 245q0 -58 31 -98
q32 -41 78 -41q57 0 95 45q38 46 38 106q0 46 -28 73t-80 27q-54 0 -94 -33q-40 -31 -40 -79z" />
    <glyph glyph-name="seven" unicode="7" horiz-adv-x="550" 
d="M158 0h-143l370 534q26 41 49 58l7 7v2q-18 -2 -50 -2h-294l22 111h488l-17 -90z" />
    <glyph glyph-name="eight" unicode="8" horiz-adv-x="614" 
d="M32 186q0 79 65 141q48 45 81 67q-56 51 -56 117q0 81 68 146q70 65 183 65q99 0 156.5 -47t57.5 -129q0 -68 -52 -133q-37 -47 -63 -70q70 -52 70 -126q0 -92 -79 -161q-79 -68 -197 -68q-109 0 -172 54q-62 56 -62 144zM358 405l21 -10q78 70 78 140q0 34 -24 53
t-66 19q-51 0 -83.5 -28t-32.5 -68q0 -32 33 -62l34 -23l19 -10q7 -5 21 -11zM167 195q0 -41 29 -67t73 -26q54 0 97 32q43 31 43 83q0 33 -32 56q-10 7 -30 20q-13 9 -42 23l-40 21q-98 -69 -98 -142z" />
    <glyph glyph-name="nine" unicode="9" horiz-adv-x="607" 
d="M27 19l56 105q43 -18 98 -18q77 0 136 54q59 56 90 136h-2q-16 -19 -53.5 -34.5t-76.5 -15.5q-93 0 -146 56q-51 57 -51 146q0 103 74 189q75 85 189 85q106 0 172 -70t66 -194q0 -123 -68 -248q-51 -97 -137 -159.5t-192 -62.5q-94 0 -155 31zM313 352q53 0 93 33
q42 33 42 80q0 57 -31 97q-32 41 -79 41q-58 0 -95 -45q-38 -44 -38 -105q0 -46 28 -73.5t80 -27.5z" />
    <glyph glyph-name="colon" unicode=":" horiz-adv-x="259" 
d="M210 381h-128l25 129h128zM135 0h-127l25 128h127z" />
    <glyph glyph-name="semicolon" unicode=";" horiz-adv-x="305" 
d="M242 381h-124l25 129h124zM57 -105h-99l111 234h129z" />
    <glyph glyph-name="less" unicode="&#x3c;" horiz-adv-x="586" 
d="M509 31l-481 214v82l481 214v-111l-346 -143v-2l346 -143v-111z" />
    <glyph glyph-name="equal" unicode="=" horiz-adv-x="586" 
d="M532 339h-488v98h488v-98zM532 134h-488v98h488v-98z" />
    <glyph glyph-name="greater" unicode="&#x3e;" horiz-adv-x="586" 
d="M551 245l-481 -214v111l346 143v2l-346 143v111l481 -214v-82z" />
    <glyph glyph-name="question" unicode="?" horiz-adv-x="488" 
d="M253 205h-122l9 48q15 78 89 137q8 7 30 23t31.5 23.5t25.5 22t23 25t13 25t6 29.5q0 30 -23 49.5t-59 19.5q-54 0 -114 -42l-57 95q35 27 88 45.5t102 18.5q85 0 140 -46q57 -45 57 -122q0 -94 -76 -158q-13 -11 -59.5 -46t-68 -58.5t-27.5 -49.5zM215 0h-123l23 119
h123z" />
    <glyph glyph-name="at" unicode="@" horiz-adv-x="818" 
d="M37 176q0 116 61 216q62 103 163 161q102 60 217 60q127 0 188 -48.5t61 -135.5q0 -20 -5 -52l-45 -232h73l-18 -91h-264q-90 0 -142 46t-52 119q0 80 68 142t172 62h97q2 8 2 13q0 34 -37.5 54.5t-97.5 20.5q-126 0 -220 -102q-94 -100 -94 -226q0 -92 59 -153
q60 -60 166 -60l-19 -97q-145 0 -240 86q-93 85 -93 217zM401 222q0 -34 22 -55.5t58 -21.5h77l38 196h-75q-51 0 -85 -36q-35 -37 -35 -83z" />
    <glyph glyph-name="A" unicode="A" horiz-adv-x="653" 
d="M92 0h-138l381 710h146l109 -710h-129l-25 182h-249zM340 477l-101 -190h185l-26 190l-8 110h-2q-26 -64 -48 -110z" />
    <glyph glyph-name="B" unicode="B" horiz-adv-x="635" 
d="M309 0h-280l138 710h228q67 0 107 -15q49 -17 76 -55.5t27 -90.5q0 -56 -31.5 -103.5t-84.5 -71.5v-2q41 -15 63.5 -51.5t22.5 -86.5q0 -77 -43 -134.5t-116 -82.5q-49 -17 -107 -17zM274 599l-35 -179h125q46 0 78 33q31 32 31 79q0 67 -76 67h-123zM219 316l-40 -205
h138q34 0 59 13q30 16 48.5 46.5t18.5 66.5t-22.5 57.5t-63.5 21.5h-138z" />
    <glyph glyph-name="C" unicode="C" horiz-adv-x="718" 
d="M52 298q0 173 125 298q125 126 294 126q79 0 149 -25t114 -73l-74 -89q-76 69 -185 69q-125 0 -207 -91q-83 -92 -83 -207q0 -88 52 -144q53 -56 144 -56q116 0 225 89l53 -102q-50 -46 -130 -76q-81 -29 -155 -29q-147 0 -235 86q-87 86 -87 224z" />
    <glyph glyph-name="D" unicode="D" horiz-adv-x="738" 
d="M291 0h-261l137 710h222q150 0 235 -73.5t85 -205.5q0 -182 -118 -306q-119 -125 -300 -125zM275 599l-96 -488h107q126 0 209 89q82 88 82 220q0 86 -51.5 132.5t-144.5 46.5h-106z" />
    <glyph glyph-name="E" unicode="E" horiz-adv-x="567" 
d="M470 0h-441l139 710h424l-22 -111h-296l-36 -186h239l-22 -111h-239l-37 -191h312z" />
    <glyph glyph-name="F" unicode="F" horiz-adv-x="526" 
d="M157 0h-127l137 710h408l-21 -111h-280l-39 -201h235l-21 -111h-235z" />
    <glyph glyph-name="G" unicode="G" horiz-adv-x="766" 
d="M51 294q0 174 125 301q126 127 302 127q76 0 146 -22t116 -65l-76 -90q-31 26 -82 42.5t-101 16.5q-131 0 -213 -91q-83 -92 -83 -211q0 -92 54 -144q55 -52 140 -52q100 0 194 77l16 80h-109l21 111h225l-73 -374h-109l6 35l7 30h-2q-28 -28 -82 -52q-54 -25 -120 -25
q-127 0 -215 84q-87 84 -87 222z" />
    <glyph glyph-name="H" unicode="H" horiz-adv-x="755" 
d="M157 0h-128l138 710h129l-59 -301h325l59 301h128l-138 -710h-129l58 298h-325z" />
    <glyph glyph-name="I" unicode="I" horiz-adv-x="302" 
d="M157 0h-128l138 710h129z" />
    <glyph glyph-name="J" unicode="J" horiz-adv-x="543" 
d="M1 164q0 24 5 52l6 35h129l-6 -32q-4 -23 -4 -37q0 -76 75 -76q42 0 72 27t39 79l75 387h-182l22 111h310l-98 -509q-21 -106 -88 -160q-68 -53 -153 -53t-144 45q-58 46 -58 131z" />
    <glyph glyph-name="K" unicode="K" horiz-adv-x="641" 
d="M157 0h-128l138 710h129l-57 -289h88l226 289h150l-275 -344v-2l140 -364h-137l-113 310h-100z" />
    <glyph glyph-name="L" unicode="L" horiz-adv-x="531" 
d="M463 0h-434l138 710h129l-117 -599h307z" />
    <glyph glyph-name="M" unicode="M" horiz-adv-x="863" 
d="M132 0h-129l192 710h138l72 -351l14 -104h2l56 104l208 351h140l-81 -710h-127l49 397l20 110h-2q-32 -63 -60 -110l-168 -275h-114l-62 275l-17 112h-2q-12 -72 -22 -112z" />
    <glyph glyph-name="N" unicode="N" horiz-adv-x="747" 
d="M157 0h-128l138 710h123l189 -410q12 -28 31 -92l6 -18h2q6 63 14 110l80 410h129l-139 -710h-121l-190 409q-10 22 -33 92l-5 18h-2q-6 -63 -14 -110z" />
    <glyph glyph-name="O" unicode="O" horiz-adv-x="822" 
d="M51 300q0 111 59 209q61 99 157 155q97 58 204 58q145 0 234 -86q90 -86 90 -219q0 -113 -61 -213q-59 -99 -157 -158q-97 -58 -203 -58q-146 0 -234 87q-89 89 -89 225zM183 307q0 -89 53 -145q54 -56 139 -56q109 0 198 90q89 91 89 213q0 87 -54 141q-52 54 -138 54
q-111 0 -199 -88t-88 -209z" />
    <glyph glyph-name="P" unicode="P" horiz-adv-x="617" 
d="M157 0h-128l138 710h254q66 0 110 -23q95 -47 95 -167q0 -83 -43.5 -151t-114.5 -101q-54 -23 -107 -23h-156zM274 599l-47 -242h120q43 0 69 15q35 18 56 55t21 83q0 42 -25 65.5t-72 23.5h-122z" />
    <glyph glyph-name="Q" unicode="Q" horiz-adv-x="822" 
d="M51 300q0 111 59 209q61 99 157 155q97 58 204 58q145 0 234 -86q90 -86 90 -219q0 -165 -124 -290l64 -71l-82 -76l-63 78q-98 -70 -216 -70q-146 0 -234 87q-89 89 -89 225zM183 307q0 -89 53 -145q54 -56 139 -56q70 0 137 43l-65 77l81 75l64 -80q70 85 70 188
q0 87 -54 141q-52 54 -138 54q-111 0 -199 -88t-88 -209z" />
    <glyph glyph-name="R" unicode="R" horiz-adv-x="636" 
d="M158 0h-129l138 710h251q62 0 102 -18q96 -42 96 -154q0 -78 -43 -145q-41 -66 -118 -92v-2q6 -11 15 -36l95 -263h-138l-89 265h-129zM274 599l-43 -222h114q61 0 100 38t39 101q0 40 -24.5 61.5t-68.5 21.5h-117z" />
    <glyph glyph-name="S" unicode="S" horiz-adv-x="561" 
d="M0 85l78 91q71 -69 170 -69q51 0 87 26t36 70q0 17 -7 30.5t-23 26t-29 20.5t-40 22t-40 22q-34 21 -66 42q-32 23 -52 61t-20 82q0 97 76 155t180 58q66 0 124 -21.5t95 -56.5l-71 -95q-25 21 -65.5 37.5t-84.5 16.5q-48 0 -86 -25q-39 -24 -39 -68q0 -25 20.5 -46.5
t51.5 -36t67 -35t67 -43t51.5 -60t20.5 -85.5q0 -93 -73 -154q-73 -62 -182 -62q-76 0 -145 29q-68 30 -101 68z" />
    <glyph glyph-name="T" unicode="T" horiz-adv-x="618" 
d="M315 0h-129l117 599h-232l21 111h593l-22 -111h-232z" />
    <glyph glyph-name="U" unicode="U" horiz-adv-x="729" 
d="M66 202q0 28 6 58l88 450h128l-88 -454q-4 -15 -4 -37q0 -54 35 -83.5t97 -29.5q73 0 122.5 39.5t63.5 111.5l89 453h128l-90 -460q-23 -121 -108 -191q-86 -71 -209 -71q-112 0 -186 57q-72 57 -72 157z" />
    <glyph glyph-name="V" unicode="V" horiz-adv-x="662" 
d="M340 0h-139l-118 710h136l66 -463l7 -104h2q25 58 47 104l247 463h146z" />
    <glyph glyph-name="W" unicode="W" horiz-adv-x="964" 
d="M293 0h-148l-47 710h133l20 -491l-1 -75h2q9 31 29 75l225 491h112l27 -491l-1 -75h2q10 38 27 75l207 491h140l-316 -710h-151l-25 420q-4 62 0 93h-2q-15 -41 -38 -93z" />
    <glyph glyph-name="X" unicode="X" horiz-adv-x="618" 
d="M101 0h-145l290 365l-145 345h140l66 -171l29 -87h2q29 48 58 86l132 172h151l-284 -354l153 -356h-137l-76 188l-28 83h-2q-29 -46 -58 -82z" />
    <glyph glyph-name="Y" unicode="Y" horiz-adv-x="605" 
d="M303 0h-128l58 297l-153 413h139l70 -209l25 -95h2l61 95l148 209h155l-320 -418z" />
    <glyph glyph-name="Z" unicode="Z" horiz-adv-x="608" 
d="M510 0h-532l17 83l392 452q32 36 57 57l9 7v2q-26 -2 -53 -2h-290l21 111h513l-16 -82l-395 -453q-34 -40 -57 -57l-9 -7v-2q26 2 53 2h311z" />
    <glyph glyph-name="bracketleft" unicode="[" horiz-adv-x="322" 
d="M202 -95h-198l163 836h197l-18 -92h-89l-126 -652h89z" />
    <glyph glyph-name="backslash" unicode="\" horiz-adv-x="424" 
d="M325 -42h-104l-102 788h104z" />
    <glyph glyph-name="bracketright" unicode="]" horiz-adv-x="322" 
d="M-31 -95l17 92h89l127 652h-89l18 92h197l-163 -836h-196z" />
    <glyph glyph-name="asciicircum" unicode="^" horiz-adv-x="619" 
d="M176 245h-110l201 465h81l201 -465h-111l-131 331z" />
    <glyph glyph-name="underscore" unicode="_" horiz-adv-x="601" 
d="M-50 -98l18 98h561l-19 -98h-560z" />
    <glyph glyph-name="grave" unicode="`" horiz-adv-x="493" 
d="M279 757h-97l-77 136h125z" />
    <glyph glyph-name="a" unicode="a" horiz-adv-x="533" 
d="M-3 120q0 57 32 98.5t84.5 62t106 30t110.5 9.5h19q3 16 3 32q0 65 -82 65q-70 0 -150 -48l-30 98q35 22 89 37q59 18 113 18q80 0 133 -37q54 -37 54 -118q0 -17 -5 -52l-61 -315h-117l8 43l10 37h-2q-21 -34 -66 -63q-44 -29 -100 -29q-62 0 -106 35q-43 36 -43 97z
M122 140q0 -25 17 -40t50 -15q47 0 89 42q42 43 52 92l3 14h-22q-60 0 -115 -15q-34 -8 -54 -28.5t-20 -49.5z" />
    <glyph glyph-name="b" unicode="b" horiz-adv-x="614" 
d="M130 0h-119l138 710h126l-42 -216l-12 -46h2q26 33 68.5 53.5t87.5 20.5q90 0 141.5 -57.5t51.5 -157.5q0 -137 -85 -228q-84 -91 -194 -91q-50 0 -91 21t-59 60h-2q-2 -24 -5 -36zM178 208q0 -52 26 -82.5t75 -30.5q62 0 113 56q51 57 51 147q0 53 -27 84t-74 31
q-65 0 -114 -61q-50 -61 -50 -144z" />
    <glyph glyph-name="c" unicode="c" horiz-adv-x="549" 
d="M26 214q0 124 92 216t224 92q128 0 198 -75l-67 -80q-50 47 -125 47q-80 0 -137 -58q-57 -57 -57 -134q0 -56 36 -91t96 -35q80 0 163 65l35 -98q-39 -33 -97.5 -54t-115.5 -21q-114 0 -180 63q-65 63 -65 163z" />
    <glyph glyph-name="d" unicode="d" horiz-adv-x="616" 
d="M27 201q0 140 84 230q84 91 199 91q47 0 85.5 -18t55.5 -52h2q0 18 3 31l45 227h126l-138 -710h-119l8 42l9 35h-2q-28 -40 -71.5 -64.5t-92.5 -24.5q-92 0 -143 56.5t-51 156.5zM155 210q0 -53 27.5 -84t74.5 -31q65 0 114 61t49 143q0 52 -26 83t-75 31q-62 0 -113 -57
q-51 -56 -51 -146z" />
    <glyph glyph-name="e" unicode="e" horiz-adv-x="560" 
d="M26 207q0 131 84 223q86 92 211 92q98 0 151 -52t53 -141q0 -36 -17 -98h-352q-2 -22 -2 -24q0 -44 34 -78q34 -33 93 -33q78 0 158 56l34 -97q-32 -26 -89 -47q-57 -20 -110 -20q-115 0 -182 62q-66 61 -66 157zM174 318h224q2 10 2 22q0 41 -22 63.5t-59 22.5
q-49 0 -87.5 -29t-57.5 -79z" />
    <glyph glyph-name="f" unicode="f" horiz-adv-x="359" 
d="M167 0h-127l78 402h-63l20 101h63l5 23q17 93 77 138q70 52 158 50q28 0 52 -3l-23 -108q-8 2 -24 2q-98 0 -115 -83l-3 -19h109l-19 -101h-110z" />
    <glyph glyph-name="g" unicode="g" horiz-adv-x="605" 
d="M-1 -162l52 93q49 -33 138 -33q66 0 111 31t57 93l5 30l8 29h-2q-56 -71 -143 -71q-92 0 -144 57t-52 152q0 73 30 141q32 70 94 115q65 47 146 47q112 0 148 -70h3q0 13 1 18l8 40h119l-94 -487q-17 -83 -64.5 -137.5t-103.5 -75t-123 -20.5q-117 0 -194 48zM158 229
q0 -53 26.5 -82.5t75.5 -29.5q70 0 111 63q42 64 42 138q0 96 -103 96q-69 0 -111 -55q-41 -56 -41 -130z" />
    <glyph glyph-name="h" unicode="h" horiz-adv-x="612" 
d="M138 0h-127l138 710h127l-48 -246l-11 -45h2q22 39 75 71t113 32q73 0 113.5 -34.5t40.5 -104.5q0 -26 -7 -61l-62 -322h-127l58 298q5 32 5 46q0 62 -64 62t-116 -52q-53 -53 -66 -124z" />
    <glyph glyph-name="i" unicode="i" horiz-adv-x="263" 
d="M254 597h-127l22 113h127zM137 0h-126l99 510h127z" />
    <glyph glyph-name="j" unicode="j" horiz-adv-x="264" 
d="M253 597h-127l22 113h127zM10 -5l100 515h126l-101 -524q-20 -98 -78 -142q-70 -53 -158 -51q-25 0 -52 3l21 107q14 -2 22 -2q102 0 120 94z" />
    <glyph glyph-name="k" unicode="k" horiz-adv-x="552" 
d="M138 0h-127l139 710h126l-74 -380h61l159 180h150l-212 -234v-2l124 -274h-135l-95 223h-72z" />
    <glyph glyph-name="l" unicode="l" horiz-adv-x="292" 
d="M37 116q0 23 5 51l106 543h127l-103 -528q-4 -23 -4 -36q0 -38 43 -38q11 0 18 1l-22 -111q-24 -3 -37 -3q-133 0 -133 121z" />
    <glyph glyph-name="m" unicode="m" horiz-adv-x="912" 
d="M138 0h-127l99 510h123l-11 -55l-11 -41h2q27 44 75 75q48 33 104 33q116 0 135 -105h2q29 45 79 74q52 31 108 31q144 0 144 -137q0 -25 -8 -70l-61 -315h-126l58 301q5 27 5 45q0 60 -57 60q-59 0 -104 -55q-45 -56 -58 -127l-44 -224h-127l59 301q5 35 5 46
q0 59 -56 59q-58 0 -104 -55q-47 -54 -60 -127z" />
    <glyph glyph-name="n" unicode="n" horiz-adv-x="612" 
d="M138 0h-127l99 510h123l-8 -46l-14 -50h2q24 41 78 74q53 34 116 34q73 0 113.5 -34.5t40.5 -104.5q0 -26 -7 -61l-62 -322h-127l58 298q5 32 5 46q0 62 -64 62t-116 -52q-53 -53 -66 -124z" />
    <glyph glyph-name="o" unicode="o" horiz-adv-x="633" 
d="M25 214q0 130 96 218q97 90 220 90q111 0 181 -63q70 -61 70 -162q0 -130 -97 -220q-97 -89 -219 -89q-110 0 -181 62q-70 63 -70 164zM154 220q0 -56 34.5 -90t89.5 -34q72 0 128 55q57 55 57 138q0 56 -35 90.5t-89 34.5q-71 0 -128 -57q-57 -55 -57 -137z" />
    <glyph glyph-name="p" unicode="p" horiz-adv-x="614" 
d="M140 17l-42 -217h-126l138 710h115l-6 -37l-11 -37h2q28 40 72.5 63t95.5 23q90 0 142 -58t52 -157q0 -137 -85 -228q-84 -91 -193 -91q-102 0 -145 75h-2q-1 -11 -7 -46zM179 210q0 -52 26 -83.5t74 -31.5q62 0 113 56q51 57 51 147q0 53 -27 84t-74 31q-65 0 -114 -61
q-49 -59 -49 -142z" />
    <glyph glyph-name="q" unicode="q" horiz-adv-x="615" 
d="M26 200q0 140 84 231q85 91 200 91q106 0 146 -75h2l4 32l6 31h120l-138 -710h-127l43 220l12 45h-2q-59 -77 -156 -77q-91 0 -142.5 57t-51.5 155zM155 210q0 -53 27.5 -84t74.5 -31q64 0 113 61q50 62 50 143q0 52 -26 83t-75 31q-62 0 -113 -57q-51 -56 -51 -146z" />
    <glyph glyph-name="r" unicode="r" horiz-adv-x="397" 
d="M138 0h-127l99 510h122l-17 -88l-10 -37h2q25 54 76 93q49 39 105 39l30 -2l-24 -125q-26 2 -30 2q-60 0 -117 -60q-56 -59 -74 -151z" />
    <glyph glyph-name="s" unicode="s" horiz-adv-x="455" 
d="M-11 59l62 86q23 -23 60.5 -37.5t75.5 -14.5t61 14.5t23 40.5q0 35 -76 63q-28 11 -47.5 21t-42.5 28t-35 44t-12 59q0 71 59 115q61 44 146 44q101 0 173 -57l-54 -88q-44 40 -122 40q-37 0 -60 -14t-23 -40q0 -32 75 -63q29 -11 49 -21t43 -27.5t35 -44t12 -60.5
q0 -71 -56 -115t-144 -44q-119 0 -202 71z" />
    <glyph glyph-name="t" unicode="t" horiz-adv-x="368" 
d="M64 150q0 22 6 47l40 205h-65l19 101h69l29 146h122l-29 -146h117l-19 -101h-117l-37 -192q-3 -19 -3 -35q0 -68 80 -68q2 0 5.5 0.5t10 1t12.5 0.5l-22 -111q-30 -3 -37 -3q-78 -2 -128.5 35.5t-52.5 119.5z" />
    <glyph glyph-name="u" unicode="u" horiz-adv-x="606" 
d="M35 127q0 25 7 61l62 322h127l-58 -298q-5 -33 -5 -47q0 -61 65 -61q63 0 112 52t63 124l44 230h127l-99 -510h-123l9 46l13 49h-2q-25 -42 -76 -74q-53 -33 -114 -33q-71 0 -111.5 34.5t-40.5 104.5z" />
    <glyph glyph-name="v" unicode="v" horiz-adv-x="539" 
d="M282 0h-144l-85 510h126l44 -317l3 -77h2q20 51 34 77l167 317h135z" />
    <glyph glyph-name="w" unicode="w" horiz-adv-x="824" 
d="M251 0h-137l-56 510h127l23 -336v-54h2q14 36 22 54l160 335h111l28 -335l1 -54h2q8 27 21 54l155 336h135l-255 -510h-140l-30 292l-2 55h-2q-13 -34 -23 -55z" />
    <glyph glyph-name="x" unicode="x" horiz-adv-x="518" 
d="M103 0h-146l222 262l-121 248h135l58 -135l12 -34h2q11 19 21 33l106 136h148l-216 -256l124 -254h-132l-66 143l-10 30h-2q-11 -18 -19 -28z" />
    <glyph glyph-name="y" unicode="y" horiz-adv-x="550" 
d="M-77 -174l57 89q22 -18 54 -18q60 0 101 65l28 46l-117 502h132l58 -309l6 -65h2q21 49 29 63l161 311h142l-342 -588q-37 -65 -88 -98.5t-106 -33.5q-64 0 -117 36z" />
    <glyph glyph-name="z" unicode="z" horiz-adv-x="522" 
d="M427 0h-448l12 68l280 287l51 47v2q-18 -2 -46 -2h-211l21 108h434l-13 -69l-281 -287q-6 -7 -46 -42l-7 -5v-2q17 3 49 3h226z" />
    <glyph glyph-name="braceleft" unicode="{" horiz-adv-x="370" 
d="M75 34q0 15 5 47l17 87q3 15 3 28q0 32 -18 52t-50 24l22 111q40 4 68 32.5t37 73.5l19 95q31 160 208 160q4 0 15 -0.5t15 -0.5l-18 -94l-6 1h-12q-81 0 -97 -85l-24 -119q-8 -42 -36.5 -73.5t-70.5 -44.5v-2q28 -12 44.5 -40.5t16.5 -63.5q0 -14 -3 -31l-22 -110
q-2 -12 -2 -26q0 -59 68 -59q13 0 18 1l-19 -94q-34 -6 -72 3q-41 7 -75 39t-31 89z" />
    <glyph glyph-name="bar" unicode="|" horiz-adv-x="334" 
d="M224 -161h-108v957h108v-957z" />
    <glyph glyph-name="braceright" unicode="}" horiz-adv-x="370" 
d="M2 -4q80 0 96 85l25 127q9 45 37.5 76.5t69.5 43.5v2q-60 26 -60 103q0 13 3 31l19 101q3 13 3 26q0 59 -69 59q-3 0 -10 -0.5t-8 -0.5l19 94q5 1 31 1q20 0 41 -4.5t47 -17t42.5 -41.5t16.5 -70q0 -14 -5 -46l-15 -78q-3 -16 -3 -28q0 -32 18 -52.5t50 -23.5l-22 -111
q-37 -6 -66.5 -33t-38.5 -74l-21 -104q-33 -160 -208 -160q-2 0 -6 0.5t-11 1t-13 0.5l18 94q4 -1 20 -1z" />
    <glyph glyph-name="asciitilde" unicode="~" horiz-adv-x="605" 
d="M153 199h-101q0 182 153 182q28 0 51 -9.5t38.5 -22.5t29.5 -26.5t30.5 -23t34.5 -9.5q30 0 46 24.5t16 62.5h100q0 -182 -152 -182q-65 0 -106 45q-39 45 -79 45q-30 0 -45.5 -24t-15.5 -62z" />
    <glyph glyph-name="uni00A0" unicode="&#xa0;" horiz-adv-x="250" 
 />
    <glyph glyph-name="exclamdown" unicode="&#xa1;" horiz-adv-x="268" 
d="M213 391h-123l23 119h123zM103 -200h-131l109 505h110z" />
    <glyph glyph-name="cent" unicode="&#xa2;" horiz-adv-x="586" 
d="M285 -12h-87l18 89q-76 18 -120 78t-44 148q0 129 81 226q83 97 192 108l16 84h86l-17 -89q66 -12 106 -61q42 -51 49 -97l-114 -42q-5 31 -30 59q-24 29 -73 29q-68 0 -117 -64q-50 -64 -50 -151q0 -54 27 -84.5t76 -30.5q44 0 80.5 26t58.5 61l111 -47
q-32 -54 -93 -104q-59 -48 -140 -56z" />
    <glyph glyph-name="sterling" unicode="&#xa3;" horiz-adv-x="586" 
d="M491 0h-500l22 111h57l39 200h-44l18 87h42l26 130q16 84 86 139t163 55q106 0 177 -77l-82 -80q-41 40 -98 40q-44 0 -76.5 -25.5t-40.5 -64.5l-23 -117h177l-17 -87h-177l-39 -200h312z" />
    <glyph glyph-name="currency" unicode="&#xa4;" horiz-adv-x="625" 
d="M190 0h-129l32 159h-69l17 86h68l13 65h-68l19 101h68l59 299h243q95 0 146 -44.5t51 -125.5q0 -101 -77 -166t-187 -65h-126l-13 -64h248l-16 -86h-248zM308 608l-38 -197h99q57 0 98 33q42 33 42 86q0 78 -99 78h-102z" />
    <glyph glyph-name="yen" unicode="&#xa5;" horiz-adv-x="586" 
d="M299 0h-131l37 186h-163l14 77h163l7 33l-16 48h-138l15 76h99l-98 290h140l57 -190l25 -114h2q30 61 63 113l128 191h153l-210 -290h98l-15 -76h-137l-35 -48l-7 -33h163l-14 -77h-163z" />
    <glyph glyph-name="section" unicode="&#xa7;" horiz-adv-x="479" 
d="M211 138h-96l-5 340q-6 102 54 173t167 71q100 0 171 -65l-66 -74q-38 35 -105 35q-62 0 -94.5 -39.5t-29.5 -104.5zM-9 3l66 74q38 -35 105 -35q62 0 94 38.5t30 105.5l-5 336h97l5 -340q5 -103 -55 -173q-59 -71 -167 -71q-102 0 -170 65z" />
    <glyph glyph-name="dieresis" unicode="&#xa8;" horiz-adv-x="493" 
d="M324 777h-98l23 116h98zM140 777h-98l23 116h98z" />
    <glyph glyph-name="copyright" unicode="&#xa9;" horiz-adv-x="827" 
d="M424 721q150 0 255 -107q105 -106 105 -259q0 -152 -105 -260q-105 -107 -255 -107q-148 0 -253 107q-104 109 -104 260q0 152 104 259q105 107 253 107zM424 69q115 0 193 83q79 82 79 203q0 120 -79 202q-78 83 -193 83q-113 0 -191 -83q-77 -83 -77 -202
q0 -120 77 -203q78 -83 191 -83zM429 548q53 0 97 -28t65 -77l-76 -36q-12 25 -34.5 41.5t-48.5 16.5q-44 0 -71.5 -32t-27.5 -80q0 -49 27 -80.5t72 -31.5q56 0 83 58l76 -35q-21 -47 -64 -76.5t-98 -29.5q-81 0 -134 57q-53 58 -53 138t53 138q53 57 134 57z" />
    <glyph glyph-name="ordfeminine" unicode="&#xaa;" horiz-adv-x="428" 
d="M195 383q-38 0 -65.5 23.5t-27.5 61.5q0 40 23 68t62 38q59 17 118 17h14q3 9 3 13q2 22 -10 34t-38 12q-34 0 -88 -26l-22 62q53 34 134 34q114 0 114 -101q0 -21 -4 -36l-38 -194h-83l8 44h-2q-38 -50 -98 -50zM229 453q26 0 49 24q24 25 28 48l1 7h-11
q-101 0 -101 -52q0 -27 34 -27zM350 266h-286l13 68h287z" />
    <glyph glyph-name="guillemotleft" unicode="&#xab;" horiz-adv-x="602" 
d="M504 77h-116l-129 206l210 205h128l-221 -211zM281 77h-116l-129 206l191 205h127l-201 -211z" />
    <glyph glyph-name="logicalnot" unicode="&#xac;" horiz-adv-x="658" 
d="M467 339h-386v98h488v-294h-102v196z" />
    <glyph glyph-name="uni00AD" unicode="&#xad;" horiz-adv-x="433" 
d="M353 230h-300l21 111h300z" />
    <glyph glyph-name="registered" unicode="&#xae;" horiz-adv-x="827" 
d="M424 721q150 0 255 -107q105 -106 105 -259q0 -152 -105 -260q-105 -107 -255 -107q-148 0 -253 107q-104 109 -104 260q0 152 104 259q105 107 253 107zM424 69q115 0 193 83q79 82 79 203q0 120 -79 202q-78 83 -193 83q-113 0 -191 -83q-77 -83 -77 -202
q0 -120 77 -203q78 -83 191 -83zM384 174h-86v366h153q54 0 87 -32t33 -84q0 -37 -19.5 -62.5t-45.5 -32.5v-2q3 -3 13 -21l69 -132h-94l-62 135h-48v-135zM384 478v-109h47q25 0 39 14.5t14 40.5t-14 40t-38 14h-48z" />
    <glyph glyph-name="overscore" unicode="&#xaf;" horiz-adv-x="493" 
d="M318 783h-263l17 87h262z" />
    <glyph glyph-name="degree" unicode="&#xb0;" horiz-adv-x="420" 
d="M245 408q-66 0 -107.5 39.5t-41.5 99.5q0 68 55 122q56 54 125 54q66 0 107 -40q42 -41 42 -101q0 -69 -56 -122q-55 -52 -124 -52zM251 499q30 0 54 23t24 53q0 25 -16.5 40.5t-42.5 15.5q-30 0 -53.5 -23.5t-23.5 -53.5q0 -24 15.5 -39.5t42.5 -15.5z" />
    <glyph glyph-name="plusminus" unicode="&#xb1;" horiz-adv-x="586" 
d="M313 0h-104v236h-216v99h216v237h104v-237h216v-99h-216v-236zM7 -183v98h508v-98h-508z" />
    <glyph glyph-name="twosuperior" unicode="&#xb2;" 
d="M374 423h-305q0 73 36.5 120t96.5 83q13 8 38 22t37 22t27.5 20t22 24.5t6.5 27.5q0 19 -14.5 30.5t-37.5 11.5q-40 0 -89 -46l-56 60q74 74 152 74q62 0 102.5 -33t40.5 -88q0 -50 -35 -91q-34 -40 -77 -61q-40 -19 -82 -45q-40 -26 -47 -48h201z" />
    <glyph glyph-name="threesuperior" unicode="&#xb3;" 
d="M220 413q-94 0 -154 67l57 62q36 -42 98 -42q33 0 57 20.5t24 50.5q0 23 -19 36t-49 13h-35l-14 45l94 90l29 24v2q-20 -3 -35 -3h-125l16 84h280l-11 -61l-120 -112q38 -10 62.5 -41t24.5 -74q0 -62 -51 -112q-50 -49 -129 -49z" />
    <glyph glyph-name="acute" unicode="&#xb4;" horiz-adv-x="493" 
d="M180 757h-107l103 136h136z" />
    <glyph glyph-name="mu" unicode="&#xb5;" horiz-adv-x="614" 
d="M116 -74l-25 -126h-109l137 710h127l-58 -298q-5 -33 -5 -47q0 -61 65 -61q63 0 112 52t63 124l44 230h127l-99 -510h-123l9 46l13 49h-2q-25 -42 -76 -74q-51 -33 -113 -33q-48 0 -76 22h-2q-1 -50 -9 -84z" />
    <glyph glyph-name="mu" unicode="&#x3bc;" horiz-adv-x="614" 
d="M116 -74l-25 -126h-109l137 710h127l-58 -298q-5 -33 -5 -47q0 -61 65 -61q63 0 112 52t63 124l44 230h127l-99 -510h-123l9 46l13 49h-2q-25 -42 -76 -74q-51 -33 -113 -33q-48 0 -76 22h-2q-1 -50 -9 -84z" />
    <glyph glyph-name="paragraph" unicode="&#xb6;" horiz-adv-x="630" 
d="M299 -50h-92l56 291q-77 0 -136 59q-58 58 -58 147q0 106 84 184q83 79 188 79h318l-21 -111h-213zM454 -50h-93l115 594h93z" />
    <glyph glyph-name="middot" unicode="&#xb7;" horiz-adv-x="256" 
d="M176 227h-123l24 129h124z" />
    <glyph glyph-name="cedilla" unicode="&#xb8;" horiz-adv-x="493" 
d="M121 -86l53 111l57 -13l-24 -56q25 -4 43 -22t18 -44q0 -50 -38 -74t-84 -24q-35 0 -65 8l13 68q13 -7 42 -7q50 0 50 32q0 23 -43 23z" />
    <glyph glyph-name="onesuperior" unicode="&#xb9;" 
d="M370 423h-278l16 83h92l38 201l9 29h-2q-5 -9 -19 -20l-35 -27l-46 64l135 109h84l-69 -356h91z" />
    <glyph glyph-name="ordmasculine" unicode="&#xba;" horiz-adv-x="481" 
d="M266 384q-67 0 -110.5 39.5t-43.5 102.5q0 82 61 137q62 57 140 57q68 0 111.5 -39.5t43.5 -102.5q0 -82 -62 -138t-140 -56zM273 464q40 0 71 31q32 32 32 77q0 31 -19.5 50t-49.5 19q-40 0 -72 -32q-31 -31 -31 -76q0 -31 19 -50t50 -19zM396 266h-322l13 68h323z" />
    <glyph glyph-name="guillemotright" unicode="&#xbb;" horiz-adv-x="602" 
d="M369 77h-126l201 211l-129 200h116l129 -206zM128 77h-128l221 211l-129 200h116l130 -206z" />
    <glyph glyph-name="onequarter" unicode="&#xbc;" horiz-adv-x="976" 
d="M822 0h-93l19 99h-204l12 64l238 276h113l-50 -258h59l-16 -82h-58zM662 183v-2h102l21 110l15 55h-2q-16 -27 -35 -47zM331 272h-278l16 83h92l38 201l9 29h-2q-5 -9 -19 -20l-35 -27l-46 64l135 109h84l-69 -356h91zM776 710l-473 -710h-98l473 710h98z" />
    <glyph glyph-name="onehalf" unicode="&#xbd;" horiz-adv-x="968" 
d="M866 0h-305q0 73 36.5 120t96.5 83q13 8 38 22t37 22t27.5 20t22 24.5t6.5 27.5q0 19 -14.5 30.5t-37.5 11.5q-40 0 -89 -46l-56 60q74 74 152 74q62 0 102.5 -33t40.5 -88q0 -50 -35 -91q-34 -40 -77 -61q-40 -19 -82 -45q-40 -26 -47 -48h201zM329 272h-278l16 83h92
l38 201l9 29h-2q-5 -9 -19 -20l-35 -27l-46 64l135 109h84l-69 -356h91zM777 710l-473 -710h-98l473 710h98z" />
    <glyph glyph-name="threequarters" unicode="&#xbe;" horiz-adv-x="991" 
d="M836 0h-93l19 99h-204l12 64l238 276h113l-50 -258h59l-16 -82h-58zM676 183v-2h102l21 110l15 55h-2q-16 -27 -35 -47zM200 262q-94 0 -154 67l57 62q36 -42 98 -42q33 0 57 20.5t24 50.5q0 23 -19 36t-49 13h-35l-14 45l94 90l29 24v2q-20 -3 -35 -3h-125l16 84h280
l-11 -61l-120 -112q38 -10 62.5 -41t24.5 -74q0 -63 -51 -112q-50 -49 -129 -49zM790 710l-473 -710h-98l473 710h98z" />
    <glyph glyph-name="questiondown" unicode="&#xbf;" horiz-adv-x="483" 
d="M355 391h-124l24 119h123zM-22 -42q0 94 75 157q14 11 48 36.5t51 39.5t35 36.5t22 42.5l7 35h123l-9 -44q-15 -79 -90 -137q-10 -8 -35 -27t-36.5 -29.5t-27.5 -27t-22.5 -32.5t-6.5 -33q0 -30 23 -49.5t59 -19.5q51 0 115 43l57 -95q-35 -27 -88 -45.5t-103 -18.5
q-84 0 -141 45q-56 45 -56 123z" />
    <glyph glyph-name="Agrave" unicode="&#xc0;" horiz-adv-x="653" 
d="M92 0h-138l381 710h146l109 -710h-129l-25 182h-249zM340 477l-101 -190h185l-26 190l-8 110h-2q-26 -64 -48 -110zM461 757h-97l-77 136h125z" />
    <glyph glyph-name="Aacute" unicode="&#xc1;" horiz-adv-x="653" 
d="M92 0h-138l381 710h146l109 -710h-129l-25 182h-249zM340 477l-101 -190h185l-26 190l-8 110h-2q-26 -64 -48 -110zM468 757h-107l103 136h136z" />
    <glyph glyph-name="Acircumflex" unicode="&#xc2;" horiz-adv-x="653" 
d="M92 0h-138l381 710h146l109 -710h-129l-25 182h-249zM340 477l-101 -190h185l-26 190l-8 110h-2q-26 -64 -48 -110zM367 757h-109l119 136h127l65 -136h-100l-34 81h-2z" />
    <glyph glyph-name="Atilde" unicode="&#xc3;" horiz-adv-x="653" 
d="M92 0h-138l381 710h146l109 -710h-129l-25 182h-249zM340 477l-101 -190h185l-26 190l-8 110h-2q-26 -64 -48 -110zM332 758h-87q26 137 130 137q24 0 44.5 -16.5t36.5 -32.5t28 -16q35 0 47 62h87q-26 -137 -130 -137q-25 0 -44.5 16.5t-35 32.5t-30.5 16q-32 0 -46 -62
z" />
    <glyph glyph-name="Adieresis" unicode="&#xc4;" horiz-adv-x="653" 
d="M92 0h-138l381 710h146l109 -710h-129l-25 182h-249zM340 477l-101 -190h185l-26 190l-8 110h-2q-26 -64 -48 -110zM564 777h-98l23 116h98zM380 777h-98l23 116h98z" />
    <glyph glyph-name="Aring" unicode="&#xc5;" horiz-adv-x="653" 
d="M92 0h-138l381 710h146l109 -710h-129l-25 182h-249zM340 477l-101 -190h185l-26 190l-8 110h-2q-26 -64 -48 -110zM421 745q-38 0 -62 18t-24 50q0 38 32 63.5t73 25.5q39 0 63 -18.5t24 -51.5q0 -39 -33 -63t-73 -24zM425 789q17 0 29 12t12 30q0 12 -7.5 19.5
t-20.5 7.5q-17 0 -29 -12.5t-12 -30.5q0 -26 28 -26z" />
    <glyph glyph-name="AE" unicode="&#xc6;" horiz-adv-x="915" 
d="M90 0h-142l428 710h565l-22 -111h-296l-36 -186h239l-22 -111h-239l-37 -191h311l-21 -111h-440l59 304h-168zM444 599l-114 -190h127l37 190h-50z" />
    <glyph glyph-name="Ccedilla" unicode="&#xc7;" horiz-adv-x="718" 
d="M271 -86l38 79q-121 20 -189 101q-68 83 -68 204q0 173 125 298q125 126 294 126q79 0 149 -25t114 -73l-74 -89q-76 69 -185 69q-125 0 -207 -91q-83 -92 -83 -207q0 -88 52 -144q53 -56 144 -56q116 0 225 89l53 -102q-50 -46 -130 -76q-81 -29 -155 -29h-4l-13 -32
q25 -4 43 -22t18 -44q0 -50 -38 -74t-84 -24q-35 0 -65 8l13 68q13 -7 42 -7q50 0 50 32q0 23 -43 23h-3.5t-5 -0.5t-6.5 -1t-7 -0.5z" />
    <glyph glyph-name="Egrave" unicode="&#xc8;" horiz-adv-x="567" 
d="M470 0h-441l139 710h424l-22 -111h-296l-36 -186h239l-22 -111h-239l-37 -191h312zM441 757h-97l-77 136h125z" />
    <glyph glyph-name="Eacute" unicode="&#xc9;" horiz-adv-x="567" 
d="M470 0h-441l139 710h424l-22 -111h-296l-36 -186h239l-22 -111h-239l-37 -191h312zM448 757h-107l103 136h136z" />
    <glyph glyph-name="Ecircumflex" unicode="&#xca;" horiz-adv-x="567" 
d="M470 0h-441l139 710h424l-22 -111h-296l-36 -186h239l-22 -111h-239l-37 -191h312zM347 757h-109l119 136h127l65 -136h-100l-34 81h-2z" />
    <glyph glyph-name="Edieresis" unicode="&#xcb;" horiz-adv-x="567" 
d="M470 0h-441l139 710h424l-22 -111h-296l-36 -186h239l-22 -111h-239l-37 -191h312zM544 777h-98l23 116h98zM360 777h-98l23 116h98z" />
    <glyph glyph-name="Igrave" unicode="&#xcc;" horiz-adv-x="302" 
d="M157 0h-128l138 710h129zM284 757h-97l-77 136h125z" />
    <glyph glyph-name="Iacute" unicode="&#xcd;" horiz-adv-x="302" 
d="M157 0h-128l138 710h129zM290 757h-107l103 136h136z" />
    <glyph glyph-name="Icircumflex" unicode="&#xce;" horiz-adv-x="302" 
d="M157 0h-128l138 710h129zM189 757h-109l119 136h127l65 -136h-100l-34 81h-2z" />
    <glyph glyph-name="Idieresis" unicode="&#xcf;" horiz-adv-x="302" 
d="M157 0h-128l138 710h129zM386 777h-98l23 116h98zM202 777h-98l23 116h98z" />
    <glyph glyph-name="Eth" unicode="&#xd0;" horiz-adv-x="743" 
d="M296 0h-261l59 301h-59l21 105h58l59 304h222q150 0 234.5 -73.5t84.5 -205.5q0 -182 -118 -306q-119 -125 -300 -125zM222 301l-37 -190h106q126 0 209 89q82 88 82 220q0 86 -51 132.5t-145 46.5h-106l-38 -193h132l-20 -105h-132z" />
    <glyph glyph-name="Ntilde" unicode="&#xd1;" horiz-adv-x="747" 
d="M157 0h-128l138 710h123l189 -410q12 -28 31 -92l6 -18h2q6 63 14 110l80 410h129l-139 -710h-121l-190 409q-10 22 -33 92l-5 18h-2q-6 -63 -14 -110zM375 758h-87q26 137 130 137q24 0 44.5 -16.5t36.5 -32.5t28 -16q35 0 47 62h87q-26 -137 -130 -137
q-25 0 -44.5 16.5t-35 32.5t-30.5 16q-32 0 -46 -62z" />
    <glyph glyph-name="Ograve" unicode="&#xd2;" horiz-adv-x="822" 
d="M51 300q0 111 59 209q61 99 157 155q97 58 204 58q145 0 234 -86q90 -86 90 -219q0 -113 -61 -213q-59 -99 -157 -158q-97 -58 -203 -58q-146 0 -234 87q-89 89 -89 225zM183 307q0 -89 53 -145q54 -56 139 -56q109 0 198 90q89 91 89 213q0 87 -54 141q-52 54 -138 54
q-111 0 -199 -88t-88 -209zM542 757h-97l-77 136h125z" />
    <glyph glyph-name="Oacute" unicode="&#xd3;" horiz-adv-x="822" 
d="M51 300q0 111 59 209q61 99 157 155q97 58 204 58q145 0 234 -86q90 -86 90 -219q0 -113 -61 -213q-59 -99 -157 -158q-97 -58 -203 -58q-146 0 -234 87q-89 89 -89 225zM183 307q0 -89 53 -145q54 -56 139 -56q109 0 198 90q89 91 89 213q0 87 -54 141q-52 54 -138 54
q-111 0 -199 -88t-88 -209zM549 757h-107l103 136h136z" />
    <glyph glyph-name="Ocircumflex" unicode="&#xd4;" horiz-adv-x="822" 
d="M51 300q0 111 59 209q61 99 157 155q97 58 204 58q145 0 234 -86q90 -86 90 -219q0 -113 -61 -213q-59 -99 -157 -158q-97 -58 -203 -58q-146 0 -234 87q-89 89 -89 225zM183 307q0 -89 53 -145q54 -56 139 -56q109 0 198 90q89 91 89 213q0 87 -54 141q-52 54 -138 54
q-111 0 -199 -88t-88 -209zM448 757h-109l119 136h127l65 -136h-100l-34 81h-2z" />
    <glyph glyph-name="Otilde" unicode="&#xd5;" horiz-adv-x="822" 
d="M51 300q0 111 59 209q61 99 157 155q97 58 204 58q145 0 234 -86q90 -86 90 -219q0 -113 -61 -213q-59 -99 -157 -158q-97 -58 -203 -58q-146 0 -234 87q-89 89 -89 225zM183 307q0 -89 53 -145q54 -56 139 -56q109 0 198 90q89 91 89 213q0 87 -54 141q-52 54 -138 54
q-111 0 -199 -88t-88 -209zM413 758h-87q26 137 130 137q24 0 44.5 -16.5t36.5 -32.5t28 -16q35 0 47 62h87q-26 -137 -130 -137q-25 0 -44.5 16.5t-35 32.5t-30.5 16q-32 0 -46 -62z" />
    <glyph glyph-name="Odieresis" unicode="&#xd6;" horiz-adv-x="822" 
d="M51 300q0 111 59 209q61 99 157 155q97 58 204 58q145 0 234 -86q90 -86 90 -219q0 -113 -61 -213q-59 -99 -157 -158q-97 -58 -203 -58q-146 0 -234 87q-89 89 -89 225zM183 307q0 -89 53 -145q54 -56 139 -56q109 0 198 90q89 91 89 213q0 87 -54 141q-52 54 -138 54
q-111 0 -199 -88t-88 -209zM645 777h-98l23 116h98zM461 777h-98l23 116h98z" />
    <glyph glyph-name="multiply" unicode="&#xd7;" horiz-adv-x="586" 
d="M98 0l-70 69l197 217l-197 216l70 70l194 -214l195 214l70 -70l-198 -216l198 -217l-70 -69l-195 214z" />
    <glyph glyph-name="Oslash" unicode="&#xd8;" horiz-adv-x="822" 
d="M111 -26l-54 43l68 74q-74 83 -74 209q0 111 59 209q61 99 157 155q97 58 204 58q108 0 190 -52l60 66l54 -43l-61 -66q81 -84 81 -210q0 -113 -61 -213q-59 -99 -157 -158q-97 -58 -203 -58q-116 0 -198 57zM217 190l356 386q-47 28 -103 28q-111 0 -199 -88t-88 -209
q0 -70 34 -117zM624 529l-360 -390q46 -33 111 -33q109 0 198 90q89 91 89 213q0 68 -38 120z" />
    <glyph glyph-name="Ugrave" unicode="&#xd9;" horiz-adv-x="729" 
d="M66 202q0 28 6 58l88 450h128l-88 -454q-4 -15 -4 -37q0 -54 35 -83.5t97 -29.5q73 0 122.5 39.5t63.5 111.5l89 453h128l-90 -460q-23 -121 -108 -191q-86 -71 -209 -71q-112 0 -186 57q-72 57 -72 157zM497 757h-97l-77 136h125z" />
    <glyph glyph-name="Uacute" unicode="&#xda;" horiz-adv-x="729" 
d="M66 202q0 28 6 58l88 450h128l-88 -454q-4 -15 -4 -37q0 -54 35 -83.5t97 -29.5q73 0 122.5 39.5t63.5 111.5l89 453h128l-90 -460q-23 -121 -108 -191q-86 -71 -209 -71q-112 0 -186 57q-72 57 -72 157zM504 757h-107l103 136h136z" />
    <glyph glyph-name="Ucircumflex" unicode="&#xdb;" horiz-adv-x="729" 
d="M66 202q0 28 6 58l88 450h128l-88 -454q-4 -15 -4 -37q0 -54 35 -83.5t97 -29.5q73 0 122.5 39.5t63.5 111.5l89 453h128l-90 -460q-23 -121 -108 -191q-86 -71 -209 -71q-112 0 -186 57q-72 57 -72 157zM403 757h-109l119 136h127l65 -136h-100l-34 81h-2z" />
    <glyph glyph-name="Udieresis" unicode="&#xdc;" horiz-adv-x="729" 
d="M66 202q0 28 6 58l88 450h128l-88 -454q-4 -15 -4 -37q0 -54 35 -83.5t97 -29.5q73 0 122.5 39.5t63.5 111.5l89 453h128l-90 -460q-23 -121 -108 -191q-86 -71 -209 -71q-112 0 -186 57q-72 57 -72 157zM599 777h-98l23 116h98zM415 777h-98l23 116h98z" />
    <glyph glyph-name="Yacute" unicode="&#xdd;" horiz-adv-x="605" 
d="M303 0h-128l58 297l-153 413h139l70 -209l25 -95h2l61 95l148 209h155l-320 -418zM432 757h-107l103 136h136z" />
    <glyph glyph-name="Thorn" unicode="&#xde;" horiz-adv-x="618" 
d="M157 0h-128l138 710h129l-23 -115h126q96 0 150.5 -50.5t54.5 -138.5q0 -116 -78 -196q-78 -79 -187 -79h-156zM251 484l-46 -242h120q64 0 105.5 43t41.5 111q0 42 -25.5 65t-72.5 23h-123z" />
    <glyph glyph-name="germandbls" unicode="&#xdf;" horiz-adv-x="603" 
d="M138 0h-127l104 538q16 85 89 135q71 49 159 49q86 0 139 -43q54 -43 54 -110q0 -37 -18.5 -70t-44.5 -53q-62 -48 -62 -80q0 -31 60 -83q25 -20 43 -50.5t18 -62.5q0 -74 -60 -126q-60 -51 -140 -51q-83 0 -143 26l22 105q41 -23 111 -23q33 0 57.5 18t24.5 50
q0 41 -62 87q-62 48 -62 101q0 32 19 62.5t45 50.5q64 50 64 88q0 25 -18.5 40.5t-51.5 15.5q-45 0 -77.5 -24t-41.5 -70z" />
    <glyph glyph-name="agrave" unicode="&#xe0;" horiz-adv-x="533" 
d="M-3 120q0 57 32 98.5t84.5 62t106 30t110.5 9.5h19q3 16 3 32q0 65 -82 65q-70 0 -150 -48l-30 98q35 22 89 37q59 18 113 18q80 0 133 -37q54 -37 54 -118q0 -17 -5 -52l-61 -315h-117l8 43l10 37h-2q-21 -34 -66 -63q-44 -29 -100 -29q-62 0 -106 35q-43 36 -43 97z
M122 140q0 -25 17 -40t50 -15q47 0 89 42q42 43 52 92l3 14h-22q-60 0 -115 -15q-34 -8 -54 -28.5t-20 -49.5zM358 574h-97l-77 136h125z" />
    <glyph glyph-name="aacute" unicode="&#xe1;" horiz-adv-x="533" 
d="M-3 120q0 57 32 98.5t84.5 62t106 30t110.5 9.5h19q3 16 3 32q0 65 -82 65q-70 0 -150 -48l-30 98q35 22 89 37q59 18 113 18q80 0 133 -37q54 -37 54 -118q0 -17 -5 -52l-61 -315h-117l8 43l10 37h-2q-21 -34 -66 -63q-44 -29 -100 -29q-62 0 -106 35q-43 36 -43 97z
M122 140q0 -25 17 -40t50 -15q47 0 89 42q42 43 52 92l3 14h-22q-60 0 -115 -15q-34 -8 -54 -28.5t-20 -49.5zM365 574h-107l103 136h136z" />
    <glyph glyph-name="acircumflex" unicode="&#xe2;" horiz-adv-x="533" 
d="M-3 120q0 57 32 98.5t84.5 62t106 30t110.5 9.5h19q3 16 3 32q0 65 -82 65q-70 0 -150 -48l-30 98q35 22 89 37q59 18 113 18q80 0 133 -37q54 -37 54 -118q0 -17 -5 -52l-61 -315h-117l8 43l10 37h-2q-21 -34 -66 -63q-44 -29 -100 -29q-62 0 -106 35q-43 36 -43 97z
M122 140q0 -25 17 -40t50 -15q47 0 89 42q42 43 52 92l3 14h-22q-60 0 -115 -15q-34 -8 -54 -28.5t-20 -49.5zM264 574h-109l119 136h127l65 -136h-100l-34 81h-2z" />
    <glyph glyph-name="atilde" unicode="&#xe3;" horiz-adv-x="533" 
d="M-3 120q0 57 32 98.5t84.5 62t106 30t110.5 9.5h19q3 16 3 32q0 65 -82 65q-70 0 -150 -48l-30 98q35 22 89 37q59 18 113 18q80 0 133 -37q54 -37 54 -118q0 -17 -5 -52l-61 -315h-117l8 43l10 37h-2q-21 -34 -66 -63q-44 -29 -100 -29q-62 0 -106 35q-43 36 -43 97z
M122 140q0 -25 17 -40t50 -15q47 0 89 42q42 43 52 92l3 14h-22q-60 0 -115 -15q-34 -8 -54 -28.5t-20 -49.5zM228 575h-87q26 137 130 137q24 0 44.5 -16t36.5 -32.5t28 -16.5q35 0 47 62h87q-26 -137 -130 -137q-29 0 -63 32.5t-47 32.5q-32 0 -46 -62z" />
    <glyph glyph-name="adieresis" unicode="&#xe4;" horiz-adv-x="533" 
d="M-3 120q0 57 32 98.5t84.5 62t106 30t110.5 9.5h19q3 16 3 32q0 65 -82 65q-70 0 -150 -48l-30 98q35 22 89 37q59 18 113 18q80 0 133 -37q54 -37 54 -118q0 -17 -5 -52l-61 -315h-117l8 43l10 37h-2q-21 -34 -66 -63q-44 -29 -100 -29q-62 0 -106 35q-43 36 -43 97z
M122 140q0 -25 17 -40t50 -15q47 0 89 42q42 43 52 92l3 14h-22q-60 0 -115 -15q-34 -8 -54 -28.5t-20 -49.5zM460 594h-98l23 116h98zM276 594h-98l23 116h98z" />
    <glyph glyph-name="aring" unicode="&#xe5;" horiz-adv-x="533" 
d="M-3 120q0 57 32 98.5t84.5 62t106 30t110.5 9.5h19q3 16 3 32q0 65 -82 65q-70 0 -150 -48l-30 98q35 22 89 37q59 18 113 18q80 0 133 -37q54 -37 54 -118q0 -17 -5 -52l-61 -315h-117l8 43l10 37h-2q-21 -34 -66 -63q-44 -29 -100 -29q-62 0 -106 35q-43 36 -43 97z
M122 140q0 -25 17 -40t50 -15q47 0 89 42q42 43 52 92l3 14h-22q-60 0 -115 -15q-34 -8 -54 -28.5t-20 -49.5zM317 562q-38 0 -62 18t-24 50q0 38 32 63.5t73 25.5q39 0 63 -18.5t24 -51.5q0 -39 -33 -63t-73 -24zM321 606q17 0 29 12t12 30q0 12 -7.5 19.5t-20.5 7.5
q-17 0 -29 -12.5t-12 -30.5q0 -26 28 -26z" />
    <glyph glyph-name="ae" unicode="&#xe6;" horiz-adv-x="858" 
d="M-3 118q0 92 76 142q94 60 257 60h18q5 23 5 31q0 66 -83 66q-71 0 -149 -48l-30 98q98 55 201 55q106 0 149 -73h2q76 73 175 73q98 0 151 -52t53 -142q0 -43 -17 -96h-348q-3 -20 0 -37q5 -48 37.5 -73.5t83.5 -25.5q79 0 158 56l34 -97q-32 -26 -89 -47
q-58 -20 -109 -20q-154 0 -212 111h-2q-14 -28 -54 -63q-53 -48 -145 -48q-69 0 -115 34q-47 35 -47 96zM476 320h219q2 10 2 21q0 39 -22.5 61t-58.5 22q-48 0 -84.5 -27.5t-55.5 -76.5zM125 140q0 -24 17.5 -38.5t48.5 -14.5q49 0 89 42q42 44 51 92l2 11h-33
q-58 0 -108 -15q-67 -20 -67 -77z" />
    <glyph glyph-name="ccedilla" unicode="&#xe7;" horiz-adv-x="550" 
d="M172 -86l38 80q-86 15 -135 74.5t-49 145.5q0 124 92 216t224 92q128 0 198 -75l-67 -80q-50 47 -125 47q-80 0 -137 -58q-57 -57 -57 -134q0 -56 36 -91t96 -35q80 0 163 65l35 -98q-39 -33 -97.5 -54t-115.5 -21l-13 -32q25 -4 43 -22t18 -44q0 -50 -38 -74
q-37 -24 -84 -24q-35 0 -65 8l13 68q13 -7 42 -7q50 0 50 32q0 23 -43 23h-3.5t-5 -0.5t-6.5 -1t-7 -0.5z" />
    <glyph glyph-name="egrave" unicode="&#xe8;" horiz-adv-x="560" 
d="M26 207q0 131 84 223q86 92 211 92q98 0 151 -52t53 -141q0 -36 -17 -98h-352q-2 -22 -2 -24q0 -44 34 -78q34 -33 93 -33q78 0 158 56l34 -97q-32 -26 -89 -47q-57 -20 -110 -20q-115 0 -182 62q-66 61 -66 157zM174 318h224q2 10 2 22q0 41 -22 63.5t-59 22.5
q-49 0 -87.5 -29t-57.5 -79zM390 574h-97l-77 136h125z" />
    <glyph glyph-name="eacute" unicode="&#xe9;" horiz-adv-x="560" 
d="M26 207q0 131 84 223q86 92 211 92q98 0 151 -52t53 -141q0 -36 -17 -98h-352q-2 -22 -2 -24q0 -44 34 -78q34 -33 93 -33q78 0 158 56l34 -97q-32 -26 -89 -47q-57 -20 -110 -20q-115 0 -182 62q-66 61 -66 157zM174 318h224q2 10 2 22q0 41 -22 63.5t-59 22.5
q-49 0 -87.5 -29t-57.5 -79zM397 574h-107l103 136h136z" />
    <glyph glyph-name="ecircumflex" unicode="&#xea;" horiz-adv-x="560" 
d="M26 207q0 131 84 223q86 92 211 92q98 0 151 -52t53 -141q0 -36 -17 -98h-352q-2 -22 -2 -24q0 -44 34 -78q34 -33 93 -33q78 0 158 56l34 -97q-32 -26 -89 -47q-57 -20 -110 -20q-115 0 -182 62q-66 61 -66 157zM174 318h224q2 10 2 22q0 41 -22 63.5t-59 22.5
q-49 0 -87.5 -29t-57.5 -79zM296 574h-109l119 136h127l65 -136h-100l-34 81h-2z" />
    <glyph glyph-name="edieresis" unicode="&#xeb;" horiz-adv-x="560" 
d="M26 207q0 131 84 223q86 92 211 92q98 0 151 -52t53 -141q0 -36 -17 -98h-352q-2 -22 -2 -24q0 -44 34 -78q34 -33 93 -33q78 0 158 56l34 -97q-32 -26 -89 -47q-57 -20 -110 -20q-115 0 -182 62q-66 61 -66 157zM174 318h224q2 10 2 22q0 41 -22 63.5t-59 22.5
q-49 0 -87.5 -29t-57.5 -79zM493 594h-98l23 116h98zM309 594h-98l23 116h98z" />
    <glyph glyph-name="igrave" unicode="&#xec;" horiz-adv-x="263" 
d="M137 0h-126l99 510h126zM229 574h-97l-77 136h125z" />
    <glyph glyph-name="iacute" unicode="&#xed;" horiz-adv-x="263" 
d="M137 0h-126l99 510h126zM234 574h-107l103 136h136z" />
    <glyph glyph-name="icircumflex" unicode="&#xee;" horiz-adv-x="263" 
d="M137 0h-126l99 510h126zM134 574h-109l119 136h127l65 -136h-100l-34 81h-2z" />
    <glyph glyph-name="idieresis" unicode="&#xef;" horiz-adv-x="263" 
d="M330 594h-98l23 116h98zM146 594h-98l23 116h98zM137 0h-126l99 510h126z" />
    <glyph glyph-name="eth" unicode="&#xf0;" horiz-adv-x="584" 
d="M22 195q0 105 79 187q80 83 202 83q59 0 93 -25l12 -9h2q-16 64 -76 115l-204 -80l10 76l124 50q-49 27 -109 42l52 92q115 -30 189 -84l171 66l-8 -76l-105 -41q93 -97 93 -242q0 -115 -69 -232q-35 -58 -96 -93.5t-136 -35.5q-107 0 -166 59q-58 58 -58 148zM151 197
q0 -46 24.5 -74t70.5 -28q69 0 116 59q47 61 47 125q0 40 -26.5 63.5t-73.5 23.5q-69 0 -114 -51q-44 -50 -44 -118z" />
    <glyph glyph-name="ntilde" unicode="&#xf1;" horiz-adv-x="612" 
d="M138 0h-127l99 510h123l-8 -46l-14 -50h2q24 41 78 74q53 34 116 34q73 0 113.5 -34.5t40.5 -104.5q0 -26 -7 -61l-62 -322h-127l58 298q5 32 5 46q0 62 -64 62t-116 -52q-53 -53 -66 -124zM282 575h-87q26 137 130 137q24 0 44.5 -16t36.5 -32.5t28 -16.5q35 0 47 62h87
q-26 -137 -130 -137q-29 0 -63 32.5t-47 32.5q-32 0 -46 -62z" />
    <glyph glyph-name="ograve" unicode="&#xf2;" horiz-adv-x="633" 
d="M25 214q0 130 96 218q97 90 220 90q111 0 181 -63q70 -61 70 -162q0 -130 -97 -220q-97 -89 -219 -89q-110 0 -181 62q-70 63 -70 164zM154 220q0 -56 34.5 -90t89.5 -34q72 0 128 55q57 55 57 138q0 56 -35 90.5t-89 34.5q-71 0 -128 -57q-57 -55 -57 -137zM413 574h-97
l-77 136h125z" />
    <glyph glyph-name="oacute" unicode="&#xf3;" horiz-adv-x="633" 
d="M25 214q0 130 96 218q97 90 220 90q111 0 181 -63q70 -61 70 -162q0 -130 -97 -220q-97 -89 -219 -89q-110 0 -181 62q-70 63 -70 164zM154 220q0 -56 34.5 -90t89.5 -34q72 0 128 55q57 55 57 138q0 56 -35 90.5t-89 34.5q-71 0 -128 -57q-57 -55 -57 -137zM420 574
h-107l103 136h136z" />
    <glyph glyph-name="ocircumflex" unicode="&#xf4;" horiz-adv-x="633" 
d="M25 214q0 130 96 218q97 90 220 90q111 0 181 -63q70 -61 70 -162q0 -130 -97 -220q-97 -89 -219 -89q-110 0 -181 62q-70 63 -70 164zM154 220q0 -56 34.5 -90t89.5 -34q72 0 128 55q57 55 57 138q0 56 -35 90.5t-89 34.5q-71 0 -128 -57q-57 -55 -57 -137zM319 574
h-109l119 136h127l65 -136h-100l-34 81h-2z" />
    <glyph glyph-name="otilde" unicode="&#xf5;" horiz-adv-x="633" 
d="M25 214q0 130 96 218q97 90 220 90q111 0 181 -63q70 -61 70 -162q0 -130 -97 -220q-97 -89 -219 -89q-110 0 -181 62q-70 63 -70 164zM154 220q0 -56 34.5 -90t89.5 -34q72 0 128 55q57 55 57 138q0 56 -35 90.5t-89 34.5q-71 0 -128 -57q-57 -55 -57 -137zM283 575h-87
q26 137 130 137q24 0 44.5 -16t36.5 -32.5t28 -16.5q35 0 47 62h87q-26 -137 -130 -137q-29 0 -63 32.5t-47 32.5q-32 0 -46 -62z" />
    <glyph glyph-name="odieresis" unicode="&#xf6;" horiz-adv-x="633" 
d="M25 214q0 130 96 218q97 90 220 90q111 0 181 -63q70 -61 70 -162q0 -130 -97 -220q-97 -89 -219 -89q-110 0 -181 62q-70 63 -70 164zM154 220q0 -56 34.5 -90t89.5 -34q72 0 128 55q57 55 57 138q0 56 -35 90.5t-89 34.5q-71 0 -128 -57q-57 -55 -57 -137zM515 594h-98
l23 116h98zM331 594h-98l23 116h98z" />
    <glyph glyph-name="divide" unicode="&#xf7;" horiz-adv-x="586" 
d="M348 437h-115v108h115v-108zM551 236h-521v99h521v-99zM348 27h-115v108h115v-108z" />
    <glyph glyph-name="oslash" unicode="&#xf8;" horiz-adv-x="633" 
d="M84 -43l-52 43l54 58q-61 62 -61 156q0 130 96 218q97 90 220 90q77 0 142 -35l56 60l52 -42l-56 -60q57 -61 57 -148q0 -130 -97 -220q-97 -89 -219 -89q-77 0 -135 31zM173 152l228 246q-25 16 -62 16q-71 0 -128 -57q-57 -55 -57 -137q0 -40 19 -68zM446 350
l-223 -243q27 -11 55 -11q72 0 128 55q57 55 57 138q0 35 -17 61z" />
    <glyph glyph-name="ugrave" unicode="&#xf9;" horiz-adv-x="606" 
d="M35 127q0 25 7 61l62 322h127l-58 -298q-5 -33 -5 -47q0 -61 65 -61q63 0 112 52t63 124l44 230h127l-99 -510h-123l9 46l13 49h-2q-25 -42 -76 -74q-53 -33 -114 -33q-71 0 -111.5 34.5t-40.5 104.5zM396 574h-97l-77 136h125z" />
    <glyph glyph-name="uacute" unicode="&#xfa;" horiz-adv-x="606" 
d="M35 127q0 25 7 61l62 322h127l-58 -298q-5 -33 -5 -47q0 -61 65 -61q63 0 112 52t63 124l44 230h127l-99 -510h-123l9 46l13 49h-2q-25 -42 -76 -74q-53 -33 -114 -33q-71 0 -111.5 34.5t-40.5 104.5zM403 574h-107l103 136h136z" />
    <glyph glyph-name="ucircumflex" unicode="&#xfb;" horiz-adv-x="606" 
d="M35 127q0 25 7 61l62 322h127l-58 -298q-5 -33 -5 -47q0 -61 65 -61q63 0 112 52t63 124l44 230h127l-99 -510h-123l9 46l13 49h-2q-25 -42 -76 -74q-53 -33 -114 -33q-71 0 -111.5 34.5t-40.5 104.5zM302 574h-109l119 136h127l65 -136h-100l-34 81h-2z" />
    <glyph glyph-name="udieresis" unicode="&#xfc;" horiz-adv-x="606" 
d="M35 127q0 25 7 61l62 322h127l-58 -298q-5 -33 -5 -47q0 -61 65 -61q63 0 112 52t63 124l44 230h127l-99 -510h-123l9 46l13 49h-2q-25 -42 -76 -74q-53 -33 -114 -33q-71 0 -111.5 34.5t-40.5 104.5zM499 594h-98l23 116h98zM315 594h-98l23 116h98z" />
    <glyph glyph-name="yacute" unicode="&#xfd;" horiz-adv-x="550" 
d="M-77 -174l57 89q22 -18 54 -18q60 0 101 65l28 46l-117 502h132l58 -309l6 -65h2q21 49 29 63l161 311h142l-342 -588q-37 -65 -88 -98.5t-106 -33.5q-64 0 -117 36zM378 574h-107l103 136h136z" />
    <glyph glyph-name="thorn" unicode="&#xfe;" horiz-adv-x="614" 
d="M141 17l-42 -217h-126l176 910h124l-43 -225l-10 -37h2q60 74 157 74q90 0 141.5 -58t51.5 -157q0 -137 -85 -228q-84 -91 -193 -91q-46 0 -85.5 19.5t-59.5 55.5h-2q-2 -21 -6 -46zM179 210q0 -52 26 -83.5t74 -31.5q63 0 113 56q51 55 51 147q0 53 -27 84t-74 31
q-64 0 -113 -61q-50 -61 -50 -142z" />
    <glyph glyph-name="ydieresis" unicode="&#xff;" horiz-adv-x="550" 
d="M-77 -174l57 89q22 -18 54 -18q60 0 101 65l28 46l-117 502h132l58 -309l6 -65h2q21 49 29 63l161 311h142l-342 -588q-37 -65 -88 -98.5t-106 -33.5q-64 0 -117 36zM473 594h-98l23 116h98zM289 594h-98l23 116h98z" />
    <glyph glyph-name="Amacron" unicode="&#x100;" horiz-adv-x="653" 
d="M92 0h-138l381 710h146l109 -710h-129l-25 182h-249zM340 477l-101 -190h185l-26 190l-8 110h-2q-26 -64 -48 -110zM555 783h-263l17 87h262z" />
    <glyph glyph-name="amacron" unicode="&#x101;" horiz-adv-x="533" 
d="M-3 120q0 57 32 98.5t84.5 62t106 30t110.5 9.5h19q3 16 3 32q0 65 -82 65q-70 0 -150 -48l-30 98q35 22 89 37q59 18 113 18q80 0 133 -37q54 -37 54 -118q0 -17 -5 -52l-61 -315h-117l8 43l10 37h-2q-21 -34 -66 -63q-44 -29 -100 -29q-62 0 -106 35q-43 36 -43 97z
M122 140q0 -25 17 -40t50 -15q47 0 89 42q42 43 52 92l3 14h-22q-60 0 -115 -15q-34 -8 -54 -28.5t-20 -49.5zM452 600h-263l17 87h262z" />
    <glyph glyph-name="Abreve" unicode="&#x102;" horiz-adv-x="653" 
d="M92 0h-138l381 710h146l109 -710h-129l-25 182h-249zM340 477l-101 -190h185l-26 190l-8 110h-2q-26 -64 -48 -110zM426 753q-60 0 -98.5 28.5t-38.5 77.5q0 12 5 34h90q-4 -11 -4 -26q0 -45 48 -45q27 0 47.5 18.5t25.5 52.5h90q-11 -69 -55.5 -104.5t-109.5 -35.5z" />
    <glyph glyph-name="abreve" unicode="&#x103;" horiz-adv-x="533" 
d="M-3 120q0 57 32 98.5t84.5 62t106 30t110.5 9.5h19q3 16 3 32q0 65 -82 65q-70 0 -150 -48l-30 98q35 22 89 37q59 18 113 18q80 0 133 -37q54 -37 54 -118q0 -17 -5 -52l-61 -315h-117l8 43l10 37h-2q-21 -34 -66 -63q-44 -29 -100 -29q-62 0 -106 35q-43 36 -43 97z
M122 140q0 -25 17 -40t50 -15q47 0 89 42q42 43 52 92l3 14h-22q-60 0 -115 -15q-34 -8 -54 -28.5t-20 -49.5zM323 570q-60 0 -98.5 28.5t-38.5 77.5q0 12 5 34h90q-4 -11 -4 -26q0 -45 48 -45q27 0 47.5 18.5t25.5 52.5h90q-11 -69 -55.5 -104.5t-109.5 -35.5z" />
    <glyph glyph-name="Aogonek" unicode="&#x104;" horiz-adv-x="653" 
d="M92 0h-138l381 710h146l109 -710h-1q-72 -52 -72 -83q0 -22 31 -29l11 -2l-48 -94q-12 0 -37 8q-27 7 -47.5 26t-20.5 48q0 64 86 126h-31l-25 182h-249zM340 477l-101 -190h185l-26 190l-8 110h-2q-26 -64 -48 -110z" />
    <glyph glyph-name="aogonek" unicode="&#x105;" horiz-adv-x="533" 
d="M-3 120q0 57 32 98.5t84.5 62t106 30t110.5 9.5h19q3 16 3 32q0 65 -82 65q-70 0 -150 -48l-30 98q35 22 89 37q59 18 113 18q80 0 133 -37q54 -37 54 -118q0 -17 -5 -52l-61 -315q-72 -52 -72 -83q0 -22 31 -29l11 -2l-49 -94q-12 0 -37 8q-27 7 -47.5 26t-20.5 48
q0 66 87 126h-20l8 43l10 37h-2q-21 -34 -66 -63q-44 -29 -100 -29q-62 0 -106 35q-43 36 -43 97zM122 140q0 -25 17 -40t50 -15q47 0 89 42q42 43 52 92l3 14h-22q-60 0 -115 -15q-34 -8 -54 -28.5t-20 -49.5z" />
    <glyph glyph-name="Cacute" unicode="&#x106;" horiz-adv-x="718" 
d="M52 298q0 173 125 298q125 126 294 126q79 0 149 -25t114 -73l-74 -89q-76 69 -185 69q-125 0 -207 -91q-83 -92 -83 -207q0 -88 52 -144q53 -56 144 -56q116 0 225 89l53 -102q-50 -46 -130 -76q-81 -29 -155 -29q-147 0 -235 86q-87 86 -87 224zM542 757h-107l103 136
h136z" />
    <glyph glyph-name="cacute" unicode="&#x107;" horiz-adv-x="549" 
d="M26 214q0 124 92 216t224 92q128 0 198 -75l-67 -80q-50 47 -125 47q-80 0 -137 -58q-57 -57 -57 -134q0 -56 36 -91t96 -35q80 0 163 65l35 -98q-39 -33 -97.5 -54t-115.5 -21q-114 0 -180 63q-65 63 -65 163zM399 574h-107l103 136h136z" />
    <glyph glyph-name="Ccircumflex" unicode="&#x108;" horiz-adv-x="718" 
d="M52 298q0 173 125 298q125 126 294 126q79 0 149 -25t114 -73l-74 -89q-76 69 -185 69q-125 0 -207 -91q-83 -92 -83 -207q0 -88 52 -144q53 -56 144 -56q116 0 225 89l53 -102q-50 -46 -130 -76q-81 -29 -155 -29q-147 0 -235 86q-87 86 -87 224zM441 757h-109l119 136
h127l65 -136h-100l-34 81h-2z" />
    <glyph glyph-name="ccircumflex" unicode="&#x109;" horiz-adv-x="549" 
d="M26 214q0 124 92 216t224 92q128 0 198 -75l-67 -80q-50 47 -125 47q-80 0 -137 -58q-57 -57 -57 -134q0 -56 36 -91t96 -35q80 0 163 65l35 -98q-39 -33 -97.5 -54t-115.5 -21q-114 0 -180 63q-65 63 -65 163zM298 574h-109l119 136h127l65 -136h-100l-34 81h-2z" />
    <glyph glyph-name="Cdotaccent" unicode="&#x10a;" horiz-adv-x="718" 
d="M52 298q0 173 125 298q125 126 294 126q79 0 149 -25t114 -73l-74 -89q-76 69 -185 69q-125 0 -207 -91q-83 -92 -83 -207q0 -88 52 -144q53 -56 144 -56q116 0 225 89l53 -102q-50 -46 -130 -76q-81 -29 -155 -29q-147 0 -235 86q-87 86 -87 224zM552 782h-109l22 111
h109z" />
    <glyph glyph-name="cdotaccent" unicode="&#x10b;" horiz-adv-x="549" 
d="M26 214q0 124 92 216t224 92q128 0 198 -75l-67 -80q-50 47 -125 47q-80 0 -137 -58q-57 -57 -57 -134q0 -56 36 -91t96 -35q80 0 163 65l35 -98q-39 -33 -97.5 -54t-115.5 -21q-114 0 -180 63q-65 63 -65 163zM409 599h-109l22 111h109z" />
    <glyph glyph-name="Ccaron" unicode="&#x10c;" horiz-adv-x="718" 
d="M52 298q0 173 125 298q125 126 294 126q79 0 149 -25t114 -73l-74 -89q-76 69 -185 69q-125 0 -207 -91q-83 -92 -83 -207q0 -88 52 -144q53 -56 144 -56q116 0 225 89l53 -102q-50 -46 -130 -76q-81 -29 -155 -29q-147 0 -235 86q-87 86 -87 224zM560 757h-127l-65 136
h100l34 -81h2l66 81h109z" />
    <glyph glyph-name="ccaron" unicode="&#x10d;" horiz-adv-x="549" 
d="M26 214q0 124 92 216t224 92q128 0 198 -75l-67 -80q-50 47 -125 47q-80 0 -137 -58q-57 -57 -57 -134q0 -56 36 -91t96 -35q80 0 163 65l35 -98q-39 -33 -97.5 -54t-115.5 -21q-114 0 -180 63q-65 63 -65 163zM417 574h-127l-65 136h100l34 -81h2l66 81h109z" />
    <glyph glyph-name="Dcaron" unicode="&#x10e;" horiz-adv-x="738" 
d="M291 0h-261l137 710h222q150 0 235 -73.5t85 -205.5q0 -182 -118 -306q-119 -125 -300 -125zM275 599l-96 -488h107q126 0 209 89q82 88 82 220q0 86 -51.5 132.5t-144.5 46.5h-106zM501 757h-127l-65 136h100l34 -81h2l66 81h109z" />
    <glyph glyph-name="dcaron" unicode="&#x10f;" horiz-adv-x="629" 
d="M27 201q0 140 84 230q84 91 199 91q47 0 85.5 -18t55.5 -52h2q0 18 3 31l45 227h126l-138 -710h-119l8 42l9 35h-2q-28 -40 -71.5 -64.5t-92.5 -24.5q-92 0 -143 56.5t-51 156.5zM155 210q0 -53 27.5 -84t74.5 -31q65 0 114 61t49 143q0 52 -26 83t-75 31q-62 0 -113 -57
q-51 -56 -51 -146zM680 709h105v-16q0 -64 -49 -135h-93q40 71 40 122q0 12 -3 29z" />
    <glyph glyph-name="Dcroat" unicode="&#x110;" horiz-adv-x="743" 
d="M296 0h-261l59 301h-59l21 105h58l59 304h222q150 0 234.5 -73.5t84.5 -205.5q0 -182 -118 -306q-119 -125 -300 -125zM222 301l-37 -190h106q126 0 209 89q82 88 82 220q0 86 -51 132.5t-145 46.5h-106l-38 -193h132l-20 -105h-132z" />
    <glyph glyph-name="dslash" unicode="&#x111;" horiz-adv-x="615" 
d="M27 201q0 140 84 230q84 91 199 91q47 0 85.5 -18t55.5 -52h2q0 18 3 31l15 76h-128l15 76h128l15 75h126l-14 -75h72l-15 -76h-73l-108 -559h-119l8 42l8 34h-2q-28 -40 -71 -64t-92 -24q-92 0 -143 56.5t-51 156.5zM155 210q0 -53 27.5 -84t74.5 -31q65 0 114 61
t49 143q0 52 -26 83t-75 31q-62 0 -113 -57q-51 -56 -51 -146z" />
    <glyph glyph-name="Emacron" unicode="&#x112;" horiz-adv-x="567" 
d="M470 0h-441l139 710h424l-22 -111h-296l-36 -186h239l-22 -111h-239l-37 -191h312zM535 783h-263l17 87h262z" />
    <glyph glyph-name="emacron" unicode="&#x113;" horiz-adv-x="560" 
d="M26 207q0 131 84 223q86 92 211 92q98 0 151 -52t53 -141q0 -36 -17 -98h-352q-2 -22 -2 -24q0 -44 34 -78q34 -33 93 -33q78 0 158 56l34 -97q-32 -26 -89 -47q-57 -20 -110 -20q-115 0 -182 62q-66 61 -66 157zM174 318h224q2 10 2 22q0 41 -22 63.5t-59 22.5
q-49 0 -87.5 -29t-57.5 -79zM484 600h-263l17 87h262z" />
    <glyph glyph-name="Ebreve" unicode="&#x114;" horiz-adv-x="567" 
d="M470 0h-441l139 710h424l-22 -111h-296l-36 -186h239l-22 -111h-239l-37 -191h312zM406 753q-60 0 -98.5 28.5t-38.5 77.5q0 12 5 34h90q-4 -11 -4 -26q0 -45 48 -45q27 0 47.5 18.5t25.5 52.5h90q-11 -69 -55.5 -104.5t-109.5 -35.5z" />
    <glyph glyph-name="ebreve" unicode="&#x115;" horiz-adv-x="560" 
d="M26 207q0 131 84 223q86 92 211 92q98 0 151 -52t53 -141q0 -36 -17 -98h-352q-2 -22 -2 -24q0 -44 34 -78q34 -33 93 -33q78 0 158 56l34 -97q-32 -26 -89 -47q-57 -20 -110 -20q-115 0 -182 62q-66 61 -66 157zM174 318h224q2 10 2 22q0 41 -22 63.5t-59 22.5
q-49 0 -87.5 -29t-57.5 -79zM355 570q-60 0 -98.5 28.5t-38.5 77.5q0 12 5 34h90q-4 -11 -4 -26q0 -45 48 -45q27 0 47.5 18.5t25.5 52.5h90q-11 -69 -55.5 -104.5t-109.5 -35.5z" />
    <glyph glyph-name="Edotaccent" unicode="&#x116;" horiz-adv-x="567" 
d="M470 0h-441l139 710h424l-22 -111h-296l-36 -186h239l-22 -111h-239l-37 -191h312zM458 782h-109l22 111h109z" />
    <glyph glyph-name="edotaccent" unicode="&#x117;" horiz-adv-x="560" 
d="M26 207q0 131 84 223q86 92 211 92q98 0 151 -52t53 -141q0 -36 -17 -98h-352q-2 -22 -2 -24q0 -44 34 -78q34 -33 93 -33q78 0 158 56l34 -97q-32 -26 -89 -47q-57 -20 -110 -20q-115 0 -182 62q-66 61 -66 157zM174 318h224q2 10 2 22q0 41 -22 63.5t-59 22.5
q-49 0 -87.5 -29t-57.5 -79zM407 599h-109l22 111h109z" />
    <glyph glyph-name="Eogonek" unicode="&#x118;" horiz-adv-x="567" 
d="M373 0h-344l139 710h424l-22 -111h-296l-36 -186h239l-22 -111h-239l-37 -191h312l-21 -111q-71 -50 -71 -83q0 -11 9.5 -18.5t22.5 -10.5l11 -2l-48 -94q-12 0 -37 8q-27 7 -47.5 26t-20.5 48q0 61 84 124v2z" />
    <glyph glyph-name="eogonek" unicode="&#x119;" horiz-adv-x="561" 
d="M26 207q0 131 84 223q86 92 211 92q98 0 151 -52t53 -141q0 -34 -13 -83l-4 -15h-351l-1 -5q0 -6 -0.5 -12.5t-0.5 -10.5q0 -50 34 -78.5t92 -28.5q34 0 73.5 13t63.5 29l21 14l34 -97l-53 -33q-105 -63 -105 -105q0 -22 34 -29l11 -2l-48 -94q-12 0 -37 8
q-27 7 -47.5 26t-20.5 48q0 59 72 113v2q-117 -3 -185 59t-68 159zM176 318h222q2 20 2 27q0 37 -22 58t-59 21q-48 0 -86 -28.5t-57 -77.5z" />
    <glyph glyph-name="Ecaron" unicode="&#x11a;" horiz-adv-x="567" 
d="M470 0h-441l139 710h424l-22 -111h-296l-36 -186h239l-22 -111h-239l-37 -191h312zM466 757h-127l-65 136h100l34 -81h2l66 81h109z" />
    <glyph glyph-name="ecaron" unicode="&#x11b;" horiz-adv-x="560" 
d="M26 207q0 131 84 223q86 92 211 92q98 0 151 -52t53 -141q0 -36 -17 -98h-352q-2 -22 -2 -24q0 -44 34 -78q34 -33 93 -33q78 0 158 56l34 -97q-32 -26 -89 -47q-57 -20 -110 -20q-115 0 -182 62q-66 61 -66 157zM174 318h224q2 10 2 22q0 41 -22 63.5t-59 22.5
q-49 0 -87.5 -29t-57.5 -79zM415 574h-127l-65 136h100l34 -81h2l66 81h109z" />
    <glyph glyph-name="Gcircumflex" unicode="&#x11c;" horiz-adv-x="766" 
d="M51 294q0 174 125 301q126 127 302 127q76 0 146 -22t116 -65l-76 -90q-31 26 -82 42.5t-101 16.5q-131 0 -213 -91q-83 -92 -83 -211q0 -92 54 -144q55 -52 140 -52q100 0 194 77l16 80h-109l21 111h225l-73 -374h-109l6 35l7 30h-2q-28 -28 -82 -52q-54 -25 -120 -25
q-127 0 -215 84q-87 84 -87 222zM439 757h-109l119 136h127l65 -136h-100l-34 81h-2z" />
    <glyph glyph-name="gcircumflex" unicode="&#x11d;" horiz-adv-x="605" 
d="M-1 -162l52 93q49 -33 138 -33q66 0 111 31t57 93l5 30l8 29h-2q-56 -71 -143 -71q-92 0 -144 57t-52 152q0 73 30 141q32 70 94 115q65 47 146 47q112 0 148 -70h3q0 13 1 18l8 40h119l-94 -487q-17 -83 -64.5 -137.5t-103.5 -75t-123 -20.5q-117 0 -194 48zM158 229
q0 -53 26.5 -82.5t75.5 -29.5q70 0 111 63q42 64 42 138q0 96 -103 96q-69 0 -111 -55q-41 -56 -41 -130zM299 574h-109l119 136h127l65 -136h-100l-34 81h-2z" />
    <glyph glyph-name="Gbreve" unicode="&#x11e;" horiz-adv-x="766" 
d="M51 294q0 174 125 301q126 127 302 127q76 0 146 -22t116 -65l-76 -90q-31 26 -82 42.5t-101 16.5q-131 0 -213 -91q-83 -92 -83 -211q0 -92 54 -144q55 -52 140 -52q100 0 194 77l16 80h-109l21 111h225l-73 -374h-109l6 35l7 30h-2q-28 -28 -82 -52q-54 -25 -120 -25
q-127 0 -215 84q-87 84 -87 222zM497 753q-60 0 -98.5 28.5t-38.5 77.5q0 12 5 34h90q-4 -11 -4 -26q0 -45 48 -45q27 0 47.5 18.5t25.5 52.5h90q-11 -69 -55.5 -104.5t-109.5 -35.5z" />
    <glyph glyph-name="gbreve" unicode="&#x11f;" horiz-adv-x="605" 
d="M-1 -162l52 93q49 -33 138 -33q66 0 111 31t57 93l5 30l8 29h-2q-56 -71 -143 -71q-92 0 -144 57t-52 152q0 73 30 141q32 70 94 115q65 47 146 47q112 0 148 -70h3q0 13 1 18l8 40h119l-94 -487q-17 -83 -64.5 -137.5t-103.5 -75t-123 -20.5q-117 0 -194 48zM158 229
q0 -53 26.5 -82.5t75.5 -29.5q70 0 111 63q42 64 42 138q0 96 -103 96q-69 0 -111 -55q-41 -56 -41 -130zM357 570q-60 0 -98.5 28.5t-38.5 77.5q0 12 5 34h90q-4 -11 -4 -26q0 -45 48 -45q27 0 47.5 18.5t25.5 52.5h90q-11 -69 -55.5 -104.5t-109.5 -35.5z" />
    <glyph glyph-name="Gdotaccent" unicode="&#x120;" horiz-adv-x="766" 
d="M51 294q0 174 125 301q126 127 302 127q76 0 146 -22t116 -65l-76 -90q-31 26 -82 42.5t-101 16.5q-131 0 -213 -91q-83 -92 -83 -211q0 -92 54 -144q55 -52 140 -52q100 0 194 77l16 80h-109l21 111h225l-73 -374h-109l6 35l7 30h-2q-28 -28 -82 -52q-54 -25 -120 -25
q-127 0 -215 84q-87 84 -87 222zM550 782h-109l22 111h109z" />
    <glyph glyph-name="gdotaccent" unicode="&#x121;" horiz-adv-x="605" 
d="M-1 -162l52 93q49 -33 138 -33q66 0 111 31t57 93l5 30l8 29h-2q-56 -71 -143 -71q-92 0 -144 57t-52 152q0 73 30 141q32 70 94 115q65 47 146 47q112 0 148 -70h3q0 13 1 18l8 40h119l-94 -487q-17 -83 -64.5 -137.5t-103.5 -75t-123 -20.5q-117 0 -194 48zM158 229
q0 -53 26.5 -82.5t75.5 -29.5q70 0 111 63q42 64 42 138q0 96 -103 96q-69 0 -111 -55q-41 -56 -41 -130zM410 599h-109l22 111h109z" />
    <glyph glyph-name="Gcommaaccent" unicode="&#x122;" horiz-adv-x="766" 
d="M51 294q0 174 125 301q126 127 302 127q76 0 146 -22t116 -65l-76 -90q-31 26 -82 42.5t-101 16.5q-131 0 -213 -91q-83 -92 -83 -211q0 -92 54 -144q55 -52 140 -52q100 0 194 77l16 80h-109l21 111h225l-73 -374h-109l6 35l7 30h-2q-28 -28 -82 -52q-54 -25 -120 -25
q-127 0 -215 84q-87 84 -87 222zM271 -55h105v-16q0 -64 -49 -135h-93q40 71 40 122q0 12 -3 29z" />
    <glyph glyph-name="gcommaaccent" unicode="&#x123;" horiz-adv-x="605" 
d="M397 562h-104v15q0 61 48 132h93q-40 -70 -40 -119q0 -13 3 -28zM-1 -162l52 93q49 -33 138 -33q66 0 111 31t57 93l5 30l8 29h-2q-56 -71 -143 -71q-92 0 -144 57t-52 152q0 73 30 141q32 70 94 115q65 47 146 47q112 0 148 -70h3q0 13 1 18l8 40h119l-94 -487
q-17 -83 -64.5 -137.5t-103.5 -75t-123 -20.5q-117 0 -194 48zM158 229q0 -53 26.5 -82.5t75.5 -29.5q70 0 111 63q42 64 42 138q0 96 -103 96q-69 0 -111 -55q-41 -56 -41 -130z" />
    <glyph glyph-name="Hcircumflex" unicode="&#x124;" horiz-adv-x="755" 
d="M157 0h-128l138 710h129l-59 -301h325l59 301h128l-138 -710h-129l58 298h-325zM417 757h-109l119 136h127l65 -136h-100l-34 81h-2z" />
    <glyph glyph-name="hcircumflex" unicode="&#x125;" horiz-adv-x="612" 
d="M138 0h-127l138 710h127l-48 -246l-11 -45h2q22 39 75 71t113 32q73 0 113.5 -34.5t40.5 -104.5q0 -26 -7 -61l-62 -322h-127l58 298q5 32 5 46q0 62 -64 62t-116 -52q-53 -53 -66 -124zM172 757h-109l119 136h127l65 -136h-100l-34 81h-2z" />
    <glyph glyph-name="Hbar" unicode="&#x126;" horiz-adv-x="767" 
d="M164 0h-128l100 515h-62l16 83h62l22 112h128l-22 -112h325l22 112h129l-22 -112h62l-16 -83h-63l-100 -515h-128l58 298h-325zM264 515l-20 -106h324l21 106h-325z" />
    <glyph glyph-name="hbar" unicode="&#x127;" horiz-adv-x="612" 
d="M138 0h-127l108 559h-65l15 76h65l15 75h127l-15 -75h134l-14 -76h-135l-18 -95l-11 -45h2q22 39 75 71t113 32q73 0 113.5 -34.5t40.5 -104.5q0 -26 -7 -61l-62 -322h-127l58 298q5 32 5 46q0 62 -64 62t-116 -52q-53 -53 -66 -124z" />
    <glyph glyph-name="Itilde" unicode="&#x128;" horiz-adv-x="302" 
d="M153 758h-87q26 137 130 137q24 0 44.5 -16.5t36.5 -32.5t28 -16q35 0 47 62h87q-26 -137 -130 -137q-25 0 -44.5 16.5t-35 32.5t-30.5 16q-32 0 -46 -62zM157 0h-128l138 710h129z" />
    <glyph glyph-name="itilde" unicode="&#x129;" horiz-adv-x="263" 
d="M137 0h-126l99 510h126zM98 575h-87q26 137 130 137q24 0 44.5 -16t36.5 -32.5t28 -16.5q35 0 47 62h87q-26 -137 -130 -137q-29 0 -63 32.5t-47 32.5q-32 0 -46 -62z" />
    <glyph glyph-name="Imacron" unicode="&#x12a;" horiz-adv-x="302" 
d="M157 0h-128l138 710h129zM377 783h-263l17 87h262z" />
    <glyph glyph-name="imacron" unicode="&#x12b;" horiz-adv-x="263" 
d="M137 0h-126l99 510h126zM322 600h-263l17 87h262z" />
    <glyph glyph-name="Ibreve" unicode="&#x12c;" horiz-adv-x="302" 
d="M248 753q-60 0 -98.5 28.5t-38.5 77.5q0 12 5 34h90q-4 -11 -4 -26q0 -45 48 -45q27 0 47.5 18.5t25.5 52.5h90q-11 -69 -55.5 -104.5t-109.5 -35.5zM157 0h-128l138 710h129z" />
    <glyph glyph-name="ibreve" unicode="&#x12d;" horiz-adv-x="263" 
d="M193 570q-60 0 -98.5 28.5t-38.5 77.5q0 12 5 34h90q-4 -11 -4 -26q0 -45 48 -45q27 0 47.5 18.5t25.5 52.5h90q-11 -69 -55.5 -104.5t-109.5 -35.5zM137 0h-126l99 510h126z" />
    <glyph glyph-name="Iogonek" unicode="&#x12e;" horiz-adv-x="303" 
d="M61 0h-32l138 710h129l-139 -709l1 -1q-72 -52 -72 -83q0 -11 9.5 -18.5t22.5 -10.5l10 -2l-49 -94q-12 0 -37 8q-27 7 -47.5 26t-20.5 48q0 66 87 126z" />
    <glyph glyph-name="iogonek" unicode="&#x12f;" horiz-adv-x="263" 
d="M40 0h-29l99 510h127l-100 -510q-72 -52 -72 -83q0 -22 31 -29l11 -2l-48 -94q-12 0 -37 8q-27 7 -47.5 26t-20.5 48q0 64 86 126zM254 597h-127l22 113h127z" />
    <glyph glyph-name="Idot" unicode="&#x130;" horiz-adv-x="302" 
d="M157 0h-128l138 710h129zM300 782h-109l22 111h109z" />
    <glyph glyph-name="dotlessi" unicode="&#x131;" horiz-adv-x="263" 
d="M137 0h-126l99 510h126z" />
    <glyph glyph-name="IJ" unicode="&#x132;" horiz-adv-x="637" 
d="M240 -4l22 116q22 0 44 6t45.5 20t42 43.5t26.5 70.5l89 458h128l-89 -460q-30 -155 -121 -209q-78 -45 -187 -45zM157 0h-128l138 710h129z" />
    <glyph glyph-name="ij" unicode="&#x133;" horiz-adv-x="527" 
d="M516 597h-127l22 113h127zM273 -5l100 515h126l-101 -524q-20 -98 -78 -142q-70 -53 -158 -51q-25 0 -52 3l21 107q14 -2 22 -2q102 0 120 94zM254 597h-127l22 113h127zM137 0h-126l99 510h127z" />
    <glyph glyph-name="Jcircumflex" unicode="&#x134;" horiz-adv-x="543" 
d="M1 164q0 24 5 52l6 35h129l-6 -32q-4 -23 -4 -37q0 -76 75 -76q42 0 72 27t39 79l75 387h-182l22 111h310l-98 -509q-21 -106 -88 -160q-68 -53 -153 -53t-144 45q-58 46 -58 131zM341 757h-109l119 136h127l65 -136h-100l-34 81h-2z" />
    <glyph glyph-name="jcircumflex" unicode="&#x135;" horiz-adv-x="264" 
d="M133 573h-109l119 137h127l66 -137h-101l-34 82h-2zM10 -5l100 515h127l-102 -524q-18 -96 -78 -142q-25 -20 -56 -32q-49 -19 -102 -19l-52 3l21 107q12 -2 22 -2q102 0 120 94z" />
    <glyph glyph-name="Kcommaaccent" unicode="&#x136;" horiz-adv-x="641" 
d="M157 0h-128l138 710h129l-57 -289h88l226 289h150l-275 -344v-2l140 -364h-137l-113 310h-100zM213 -55h105v-16q0 -64 -49 -135h-93q40 71 40 122q0 12 -3 29z" />
    <glyph glyph-name="kcommaaccent" unicode="&#x137;" horiz-adv-x="552" 
d="M138 0h-127l139 710h126l-74 -380h61l159 180h150l-212 -234v-2l124 -274h-135l-95 223h-72zM187 -55h105v-16q0 -64 -49 -135h-93q40 71 40 122q0 12 -3 29z" />
    <glyph glyph-name="kgreenlandic" unicode="&#x138;" horiz-adv-x="551" 
d="M137 0h-126l99 510h127l-37 -192h62l166 192h151l-223 -247v-2l121 -261h-138l-87 211h-73z" />
    <glyph glyph-name="Lacute" unicode="&#x139;" horiz-adv-x="531" 
d="M463 0h-434l138 710h129l-117 -599h307zM291 757h-107l103 136h136z" />
    <glyph glyph-name="lacute" unicode="&#x13a;" horiz-adv-x="291" 
d="M37 116q0 23 5 51l106 543h127l-103 -528q-4 -23 -4 -36q0 -38 43 -38q11 0 18 1l-22 -111q-24 -3 -37 -3q-133 0 -133 121zM269 757h-107l103 136h136z" />
    <glyph glyph-name="Lcommaaccent" unicode="&#x13b;" horiz-adv-x="531" 
d="M463 0h-434l138 710h129l-117 -599h307zM188 -55h105v-16q0 -64 -49 -135h-93q40 71 40 122q0 12 -3 29z" />
    <glyph glyph-name="lcommaaccent" unicode="&#x13c;" horiz-adv-x="291" 
d="M37 116q0 23 5 51l106 543h127l-103 -528q-4 -23 -4 -36q0 -38 43 -38q11 0 18 1l-22 -111q-24 -3 -37 -3q-133 0 -133 121zM48 -55h105v-16q0 -64 -49 -135h-93q40 71 40 122q0 12 -3 29z" />
    <glyph glyph-name="Lcaron" unicode="&#x13d;" horiz-adv-x="532" 
d="M463 0h-434l138 710h129l-117 -599h307zM375 709h105v-16q0 -64 -49 -135h-93q40 71 40 122q0 12 -3 29z" />
    <glyph glyph-name="lcaron" unicode="&#x13e;" horiz-adv-x="304" 
d="M37 116q0 23 5 51l106 543h127l-103 -528q-4 -23 -4 -36q0 -38 43 -38q11 0 18 1l-22 -111q-24 -3 -37 -3q-133 0 -133 121zM328 709h105v-16q0 -64 -49 -135h-93q40 71 40 122q0 12 -3 29z" />
    <glyph glyph-name="Ldot" unicode="&#x13f;" horiz-adv-x="533" 
d="M463 0h-434l138 710h129l-117 -599h307zM441 320h-123l24 129h124z" />
    <glyph glyph-name="ldot" unicode="&#x140;" horiz-adv-x="405" 
d="M37 116q0 23 5 51l106 543h127l-103 -528q-4 -23 -4 -36q0 -38 43 -38q11 0 18 1l-22 -111q-24 -3 -37 -3q-133 0 -133 121zM399 320h-123l24 129h124z" />
    <glyph glyph-name="Lslash" unicode="&#x141;" horiz-adv-x="536" 
d="M470 0h-435l51 263l-62 -32l23 124l64 33l62 322h129l-49 -249l118 61l-24 -124l-118 -61l-44 -226h307z" />
    <glyph glyph-name="lslash" unicode="&#x142;" horiz-adv-x="305" 
d="M47 116q0 21 6 51l22 112l-70 -35l24 124l69 36l61 306h126l-45 -233l86 45l-24 -124l-86 -45l-33 -171q-4 -15 -4 -36q0 -38 42 -38q13 0 18 1l-22 -111q-13 -3 -36 -3q-134 0 -134 121z" />
    <glyph glyph-name="Nacute" unicode="&#x143;" horiz-adv-x="747" 
d="M157 0h-128l138 710h123l189 -410q12 -28 31 -92l6 -18h2q6 63 14 110l80 410h129l-139 -710h-121l-190 409q-10 22 -33 92l-5 18h-2q-6 -63 -14 -110zM513 757h-107l103 136h136z" />
    <glyph glyph-name="nacute" unicode="&#x144;" horiz-adv-x="612" 
d="M138 0h-127l99 510h123l-8 -46l-14 -50h2q24 41 78 74q53 34 116 34q73 0 113.5 -34.5t40.5 -104.5q0 -26 -7 -61l-62 -322h-127l58 298q5 32 5 46q0 62 -64 62t-116 -52q-53 -53 -66 -124zM419 574h-107l103 136h136z" />
    <glyph glyph-name="Ncommaaccent" unicode="&#x145;" horiz-adv-x="747" 
d="M157 0h-128l138 710h123l189 -410q12 -28 31 -92l6 -18h2q6 63 14 110l80 410h129l-139 -710h-121l-190 409q-10 22 -33 92l-5 18h-2q-6 -63 -14 -110zM261 -55h105v-16q0 -64 -49 -135h-93q40 71 40 122q0 12 -3 29z" />
    <glyph glyph-name="ncommaaccent" unicode="&#x146;" horiz-adv-x="612" 
d="M138 0h-127l99 510h123l-8 -46l-14 -50h2q24 41 78 74q53 34 116 34q73 0 113.5 -34.5t40.5 -104.5q0 -26 -7 -61l-62 -322h-127l58 298q5 32 5 46q0 62 -64 62t-116 -52q-53 -53 -66 -124zM196 -55h105v-16q0 -64 -49 -135h-93q40 71 40 122q0 12 -3 29z" />
    <glyph glyph-name="Ncaron" unicode="&#x147;" horiz-adv-x="747" 
d="M157 0h-128l138 710h123l189 -410q12 -28 31 -92l6 -18h2q6 63 14 110l80 410h129l-139 -710h-121l-190 409q-10 22 -33 92l-5 18h-2q-6 -63 -14 -110zM531 757h-127l-65 136h100l34 -81h2l66 81h109z" />
    <glyph glyph-name="ncaron" unicode="&#x148;" horiz-adv-x="612" 
d="M138 0h-127l99 510h123l-8 -46l-14 -50h2q24 41 78 74q53 34 116 34q73 0 113.5 -34.5t40.5 -104.5q0 -26 -7 -61l-62 -322h-127l58 298q5 32 5 46q0 62 -64 62t-116 -52q-53 -53 -66 -124zM437 574h-127l-65 136h100l34 -81h2l66 81h109z" />
    <glyph glyph-name="napostrophe" unicode="&#x149;" horiz-adv-x="612" 
d="M138 0h-127l99 510h123l-8 -46l-14 -50h2q24 41 78 74q53 34 116 34q73 0 113.5 -34.5t40.5 -104.5q0 -26 -7 -61l-62 -322h-127l58 298q5 32 5 46q0 62 -64 62t-116 -52q-53 -53 -66 -124zM68 709h105v-16q0 -64 -49 -135h-93q40 71 40 122q0 12 -3 29z" />
    <glyph glyph-name="Eng" unicode="&#x14a;" horiz-adv-x="747" 
d="M157 0h-128l138 710h123l189 -410q12 -28 31 -92l6 -18h2q6 63 14 110l80 410h129l-129 -660q-25 -127 -92 -187q-29 -28 -68 -42q-62 -25 -148 -25l22 116q110 0 149 100l-184 397q-10 22 -33 92l-5 18h-2q-6 -63 -14 -110z" />
    <glyph glyph-name="eng" unicode="&#x14b;" horiz-adv-x="612" 
d="M138 0h-127l99 510h123l-8 -46l-14 -50h2q24 41 78 74q53 34 116 34q73 0 113.5 -34.5t40.5 -104.5q0 -26 -7 -61l-65 -338q-20 -98 -78 -142q-70 -53 -158 -51l-52 3l21 107q6 -1 22 -1q102 0 120 93l59 305q5 32 5 46q0 62 -64 62t-116 -52q-53 -53 -66 -124z" />
    <glyph glyph-name="Omacron" unicode="&#x14c;" horiz-adv-x="822" 
d="M51 300q0 111 59 209q61 99 157 155q97 58 204 58q145 0 234 -86q90 -86 90 -219q0 -113 -61 -213q-59 -99 -157 -158q-97 -58 -203 -58q-146 0 -234 87q-89 89 -89 225zM183 307q0 -89 53 -145q54 -56 139 -56q109 0 198 90q89 91 89 213q0 87 -54 141q-52 54 -138 54
q-111 0 -199 -88t-88 -209zM636 783h-263l17 87h262z" />
    <glyph glyph-name="omacron" unicode="&#x14d;" horiz-adv-x="633" 
d="M25 214q0 130 96 218q97 90 220 90q111 0 181 -63q70 -61 70 -162q0 -130 -97 -220q-97 -89 -219 -89q-110 0 -181 62q-70 63 -70 164zM154 220q0 -56 34.5 -90t89.5 -34q72 0 128 55q57 55 57 138q0 56 -35 90.5t-89 34.5q-71 0 -128 -57q-57 -55 -57 -137zM507 600
h-263l17 87h262z" />
    <glyph glyph-name="Obreve" unicode="&#x14e;" horiz-adv-x="822" 
d="M51 300q0 111 59 209q61 99 157 155q97 58 204 58q145 0 234 -86q90 -86 90 -219q0 -113 -61 -213q-59 -99 -157 -158q-97 -58 -203 -58q-146 0 -234 87q-89 89 -89 225zM183 307q0 -89 53 -145q54 -56 139 -56q109 0 198 90q89 91 89 213q0 87 -54 141q-52 54 -138 54
q-111 0 -199 -88t-88 -209zM507 753q-60 0 -98.5 28.5t-38.5 77.5q0 12 5 34h90q-4 -11 -4 -26q0 -45 48 -45q27 0 47.5 18.5t25.5 52.5h90q-11 -69 -55.5 -104.5t-109.5 -35.5z" />
    <glyph glyph-name="obreve" unicode="&#x14f;" horiz-adv-x="633" 
d="M25 214q0 130 96 218q97 90 220 90q111 0 181 -63q70 -61 70 -162q0 -130 -97 -220q-97 -89 -219 -89q-110 0 -181 62q-70 63 -70 164zM154 220q0 -56 34.5 -90t89.5 -34q72 0 128 55q57 55 57 138q0 56 -35 90.5t-89 34.5q-71 0 -128 -57q-57 -55 -57 -137zM378 570
q-60 0 -98.5 28.5t-38.5 77.5q0 12 5 34h90q-4 -11 -4 -26q0 -45 48 -45q27 0 47.5 18.5t25.5 52.5h90q-11 -69 -55.5 -104.5t-109.5 -35.5z" />
    <glyph glyph-name="Ohungarumlaut" unicode="&#x150;" horiz-adv-x="822" 
d="M51 300q0 111 59 209q61 99 157 155q97 58 204 58q145 0 234 -86q90 -86 90 -219q0 -113 -61 -213q-59 -99 -157 -158q-97 -58 -203 -58q-146 0 -234 87q-89 89 -89 225zM183 307q0 -89 53 -145q54 -56 139 -56q109 0 198 90q89 91 89 213q0 87 -54 141q-52 54 -138 54
q-111 0 -199 -88t-88 -209zM623 757h-102l103 136h130zM455 757h-110l99 136h113z" />
    <glyph glyph-name="ohungarumlaut" unicode="&#x151;" horiz-adv-x="633" 
d="M25 214q0 130 96 218q97 90 220 90q111 0 181 -63q70 -61 70 -162q0 -130 -97 -220q-97 -89 -219 -89q-110 0 -181 62q-70 63 -70 164zM154 220q0 -56 34.5 -90t89.5 -34q72 0 128 55q57 55 57 138q0 56 -35 90.5t-89 34.5q-71 0 -128 -57q-57 -55 -57 -137zM493 574
h-102l103 136h130zM325 574h-110l99 136h113z" />
    <glyph glyph-name="OE" unicode="&#x152;" horiz-adv-x="968" 
d="M50 298q0 112 60 209q61 99 157 154q97 57 205 57q43 0 83 -4q41 -4 68 -4h370l-22 -111h-296l-36 -186h239l-22 -111h-240l-36 -191h313l-22 -111h-373q-22 0 -58 -4q-45 -5 -70 -5q-142 0 -231 86q-89 87 -89 221zM182 300q0 -86 54 -141q54 -54 143 -54q27 0 73 8
l94 484q-31 7 -70 7q-117 0 -206 -90q-88 -89 -88 -214z" />
    <glyph glyph-name="oe" unicode="&#x153;" horiz-adv-x="991" 
d="M25 214q0 130 96 218q97 90 220 90q134 0 199 -105h2q84 105 210 105q98 0 151 -52t53 -141q0 -45 -17 -98h-352q-1 -19 0 -39q6 -46 39.5 -71t85.5 -25q75 0 158 56l34 -97q-36 -28 -90 -47q-57 -20 -109 -20q-145 0 -204 107h-2q-43 -50 -102 -78.5t-121 -28.5
q-110 0 -181 62q-70 63 -70 164zM606 318h223q2 10 2 27q0 37 -22 58t-59 21q-48 0 -86.5 -28.5t-57.5 -77.5zM154 220q0 -56 34.5 -90t89.5 -34q72 0 128 55q57 55 57 138q0 56 -35 90.5t-89 34.5q-71 0 -128 -57q-57 -55 -57 -137z" />
    <glyph glyph-name="Racute" unicode="&#x154;" horiz-adv-x="636" 
d="M158 0h-129l138 710h251q62 0 102 -18q96 -42 96 -154q0 -78 -43 -145q-41 -66 -118 -92v-2q6 -11 15 -36l95 -263h-138l-89 265h-129zM274 599l-43 -222h114q61 0 100 38t39 101q0 40 -24.5 61.5t-68.5 21.5h-117zM450 757h-107l103 136h136z" />
    <glyph glyph-name="racute" unicode="&#x155;" horiz-adv-x="397" 
d="M138 0h-127l99 510h122l-17 -88l-10 -37h2q25 54 76 93q49 39 105 39l30 -2l-24 -125q-26 2 -30 2q-60 0 -117 -60q-56 -59 -74 -151zM339 574h-107l103 136h136z" />
    <glyph glyph-name="Rcommaaccent" unicode="&#x156;" horiz-adv-x="636" 
d="M158 0h-129l138 710h251q62 0 102 -18q96 -42 96 -154q0 -78 -43 -145q-41 -66 -118 -92v-2q6 -11 15 -36l95 -263h-138l-89 265h-129zM274 599l-43 -222h114q61 0 100 38t39 101q0 40 -24.5 61.5t-68.5 21.5h-117zM221 -55h105v-16q0 -64 -49 -135h-93q40 71 40 122
q0 12 -3 29z" />
    <glyph glyph-name="rcommaaccent" unicode="&#x157;" horiz-adv-x="397" 
d="M138 0h-127l99 510h122l-17 -88l-10 -37h2q25 54 76 93q49 39 105 39l30 -2l-24 -125q-26 2 -30 2q-60 0 -117 -60q-56 -59 -74 -151zM17 -55h105v-16q0 -64 -49 -135h-93q40 71 40 122q0 12 -3 29z" />
    <glyph glyph-name="Rcaron" unicode="&#x158;" horiz-adv-x="636" 
d="M158 0h-129l138 710h251q62 0 102 -18q96 -42 96 -154q0 -78 -43 -145q-41 -66 -118 -92v-2q6 -11 15 -36l95 -263h-138l-89 265h-129zM274 599l-43 -222h114q61 0 100 38t39 101q0 40 -24.5 61.5t-68.5 21.5h-117zM468 757h-127l-65 136h100l34 -81h2l66 81h109z" />
    <glyph glyph-name="rcaron" unicode="&#x159;" horiz-adv-x="397" 
d="M138 0h-127l99 510h122l-17 -88l-10 -37h2q25 54 76 93q49 39 105 39l30 -2l-24 -125q-26 2 -30 2q-60 0 -117 -60q-56 -59 -74 -151zM357 574h-127l-65 136h100l34 -81h2l66 81h109z" />
    <glyph glyph-name="Sacute" unicode="&#x15a;" horiz-adv-x="561" 
d="M0 85l78 91q71 -69 170 -69q51 0 87 26t36 70q0 17 -7 30.5t-23 26t-29 20.5t-40 22t-40 22q-34 21 -66 42q-32 23 -52 61t-20 82q0 97 76 155t180 58q66 0 124 -21.5t95 -56.5l-71 -95q-25 21 -65.5 37.5t-84.5 16.5q-48 0 -86 -25q-39 -24 -39 -68q0 -25 20.5 -46.5
t51.5 -36t67 -35t67 -43t51.5 -60t20.5 -85.5q0 -93 -73 -154q-73 -62 -182 -62q-76 0 -145 29q-68 30 -101 68zM421 757h-107l103 136h136z" />
    <glyph glyph-name="sacute" unicode="&#x15b;" horiz-adv-x="455" 
d="M-11 59l62 86q23 -23 60.5 -37.5t75.5 -14.5t61 14.5t23 40.5q0 35 -76 63q-28 11 -47.5 21t-42.5 28t-35 44t-12 59q0 71 59 115q61 44 146 44q101 0 173 -57l-54 -88q-44 40 -122 40q-37 0 -60 -14t-23 -40q0 -32 75 -63q29 -11 49 -21t43 -27.5t35 -44t12 -60.5
q0 -71 -56 -115t-144 -44q-119 0 -202 71zM330 574h-107l103 136h136z" />
    <glyph glyph-name="Scircumflex" unicode="&#x15c;" horiz-adv-x="561" 
d="M0 85l78 91q71 -69 170 -69q51 0 87 26t36 70q0 17 -7 30.5t-23 26t-29 20.5t-40 22t-40 22q-34 21 -66 42q-32 23 -52 61t-20 82q0 97 76 155t180 58q66 0 124 -21.5t95 -56.5l-71 -95q-25 21 -65.5 37.5t-84.5 16.5q-48 0 -86 -25q-39 -24 -39 -68q0 -25 20.5 -46.5
t51.5 -36t67 -35t67 -43t51.5 -60t20.5 -85.5q0 -93 -73 -154q-73 -62 -182 -62q-76 0 -145 29q-68 30 -101 68zM320 757h-109l119 136h127l65 -136h-100l-34 81h-2z" />
    <glyph glyph-name="scircumflex" unicode="&#x15d;" horiz-adv-x="455" 
d="M-11 59l62 86q23 -23 60.5 -37.5t75.5 -14.5t61 14.5t23 40.5q0 35 -76 63q-28 11 -47.5 21t-42.5 28t-35 44t-12 59q0 71 59 115q61 44 146 44q101 0 173 -57l-54 -88q-44 40 -122 40q-37 0 -60 -14t-23 -40q0 -32 75 -63q29 -11 49 -21t43 -27.5t35 -44t12 -60.5
q0 -71 -56 -115t-144 -44q-119 0 -202 71zM229 574h-109l119 136h127l65 -136h-100l-34 81h-2z" />
    <glyph glyph-name="Scedilla" unicode="&#x15e;" horiz-adv-x="562" 
d="M156 -86l37 78q-60 9 -112.5 35t-79.5 58l78 91q71 -69 170 -69q51 0 87 26t36 70q0 17 -7 30.5t-23 26t-29 20.5t-40 22t-40 22q-35 21 -66 42q-32 23 -52 61t-20 82q0 97 76 155t180 58q66 0 124 -21.5t95 -56.5l-71 -95q-25 21 -65.5 37.5t-84.5 16.5q-48 0 -86 -25
q-39 -24 -39 -68q0 -25 20.5 -46.5t51.5 -36t67 -35t67 -43t51.5 -60t20.5 -85.5q0 -91 -70 -152t-177 -64l-13 -32q25 -4 43 -22t18 -44q0 -50 -38 -74q-37 -24 -84 -24q-35 0 -65 8l13 68q13 -7 42 -7q50 0 50 32q0 23 -43 23h-3.5t-5 -0.5t-6.5 -1t-7 -0.5z" />
    <glyph glyph-name="scedilla" unicode="&#x15f;" horiz-adv-x="456" 
d="M95 -86l38 79q-84 13 -144 66l62 86q23 -23 60.5 -37.5t75.5 -14.5t61 14.5t23 40.5q0 35 -76 63q-28 11 -47.5 21t-42.5 28t-35 44t-12 59q0 71 59 115q61 44 146 44q101 0 173 -57l-54 -88q-44 40 -122 40q-37 0 -60 -14t-23 -40q0 -32 75 -63q29 -11 49 -21t43 -27.5
t35 -44t12 -60.5q0 -70 -54.5 -113.5t-142.5 -45.5l-13 -32q25 -4 43 -22t18 -44q0 -50 -38 -74t-84 -24q-35 0 -65 8l13 68q13 -7 42 -7q50 0 50 32q0 23 -43 23h-3.5t-5 -0.5t-6.5 -1t-7 -0.5z" />
    <glyph glyph-name="Scaron" unicode="&#x160;" horiz-adv-x="561" 
d="M0 85l78 91q71 -69 170 -69q51 0 87 26t36 70q0 17 -7 30.5t-23 26t-29 20.5t-40 22t-40 22q-34 21 -66 42q-32 23 -52 61t-20 82q0 97 76 155t180 58q66 0 124 -21.5t95 -56.5l-71 -95q-25 21 -65.5 37.5t-84.5 16.5q-48 0 -86 -25q-39 -24 -39 -68q0 -25 20.5 -46.5
t51.5 -36t67 -35t67 -43t51.5 -60t20.5 -85.5q0 -93 -73 -154q-73 -62 -182 -62q-76 0 -145 29q-68 30 -101 68zM439 757h-127l-65 136h100l34 -81h2l66 81h109z" />
    <glyph glyph-name="scaron" unicode="&#x161;" horiz-adv-x="455" 
d="M-11 59l62 86q23 -23 60.5 -37.5t75.5 -14.5t61 14.5t23 40.5q0 35 -76 63q-28 11 -47.5 21t-42.5 28t-35 44t-12 59q0 71 59 115q61 44 146 44q101 0 173 -57l-54 -88q-44 40 -122 40q-37 0 -60 -14t-23 -40q0 -32 75 -63q29 -11 49 -21t43 -27.5t35 -44t12 -60.5
q0 -71 -56 -115t-144 -44q-119 0 -202 71zM348 574h-127l-65 136h100l34 -81h2l66 81h109z" />
    <glyph glyph-name="Tcommaaccent" unicode="&#x162;" horiz-adv-x="618" 
d="M217 0h-31l117 599h-232l21 111h593l-22 -111h-232l-116 -599h-34l-19 -44q25 -4 43 -22t18 -44q0 -50 -38 -74q-37 -24 -84 -24q-35 0 -65 8l13 68q13 -7 42 -7q50 0 50 32q0 23 -43 23l-22 -2z" />
    <glyph glyph-name="tcommaaccent" unicode="&#x163;" horiz-adv-x="368" 
d="M82 -86l50 106q-68 39 -68 130q0 22 6 47l40 205h-65l19 101h69l29 146h122l-29 -146h117l-19 -101h-117l-37 -192q-3 -19 -3 -35q0 -68 80 -68q2 0 5.5 0.5t10 1t12.5 0.5l-22 -111q-30 -3 -37 -3q-25 0 -58 5l-19 -44q25 -4 43 -22t18 -44q0 -50 -38 -74
q-37 -24 -84 -24q-35 0 -65 8l13 68q13 -7 42 -7q50 0 50 32q0 23 -43 23z" />
    <glyph glyph-name="Tcaron" unicode="&#x164;" horiz-adv-x="618" 
d="M315 0h-129l117 599h-232l21 111h593l-22 -111h-232zM464 757h-127l-65 136h100l34 -81h2l66 81h109z" />
    <glyph glyph-name="tcaron" unicode="&#x165;" horiz-adv-x="368" 
d="M353 709h105v-15q0 -62 -49 -130h-93q40 68 40 117q0 13 -3 28zM64 150q0 22 6 47l40 205h-65l19 101h69l29 146h122l-29 -146h117l-19 -101h-117l-37 -192q-3 -19 -3 -35q0 -68 80 -68q2 0 5.5 0.5t10 1t12.5 0.5l-22 -111q-30 -3 -37 -3q-78 -2 -128.5 35.5
t-52.5 119.5z" />
    <glyph glyph-name="Tbar" unicode="&#x166;" horiz-adv-x="629" 
d="M320 0h-128l57 295h-151l19 96h150l41 208h-232l22 111h592l-21 -111h-233l-40 -208h156l-19 -96h-156z" />
    <glyph glyph-name="tbar" unicode="&#x167;" horiz-adv-x="371" 
d="M66 150q0 22 6 47l8 42h-66l16 84h66l16 79h-65l19 101h69l29 146h122l-29 -146h117l-19 -101h-117l-16 -79h117l-16 -84h-116q-10 -46 -10 -67q2 -65 81 -65l28 2l-22 -111q-20 -3 -37 -3q-78 -2 -128.5 35.5t-52.5 119.5z" />
    <glyph glyph-name="Utilde" unicode="&#x168;" horiz-adv-x="729" 
d="M66 202q0 28 6 58l88 450h128l-88 -454q-4 -15 -4 -37q0 -54 35 -83.5t97 -29.5q73 0 122.5 39.5t63.5 111.5l89 453h128l-90 -460q-23 -121 -108 -191q-86 -71 -209 -71q-112 0 -186 57q-72 57 -72 157zM367 758h-87q26 137 130 137q24 0 44.5 -16.5t36.5 -32.5t28 -16
q35 0 47 62h87q-26 -137 -130 -137q-25 0 -44.5 16.5t-35 32.5t-30.5 16q-32 0 -46 -62z" />
    <glyph glyph-name="utilde" unicode="&#x169;" horiz-adv-x="606" 
d="M35 127q0 25 7 61l62 322h127l-58 -298q-5 -33 -5 -47q0 -61 65 -61q63 0 112 52t63 124l44 230h127l-99 -510h-123l9 46l13 49h-2q-25 -42 -76 -74q-53 -33 -114 -33q-71 0 -111.5 34.5t-40.5 104.5zM267 575h-87q26 137 130 137q24 0 44.5 -16t36.5 -32.5t28 -16.5
q35 0 47 62h87q-26 -137 -130 -137q-29 0 -63 32.5t-47 32.5q-32 0 -46 -62z" />
    <glyph glyph-name="Umacron" unicode="&#x16a;" horiz-adv-x="729" 
d="M66 202q0 28 6 58l88 450h128l-88 -454q-4 -15 -4 -37q0 -54 35 -83.5t97 -29.5q73 0 122.5 39.5t63.5 111.5l89 453h128l-90 -460q-23 -121 -108 -191q-86 -71 -209 -71q-112 0 -186 57q-72 57 -72 157zM591 783h-263l17 87h262z" />
    <glyph glyph-name="umacron" unicode="&#x16b;" horiz-adv-x="606" 
d="M35 127q0 25 7 61l62 322h127l-58 -298q-5 -33 -5 -47q0 -61 65 -61q63 0 112 52t63 124l44 230h127l-99 -510h-123l9 46l13 49h-2q-25 -42 -76 -74q-53 -33 -114 -33q-71 0 -111.5 34.5t-40.5 104.5zM490 600h-263l17 87h262z" />
    <glyph glyph-name="Ubreve" unicode="&#x16c;" horiz-adv-x="729" 
d="M66 202q0 28 6 58l88 450h128l-88 -454q-4 -15 -4 -37q0 -54 35 -83.5t97 -29.5q73 0 122.5 39.5t63.5 111.5l89 453h128l-90 -460q-23 -121 -108 -191q-86 -71 -209 -71q-112 0 -186 57q-72 57 -72 157zM462 753q-60 0 -98.5 28.5t-38.5 77.5q0 12 5 34h90
q-4 -11 -4 -26q0 -45 48 -45q27 0 47.5 18.5t25.5 52.5h90q-11 -69 -55.5 -104.5t-109.5 -35.5z" />
    <glyph glyph-name="ubreve" unicode="&#x16d;" horiz-adv-x="606" 
d="M35 127q0 25 7 61l62 322h127l-58 -298q-5 -33 -5 -47q0 -61 65 -61q63 0 112 52t63 124l44 230h127l-99 -510h-123l9 46l13 49h-2q-25 -42 -76 -74q-53 -33 -114 -33q-71 0 -111.5 34.5t-40.5 104.5zM361 570q-60 0 -98.5 28.5t-38.5 77.5q0 12 5 34h90q-4 -11 -4 -26
q0 -45 48 -45q27 0 47.5 18.5t25.5 52.5h90q-11 -69 -55.5 -104.5t-109.5 -35.5z" />
    <glyph glyph-name="Uring" unicode="&#x16e;" horiz-adv-x="729" 
d="M66 202q0 28 6 58l88 450h128l-88 -454q-4 -15 -4 -37q0 -54 35 -83.5t97 -29.5q73 0 122.5 39.5t63.5 111.5l89 453h128l-90 -460q-23 -121 -108 -191q-86 -71 -209 -71q-112 0 -186 57q-72 57 -72 157zM456 745q-38 0 -62 18t-24 50q0 38 32 63.5t73 25.5
q39 0 63 -18.5t24 -51.5q0 -39 -33 -63t-73 -24zM460 789q17 0 29 12t12 30q0 12 -7.5 19.5t-20.5 7.5q-17 0 -29 -12.5t-12 -30.5q0 -26 28 -26z" />
    <glyph glyph-name="uring" unicode="&#x16f;" horiz-adv-x="606" 
d="M35 127q0 25 7 61l62 322h127l-58 -298q-5 -33 -5 -47q0 -61 65 -61q63 0 112 52t63 124l44 230h127l-99 -510h-123l9 46l13 49h-2q-25 -42 -76 -74q-53 -33 -114 -33q-71 0 -111.5 34.5t-40.5 104.5zM356 562q-38 0 -62 18t-24 50q0 38 32 63.5t73 25.5q39 0 63 -18.5
t24 -51.5q0 -39 -33 -63t-73 -24zM360 606q17 0 29 12t12 30q0 12 -7.5 19.5t-20.5 7.5q-17 0 -29 -12.5t-12 -30.5q0 -26 28 -26z" />
    <glyph glyph-name="Uhungarumlaut" unicode="&#x170;" horiz-adv-x="729" 
d="M66 202q0 28 6 58l88 450h128l-88 -454q-4 -15 -4 -37q0 -54 35 -83.5t97 -29.5q73 0 122.5 39.5t63.5 111.5l89 453h128l-90 -460q-23 -121 -108 -191q-86 -71 -209 -71q-112 0 -186 57q-72 57 -72 157zM577 757h-102l103 136h130zM409 757h-110l99 136h113z" />
    <glyph glyph-name="uhungarumlaut" unicode="&#x171;" horiz-adv-x="606" 
d="M35 127q0 25 7 61l62 322h127l-58 -298q-5 -33 -5 -47q0 -61 65 -61q63 0 112 52t63 124l44 230h127l-99 -510h-123l9 46l13 49h-2q-25 -42 -76 -74q-53 -33 -114 -33q-71 0 -111.5 34.5t-40.5 104.5zM477 574h-102l103 136h130zM309 574h-110l99 136h113z" />
    <glyph glyph-name="Uogonek" unicode="&#x172;" horiz-adv-x="729" 
d="M65 202q0 28 6 58l89 450h127l-88 -454q-4 -15 -4 -37q0 -54 35 -83.5t97 -29.5q73 0 122.5 39.5t63.5 111.5l89 453h128l-90 -460q-17 -84 -59.5 -138t-111.5 -93q-107 -62 -107 -102q0 -23 34 -29l11 -2l-48 -94q-13 0 -37 8q-28 8 -48.5 26.5t-20.5 47.5q0 56 71 112
v2q-110 0 -184 55q-75 55 -75 159z" />
    <glyph glyph-name="uogonek" unicode="&#x173;" horiz-adv-x="606" 
d="M35 127q0 25 7 61l62 322h127l-58 -298q-5 -33 -5 -47q0 -61 65 -61q63 0 112 52t63 124l44 230h127l-99 -510q-72 -52 -72 -83q0 -11 9.5 -18.5t22.5 -10.5l10 -2l-49 -94q-12 0 -37 8q-27 7 -47.5 26t-20.5 48q0 66 87 126h-26l9 46l13 49h-2q-25 -42 -76 -74
q-53 -33 -114 -33q-71 0 -111.5 34.5t-40.5 104.5z" />
    <glyph glyph-name="Wcircumflex" unicode="&#x174;" horiz-adv-x="964" 
d="M293 0h-148l-47 710h133l20 -491l-1 -75h2q9 31 29 75l225 491h112l27 -491l-1 -75h2q10 38 27 75l207 491h140l-316 -710h-151l-25 420q-4 62 0 93h-2q-15 -41 -38 -93zM520 757h-109l119 136h127l65 -136h-100l-34 81h-2z" />
    <glyph glyph-name="wcircumflex" unicode="&#x175;" horiz-adv-x="824" 
d="M251 0h-137l-56 510h127l23 -336v-54h2q14 36 22 54l160 335h111l28 -335l1 -54h2q8 27 21 54l155 336h135l-255 -510h-140l-30 292l-2 55h-2q-13 -34 -23 -55zM408 574h-109l119 136h127l65 -136h-100l-34 81h-2z" />
    <glyph glyph-name="Ycircumflex" unicode="&#x176;" horiz-adv-x="605" 
d="M303 0h-128l58 297l-153 413h139l70 -209l25 -95h2l61 95l148 209h155l-320 -418zM334 757h-109l119 136h127l65 -136h-100l-34 81h-2z" />
    <glyph glyph-name="ycircumflex" unicode="&#x177;" horiz-adv-x="550" 
d="M-77 -174l57 89q22 -18 54 -18q60 0 101 65l28 46l-117 502h132l58 -309l6 -65h2q21 49 29 63l161 311h142l-342 -588q-37 -65 -88 -98.5t-106 -33.5q-64 0 -117 36zM277 574h-109l119 136h127l65 -136h-100l-34 81h-2z" />
    <glyph glyph-name="Ydieresis" unicode="&#x178;" horiz-adv-x="605" 
d="M303 0h-128l58 297l-153 413h139l70 -209l25 -95h2l61 95l148 209h155l-320 -418zM531 777h-98l23 116h98zM347 777h-98l23 116h98z" />
    <glyph glyph-name="Zacute" unicode="&#x179;" horiz-adv-x="608" 
d="M510 0h-532l17 83l392 452q32 36 57 57l9 7v2q-26 -2 -53 -2h-290l21 111h513l-16 -82l-395 -453q-34 -40 -57 -57l-9 -7v-2q26 2 53 2h311zM454 757h-107l103 136h136z" />
    <glyph glyph-name="zacute" unicode="&#x17a;" horiz-adv-x="522" 
d="M427 0h-448l12 68l280 287l51 47v2q-18 -2 -46 -2h-211l21 108h434l-13 -69l-281 -287q-6 -7 -46 -42l-7 -5v-2q17 3 49 3h226zM361 574h-107l103 136h136z" />
    <glyph glyph-name="Zdotaccent" unicode="&#x17b;" horiz-adv-x="608" 
d="M510 0h-532l17 83l392 452q32 36 57 57l9 7v2q-26 -2 -53 -2h-290l21 111h513l-16 -82l-395 -453q-34 -40 -57 -57l-9 -7v-2q26 2 53 2h311zM464 782h-109l22 111h109z" />
    <glyph glyph-name="zdotaccent" unicode="&#x17c;" horiz-adv-x="522" 
d="M427 0h-448l12 68l280 287l51 47v2q-18 -2 -46 -2h-211l21 108h434l-13 -69l-281 -287q-6 -7 -46 -42l-7 -5v-2q17 3 49 3h226zM371 599h-109l22 111h109z" />
    <glyph glyph-name="Zcaron" unicode="&#x17d;" horiz-adv-x="608" 
d="M510 0h-532l17 83l392 452q32 36 57 57l9 7v2q-26 -2 -53 -2h-290l21 111h513l-16 -82l-395 -453q-34 -40 -57 -57l-9 -7v-2q26 2 53 2h311zM472 757h-127l-65 136h100l34 -81h2l66 81h109z" />
    <glyph glyph-name="zcaron" unicode="&#x17e;" horiz-adv-x="522" 
d="M427 0h-448l12 68l280 287l51 47v2q-18 -2 -46 -2h-211l21 108h434l-13 -69l-281 -287q-6 -7 -46 -42l-7 -5v-2q17 3 49 3h226zM379 574h-127l-65 136h100l34 -81h2l66 81h109z" />
    <glyph glyph-name="longs" unicode="&#x17f;" horiz-adv-x="312" 
d="M167 0h-127l78 402h-63l20 101h63l4 23q17 93 77 138q29 22 56 31q51 19 103 19l51 -3l-22 -108q-12 2 -25 2q-97 0 -114 -83z" />
    <glyph glyph-name="florin" unicode="&#x192;" horiz-adv-x="586" 
d="M-48 -109l22 106q35 -5 64 -5q98 0 124 92l70 250h-74l20 101h83l31 106q31 112 114 151q64 30 131 30q39 0 98 -9l-22 -107q-38 7 -76 7q-97 0 -123 -93l-24 -85h108l-20 -101h-117l-76 -272q-15 -55 -46 -93.5t-70 -56.5q-64 -29 -131 -29q-27 0 -86 8z" />
    <glyph glyph-name="Scommaaccent" unicode="&#x218;" horiz-adv-x="561" 
d="M0 85l78 91q71 -69 170 -69q51 0 87 26t36 70q0 17 -7 30.5t-23 26t-29 20.5t-40 22t-40 22q-34 21 -66 42q-32 23 -52 61t-20 82q0 97 76 155t180 58q66 0 124 -21.5t95 -56.5l-71 -95q-25 21 -65.5 37.5t-84.5 16.5q-48 0 -86 -25q-39 -24 -39 -68q0 -25 20.5 -46.5
t51.5 -36t67 -35t67 -43t51.5 -60t20.5 -85.5q0 -93 -73 -154q-73 -62 -182 -62q-76 0 -145 29q-68 30 -101 68zM154 -55h105v-16q0 -64 -49 -135h-93q40 71 40 122q0 12 -3 29z" />
    <glyph glyph-name="scommaaccent" unicode="&#x219;" horiz-adv-x="455" 
d="M-11 59l62 86q23 -23 60.5 -37.5t75.5 -14.5t61 14.5t23 40.5q0 35 -76 63q-28 11 -47.5 21t-42.5 28t-35 44t-12 59q0 71 59 115q61 44 146 44q101 0 173 -57l-54 -88q-44 40 -122 40q-37 0 -60 -14t-23 -40q0 -32 75 -63q29 -11 49 -21t43 -27.5t35 -44t12 -60.5
q0 -71 -56 -115t-144 -44q-119 0 -202 71zM105 -55h105v-16q0 -64 -49 -135h-93q40 71 40 122q0 12 -3 29z" />
    <glyph glyph-name="uni021A" unicode="&#x21a;" horiz-adv-x="618" 
d="M315 0h-129l117 599h-232l21 111h593l-22 -111h-232zM184 -55h105v-16q0 -64 -49 -135h-93q40 71 40 122q0 12 -3 29z" />
    <glyph glyph-name="uni021B" unicode="&#x21b;" horiz-adv-x="368" 
d="M64 150q0 22 6 47l40 205h-65l19 101h69l29 146h122l-29 -146h117l-19 -101h-117l-37 -192q-3 -19 -3 -35q0 -68 80 -68q2 0 5.5 0.5t10 1t12.5 0.5l-22 -111q-30 -3 -37 -3q-78 -2 -128.5 35.5t-52.5 119.5zM105 -55h105v-16q0 -64 -49 -135h-93q40 71 40 122
q0 12 -3 29z" />
    <glyph glyph-name="circumflex" unicode="&#x2c6;" horiz-adv-x="494" 
d="M128 757h-109l119 136h127l65 -136h-100l-34 81h-2z" />
    <glyph glyph-name="caron" unicode="&#x2c7;" horiz-adv-x="494" 
d="M247 757h-127l-65 136h100l34 -81h2l66 81h109z" />
    <glyph glyph-name="breve" unicode="&#x2d8;" horiz-adv-x="493" 
d="M186 753q-60 0 -98.5 28.5t-38.5 77.5q0 12 5 34h90q-4 -11 -4 -26q0 -45 48 -45q27 0 47.5 18.5t25.5 52.5h90q-11 -69 -55.5 -104.5t-109.5 -35.5z" />
    <glyph glyph-name="dotaccent" unicode="&#x2d9;" horiz-adv-x="494" 
d="M239 782h-109l22 111h109z" />
    <glyph glyph-name="ring" unicode="&#x2da;" horiz-adv-x="494" 
d="M181 745q-38 0 -62 18t-24 50q0 38 32 63.5t73 25.5q39 0 63 -18.5t24 -51.5q0 -39 -33 -63t-73 -24zM185 789q17 0 29 12t12 30q0 12 -7.5 19.5t-20.5 7.5q-17 0 -29 -12.5t-12 -30.5q0 -26 28 -26z" />
    <glyph glyph-name="ogonek" unicode="&#x2db;" horiz-adv-x="494" 
d="M97 -126q0 78 127 151l71 -13l-25 -17q-15 -12 -38 -36q-24 -25 -24 -42q0 -11 9.5 -18.5t22.5 -10.5l10 -2l-48 -94q-12 0 -37 8q-27 7 -47.5 26t-20.5 48z" />
    <glyph glyph-name="tilde" unicode="&#x2dc;" horiz-adv-x="493" 
d="M90 758h-87q26 137 130 137q24 0 44.5 -16.5t36.5 -32.5t28 -16q35 0 47 62h87q-26 -137 -130 -137q-25 0 -44.5 16.5t-35 32.5t-30.5 16q-32 0 -46 -62z" />
    <glyph glyph-name="hungarumlaut" unicode="&#x2dd;" horiz-adv-x="493" 
d="M266 757h-102l103 136h130zM98 757h-110l99 136h113z" />
    <glyph glyph-name="uni0400" unicode="&#x400;" horiz-adv-x="569" 
d="M470 0h-441l139 710h424l-22 -111h-296l-36 -186h239l-22 -111h-239l-37 -191h312zM463 757h-97l-77 136h125z" />
    <glyph glyph-name="uni0401" unicode="&#x401;" horiz-adv-x="569" 
d="M470 0h-441l139 710h424l-22 -111h-296l-36 -186h239l-22 -111h-239l-37 -191h312zM541 777h-98l23 116h98zM357 777h-98l23 116h98z" />
    <glyph glyph-name="uni0402" unicode="&#x402;" horiz-adv-x="743" 
d="M268 0h-129l117 599h-187l22 111h541l-22 -111h-226l-31 -162l-8 -31h2q77 36 168 36q89 0 140.5 -51t51.5 -136q0 -106 -75 -187q-75 -80 -194 -80q-26 0 -54 3l21 108q11 -3 29 -3q61 0 102 41t41 99q0 92 -107 92q-74 0 -147 -40z" />
    <glyph glyph-name="uni0403" unicode="&#x403;" horiz-adv-x="509" 
d="M157 0h-128l138 710h408l-21 -111h-280zM410 757h-107l103 136h136z" />
    <glyph glyph-name="uni0404" unicode="&#x404;" horiz-adv-x="719" 
d="M50 295q0 109 57 207q57 99 157 159q100 61 219 61q75 0 142 -24.5t109 -70.5l-71 -96q-33 34 -83 54t-103 20q-93 0 -166 -55t-106 -142h340l-20 -105h-341v-13q0 -89 53 -137t144 -48q118 0 224 87l56 -96q-56 -49 -137 -78q-81 -30 -160 -30q-144 0 -229 85t-85 222z
" />
    <glyph glyph-name="uni0405" unicode="&#x405;" horiz-adv-x="561" 
d="M0 85l78 91q71 -69 170 -69q51 0 87 26t36 70q0 17 -7 30.5t-23 26t-29 20.5t-40 22t-40 22q-34 21 -66 42q-32 23 -52 61t-20 82q0 97 76 155t180 58q66 0 124 -21.5t95 -56.5l-71 -95q-25 21 -65.5 37.5t-84.5 16.5q-48 0 -86 -25q-39 -24 -39 -68q0 -25 20.5 -46.5
t51.5 -36t67 -35t67 -43t51.5 -60t20.5 -85.5q0 -93 -73 -154q-73 -62 -182 -62q-76 0 -145 29q-68 30 -101 68z" />
    <glyph glyph-name="uni0406" unicode="&#x406;" horiz-adv-x="302" 
d="M157 0h-128l138 710h129z" />
    <glyph glyph-name="uni0407" unicode="&#x407;" horiz-adv-x="302" 
d="M157 0h-128l138 710h129zM386 777h-98l23 116h98zM202 777h-98l23 116h98z" />
    <glyph glyph-name="uni0408" unicode="&#x408;" horiz-adv-x="543" 
d="M1 164q0 24 5 52l6 35h129l-6 -32q-4 -23 -4 -37q0 -76 75 -76q42 0 72 27t39 79l75 387h-182l22 111h310l-98 -509q-21 -106 -88 -160q-68 -53 -153 -53t-144 45q-58 46 -58 131z" />
    <glyph glyph-name="uni0409" unicode="&#x409;" horiz-adv-x="973" 
d="M-37 -6l23 118q78 7 130 94q51 83 89 277l45 227h422l-54 -279h120q89 0 144 -53q55 -52 55 -137q0 -98 -75 -170q-76 -71 -185 -71h-272l117 599h-164l-22 -115q-38 -189 -91 -298q-91 -189 -282 -192zM596 320l-41 -209h111q57 0 98 35q42 36 42 91q0 40 -26.5 61.5
t-74.5 21.5h-109z" />
    <glyph glyph-name="uni040A" unicode="&#x40a;" horiz-adv-x="1020" 
d="M157 0h-128l138 710h129l-56 -282h295l56 282h127l-54 -282h122q87 0 143 -53q55 -52 55 -136q0 -99 -75 -169q-74 -70 -187 -70h-270l62 317h-295zM643 317l-41 -206h110q57 0 98 34q42 35 42 87q0 41 -26.5 63t-74.5 22h-108z" />
    <glyph glyph-name="uni040B" unicode="&#x40b;" horiz-adv-x="741" 
d="M267 0h-128l117 599h-187l22 111h540l-21 -111h-226l-32 -162l-9 -34h2q84 39 176 39q85 0 128.5 -42t43.5 -118q0 -32 -6 -66l-43 -216h-131l40 203q5 28 5 44q0 79 -93 79q-77 0 -142 -39z" />
    <glyph glyph-name="uni040C" unicode="&#x40c;" horiz-adv-x="642" 
d="M157 0h-128l138 710h129l-57 -289h88l226 289h150l-275 -344v-2l140 -364h-137l-113 310h-100zM474 757h-107l103 136h136z" />
    <glyph glyph-name="uni040D" unicode="&#x40d;" horiz-adv-x="754" 
d="M157 0h-128l138 710h129l-80 -409l-28 -109h2q51 73 82 111l347 407h128l-138 -710h-128l79 408l27 109h-2q-54 -78 -80 -110zM524 757h-97l-77 136h125z" />
    <glyph glyph-name="uni040E" unicode="&#x40e;" horiz-adv-x="612" 
d="M15 38l64 92q34 -31 81 -31t84 64l-171 547h133l91 -317l23 -95h2q18 41 47 94l173 318h144l-326 -561q-46 -80 -94 -120.5t-111 -40.5q-76 0 -140 50zM399 742q-66 0 -108 31.5t-42 81.5q0 14 6 38h98q-3 -11 -3 -25q0 -24 14.5 -37.5t40.5 -13.5q72 0 82 76h96
q-12 -75 -61.5 -113t-122.5 -38z" />
    <glyph glyph-name="uni040F" unicode="&#x40f;" horiz-adv-x="738" 
d="M254 0h-225l138 710h129l-117 -599h308l116 599h129l-138 -710h-224l-28 -140h-116z" />
    <glyph glyph-name="uni0410" unicode="&#x410;" horiz-adv-x="653" 
d="M92 0h-138l381 710h146l109 -710h-129l-25 182h-249zM340 477l-101 -190h185l-26 190l-8 110h-2q-26 -64 -48 -110z" />
    <glyph glyph-name="uni0411" unicode="&#x411;" horiz-adv-x="617" 
d="M312 0h-283l138 710h436l-22 -111h-307l-32 -164h131q90 0 143 -49.5t53 -134.5q0 -105 -76 -178t-181 -73zM220 324l-41 -213h122q54 0 95 35q40 36 40 96q0 38 -25 60t-71 22h-120z" />
    <glyph glyph-name="uni0412" unicode="&#x412;" horiz-adv-x="635" 
d="M309 0h-280l138 710h228q67 0 107 -15q49 -17 76 -55.5t27 -90.5q0 -56 -31.5 -103.5t-84.5 -71.5v-2q41 -15 63.5 -51.5t22.5 -86.5q0 -77 -43 -134.5t-116 -82.5q-49 -17 -107 -17zM274 599l-35 -179h125q46 0 78 33q31 32 31 79q0 67 -76 67h-123zM219 316l-40 -205
h138q34 0 59 13q30 16 48.5 46.5t18.5 66.5t-22.5 57.5t-63.5 21.5h-138z" />
    <glyph glyph-name="uni0413" unicode="&#x413;" horiz-adv-x="509" 
d="M157 0h-128l138 710h408l-21 -111h-280z" />
    <glyph glyph-name="uni0414" unicode="&#x414;" horiz-adv-x="744" 
d="M187 111h274l94 488h-190l-10 -53q-20 -109 -64 -231q-43 -122 -104 -204zM43 -140h-118l49 251h74q136 175 186 444l30 155h442l-117 -599h80l-50 -251h-115l28 140h-461z" />
    <glyph glyph-name="uni0415" unicode="&#x415;" horiz-adv-x="569" 
d="M470 0h-441l139 710h424l-22 -111h-296l-36 -186h239l-22 -111h-239l-37 -191h312z" />
    <glyph glyph-name="uni0416" unicode="&#x416;" horiz-adv-x="951" 
d="M110 0h-151l281 380v2l-139 328h133l120 -289h81l56 289h129l-57 -289h79l206 289h155l-259 -348v-2l132 -360h-133l-110 310h-92l-60 -310h-128l60 310h-79z" />
    <glyph glyph-name="uni0417" unicode="&#x417;" horiz-adv-x="555" 
d="M-13 90l75 83q56 -71 148 -71q64 0 107 34q45 34 45 92q0 79 -98 79h-98l20 105h81q51 0 91 33q41 33 41 83q0 38 -23.5 59.5t-69.5 21.5q-74 0 -156 -59l-47 94q100 78 220 78q97 0 154.5 -45.5t57.5 -126.5q0 -62 -36 -110t-97 -72l-1 -2q43 -16 68 -53t25 -88
q0 -104 -85 -171q-84 -66 -195 -66q-69 0 -129.5 27t-97.5 75z" />
    <glyph glyph-name="uni0418" unicode="&#x418;" horiz-adv-x="754" 
d="M157 0h-128l138 710h129l-80 -409l-28 -109h2q51 73 82 111l347 407h128l-138 -710h-128l79 408l27 109h-2q-54 -78 -80 -110z" />
    <glyph glyph-name="uni0419" unicode="&#x419;" horiz-adv-x="754" 
d="M157 0h-128l138 710h129l-80 -409l-28 -109h2q51 73 82 111l347 407h128l-138 -710h-128l79 408l27 109h-2q-54 -78 -80 -110zM471 742q-66 0 -108 31.5t-42 81.5q0 14 6 38h98q-3 -11 -3 -25q0 -24 14.5 -37.5t40.5 -13.5q72 0 82 76h96q-12 -75 -61.5 -113t-122.5 -38z
" />
    <glyph glyph-name="uni041A" unicode="&#x41a;" horiz-adv-x="642" 
d="M157 0h-128l138 710h129l-57 -289h88l226 289h150l-275 -344v-2l140 -364h-137l-113 310h-100z" />
    <glyph glyph-name="uni041B" unicode="&#x41b;" horiz-adv-x="691" 
d="M685 710l-138 -710h-129l117 599h-188l-18 -94q-51 -260 -140 -385q-88 -123 -235 -128l23 118q80 10 135.5 105t93.5 291l40 204h439z" />
    <glyph glyph-name="uni041C" unicode="&#x41c;" horiz-adv-x="863" 
d="M132 0h-129l192 710h138l72 -351l14 -104h2l56 104l208 351h140l-81 -710h-127l49 397l20 110h-2q-32 -63 -60 -110l-168 -275h-114l-62 275l-17 112h-2q-12 -72 -22 -112z" />
    <glyph glyph-name="uni041D" unicode="&#x41d;" horiz-adv-x="755" 
d="M157 0h-128l138 710h129l-59 -301h325l59 301h128l-138 -710h-129l58 298h-325z" />
    <glyph glyph-name="uni041E" unicode="&#x41e;" horiz-adv-x="822" 
d="M51 300q0 111 59 209q61 99 157 155q97 58 204 58q145 0 234 -86q90 -86 90 -219q0 -113 -61 -213q-59 -99 -157 -158q-97 -58 -203 -58q-146 0 -234 87q-89 89 -89 225zM183 307q0 -89 53 -145q54 -56 139 -56q109 0 198 90q89 91 89 213q0 87 -54 141q-52 54 -138 54
q-111 0 -199 -88t-88 -209z" />
    <glyph glyph-name="uni041F" unicode="&#x41f;" horiz-adv-x="748" 
d="M157 0h-128l138 710h575l-139 -710h-128l117 599h-318z" />
    <glyph glyph-name="uni0420" unicode="&#x420;" horiz-adv-x="614" 
d="M157 0h-128l138 710h254q66 0 110 -23q95 -47 95 -167q0 -83 -43.5 -151t-114.5 -101q-54 -23 -107 -23h-156zM274 599l-47 -242h120q43 0 69 15q35 18 56 55t21 83q0 42 -25 65.5t-72 23.5h-122z" />
    <glyph glyph-name="uni0421" unicode="&#x421;" horiz-adv-x="718" 
d="M52 298q0 173 125 298q125 126 294 126q79 0 149 -25t114 -73l-74 -89q-76 69 -185 69q-125 0 -207 -91q-83 -92 -83 -207q0 -88 52 -144q53 -56 144 -56q116 0 225 89l53 -102q-50 -46 -130 -76q-81 -29 -155 -29q-147 0 -235 86q-87 86 -87 224z" />
    <glyph glyph-name="uni0422" unicode="&#x422;" horiz-adv-x="619" 
d="M315 0h-129l117 599h-232l21 111h593l-22 -111h-232z" />
    <glyph glyph-name="uni0423" unicode="&#x423;" horiz-adv-x="612" 
d="M15 38l64 92q34 -31 81 -31t84 64l-171 547h133l91 -317l23 -95h2q18 41 47 94l173 318h144l-326 -561q-46 -80 -94 -120.5t-111 -40.5q-76 0 -140 50z" />
    <glyph glyph-name="uni0424" unicode="&#x424;" horiz-adv-x="845" 
d="M45 331q0 149 109 243q110 95 279 98l16 78h128l-16 -78q121 0 198 -69q76 -67 76 -180q0 -148 -113 -246q-112 -97 -276 -99l-18 -90h-128l18 90q-122 0 -198 69q-75 70 -75 184zM540 563l-73 -376q96 1 167 68q70 66 70 163q0 67 -44 106t-120 39zM176 335
q0 -68 44 -108t119 -40l73 376q-98 -2 -167 -66q-69 -65 -69 -162z" />
    <glyph glyph-name="uni0425" unicode="&#x425;" horiz-adv-x="618" 
d="M101 0h-145l290 365l-145 345h140l66 -171l29 -87h2q29 48 58 86l132 172h151l-284 -354l153 -356h-137l-76 188l-28 83h-2q-29 -46 -58 -82z" />
    <glyph glyph-name="uni0426" unicode="&#x426;" horiz-adv-x="773" 
d="M563 0h-534l138 710h129l-117 -599h308l116 599h129l-117 -599h85l-49 -251h-115z" />
    <glyph glyph-name="uni0427" unicode="&#x427;" horiz-adv-x="656" 
d="M264 264q-92 0 -142 42.5t-50 118.5q0 32 7 61l43 224h131l-39 -204q-5 -22 -5 -42q0 -83 95 -83q83 0 160 47l55 282h131l-138 -710h-131l52 272l9 32h-2q-96 -40 -176 -40z" />
    <glyph glyph-name="uni0428" unicode="&#x428;" horiz-adv-x="1018" 
d="M873 0h-844l138 710h129l-117 -599h229l117 599h128l-116 -599h229l117 599h128z" />
    <glyph glyph-name="uni0429" unicode="&#x429;" horiz-adv-x="1054" 
d="M846 0h-817l138 710h129l-117 -599h230l116 599h128l-116 -599h230l116 599h128l-116 -599h88l-49 -251h-116z" />
    <glyph glyph-name="uni042A" unicode="&#x42a;" horiz-adv-x="702" 
d="M402 0h-275l117 599h-182l21 111h311l-49 -249h134q87 0 137.5 -51.5t50.5 -140.5q0 -110 -77 -190q-76 -79 -188 -79zM324 350l-47 -239h119q60 0 100 42q40 43 40 108q0 41 -25.5 65t-70.5 24h-116z" />
    <glyph glyph-name="uni042B" unicode="&#x42b;" horiz-adv-x="877" 
d="M732 0h-128l138 710h128zM297 0h-268l138 710h129l-49 -249h127q87 0 137.5 -51.5t50.5 -140.5q0 -110 -77 -190q-76 -79 -188 -79zM225 350l-46 -239h112q59 0 100 42q40 43 40 108q0 41 -25.5 65t-70.5 24h-110z" />
    <glyph glyph-name="uni042C" unicode="&#x42c;" horiz-adv-x="604" 
d="M304 0h-275l138 710h129l-49 -249h134q87 0 137.5 -51.5t50.5 -140.5q0 -110 -77 -190q-76 -79 -188 -79zM225 350l-46 -239h119q60 0 100 42q40 43 40 108q0 41 -25.5 65t-70.5 24h-117z" />
    <glyph glyph-name="uni042D" unicode="&#x42d;" horiz-adv-x="718" 
d="M538 303h-342l20 105h342v5q0 90 -51 141t-141 51q-112 0 -213 -78l-56 95q124 100 276 100q149 0 233 -85q85 -85 85 -218q0 -112 -58 -212q-59 -99 -159 -159t-215 -60q-77 0 -148.5 28t-118.5 81l73 87q33 -37 85.5 -58t110.5 -21q97 0 170 55q75 56 107 143z" />
    <glyph glyph-name="uni042E" unicode="&#x42e;" horiz-adv-x="1085" 
d="M157 0h-128l138 710h129l-59 -301h105q37 132 152 223q114 90 247 90q140 0 228 -86q88 -85 88 -219q0 -83 -34.5 -163t-93.5 -139q-58 -58 -133.5 -92.5t-151.5 -34.5q-142 0 -229 87q-87 86 -88 223h-112zM460 307q0 -89 51 -145t133 -56q108 0 194 90q86 91 86 213
q0 87 -51 140q-51 54 -133 54q-109 0 -194 -88q-86 -88 -86 -208z" />
    <glyph glyph-name="uni042F" unicode="&#x42f;" horiz-adv-x="640" 
d="M113 0h-151l199 250l35 40v2q-93 48 -93 160q0 71 30.5 128t85.5 89q65 41 162 41h253l-138 -710h-129l52 265h-101zM327 373h113l44 226h-91q-66 0 -98 -23q-62 -35 -62 -113q0 -44 24.5 -67t69.5 -23z" />
    <glyph glyph-name="uni0430" unicode="&#x430;" horiz-adv-x="533" 
d="M-3 120q0 57 32 98.5t84.5 62t106 30t110.5 9.5h19q3 16 3 32q0 65 -82 65q-70 0 -150 -48l-30 98q35 22 89 37q59 18 113 18q80 0 133 -37q54 -37 54 -118q0 -17 -5 -52l-61 -315h-117l8 43l10 37h-2q-21 -34 -66 -63q-44 -29 -100 -29q-62 0 -106 35q-43 36 -43 97z
M122 140q0 -25 17 -40t50 -15q47 0 89 42q42 43 52 92l3 14h-22q-60 0 -115 -15q-34 -8 -54 -28.5t-20 -49.5z" />
    <glyph glyph-name="uni0431" unicode="&#x431;" horiz-adv-x="600" 
d="M38 229q0 140 66 247q39 69 101.5 116t159.5 79l192 69l26 -103l-213 -74q-81 -30 -122 -67.5t-58 -99.5h2q67 70 166 70q89 0 140.5 -52t51.5 -140q0 -115 -83 -201q-82 -85 -210 -85q-106 0 -162.5 64t-56.5 177zM163 200q0 -48 29 -77.5t75 -29.5q62 0 109 50
q46 49 46 117q0 49 -28.5 77t-74.5 28q-63 0 -110 -50q-46 -49 -46 -115z" />
    <glyph glyph-name="uni0432" unicode="&#x432;" horiz-adv-x="540" 
d="M259 0h-248l99 510h232q72 0 112.5 -30t40.5 -84q0 -43 -23.5 -77.5t-67.5 -52.5v-1q33 -11 51.5 -39.5t18.5 -64.5q0 -74 -65 -118q-64 -43 -150 -43zM221 427l-25 -127h83q37 0 63 22t26 57q0 48 -66 48h-81zM180 221l-27 -137h93q41 0 70.5 22.5t29.5 60.5
q0 54 -73 54h-93z" />
    <glyph glyph-name="uni0433" unicode="&#x433;" horiz-adv-x="424" 
d="M137 0h-126l99 510h335l-21 -108h-208z" />
    <glyph glyph-name="uni0434" unicode="&#x434;" horiz-adv-x="620" 
d="M169 102h187l59 306h-129l-4 -24q-41 -192 -113 -282zM51 -120h-118l43 222h58q92 101 130 291l22 117h375l-79 -408h73l-44 -222h-114l23 120h-346z" />
    <glyph glyph-name="uni0435" unicode="&#x435;" horiz-adv-x="559" 
d="M26 207q0 131 84 223q86 92 211 92q98 0 151 -52t53 -141q0 -36 -17 -98h-352q-2 -22 -2 -24q0 -44 34 -78q34 -33 93 -33q78 0 158 56l34 -97q-32 -26 -89 -47q-57 -20 -110 -20q-115 0 -182 62q-66 61 -66 157zM174 318h224q2 10 2 22q0 41 -22 63.5t-59 22.5
q-49 0 -87.5 -29t-57.5 -79z" />
    <glyph glyph-name="uni0436" unicode="&#x436;" horiz-adv-x="779" 
d="M98 0h-139l200 269v2l-91 239h124l76 -198h62l38 198h119l-38 -198h60l146 198h140l-195 -258v-2l107 -250h-132l-82 205h-65l-40 -205h-119l40 205h-63z" />
    <glyph glyph-name="uni0437" unicode="&#x437;" horiz-adv-x="457" 
d="M-21 60l59 81q56 -55 125 -55q42 0 71.5 22.5t29.5 60.5q0 49 -72 49h-64l17 88h55q39 0 66 19t27 53q0 48 -70 48q-57 0 -126 -42l-34 82q80 56 188 56q78 0 123.5 -34.5t45.5 -92.5q0 -91 -94 -130v-2q65 -33 65 -104q0 -79 -64 -125t-154 -46q-54 0 -106 19.5
t-88 52.5z" />
    <glyph glyph-name="uni0438" unicode="&#x438;" horiz-adv-x="607" 
d="M134 0h-123l99 510h119l-53 -266l-14 -62h2q24 33 51 63l241 265h124l-100 -510h-118l51 265l15 62h-2q-26 -35 -51 -63z" />
    <glyph glyph-name="uni0439" unicode="&#x439;" horiz-adv-x="607" 
d="M134 0h-123l99 510h119l-53 -266l-14 -62h2q24 33 51 63l241 265h124l-100 -510h-118l51 265l15 62h-2q-26 -35 -51 -63zM371 558q-66 0 -108 31.5t-42 81.5q0 14 6 38h98q-3 -11 -3 -25q0 -24 14.5 -37.5t40.5 -13.5q72 0 82 76h96q-12 -75 -61.5 -113t-122.5 -38z" />
    <glyph glyph-name="uni043A" unicode="&#x43a;" horiz-adv-x="548" 
d="M137 0h-126l99 510h127l-39 -195h64l154 195h148l-210 -258v-2l131 -250h-140l-101 207h-66z" />
    <glyph glyph-name="uni043B" unicode="&#x43b;" horiz-adv-x="567" 
d="M-38 -5l21 112q110 18 154 243l31 160h372l-99 -510h-127l79 407h-125l-10 -57q-36 -179 -105.5 -265.5t-190.5 -89.5z" />
    <glyph glyph-name="uni043C" unicode="&#x43c;" horiz-adv-x="742" 
d="M112 0h-122l144 510h141l60 -263l11 -66h2q20 37 36 66l163 263h144l-54 -510h-121l36 276l16 87h-2q-22 -43 -43 -74l-143 -225h-105l-56 224l-15 76h-2l-18 -88z" />
    <glyph glyph-name="uni043D" unicode="&#x43d;" horiz-adv-x="609" 
d="M137 0h-126l99 510h127l-39 -197h219l38 197h127l-100 -510h-126l40 206h-218z" />
    <glyph glyph-name="uni043E" unicode="&#x43e;" horiz-adv-x="633" 
d="M25 214q0 130 96 218q97 90 220 90q111 0 181 -63q70 -61 70 -162q0 -130 -97 -220q-97 -89 -219 -89q-110 0 -181 62q-70 63 -70 164zM154 220q0 -56 34.5 -90t89.5 -34q72 0 128 55q57 55 57 138q0 56 -35 90.5t-89 34.5q-71 0 -128 -57q-57 -55 -57 -137z" />
    <glyph glyph-name="uni043F" unicode="&#x43f;" horiz-adv-x="602" 
d="M137 0h-126l99 510h465l-100 -510h-127l79 402h-211z" />
    <glyph glyph-name="uni0440" unicode="&#x440;" horiz-adv-x="614" 
d="M140 17l-42 -217h-126l138 710h115l-6 -37l-11 -37h2q28 40 72.5 63t95.5 23q90 0 142 -58t52 -157q0 -137 -85 -228q-84 -91 -193 -91q-102 0 -145 75h-2q-1 -11 -7 -46zM179 210q0 -52 26 -83.5t74 -31.5q62 0 113 56q51 57 51 147q0 53 -27 84t-74 31q-65 0 -114 -61
q-49 -59 -49 -142z" />
    <glyph glyph-name="uni0441" unicode="&#x441;" horiz-adv-x="549" 
d="M26 214q0 124 92 216t224 92q128 0 198 -75l-67 -80q-50 47 -125 47q-80 0 -137 -58q-57 -57 -57 -134q0 -56 36 -91t96 -35q80 0 163 65l35 -98q-39 -33 -97.5 -54t-115.5 -21q-114 0 -180 63q-65 63 -65 163z" />
    <glyph glyph-name="uni0442" unicode="&#x442;" horiz-adv-x="499" 
d="M255 0h-127l78 402h-168l21 108h464l-21 -108h-169z" />
    <glyph glyph-name="uni0443" unicode="&#x443;" horiz-adv-x="548" 
d="M-77 -174l57 89q22 -18 54 -18q60 0 101 65l28 46l-117 502h132l58 -309l6 -65h2q21 49 29 63l161 311h142l-342 -588q-37 -65 -88 -98.5t-106 -33.5q-64 0 -117 36z" />
    <glyph glyph-name="uni0444" unicode="&#x444;" horiz-adv-x="754" 
d="M27 219q0 124 94 208q94 85 239 94l35 179h120l-35 -179q101 -5 165 -67q66 -62 66 -163q0 -123 -95 -209q-94 -85 -239 -94l-37 -188h-120l37 188q-100 5 -165 67q-65 65 -65 164zM461 419l-64 -328q77 4 133 62t56 135q0 57 -33.5 91.5t-91.5 39.5zM150 222
q0 -57 33.5 -91.5t93.5 -39.5l63 328q-78 -5 -134 -62q-56 -58 -56 -135z" />
    <glyph glyph-name="uni0445" unicode="&#x445;" horiz-adv-x="518" 
d="M103 0h-146l222 262l-121 248h135l58 -135l12 -34h2q11 19 21 33l106 136h148l-216 -256l124 -254h-132l-66 143l-10 30h-2q-11 -18 -19 -28z" />
    <glyph glyph-name="uni0446" unicode="&#x446;" horiz-adv-x="627" 
d="M426 0h-415l99 510h127l-78 -402h204l78 402h127l-78 -402h72l-44 -228h-115z" />
    <glyph glyph-name="uni0447" unicode="&#x447;" horiz-adv-x="542" 
d="M40 298q0 24 4 41l33 171h125l-27 -137q-5 -28 -5 -37q0 -28 17.5 -44.5t52.5 -16.5q60 0 108 33l40 202h127l-100 -510h-127l35 177l7 26h-2q-58 -31 -133 -31q-74 0 -114.5 33t-40.5 93z" />
    <glyph glyph-name="uni0448" unicode="&#x448;" horiz-adv-x="818" 
d="M691 0h-680l99 510h120l-78 -402h160l78 402h121l-79 -402h160l78 402h121z" />
    <glyph glyph-name="uni0449" unicode="&#x449;" horiz-adv-x="849" 
d="M649 0h-638l99 510h120l-78 -402h160l78 402h121l-79 -402h160l78 402h121l-79 -402h72l-44 -228h-114z" />
    <glyph glyph-name="uni044A" unicode="&#x44a;" horiz-adv-x="580" 
d="M313 0h-231l79 402h-134l21 108h261l-35 -175h94q79 0 122 -37t43 -106q0 -88 -60 -140q-59 -52 -160 -52zM257 249l-31 -162h74q43 0 73 28t30 70q0 64 -73 64h-73z" />
    <glyph glyph-name="uni044B" unicode="&#x44b;" horiz-adv-x="744" 
d="M617 0h-126l99 510h127zM238 0h-227l99 510h127l-35 -175h91q79 0 122 -37t43 -106q0 -87 -59.5 -139.5t-160.5 -52.5zM186 249l-32 -162h71q43 0 73 28t30 70q0 64 -73 64h-69z" />
    <glyph glyph-name="uni044C" unicode="&#x44c;" horiz-adv-x="508" 
d="M241 0h-230l99 510h127l-35 -175h94q165 0 165 -143q0 -87 -59.5 -139.5t-160.5 -52.5zM186 249l-32 -162h74q45 0 74.5 27.5t29.5 70.5q0 64 -73 64h-73z" />
    <glyph glyph-name="uni044D" unicode="&#x44d;" horiz-adv-x="546" 
d="M370 212h-224l17 87h224q-1 60 -38 91t-96 31q-82 0 -147 -56l-48 85q36 33 93 52.5t115 19.5q112 0 175 -64q64 -64 64 -162q0 -124 -95 -216t-231 -92q-56 0 -110.5 20t-85.5 56l54 84q24 -27 63.5 -43t81.5 -16q62 0 113 34t75 89z" />
    <glyph glyph-name="uni044E" unicode="&#x44e;" horiz-adv-x="853" 
d="M137 0h-126l99 510h127l-40 -202h78q31 94 115 154t183 60q103 0 170 -63q68 -62 68 -166q0 -127 -93 -216q-94 -89 -217 -89q-100 0 -168 59q-67 58 -72 158h-83zM390 222q0 -58 31.5 -92t83.5 -34q68 0 122 55q55 55 55 136q0 57 -33 92t-85 35q-68 0 -121 -56
t-53 -136z" />
    <glyph glyph-name="uni044F" unicode="&#x44f;" horiz-adv-x="535" 
d="M108 0h-143l141 166l29 31v2q-34 15 -54.5 49t-20.5 78q0 80 57 132q58 52 146 52h245l-100 -510h-127l34 173h-66zM188 326q0 -65 73 -65h71l33 166h-71q-48 0 -77 -27t-29 -74z" />
    <glyph glyph-name="uni0450" unicode="&#x450;" horiz-adv-x="559" 
d="M26 207q0 131 84 223q86 92 211 92q98 0 151 -52t53 -141q0 -36 -17 -98h-352q-2 -22 -2 -24q0 -44 34 -78q34 -33 93 -33q78 0 158 56l34 -97q-32 -26 -89 -47q-57 -20 -110 -20q-115 0 -182 62q-66 61 -66 157zM174 318h224q2 10 2 22q0 41 -22 63.5t-59 22.5
q-49 0 -87.5 -29t-57.5 -79zM410 574h-97l-77 136h125z" />
    <glyph glyph-name="uni0451" unicode="&#x451;" horiz-adv-x="559" 
d="M26 207q0 131 84 223q86 92 211 92q98 0 151 -52t53 -141q0 -36 -17 -98h-352q-2 -22 -2 -24q0 -44 34 -78q34 -33 93 -33q78 0 158 56l34 -97q-32 -26 -89 -47q-57 -20 -110 -20q-115 0 -182 62q-66 61 -66 157zM174 318h224q2 10 2 22q0 41 -22 63.5t-59 22.5
q-49 0 -87.5 -29t-57.5 -79zM491 594h-98l23 116h98zM307 594h-98l23 116h98z" />
    <glyph glyph-name="uni0452" unicode="&#x452;" horiz-adv-x="613" 
d="M116 541h-61l17 88h61l16 81h127l-16 -81h190l-17 -88h-190l-27 -138l-12 -44h2q21 38 76 71q53 31 114 31q73 0 113 -34.5t40 -104.5q0 -24 -8 -61l-50 -266q-24 -125 -107 -169q-66 -35 -132 -35l-52 3l22 108q18 -2 31 -2q91 0 114 110l44 227q5 32 5 46q0 62 -63 62
q-64 0 -116 -52q-53 -53 -66 -124l-33 -169h-127z" />
    <glyph glyph-name="uni0453" unicode="&#x453;" horiz-adv-x="424" 
d="M137 0h-126l99 510h335l-21 -108h-208zM320 574h-107l103 136h136z" />
    <glyph glyph-name="uni0454" unicode="&#x454;" horiz-adv-x="551" 
d="M25 216q0 122 96 213q97 93 230 93q126 0 188 -71l-60 -84q-23 24 -60 38t-76 14q-60 0 -110 -32t-74 -85h226l-17 -88h-227q1 -61 40.5 -93t102.5 -32q88 0 164 67l39 -93q-36 -31 -101 -54q-64 -21 -123 -21q-110 0 -175 63q-63 65 -63 165z" />
    <glyph glyph-name="uni0455" unicode="&#x455;" horiz-adv-x="455" 
d="M-11 59l62 86q23 -23 60.5 -37.5t75.5 -14.5t61 14.5t23 40.5q0 35 -76 63q-28 11 -47.5 21t-42.5 28t-35 44t-12 59q0 71 59 115q61 44 146 44q101 0 173 -57l-54 -88q-44 40 -122 40q-37 0 -60 -14t-23 -40q0 -32 75 -63q29 -11 49 -21t43 -27.5t35 -44t12 -60.5
q0 -71 -56 -115t-144 -44q-119 0 -202 71z" />
    <glyph glyph-name="uni0456" unicode="&#x456;" horiz-adv-x="263" 
d="M254 597h-127l22 113h127zM137 0h-126l99 510h127z" />
    <glyph glyph-name="uni0457" unicode="&#x457;" horiz-adv-x="263" 
d="M331 594h-98l23 116h98zM147 594h-98l23 116h98zM137 0h-126l99 510h126z" />
    <glyph glyph-name="uni0458" unicode="&#x458;" horiz-adv-x="264" 
d="M253 597h-127l22 113h127zM10 -5l100 515h126l-101 -524q-20 -98 -78 -142q-70 -53 -158 -51q-25 0 -52 3l21 107q14 -2 22 -2q102 0 120 94z" />
    <glyph glyph-name="uni0459" unicode="&#x459;" horiz-adv-x="782" 
d="M-32 -5l20 112q56 7 93 60q39 53 63 177l32 166h339l-37 -185h88q169 0 169 -141q0 -86 -63 -136q-62 -48 -160 -48h-223l79 407h-93l-11 -59q-36 -181 -104 -268q-67 -85 -192 -85zM462 237l-30 -150h76q44 0 74 24t30 64q0 62 -75 62h-75z" />
    <glyph glyph-name="uni045A" unicode="&#x45a;" horiz-adv-x="838" 
d="M137 0h-126l99 510h127l-36 -186h208l36 186h127l-37 -188h85q82 0 126.5 -35.5t44.5 -101.5q0 -86 -61 -135.5t-161 -49.5h-224l44 224h-208zM518 235l-29 -148h76q44 0 74 24.5t30 65.5q0 58 -78 58h-73z" />
    <glyph glyph-name="uni045B" unicode="&#x45b;" horiz-adv-x="613" 
d="M116 541h-61l17 88h61l16 81h127l-16 -81h190l-18 -88h-189l-27 -137l-11 -45h2q22 39 75 71t113 32q74 0 114 -34.5t40 -104.5q0 -26 -7 -61l-50 -262h-127l46 238q5 32 5 47q0 61 -64 61t-116 -52q-53 -53 -66 -124l-32 -170h-127z" />
    <glyph glyph-name="uni045C" unicode="&#x45c;" horiz-adv-x="548" 
d="M137 0h-126l99 510h127l-39 -195h64l154 195h148l-210 -258v-2l131 -250h-140l-101 207h-66zM377 574h-107l103 136h136z" />
    <glyph glyph-name="uni045D" unicode="&#x45d;" horiz-adv-x="607" 
d="M134 0h-123l99 510h119l-53 -266l-14 -62h2q24 33 51 63l241 265h124l-100 -510h-118l51 265l15 62h-2q-26 -35 -51 -63zM425 574h-97l-77 136h125z" />
    <glyph glyph-name="uni045E" unicode="&#x45e;" horiz-adv-x="548" 
d="M-77 -174l57 89q22 -18 54 -18q60 0 101 65l28 46l-117 502h132l58 -309l6 -65h2q21 49 29 63l161 311h142l-342 -588q-37 -65 -88 -98.5t-106 -33.5q-64 0 -117 36zM333 559q-66 0 -108 31.5t-42 81.5q0 14 6 38h98q-3 -10 -3 -25q0 -24 14.5 -37.5t40.5 -13.5
q72 0 82 76h96q-12 -75 -61.5 -113t-122.5 -38z" />
    <glyph glyph-name="uni045F" unicode="&#x45f;" horiz-adv-x="588" 
d="M180 0h-169l99 510h127l-78 -402h197l78 402h127l-99 -510h-168l-23 -120h-115z" />
    <glyph glyph-name="uni0462" unicode="&#x462;" horiz-adv-x="697" 
d="M397 0h-277l104 539h-170l19 99h173l19 94h125l-18 -94h204l-20 -99h-203l-20 -104h131q90 0 142 -51q54 -49 54 -131q0 -101 -77 -178q-77 -75 -186 -75zM311 324l-41 -213h117q56 0 97 36q42 37 42 94q0 39 -26 61t-73 22h-116z" />
    <glyph glyph-name="uni0463" unicode="&#x463;" horiz-adv-x="555" 
d="M288 0h-231l90 458h-122l18 92h121l31 160h127l-31 -160h164l-18 -92h-164l-23 -123h93q82 0 125 -36t43 -107q0 -86 -62 -139t-161 -53zM233 249l-32 -162h78q45 0 74.5 27.5t29.5 71.5q0 63 -74 63h-76z" />
    <glyph glyph-name="uni0472" unicode="&#x472;" horiz-adv-x="822" 
d="M51 300q0 111 59 209q61 99 157 155q97 58 204 58q145 0 234 -86q90 -86 90 -219q0 -113 -61 -213q-59 -99 -157 -158q-97 -58 -203 -58q-146 0 -234 87q-89 89 -89 225zM647 307h-467q0 -91 54 -148q56 -56 141 -56t162 57q77 59 110 147zM470 607q-88 0 -164 -57
q-76 -55 -108 -143h467v2q0 88 -55 143q-54 55 -140 55z" />
    <glyph glyph-name="uni0473" unicode="&#x473;" horiz-adv-x="634" 
d="M26 217q0 127 96 216q98 89 225 89q105 0 175 -63q70 -61 70 -166q0 -128 -97 -216q-98 -89 -224 -89q-105 0 -176 62q-69 63 -69 167zM465 220h-323q1 -64 37 -100.5t97 -36.5t114 37q54 37 75 100zM342 427q-60 0 -112 -36.5t-75 -95.5h321q-3 61 -39.5 96.5
t-94.5 35.5z" />
    <glyph glyph-name="uni0474" unicode="&#x474;" horiz-adv-x="689" 
d="M336 0h-134l-118 710h133l66 -463l7 -104h2q25 61 47 104l205 392q24 44 46 57q23 14 73 14h95l-22 -112h-23q-30 0 -46 -8q-14 -8 -31 -40z" />
    <glyph glyph-name="uni0475" unicode="&#x475;" horiz-adv-x="575" 
d="M288 0h-150l-86 510h128l44 -316l4 -77h2q19 49 33 77l115 222q26 54 56 74t84 20h82l-22 -109h-23q-30 0 -45 -10t-32 -42z" />
    <glyph glyph-name="uni048A" unicode="&#x48a;" horiz-adv-x="804" 
d="M157 0h-128l138 710h129l-80 -409l-28 -109h2q51 73 82 111l347 407h128l-117 -599h121l-14 -70l-114 -181h-92l67 140h-117l79 408l27 109h-2q-54 -78 -80 -110zM465 742q-66 0 -108 31.5t-42 81.5q0 14 6 38h98q-3 -11 -3 -25q0 -24 14.5 -37.5t40.5 -13.5q72 0 82 76
h96q-12 -75 -61.5 -113t-122.5 -38z" />
    <glyph glyph-name="uni048B" unicode="&#x48b;" horiz-adv-x="662" 
d="M134 0h-123l99 510h119l-53 -266l-14 -62h2q24 33 51 63l241 265h124l-79 -403h106l-13 -67l-100 -160h-86l56 120h-102l51 265l15 62h-2q-26 -35 -51 -63zM356 559q-66 0 -108 31.5t-42 81.5q0 14 6 38h98q-3 -10 -3 -25q0 -24 14.5 -37.5t40.5 -13.5q72 0 82 76h96
q-12 -75 -61.5 -113t-122.5 -38z" />
    <glyph glyph-name="uni048C" unicode="&#x48c;" horiz-adv-x="690" 
d="M390 0h-281l109 561h-161l18 98h164l18 91h126l-18 -91h192l-19 -98h-192l-24 -123h136q86 0 140 -54q54 -52 54 -137q0 -101 -76 -174q-74 -73 -186 -73zM301 327l-42 -216h121q55 0 98 37t43 93q0 42 -26.5 64t-74.5 22h-119z" />
    <glyph glyph-name="uni048D" unicode="&#x48d;" horiz-adv-x="560" 
d="M292 0h-231l90 458h-122l18 92h121l31 160h127l-31 -160h164l-18 -92h-164l-23 -123h93q82 0 125 -36t43 -107q0 -86 -62 -139t-161 -53zM237 249l-32 -162h78q45 0 74.5 27.5t29.5 71.5q0 63 -74 63h-76z" />
    <glyph glyph-name="uni048E" unicode="&#x48e;" horiz-adv-x="635" 
d="M157 0h-128l138 710h254q66 0 110 -23q95 -47 95 -167q0 -127 -94 -211l54 -68l-68 -55l-61 77q-47 -18 -96 -18h-156zM391 346l-55 71l68 56l63 -81q39 50 39 118q0 42 -25 65.5t-72 23.5h-135l-48 -255h133q18 0 32 2z" />
    <glyph glyph-name="uni048F" unicode="&#x48f;" horiz-adv-x="629" 
d="M140 17l-42 -217h-126l138 710h115l-6 -37l-11 -37h2q65 86 170 86q89 0 140.5 -58t51.5 -157q0 -140 -88 -232l56 -70l-68 -56l-57 71q-62 -32 -121 -32q-102 0 -145 75h-2q-1 -11 -7 -46zM347 104l-59 75l68 56l59 -74q41 56 41 130q0 57 -28.5 89.5t-78.5 32.5
q-72 0 -121 -61t-49 -141q0 -55 27 -88.5t77 -33.5q34 0 64 15z" />
    <glyph glyph-name="uni0490" unicode="&#x490;" horiz-adv-x="520" 
d="M158 0h-129l138 710h314l20 106h106l-43 -217h-290z" />
    <glyph glyph-name="uni0491" unicode="&#x491;" horiz-adv-x="431" 
d="M138 0h-127l99 510h243l20 102h99l-40 -210h-216z" />
    <glyph glyph-name="uni0492" unicode="&#x492;" horiz-adv-x="521" 
d="M163 0h-129l58 298h-59l18 91h59l63 321h408l-22 -111h-280l-40 -210h157l-17 -91h-159z" />
    <glyph glyph-name="uni0493" unicode="&#x493;" horiz-adv-x="434" 
d="M143 0h-127l38 196h-61l17 88h61l45 226h335l-21 -108h-209l-23 -118h126l-17 -88h-126z" />
    <glyph glyph-name="uni0494" unicode="&#x494;" horiz-adv-x="628" 
d="M158 0h-129l138 710h409l-22 -111h-280l-39 -200q60 24 130 24q101 0 153.5 -57t52.5 -168q0 -98 -39 -187q-37 -88 -118 -144q-80 -57 -185 -50l20 105q86 2 135 82q51 83 51 181q0 62 -26.5 93.5t-88.5 31.5q-44 0 -106 -24z" />
    <glyph glyph-name="uni0495" unicode="&#x495;" horiz-adv-x="519" 
d="M138 0h-127l99 510h347l-20 -102h-220l-26 -137q47 21 102 21q78 0 120 -46t42 -128q0 -97 -56 -185q-55 -89 -153 -141l-56 89q62 34 103 99t41 126q0 84 -84 84q-36 0 -79 -22z" />
    <glyph glyph-name="uni0496" unicode="&#x496;" horiz-adv-x="1000" 
d="M110 0h-151l281 380v2l-139 328h133l120 -289h81l56 289h129l-57 -289h79l206 289h155l-259 -348v-2l91 -249h116l-49 -251h-115l28 140h-72l-110 310h-92l-60 -310h-128l60 310h-79z" />
    <glyph glyph-name="uni0497" unicode="&#x497;" horiz-adv-x="827" 
d="M98 0h-139l200 269v2l-91 239h124l76 -198h62l38 198h119l-38 -198h60l146 198h140l-195 -258v-2l61 -142h111l-44 -228h-113l23 120h-63l-82 205h-65l-40 -205h-119l40 205h-63z" />
    <glyph glyph-name="uni0498" unicode="&#x498;" horiz-adv-x="556" 
d="M-13 90l75 83q56 -71 148 -71q64 0 107 34q45 34 45 92q0 79 -98 79h-98l20 105h81q51 0 91 33q41 33 41 83q0 38 -23.5 59.5t-69.5 21.5q-74 0 -156 -59l-47 94q100 78 220 78q97 0 154.5 -45.5t57.5 -126.5q0 -62 -36 -110t-97 -72l-1 -2q43 -16 68 -53t25 -88
q0 -88 -63 -151q-62 -62 -153 -80l-27 -134h-115l26 133q-114 16 -175 97z" />
    <glyph glyph-name="uni0499" unicode="&#x499;" horiz-adv-x="459" 
d="M-21 60l59 81q56 -55 125 -55q42 0 71.5 22.5t29.5 60.5q0 49 -72 49h-64l17 88h55q39 0 66 19t27 53q0 48 -70 48q-57 0 -126 -42l-34 82q80 56 188 56q78 0 123.5 -34.5t45.5 -92.5q0 -91 -94 -130v-2q65 -33 65 -104q0 -65 -46 -109.5t-120 -56.5l-22 -113h-112
l22 115q-81 15 -134 65z" />
    <glyph glyph-name="uni049A" unicode="&#x49a;" horiz-adv-x="684" 
d="M157 0h-128l138 710h129l-57 -289h88l226 289h150l-275 -344v-2l97 -253h106l-49 -251h-115l27 140h-63l-113 310h-100z" />
    <glyph glyph-name="uni049B" unicode="&#x49b;" horiz-adv-x="592" 
d="M137 0h-126l99 510h127l-39 -195h64l154 195h148l-210 -258v-2l74 -142h109l-44 -228h-114l23 120h-57l-101 207h-66z" />
    <glyph glyph-name="uni049C" unicode="&#x49c;" horiz-adv-x="741" 
d="M157 0h-128l138 710h129l-57 -289h64l22 114h92l-22 -114h41l208 289h152l-268 -357v-2l144 -351h-134l-124 310h-41l-22 -116h-92l22 116h-63z" />
    <glyph glyph-name="uni049D" unicode="&#x49d;" horiz-adv-x="634" 
d="M137 0h-126l99 510h127l-39 -195h45l19 98h88l-19 -98h21l149 195h148l-205 -254v-2l127 -254h-139l-98 207h-24l-19 -100h-88l20 100h-45z" />
    <glyph glyph-name="uni049E" unicode="&#x49e;" horiz-adv-x="648" 
d="M136 521h-78l16 87h79l20 102h129l-20 -102h84l-16 -87h-86l-19 -100h88l226 289h150l-275 -344v-2l140 -364h-137l-113 310h-100l-61 -310h-128z" />
    <glyph glyph-name="uni049F" unicode="&#x49f;" horiz-adv-x="552" 
d="M114 528h-67l17 85h67l19 97h126l-19 -97h101l-17 -85h-101l-38 -198h61l159 180h150l-212 -234v-2l124 -274h-135l-95 223h-72l-44 -223h-127z" />
    <glyph glyph-name="uni04A0" unicode="&#x4a0;" horiz-adv-x="770" 
d="M286 0h-129l117 599h-201l22 111h329l-56 -289h89l223 289h151l-274 -346v-2l140 -362h-137l-115 310h-99z" />
    <glyph glyph-name="uni04A1" unicode="&#x4a1;" horiz-adv-x="620" 
d="M209 0h-127l79 402h-134l21 108h261l-39 -195h64l153 195h148l-209 -258v-2l130 -250h-139l-102 207h-65z" />
    <glyph glyph-name="uni04A2" unicode="&#x4a2;" horiz-adv-x="794" 
d="M158 0h-129l138 710h129l-59 -301h325l59 301h128l-116 -599h104l-49 -251h-116l28 140h-117l57 298h-325z" />
    <glyph glyph-name="uni04A3" unicode="&#x4a3;" horiz-adv-x="651" 
d="M137 0h-126l99 510h127l-39 -197h218l39 197h127l-79 -402h91l-44 -228h-114l23 120h-103l40 206h-218z" />
    <glyph glyph-name="uni04A4" unicode="&#x4a4;" horiz-adv-x="945" 
d="M157 0h-128l138 710h129l-59 -301h307l59 301h408l-22 -111h-279l-117 -599h-128l58 298h-308z" />
    <glyph glyph-name="uni04A5" unicode="&#x4a5;" horiz-adv-x="743" 
d="M137 0h-126l99 510h127l-39 -197h205l38 197h323l-21 -108h-196l-79 -402h-126l40 206h-204z" />
    <glyph glyph-name="uni04A6" unicode="&#x4a6;" horiz-adv-x="1000" 
d="M158 0h-129l138 710h507l-58 -301q60 24 129 24q100 0 152 -58t52 -172q0 -99 -38 -189q-36 -86 -118 -146q-80 -59 -185 -51l20 105q58 0 101 43q45 43 64 102q20 62 20 123q0 66 -26 98t-87 32q-44 0 -106 -24l-58 -296h-128l116 600h-249z" />
    <glyph glyph-name="uni04A7" unicode="&#x4a7;" horiz-adv-x="835" 
d="M138 0h-127l99 510h428l-41 -205q61 23 110 23q78 0 123 -55t45 -149q0 -115 -68 -206q-68 -90 -163 -126l-36 95q63 32 100.5 91t37.5 137q0 50 -22.5 78t-67.5 28q-36 0 -78 -21l-39 -200h-127l78 402h-174z" />
    <glyph glyph-name="uni04A8" unicode="&#x4a8;" horiz-adv-x="940" 
d="M53 302q0 147 85 256q85 110 207 163l51 -115q-87 -38 -149 -116q-63 -78 -63 -184q0 -87 52 -143q52 -57 151 -57q39 0 78 9q-92 95 -92 232q0 145 93 254t227 109q103 0 162 -66q59 -65 59 -168q0 -101 -56 -199q-56 -96 -147 -168q23 -4 62 -4h68l-20 -105h-68
q-93 0 -168 34q-99 -46 -204 -46q-144 0 -236 86t-92 228zM503 345q0 -117 81 -182q87 53 142 134q56 83 56 174q0 57 -26.5 89t-73.5 32q-74 0 -127 -74q-52 -73 -52 -173z" />
    <glyph glyph-name="uni04A9" unicode="&#x4a9;" horiz-adv-x="811" 
d="M29 235q0 98 61 174q61 77 156 112l41 -102q-60 -23 -100 -71.5t-40 -109.5q0 -65 43.5 -107t116.5 -42q37 0 77 9q-78 75 -78 180q0 100 73 172t181 72q89 0 142 -53t53 -131q0 -134 -139 -239q26 -3 53 -3h75l-19 -96h-68q-83 0 -161 30q-98 -42 -193 -42
q-116 0 -195 67t-79 180zM425 281q0 -90 71 -140q64 35 101.5 84.5t37.5 107.5q0 41 -21.5 66t-64.5 25q-55 0 -89 -42q-35 -43 -35 -101z" />
    <glyph glyph-name="uni04AA" unicode="&#x4aa;" horiz-adv-x="718" 
d="M52 298q0 173 125 298q125 126 294 126q79 0 149 -25t114 -73l-74 -89q-76 69 -185 69q-125 0 -207 -91q-83 -92 -83 -207q0 -88 52 -144q53 -56 144 -56q116 0 225 89l53 -102q-46 -41 -115.5 -69.5t-140.5 -34.5l-25 -129h-115l26 137q-111 22 -174 104q-63 81 -63 197
z" />
    <glyph glyph-name="uni04AB" unicode="&#x4ab;" horiz-adv-x="551" 
d="M27 214q0 124 92 216t224 92q127 0 198 -75l-67 -80q-50 47 -125 47q-80 0 -137 -58q-57 -57 -57 -134q0 -56 36 -91t96 -35q80 0 163 65l35 -98q-73 -63 -185 -73l-20 -110h-112l22 118q-78 21 -120.5 78t-42.5 138z" />
    <glyph glyph-name="uni04AC" unicode="&#x4ac;" horiz-adv-x="621" 
d="M303 0h-118l117 599h-232l21 111h593l-22 -111h-232l-95 -488h105l-49 -251h-115z" />
    <glyph glyph-name="uni04AD" unicode="&#x4ad;" horiz-adv-x="506" 
d="M231 0h-103l78 402h-168l22 108h463l-21 -108h-169l-57 -294h89l-44 -228h-113z" />
    <glyph glyph-name="uni04AE" unicode="&#x4ae;" horiz-adv-x="589" 
d="M300 0h-128l58 297l-153 413h139l70 -209l25 -95h2l61 95l148 209h155l-320 -418z" />
    <glyph glyph-name="uni04AF" unicode="&#x4af;" horiz-adv-x="539" 
d="M111 -200l41 214l-101 496h128l50 -291l4 -75h2q14 37 34 75l162 291h139l-292 -496l-42 -214h-125z" />
    <glyph glyph-name="uni04B0" unicode="&#x4b0;" horiz-adv-x="588" 
d="M214 215h-113l18 92h107l-152 403h140l70 -209l25 -95h2q34 57 61 95l151 209h152l-309 -403h117l-18 -92h-122l-42 -215h-129z" />
    <glyph glyph-name="uni04B1" unicode="&#x4b1;" horiz-adv-x="539" 
d="M150 0h-118l18 88h88l-85 422h128l50 -291l4 -75h2q14 37 34 75l160 291h139l-249 -422h90l-17 -88h-119l-38 -200h-126z" />
    <glyph glyph-name="uni04B2" unicode="&#x4b2;" horiz-adv-x="663" 
d="M101 0h-145l290 365l-145 345h140l66 -171l29 -87h2q29 48 58 86l132 172h151l-284 -354l105 -245h111l-49 -251h-115l28 140h-64l-76 188l-28 83h-2q-29 -46 -58 -82z" />
    <glyph glyph-name="uni04B3" unicode="&#x4b3;" horiz-adv-x="555" 
d="M103 0h-146l222 262l-121 248h135l58 -135l12 -34h2q11 19 21 33l106 136h148l-216 -256l71 -146h102l-44 -228h-114l24 120h-47l-66 143l-10 30h-2q-11 -18 -19 -28z" />
    <glyph glyph-name="uni04B4" unicode="&#x4b4;" horiz-adv-x="913" 
d="M712 0h-554l116 599h-201l22 111h531l-22 -111h-202l-94 -488h318l117 599h128l-116 -599h93l-49 -251h-115z" />
    <glyph glyph-name="uni04B5" unicode="&#x4b5;" horiz-adv-x="745" 
d="M548 0h-446l78 402h-140l21 108h406l-21 -108h-140l-57 -294h230l78 402h127l-78 -402h78l-44 -227h-115z" />
    <glyph glyph-name="uni04B6" unicode="&#x4b6;" horiz-adv-x="696" 
d="M264 264q-92 0 -142 42.5t-50 118.5q0 32 7 61l43 224h131l-39 -204q-5 -22 -5 -42q0 -83 95 -83q83 0 160 47l55 282h131l-117 -599h105l-49 -251h-115l28 140h-121l52 272l9 32h-2q-96 -40 -176 -40z" />
    <glyph glyph-name="uni04B7" unicode="&#x4b7;" horiz-adv-x="582" 
d="M40 298q0 24 4 41l33 171h125l-27 -137q-5 -28 -5 -37q0 -28 17.5 -44.5t52.5 -16.5q60 0 108 33l40 202h127l-79 -402h92l-44 -228h-114l24 120h-106l35 177l7 26h-2q-58 -31 -133 -31q-74 0 -114.5 33t-40.5 93z" />
    <glyph glyph-name="uni04B8" unicode="&#x4b8;" horiz-adv-x="681" 
d="M335 167h-92l19 100q-92 2 -141.5 43.5t-49.5 114.5q0 32 7 61l43 224h131l-39 -204q-5 -22 -5 -42q0 -71 77 -82l26 137h92l-26 -131q57 10 112 40l55 282h131l-139 -710h-131l55 278l9 32h-2q-57 -23 -111 -35z" />
    <glyph glyph-name="uni04B9" unicode="&#x4b9;" horiz-adv-x="580" 
d="M276 93h-88l15 79q-78 2 -119.5 36.5t-41.5 99.5q0 16 5 49l30 153h125l-27 -134q-4 -21 -4 -34q0 -53 53 -64l23 118h88l-23 -116q42 9 75 28l40 202h126l-99 -510h-127l35 177l7 26h-1q-24 -12 -75 -23z" />
    <glyph glyph-name="uni04BA" unicode="&#x4ba;" horiz-adv-x="637" 
d="M158 0h-128l137 710h129l-50 -257l-9 -34h2q88 38 175 38q85 0 129 -42t44 -118q0 -31 -6 -65l-46 -232h-131l43 219q5 42 5 43q0 79 -93 79q-77 0 -142 -39z" />
    <glyph glyph-name="uni04BB" unicode="&#x4bb;" horiz-adv-x="612" 
d="M138 0h-127l138 710h127l-48 -246l-11 -45h2q22 39 75 71t113 32q73 0 113.5 -34.5t40.5 -104.5q0 -26 -7 -61l-62 -322h-127l58 298q5 32 5 46q0 62 -64 62t-116 -52q-53 -53 -66 -124z" />
    <glyph glyph-name="uni04BC" unicode="&#x4bc;" horiz-adv-x="889" 
d="M67 480q0 62 44 161h120q-47 -92 -47 -146q0 -62 55 -65q42 126 143 209q103 83 236 83q118 0 184.5 -67.5t66.5 -184.5q0 -62 -24 -140h-492q-11 -93 36 -159q47 -65 146 -65q57 0 116 22.5t98 56.5l53 -102q-37 -32 -113 -64q-72 -31 -166 -31q-143 0 -225 82t-82 219
q0 24 2 42q-68 0 -109.5 39t-41.5 110zM373 430h366q5 30 5 45q0 61 -36 97t-103 36q-82 0 -147 -53q-62 -52 -85 -125z" />
    <glyph glyph-name="uni04BD" unicode="&#x4bd;" horiz-adv-x="693" 
d="M39 357q0 53 32 112h102q-34 -55 -34 -101q0 -44 39 -49q32 91 105 146q75 57 175 57q95 0 147.5 -52t52.5 -140q0 -43 -17 -99h-351q-2 -8 -2 -19q0 -53 33.5 -84.5t93.5 -31.5q78 0 158 56l34 -97q-38 -29 -92.5 -48t-112.5 -19q-106 0 -174 60t-68 166v18
q-59 3 -90 35t-31 90zM308 318h224q2 18 2 22q0 41 -22 63.5t-61 22.5q-48 0 -86 -28.5t-57 -79.5z" />
    <glyph glyph-name="uni04BE" unicode="&#x4be;" horiz-adv-x="890" 
d="M67 480q0 62 44 161h120q-47 -92 -47 -146q0 -62 55 -65q42 126 143 209q103 83 236 83q118 0 184.5 -67.5t66.5 -184.5q0 -62 -24 -140h-492q-11 -93 36 -159q47 -65 146 -65q57 0 116 22.5t98 56.5l53 -102q-37 -31 -106 -61t-155 -33l-25 -129h-115l27 139
q-101 25 -156.5 101.5t-55.5 188.5q0 24 2 42q-68 0 -109.5 39t-41.5 110zM373 430h366q5 30 5 45q0 61 -36 97t-103 36q-82 0 -147 -53q-62 -52 -85 -125z" />
    <glyph glyph-name="uni04BF" unicode="&#x4bf;" horiz-adv-x="695" 
d="M39 357q0 53 32 112h102q-34 -55 -34 -101q0 -44 39 -49q32 91 105 146q75 57 175 57q95 0 147.5 -52t52.5 -140q0 -43 -17 -99h-351q-2 -8 -2 -19q0 -53 33.5 -84.5t93.5 -31.5q78 0 158 56l34 -97q-75 -60 -186 -66l-21 -109h-111l23 121q-71 22 -111.5 77.5
t-40.5 135.5v18q-59 3 -90 35t-31 90zM308 318h224q2 18 2 22q0 41 -22 63.5t-61 22.5q-48 0 -86 -28.5t-57 -79.5z" />
    <glyph glyph-name="uni04C0" unicode="&#x4c0;" horiz-adv-x="302" 
d="M157 0h-128l138 710h129z" />
    <glyph glyph-name="uni04C1" unicode="&#x4c1;" horiz-adv-x="951" 
d="M110 0h-151l281 380v2l-139 328h133l120 -289h81l56 289h129l-57 -289h79l206 289h155l-259 -348v-2l132 -360h-133l-110 310h-92l-60 -310h-128l60 310h-79zM568 742q-66 0 -108 31.5t-42 81.5q0 14 6 38h98q-3 -11 -3 -25q0 -24 14.5 -37.5t40.5 -13.5q72 0 82 76h96
q-12 -75 -61.5 -113t-122.5 -38z" />
    <glyph glyph-name="uni04C2" unicode="&#x4c2;" horiz-adv-x="779" 
d="M98 0h-139l200 269v2l-91 239h124l76 -198h62l38 198h119l-38 -198h60l146 198h140l-195 -258v-2l107 -250h-132l-82 205h-65l-40 -205h-119l40 205h-63zM445 559q-66 0 -108 31.5t-42 81.5q0 14 6 38h98q-3 -10 -3 -25q0 -24 14.5 -37.5t40.5 -13.5q72 0 82 76h96
q-12 -75 -61.5 -113t-122.5 -38z" />
    <glyph glyph-name="uni04C3" unicode="&#x4c3;" horiz-adv-x="660" 
d="M158 0h-129l138 710h129l-56 -289q74 0 90 -1l217 290h150l-245 -321q64 -29 97.5 -87.5t33.5 -135.5q0 -49 -12.5 -99.5t-39 -97t-63.5 -82t-90.5 -55t-115.5 -15.5l21 108q54 0 93 42q72 76 72 199q0 147 -159 147h-70z" />
    <glyph glyph-name="uni04C4" unicode="&#x4c4;" horiz-adv-x="555" 
d="M138 0h-127l99 510h127l-38 -196q31 0 63 -2l154 198h150l-193 -234q101 -53 101 -178q0 -94 -59 -177q-58 -82 -151 -129l-52 89q61 28 102 89q40 59 40 123q0 113 -130 113h-46z" />
    <glyph glyph-name="uni04C5" unicode="&#x4c5;" horiz-adv-x="743" 
d="M537 0h-119l117 599h-188l-18 -94q-51 -260 -140 -385q-88 -123 -235 -128l23 118q80 10 135.5 105t93.5 291l40 204h439l-117 -599h121l-14 -70l-114 -181h-91z" />
    <glyph glyph-name="uni04C6" unicode="&#x4c6;" horiz-adv-x="618" 
d="M-38 -5l21 112q110 18 154 243l31 160h372l-78 -403h98l-12 -67l-100 -160h-87l56 120h-103l79 407h-125l-10 -57q-36 -179 -105.5 -265.5t-190.5 -89.5z" />
    <glyph glyph-name="uni04C7" unicode="&#x4c7;" horiz-adv-x="756" 
d="M158 0h-129l138 710h129l-59 -301h325l59 301h128l-125 -647q-30 -159 -111 -209q-71 -45 -168 -38l22 113q49 -2 79 26q33 30 49 113l45 230h-325z" />
    <glyph glyph-name="uni04C8" unicode="&#x4c8;" horiz-adv-x="609" 
d="M138 0h-127l99 510h127l-38 -197h218l38 197h127l-90 -464q-18 -95 -68 -153q-49 -57 -136 -101l-55 91q61 33 89 65q32 35 45 107l29 151h-218z" />
    <glyph glyph-name="uni04C9" unicode="&#x4c9;" horiz-adv-x="805" 
d="M157 0h-128l138 710h129l-59 -301h325l59 301h128l-117 -599h123l-14 -70l-115 -181h-91l67 140h-120l58 298h-325z" />
    <glyph glyph-name="uni04CA" unicode="&#x4ca;" horiz-adv-x="665" 
d="M137 0h-126l99 510h127l-39 -197h219l38 197h127l-79 -403h109l-12 -67l-100 -160h-86l56 120h-114l40 206h-218z" />
    <glyph glyph-name="uni04CB" unicode="&#x4cb;" horiz-adv-x="656" 
d="M264 264q-92 0 -142 42.5t-50 118.5q0 32 7 61l43 224h131l-39 -204q-5 -22 -5 -42q0 -83 95 -83q83 0 160 47l55 282h131l-138 -710h-120l-28 -140h-115l49 251h104l31 161l9 32h-2q-96 -40 -176 -40z" />
    <glyph glyph-name="uni04CC" unicode="&#x4cc;" horiz-adv-x="540" 
d="M291 -120h-114l39 202h87l21 108l7 26h-2q-58 -31 -133 -31q-74 0 -115 33.5t-41 92.5q0 15 5 40l30 159h125l-24 -124q-5 -28 -5 -37q0 -61 70 -61q57 0 108 33l37 189h127l-99 -510h-100z" />
    <glyph glyph-name="uni04CD" unicode="&#x4cd;" horiz-adv-x="913" 
d="M132 0h-129l192 710h138l72 -351l14 -104h2l56 104l208 351h140l-69 -599h119l-14 -70l-114 -181h-91l67 140h-106l49 397l20 110h-2q-32 -63 -60 -110l-168 -275h-114l-62 275l-17 112h-2q-12 -72 -22 -112z" />
    <glyph glyph-name="uni04CE" unicode="&#x4ce;" horiz-adv-x="799" 
d="M112 0h-122l144 510h141l60 -263l11 -66h2q20 37 36 66l163 263h144l-43 -403h106l-13 -67l-100 -160h-86l56 120h-95l36 276l16 87h-2q-22 -43 -43 -74l-143 -225h-105l-56 224l-15 76h-2l-18 -88z" />
    <glyph glyph-name="uni04CF" unicode="&#x4cf;" horiz-adv-x="266" 
d="M140 0h-128l138 710h129z" />
    <glyph glyph-name="uni04D0" unicode="&#x4d0;" horiz-adv-x="653" 
d="M92 0h-138l381 710h146l109 -710h-129l-25 182h-249zM340 477l-101 -190h185l-26 190l-8 110h-2q-26 -64 -48 -110zM422 742q-66 0 -108 31.5t-42 81.5q0 14 6 38h98q-3 -11 -3 -25q0 -24 14.5 -37.5t40.5 -13.5q72 0 82 76h96q-12 -75 -61.5 -113t-122.5 -38z" />
    <glyph glyph-name="uni04D1" unicode="&#x4d1;" horiz-adv-x="534" 
d="M-3 120q0 57 32 98.5t84.5 62t106 30t110.5 9.5h19q3 16 3 32q0 65 -82 65q-70 0 -150 -48l-30 98q35 22 89 37q59 18 113 18q80 0 133 -37q54 -37 54 -118q0 -17 -5 -52l-61 -315h-117l8 43l10 37h-2q-21 -34 -66 -63q-44 -29 -100 -29q-62 0 -106 35q-43 36 -43 97z
M122 140q0 -25 17 -40t50 -15q47 0 89 42q42 43 52 92l3 14h-22q-60 0 -115 -15q-34 -8 -54 -28.5t-20 -49.5zM332 559q-66 0 -108 31.5t-42 81.5q0 14 6 38h98q-3 -10 -3 -25q0 -24 14.5 -37.5t40.5 -13.5q72 0 82 76h96q-12 -75 -61.5 -113t-122.5 -38z" />
    <glyph glyph-name="uni04D2" unicode="&#x4d2;" horiz-adv-x="653" 
d="M92 0h-138l381 710h146l109 -710h-129l-25 182h-249zM340 477l-101 -190h185l-26 190l-8 110h-2q-26 -64 -48 -110zM562 777h-98l23 116h98zM378 777h-98l23 116h98z" />
    <glyph glyph-name="uni04D3" unicode="&#x4d3;" horiz-adv-x="534" 
d="M-3 120q0 57 32 98.5t84.5 62t106 30t110.5 9.5h19q3 16 3 32q0 65 -82 65q-70 0 -150 -48l-30 98q35 22 89 37q59 18 113 18q80 0 133 -37q54 -37 54 -118q0 -17 -5 -52l-61 -315h-117l8 43l10 37h-2q-21 -34 -66 -63q-44 -29 -100 -29q-62 0 -106 35q-43 36 -43 97z
M122 140q0 -25 17 -40t50 -15q47 0 89 42q42 43 52 92l3 14h-22q-60 0 -115 -15q-34 -8 -54 -28.5t-20 -49.5zM461 594h-98l23 116h98zM277 594h-98l23 116h98z" />
    <glyph glyph-name="uni04D4" unicode="&#x4d4;" horiz-adv-x="914" 
d="M88 0h-142l428 710h565l-22 -111h-296l-36 -186h239l-22 -111h-239l-37 -191h311l-21 -111h-440l59 304h-168zM442 599l-114 -190h127l37 190h-50z" />
    <glyph glyph-name="uni04D5" unicode="&#x4d5;" horiz-adv-x="858" 
d="M-3 118q0 92 76 142q94 60 257 60h18q5 23 5 31q0 66 -83 66q-71 0 -149 -48l-30 98q98 55 201 55q106 0 149 -73h2q76 73 175 73q98 0 151 -52t53 -142q0 -43 -17 -96h-348q-3 -20 0 -37q5 -48 37.5 -73.5t83.5 -25.5q79 0 158 56l34 -97q-32 -26 -89 -47
q-58 -20 -109 -20q-154 0 -212 111h-2q-14 -28 -54 -63q-53 -48 -145 -48q-69 0 -115 34q-47 35 -47 96zM476 320h219q2 10 2 21q0 39 -22.5 61t-58.5 22q-48 0 -84.5 -27.5t-55.5 -76.5zM125 140q0 -24 17.5 -38.5t48.5 -14.5q49 0 89 42q42 44 51 92l2 11h-33
q-58 0 -108 -15q-67 -20 -67 -77z" />
    <glyph glyph-name="uni04D6" unicode="&#x4d6;" horiz-adv-x="569" 
d="M470 0h-441l139 710h424l-22 -111h-296l-36 -186h239l-22 -111h-239l-37 -191h312zM398 742q-66 0 -108 31.5t-42 81.5q0 14 6 38h98q-3 -11 -3 -25q0 -24 14.5 -37.5t40.5 -13.5q72 0 82 76h96q-12 -75 -61.5 -113t-122.5 -38z" />
    <glyph glyph-name="uni04D7" unicode="&#x4d7;" horiz-adv-x="559" 
d="M26 207q0 131 84 223q86 92 211 92q98 0 151 -52t53 -141q0 -36 -17 -98h-352q-2 -22 -2 -24q0 -44 34 -78q34 -33 93 -33q78 0 158 56l34 -97q-32 -26 -89 -47q-57 -20 -110 -20q-115 0 -182 62q-66 61 -66 157zM174 318h224q2 10 2 22q0 41 -22 63.5t-59 22.5
q-49 0 -87.5 -29t-57.5 -79zM351 559q-66 0 -108 31.5t-42 81.5q0 14 6 38h98q-3 -10 -3 -25q0 -24 14.5 -37.5t40.5 -13.5q72 0 82 76h96q-12 -75 -61.5 -113t-122.5 -38z" />
    <glyph glyph-name="uni04D8" unicode="&#x4d8;" horiz-adv-x="727" 
d="M43 250q0 66 26 149h492q3 17 3 28q0 82 -47 129.5t-131 47.5q-49 0 -97 -16q-73 -23 -122 -60l-52 100q13 12 45 30q29 18 100 41t139 23q142 0 220 -85q78 -84 78 -219q0 -159 -102 -291q-49 -64 -124 -101.5t-161 -37.5q-121 0 -194 70t-73 192zM169 240
q0 -67 36 -102.5t107 -35.5q88 0 148.5 53t81.5 144h-367q-6 -25 -6 -59z" />
    <glyph glyph-name="uni04D9" unicode="&#x4d9;" horiz-adv-x="564" 
d="M22 179q0 46 20 112h350q2 6 2 21q0 44 -37 75.5t-93 31.5q-48 0 -96 -18q-47 -18 -65 -33l-35 94q18 14 80 38q57 22 128 22q111 0 178 -62q67 -61 67 -166q0 -124 -85 -215q-84 -91 -213 -91q-95 0 -148 52t-53 139zM139 169q0 -39 24.5 -61t64.5 -22q51 0 94 33t60 86
h-238q-5 -25 -5 -36z" />
    <glyph glyph-name="uni04DA" unicode="&#x4da;" horiz-adv-x="726" 
d="M42 247q0 61 26 145h493q3 33 -1 56q-9 70 -55 113t-121 43q-56 0 -115.5 -22t-101.5 -54l-51 101q37 29 117 62q78 31 167 31q140 0 218 -89q79 -88 79 -220q0 -162 -106 -290q-50 -62 -124.5 -98.5t-156.5 -36.5q-123 0 -196 71q-72 72 -72 188zM168 241
q0 -65 37.5 -102t110.5 -37q81 0 142 53q59 53 82 137h-366q-6 -27 -6 -51zM585 777h-98l23 116h98zM401 777h-98l23 116h98z" />
    <glyph glyph-name="uni04DB" unicode="&#x4db;" horiz-adv-x="564" 
d="M22 179q0 46 20 112h350q2 6 2 21q0 44 -37 75.5t-93 31.5q-48 0 -96 -18q-47 -18 -65 -33l-35 94q18 14 80 38q57 22 128 22q111 0 178 -62q67 -61 67 -166q0 -124 -85 -215q-84 -91 -213 -91q-95 0 -148 52t-53 139zM139 169q0 -39 24.5 -61t64.5 -22q51 0 94 33t60 86
h-238q-5 -25 -5 -36zM465 594h-98l23 116h98zM281 594h-98l23 116h98z" />
    <glyph glyph-name="uni04DC" unicode="&#x4dc;" horiz-adv-x="951" 
d="M110 0h-151l281 380v2l-139 328h133l120 -289h81l56 289h129l-57 -289h79l206 289h155l-259 -348v-2l132 -360h-133l-110 310h-92l-60 -310h-128l60 310h-79zM708 777h-98l23 116h98zM524 777h-98l23 116h98z" />
    <glyph glyph-name="uni04DD" unicode="&#x4dd;" horiz-adv-x="779" 
d="M98 0h-139l200 269v2l-91 239h124l76 -198h62l38 198h119l-38 -198h60l146 198h140l-195 -258v-2l107 -250h-132l-82 205h-65l-40 -205h-119l40 205h-63zM585 594h-98l23 116h98zM401 594h-98l23 116h98z" />
    <glyph glyph-name="uni04DE" unicode="&#x4de;" horiz-adv-x="555" 
d="M-13 90l75 83q56 -71 148 -71q64 0 107 34q45 34 45 92q0 79 -98 79h-98l20 105h81q51 0 91 33q41 33 41 83q0 38 -23.5 59.5t-69.5 21.5q-74 0 -156 -59l-47 94q100 78 220 78q97 0 154.5 -45.5t57.5 -126.5q0 -62 -36 -110t-97 -72l-1 -2q43 -16 68 -53t25 -88
q0 -104 -85 -171q-84 -66 -195 -66q-69 0 -129.5 27t-97.5 75zM502 777h-98l23 116h98zM318 777h-98l23 116h98z" />
    <glyph glyph-name="uni04DF" unicode="&#x4df;" horiz-adv-x="457" 
d="M-21 60l59 81q56 -55 125 -55q42 0 71.5 22.5t29.5 60.5q0 49 -72 49h-64l17 88h55q39 0 66 19t27 53q0 48 -70 48q-57 0 -126 -42l-34 82q80 56 188 56q78 0 123.5 -34.5t45.5 -92.5q0 -91 -94 -130v-2q65 -33 65 -104q0 -79 -64 -125t-154 -46q-54 0 -106 19.5
t-88 52.5zM417 594h-98l23 116h98zM233 594h-98l23 116h98z" />
    <glyph glyph-name="uni04E0" unicode="&#x4e0;" horiz-adv-x="533" 
d="M-14 49l49 93q23 -19 65 -33t82 -14q68 0 117 37q50 38 50 94q0 41 -32 59.5t-106 18.5h-100l16 83l193 180q31 25 42 32l7 4l-1 2q-26 -3 -58 -3h-206l21 108h419l-19 -100l-202 -180l-39 -27v-2q97 -1 144 -45.5t47 -121.5q0 -107 -87 -176q-86 -68 -207 -68
q-107 0 -195 59z" />
    <glyph glyph-name="uni04E1" unicode="&#x4e1;" horiz-adv-x="490" 
d="M-77 -151l49 93q23 -19 65 -33t82 -14q68 0 117 37q50 38 50 94q0 41 -32 59.5t-106 18.5h-100l16 83l193 180q32 26 43 32l6 4l-1 2q-26 -3 -58 -3h-206l21 108h419l-19 -100l-202 -180l-39 -27v-2q97 -1 144 -45.5t47 -121.5q0 -108 -87 -175q-85 -69 -207 -69
q-107 0 -195 59z" />
    <glyph glyph-name="uni04E2" unicode="&#x4e2;" horiz-adv-x="754" 
d="M157 0h-128l138 710h129l-80 -409l-28 -109h2q51 73 82 111l347 407h128l-138 -710h-128l79 408l27 109h-2q-54 -78 -80 -110zM614 784h-263l17 87h262z" />
    <glyph glyph-name="uni04E3" unicode="&#x4e3;" horiz-adv-x="607" 
d="M134 0h-123l99 510h119l-53 -266l-14 -62h2q24 33 51 63l241 265h124l-100 -510h-118l51 265l15 62h-2q-26 -35 -51 -63zM498 600h-263l17 87h262z" />
    <glyph glyph-name="uni04E4" unicode="&#x4e4;" horiz-adv-x="754" 
d="M157 0h-128l138 710h129l-80 -409l-28 -109h2q51 73 82 111l347 407h128l-138 -710h-128l79 408l27 109h-2q-54 -78 -80 -110zM611 777h-98l23 116h98zM427 777h-98l23 116h98z" />
    <glyph glyph-name="uni04E5" unicode="&#x4e5;" horiz-adv-x="607" 
d="M134 0h-123l99 510h119l-53 -266l-14 -62h2q24 33 51 63l241 265h124l-100 -510h-118l51 265l15 62h-2q-26 -35 -51 -63zM504 594h-98l23 116h98zM320 594h-98l23 116h98z" />
    <glyph glyph-name="uni04E6" unicode="&#x4e6;" horiz-adv-x="822" 
d="M51 300q0 111 59 209q61 99 157 155q97 58 204 58q145 0 234 -86q90 -86 90 -219q0 -113 -61 -213q-59 -99 -157 -158q-97 -58 -203 -58q-146 0 -234 87q-89 89 -89 225zM183 307q0 -89 53 -145q54 -56 139 -56q109 0 198 90q89 91 89 213q0 87 -54 141q-52 54 -138 54
q-111 0 -199 -88t-88 -209zM644 777h-98l23 116h98zM460 777h-98l23 116h98z" />
    <glyph glyph-name="uni04E7" unicode="&#x4e7;" horiz-adv-x="633" 
d="M25 214q0 130 96 218q97 90 220 90q111 0 181 -63q70 -61 70 -162q0 -130 -97 -220q-97 -89 -219 -89q-110 0 -181 62q-70 63 -70 164zM154 220q0 -56 34.5 -90t89.5 -34q72 0 128 55q57 55 57 138q0 56 -35 90.5t-89 34.5q-71 0 -128 -57q-57 -55 -57 -137zM513 594h-98
l23 116h98zM329 594h-98l23 116h98z" />
    <glyph glyph-name="uni04E8" unicode="&#x4e8;" horiz-adv-x="822" 
d="M51 300q0 111 59 209q61 99 157 155q97 58 204 58q145 0 234 -86q90 -86 90 -219q0 -113 -61 -213q-59 -99 -157 -158q-97 -58 -203 -58q-146 0 -234 87q-89 89 -89 225zM647 307h-467q0 -91 54 -148q56 -56 141 -56t162 57q77 59 110 147zM470 607q-88 0 -164 -57
q-76 -55 -108 -143h467v2q0 88 -55 143q-54 55 -140 55z" />
    <glyph glyph-name="uni04E9" unicode="&#x4e9;" horiz-adv-x="634" 
d="M26 217q0 127 96 216q98 89 225 89q105 0 175 -63q70 -61 70 -166q0 -128 -97 -216q-98 -89 -224 -89q-105 0 -176 62q-69 63 -69 167zM465 220h-323q1 -64 37 -100.5t97 -36.5t114 37q54 37 75 100zM342 427q-60 0 -112 -36.5t-75 -95.5h321q-3 61 -39.5 96.5
t-94.5 35.5z" />
    <glyph glyph-name="uni04EA" unicode="&#x4ea;" horiz-adv-x="822" 
d="M51 300q0 111 59 209q61 99 157 155q97 58 204 58q145 0 234 -86q90 -86 90 -219q0 -113 -61 -213q-59 -99 -157 -158q-97 -58 -203 -58q-146 0 -234 87q-89 89 -89 225zM647 307h-467q0 -91 54 -148q56 -56 141 -56t162 57q77 59 110 147zM470 607q-88 0 -164 -57
q-76 -55 -108 -143h467v2q0 88 -55 143q-54 55 -140 55zM460 777h-98l23 116h98zM644 777h-98l23 116h98z" />
    <glyph glyph-name="uni04EB" unicode="&#x4eb;" horiz-adv-x="634" 
d="M26 217q0 127 96 216q98 89 225 89q105 0 175 -63q70 -61 70 -166q0 -128 -97 -216q-98 -89 -224 -89q-105 0 -176 62q-69 63 -69 167zM465 220h-323q1 -64 37 -100.5t97 -36.5t114 37q54 37 75 100zM342 427q-60 0 -112 -36.5t-75 -95.5h321q-3 61 -39.5 96.5
t-94.5 35.5zM332 594h-98l23 116h98zM516 594h-98l23 116h98z" />
    <glyph glyph-name="uni04EC" unicode="&#x4ec;" horiz-adv-x="718" 
d="M538 303h-342l20 105h342v5q0 90 -51 141t-141 51q-112 0 -213 -78l-56 95q124 100 276 100q149 0 233 -85q85 -85 85 -218q0 -112 -58 -212q-59 -99 -159 -159t-215 -60q-77 0 -148.5 28t-118.5 81l73 87q33 -37 85.5 -58t110.5 -21q97 0 170 55q75 56 107 143zM373 777
h-98l23 116h98zM557 777h-98l23 116h98z" />
    <glyph glyph-name="uni04ED" unicode="&#x4ed;" horiz-adv-x="546" 
d="M370 212h-224l17 87h224q-1 60 -38 91t-96 31q-82 0 -147 -56l-48 85q36 33 93 52.5t115 19.5q112 0 175 -64q64 -64 64 -162q0 -124 -95 -216t-231 -92q-56 0 -110.5 20t-85.5 56l54 84q24 -27 63.5 -43t81.5 -16q62 0 113 34t75 89zM267 594h-98l23 116h98zM451 594
h-98l23 116h98z" />
    <glyph glyph-name="uni04EE" unicode="&#x4ee;" horiz-adv-x="612" 
d="M15 38l64 92q34 -31 81 -31t84 64l-171 547h133l91 -317l23 -95h2q18 41 47 94l173 318h144l-326 -561q-46 -80 -94 -120.5t-111 -40.5q-76 0 -140 50zM530 783h-263l17 87h262z" />
    <glyph glyph-name="uni04EF" unicode="&#x4ef;" horiz-adv-x="548" 
d="M-77 -174l57 89q22 -18 54 -18q60 0 101 65l28 46l-117 502h132l58 -309l6 -65h2q21 49 29 63l161 311h142l-342 -588q-37 -65 -88 -98.5t-106 -33.5q-64 0 -117 36zM466 600h-263l17 87h262z" />
    <glyph glyph-name="uni04F0" unicode="&#x4f0;" horiz-adv-x="612" 
d="M15 38l64 92q34 -31 81 -31t84 64l-171 547h133l91 -317l23 -95h2q18 41 47 94l173 318h144l-326 -561q-46 -80 -94 -120.5t-111 -40.5q-76 0 -140 50zM541 777h-98l23 116h98zM357 777h-98l23 116h98z" />
    <glyph glyph-name="uni04F1" unicode="&#x4f1;" horiz-adv-x="548" 
d="M-77 -174l57 89q22 -18 54 -18q60 0 101 65l28 46l-117 502h132l58 -309l6 -65h2q21 49 29 63l161 311h142l-342 -588q-37 -65 -88 -98.5t-106 -33.5q-64 0 -117 36zM470 594h-98l23 116h98zM286 594h-98l23 116h98z" />
    <glyph glyph-name="uni04F2" unicode="&#x4f2;" horiz-adv-x="612" 
d="M15 38l64 92q34 -31 81 -31t84 64l-171 547h133l91 -317l23 -95h2q18 41 47 94l173 318h144l-326 -561q-46 -80 -94 -120.5t-111 -40.5q-76 0 -140 50zM528 757h-102l103 136h130zM360 757h-110l99 136h113z" />
    <glyph glyph-name="uni04F3" unicode="&#x4f3;" horiz-adv-x="548" 
d="M-77 -174l57 89q22 -18 54 -18q60 0 101 65l28 46l-117 502h132l58 -309l6 -65h2q21 49 29 63l161 311h142l-342 -588q-37 -65 -88 -98.5t-106 -33.5q-64 0 -117 36zM453 574h-102l103 136h130zM285 574h-110l99 136h113z" />
    <glyph glyph-name="uni04F4" unicode="&#x4f4;" horiz-adv-x="656" 
d="M264 264q-92 0 -142 42.5t-50 118.5q0 32 7 61l43 224h131l-39 -204q-5 -22 -5 -42q0 -83 95 -83q83 0 160 47l55 282h131l-138 -710h-131l52 272l9 32h-2q-96 -40 -176 -40zM548 777h-98l23 116h98zM364 777h-98l23 116h98z" />
    <glyph glyph-name="uni04F5" unicode="&#x4f5;" horiz-adv-x="542" 
d="M40 298q0 24 4 41l33 171h125l-27 -137q-5 -28 -5 -37q0 -28 17.5 -44.5t52.5 -16.5q60 0 108 33l40 202h127l-100 -510h-127l35 177l7 26h-2q-58 -31 -133 -31q-74 0 -114.5 33t-40.5 93zM456 594h-98l23 116h98zM272 594h-98l23 116h98z" />
    <glyph glyph-name="uni04F6" unicode="&#x4f6;" horiz-adv-x="513" 
d="M147 0h-118l138 710h408l-21 -111h-280l-95 -488h105l-49 -251h-115z" />
    <glyph glyph-name="uni04F7" unicode="&#x4f7;" horiz-adv-x="427" 
d="M114 0h-103l99 510h335l-21 -108h-209l-57 -294h90l-43 -228h-114z" />
    <glyph glyph-name="uni04F8" unicode="&#x4f8;" horiz-adv-x="877" 
d="M732 0h-128l138 710h128zM297 0h-268l138 710h129l-49 -249h127q87 0 137.5 -51.5t50.5 -140.5q0 -110 -77 -190q-76 -79 -188 -79zM225 350l-46 -239h112q59 0 100 42q40 43 40 108q0 41 -25.5 65t-70.5 24h-110zM672 777h-98l23 116h98zM488 777h-98l23 116h98z" />
    <glyph glyph-name="uni04F9" unicode="&#x4f9;" horiz-adv-x="744" 
d="M617 0h-126l99 510h127zM238 0h-227l99 510h127l-35 -175h91q79 0 122 -37t43 -106q0 -87 -59.5 -139.5t-160.5 -52.5zM186 249l-32 -162h71q43 0 73 28t30 70q0 64 -73 64h-69zM570 594h-98l23 116h98zM386 594h-98l23 116h98z" />
    <glyph glyph-name="uni0524" unicode="&#x524;" horiz-adv-x="787" 
d="M158 0h-129l138 710h575l-117 -599h104l-49 -251h-115l28 140h-118l117 599h-318z" />
    <glyph glyph-name="uni0525" unicode="&#x525;" horiz-adv-x="643" 
d="M138 0h-127l99 510h465l-79 -402h90l-44 -228h-114l23 120h-102l78 402h-211z" />
    <glyph glyph-name="uni1E9E" unicode="&#x1e9e;" horiz-adv-x="686" 
d="M152 0h-128l98 507q16 91 81 147t154 56h337l-17 -89l-154 -181l-29 -32v-2q59 -10 96 -54.5t37 -110.5q0 -71 -44 -135q-44 -62 -112 -89q-46 -17 -139 -17h-101l21 111h90q56 0 83 11q31 14 50.5 45t19.5 65q0 38 -23 56.5t-78 18.5h-64l18 89l114 141q29 39 50 57l5 5
v2q-8 -2 -42 -2h-116q-39 0 -70 -29t-39 -72z" />
    <glyph glyph-name="thinspace" unicode="&#x2009;" horiz-adv-x="16" 
 />
    <glyph glyph-name="endash" unicode="&#x2013;" horiz-adv-x="689" 
d="M609 236h-553l18 99h554z" />
    <glyph glyph-name="emdash" unicode="&#x2014;" horiz-adv-x="885" 
d="M808 236h-754l19 99h753z" />
    <glyph glyph-name="quoteleft" unicode="&#x2018;" horiz-adv-x="268" 
d="M214 504h-121l116 218h94z" />
    <glyph glyph-name="quoteright" unicode="&#x2019;" horiz-adv-x="263" 
d="M191 504h-94l89 218h122z" />
    <glyph glyph-name="quotesinglbase" unicode="&#x201a;" horiz-adv-x="275" 
d="M-32 -89l90 218h121l-116 -218h-95z" />
    <glyph glyph-name="quotedblleft" unicode="&#x201c;" horiz-adv-x="432" 
d="M377 504h-121l117 218h94zM214 504h-121l116 218h94z" />
    <glyph glyph-name="quotedblright" unicode="&#x201d;" horiz-adv-x="426" 
d="M355 504h-94l89 218h121zM191 504h-94l89 218h122z" />
    <glyph glyph-name="quotedblbase" unicode="&#x201e;" horiz-adv-x="438" 
d="M226 -89h-94l89 218h121zM63 -89h-95l90 218h121z" />
    <glyph glyph-name="dagger" unicode="&#x2020;" horiz-adv-x="456" 
d="M220 -50h-122l90 461h-124l19 99h124l39 200h122l-39 -200h127l-19 -99h-127z" />
    <glyph glyph-name="daggerdbl" unicode="&#x2021;" horiz-adv-x="479" 
d="M232 -50h-122l41 213h-124l19 98h124l30 150h-124l19 99h124l39 200h121l-38 -200h126l-19 -99h-126l-30 -150h126l-19 -98h-126z" />
    <glyph glyph-name="bullet" unicode="&#x2022;" horiz-adv-x="497" 
d="M247 124q-69 0 -118 49t-49 118t49 118t118 49q70 0 118 -49q49 -49 49 -118t-49 -118q-48 -49 -118 -49z" />
    <glyph glyph-name="ellipsis" unicode="&#x2026;" horiz-adv-x="826" 
d="M703 0h-124l25 128h124zM418 0h-123l24 128h124zM133 0h-123l24 128h124z" />
    <glyph glyph-name="perthousand" unicode="&#x2030;" horiz-adv-x="1185" 
d="M244 406q-66 0 -106.5 39t-40.5 102q0 67 57 121t128 54q65 0 106 -41t41 -101q0 -68 -57 -121q-58 -53 -128 -53zM148 0h-122l669 710h123zM253 498q31 0 54.5 23t23.5 55q0 24 -15.5 39t-42.5 15q-30 0 -54 -24t-24 -55q0 -23 16 -38t42 -15zM790 128q0 68 56 121
q57 54 129 54q65 0 106 -41t41 -101q0 -69 -57 -121q-56 -52 -128 -52q-66 0 -106.5 39t-40.5 101zM415 128q0 67 57 121t128 54q65 0 106 -41t41 -101q0 -69 -57 -121q-56 -52 -128 -52q-66 0 -106.5 39t-40.5 101zM888 133q0 -24 15.5 -38.5t42.5 -14.5q31 0 54.5 23
t23.5 55q0 24 -16 39t-42 15q-30 0 -54 -24t-24 -55zM513 133q0 -23 16 -38t42 -15q31 0 54.5 23t23.5 55q0 24 -16 39t-42 15q-29 0 -54 -24q-24 -24 -24 -55z" />
    <glyph glyph-name="guilsinglleft" unicode="&#x2039;" horiz-adv-x="368" 
d="M281 77h-116l-129 206l191 205h127l-201 -211z" />
    <glyph glyph-name="guilsinglright" unicode="&#x203a;" horiz-adv-x="366" 
d="M133 77h-126l201 211l-129 200h116l129 -206z" />
    <glyph glyph-name="fraction" unicode="&#x2044;" horiz-adv-x="180" 
d="M387 710l-473 -710h-98l473 710h98z" />
    <glyph glyph-name="zerosuperior" unicode="&#x2070;" 
d="M234 413q-143 0 -143 150q0 99 44 198q22 50 63.5 80.5t93.5 30.5q143 0 143 -151q0 -99 -44 -198q-23 -50 -64 -80t-93 -30zM234 500q48 0 75 68q28 68 28 147q0 69 -46 69q-33 0 -58 -37q-45 -67 -45 -179q0 -68 46 -68z" />
    <glyph glyph-name="foursuperior" unicode="&#x2074;" 
d="M336 423h-93l19 99h-204l12 64l238 276h113l-50 -258h59l-16 -82h-58zM176 606v-2h102l21 110l15 55h-2q-16 -27 -35 -47z" />
    <glyph glyph-name="fivesuperior" unicode="&#x2075;" 
d="M222 413q-43 0 -84 17.5t-67 49.5l60 62q33 -42 91 -42q34 0 61.5 23.5t27.5 56.5q0 25 -19 41t-48 16q-36 0 -74 -18l-50 19l66 224h247l-16 -84h-168l-14 -47l-9 -25l1 -1q22 8 47 8q58 0 95 -37q39 -38 39 -92q0 -66 -54 -119q-53 -52 -132 -52z" />
    <glyph glyph-name="sixsuperior" unicode="&#x2076;" 
d="M244 413q-68 0 -109.5 43.5t-41.5 119.5q0 60 29 129q30 67 89 117q61 50 132 50q61 0 102 -25l-40 -76q-32 13 -65 13q-37 0 -69 -26.5t-50 -70.5h2q28 21 67 21q55 0 90 -34.5t35 -87.5q0 -69 -50 -122q-49 -51 -121 -51zM248 500q30 0 50.5 24.5t20.5 57.5
q0 25 -15 40t-42 15q-31 0 -51.5 -18.5t-20.5 -45.5q0 -31 16 -52t42 -21z" />
    <glyph glyph-name="sevensuperior" unicode="&#x2077;" 
d="M181 423h-109l236 317l32 38v2q-26 -2 -40 -2h-161l16 84h314l-12 -65z" />
    <glyph glyph-name="eightsuperior" unicode="&#x2078;" 
d="M233 413q-68 0 -112.5 32.5t-44.5 88.5q0 40 30 75q31 36 63 56q-32 29 -32 69q0 64 49 101t112 37t102 -29t39 -77q0 -26 -18 -58q-24 -40 -59 -71q47 -33 47 -82q0 -62 -55 -102q-53 -40 -121 -40zM299 671q23 20 35 44q18 31 6 53t-47 22q-27 0 -46 -14t-19 -39
q0 -15 12 -28q16 -17 59 -38zM235 494q29 0 53 17.5t24 42.5q0 24 -27 41q-10 7 -17 10q-16 10 -40 22q-55 -40 -55 -83q0 -23 18 -36.5t44 -13.5z" />
    <glyph glyph-name="ninesuperior" unicode="&#x2079;" 
d="M80 437l40 77q22 -13 65 -13q37 0 69 26t50 70h-2q-32 -21 -67 -21q-55 0 -90 34.5t-35 88.5q0 69 50 121q49 52 121 52q68 0 109.5 -43.5t41.5 -119.5q0 -61 -30 -129q-28 -67 -89 -117q-59 -50 -131 -50q-58 0 -102 24zM263 648q31 0 51 18t20 45q0 31 -15.5 52
t-41.5 21q-30 0 -50.5 -24.5t-20.5 -57.5q0 -25 15 -39.5t42 -14.5z" />
    <glyph glyph-name="zeroinferior" unicode="&#x2080;" 
d="M121 -167q-143 0 -143 150q0 99 44 198q22 50 63.5 80.5t93.5 30.5q143 0 143 -151q0 -100 -44 -197q-22 -50 -63.5 -80.5t-93.5 -30.5zM121 -80q48 0 75 69q28 66 28 146q0 69 -46 69q-33 0 -58 -37q-45 -67 -45 -179q0 -68 46 -68z" />
    <glyph glyph-name="oneinferior" unicode="&#x2081;" 
d="M258 -157h-278l16 83h92l38 201l9 29h-2q-5 -9 -19 -20l-35 -27l-46 64l135 109h84l-69 -356h91z" />
    <glyph glyph-name="twoinferior" unicode="&#x2082;" 
d="M262 -157h-305q0 73 36.5 120t96.5 83q13 8 38 22t37 22t27.5 20t22 24.5t6.5 27.5q0 19 -14.5 30.5t-37.5 11.5q-40 0 -89 -46l-56 60q74 74 152 74q62 0 102.5 -33t40.5 -88q0 -50 -35 -91q-34 -40 -77 -61q-40 -19 -82 -45q-40 -26 -47 -48h201z" />
    <glyph glyph-name="threeinferior" unicode="&#x2083;" 
d="M108 -167q-94 0 -154 67l57 62q36 -42 98 -42q33 0 57 20.5t24 50.5q0 23 -19 36t-49 13h-35l-14 45l94 90l29 24v2q-19 -3 -35 -3h-125l16 84h280l-11 -61l-120 -112q38 -10 62.5 -41t24.5 -74q0 -62 -51 -112q-50 -49 -129 -49z" />
    <glyph glyph-name="fourinferior" unicode="&#x2084;" 
d="M223 -157h-93l19 99h-204l12 64l238 276h113l-50 -258h59l-16 -82h-58zM63 26v-2h102l21 110l15 55h-2q-16 -27 -35 -47z" />
    <glyph glyph-name="fiveinferior" unicode="&#x2085;" 
d="M109 -167q-43 0 -84 17.5t-67 49.5l60 62q33 -42 91 -42q34 0 61.5 23.5t27.5 56.5q0 25 -19 41t-48 16q-37 0 -74 -18l-50 19l66 224h247l-16 -84h-168l-14 -47l-9 -25l1 -1q22 8 47 8q58 0 95 -37q39 -37 39 -92q0 -65 -54 -118q-55 -53 -132 -53z" />
    <glyph glyph-name="sixinferior" unicode="&#x2086;" 
d="M132 -167q-68 0 -109.5 43.5t-41.5 119.5q0 60 29 129q30 67 89 117q61 50 132 50q61 0 102 -25l-40 -76q-32 13 -65 13q-37 0 -69 -26.5t-50 -70.5h2q29 21 67 21q55 0 90 -34.5t35 -87.5q0 -69 -50 -121q-49 -52 -121 -52zM136 -80q30 0 50.5 24.5t20.5 57.5
q0 25 -15 40t-42 15q-31 0 -51.5 -18.5t-20.5 -45.5q0 -31 16 -52t42 -21z" />
    <glyph glyph-name="seveninferior" unicode="&#x2087;" 
d="M69 -157h-109l236 317l32 38v2q-26 -2 -40 -2h-161l16 84h314l-12 -65z" />
    <glyph glyph-name="eightinferior" unicode="&#x2088;" 
d="M120 -166q-68 0 -112.5 32.5t-44.5 88.5q0 41 30 75q31 36 63 56q-32 29 -32 69q0 64 49 101t112 37t102 -29t39 -77q0 -27 -18 -58q-24 -40 -59 -71q47 -33 47 -82q0 -62 -55 -102q-53 -40 -121 -40zM186 92q23 20 35 44q18 31 6 53t-47 22q-27 0 -46 -14t-19 -39
q0 -14 12 -28q16 -17 59 -38zM122 -85q29 0 53 17.5t24 42.5q0 24 -27 41q-10 7 -17 10q-16 10 -40 22q-55 -40 -55 -83q0 -23 18 -36.5t44 -13.5z" />
    <glyph glyph-name="nineinferior" unicode="&#x2089;" 
d="M-32 -143l40 77q22 -13 65 -13q37 0 69 26t50 70h-2q-32 -21 -67 -21q-55 0 -90 34.5t-35 88.5q0 69 50 121q49 52 121 52q68 0 109.5 -43.5t41.5 -119.5q0 -61 -30 -129q-28 -67 -89 -117q-59 -50 -131 -50q-58 0 -102 24zM151 68q31 0 51 18t20 45q0 31 -15.5 52
t-41.5 21q-30 0 -50.5 -24.5t-20.5 -57.5q0 -25 15 -39.5t42 -14.5z" />
    <glyph glyph-name="Euro" unicode="&#x20ac;" horiz-adv-x="586" 
d="M90 250h-73l15 76h55q2 32 9 62h-52l15 77h62q52 115 151 185q100 72 222 72q68 0 128 -19l-52 -111q-44 10 -77 10q-70 0 -131.5 -37t-97.5 -100h256l-30 -77h-259q-8 -37 -11 -62h246l-31 -76h-205q12 -65 57 -102.5t115 -37.5q46 0 96 14l1 -120q-45 -16 -103 -16
q-126 0 -209 71q-82 71 -97 191z" />
    <glyph glyph-name="numero" unicode="&#x2116;" horiz-adv-x="1080" 
d="M757 441q0 69 54 121q54 54 126 54q58 0 96 -38q37 -37 37 -92q0 -69 -55 -121q-53 -52 -126 -52q-59 0 -95.5 35.5t-36.5 92.5zM852 451q0 -22 13.5 -36t35.5 -14q29 0 52 22.5t23 53.5q0 22 -14 36t-36 14q-29 0 -51.5 -22.5t-22.5 -53.5zM998 171h-286l17 88h286z
M153 0h-128l138 710h123l189 -410q15 -35 32 -92l5 -18h2q6 63 14 110l80 410h129l-139 -710h-121l-190 409q-10 22 -33 92l-5 18h-2q-6 -63 -14 -110z" />
    <glyph glyph-name="trademark" unicode="&#x2122;" horiz-adv-x="1067" 
d="M645 267h-95l35 443h88l92 -209l13 -42h2q9 32 14 42l91 209h89l34 -443h-96l-16 228l1 31h-2l-78 -178h-75l-78 178h-2l1 -31zM375 267h-95v359h-148v84h391v-84h-148v-359z" />
    <glyph glyph-name="minus" unicode="&#x2212;" horiz-adv-x="586" 
d="M554 236h-528v99h528v-99z" />
    <glyph glyph-name="infinity" unicode="&#x221e;" horiz-adv-x="499" 
d="M394 213q-56 -56 -135 -56t-135 56q-56 58 -56 136q0 79 56 135t135 56t135 -56t56 -135q0 -78 -56 -136z" />
    <glyph glyph-name="approxequal" unicode="&#x2248;" horiz-adv-x="586" 
d="M84 322l-50 74q76 76 157 76q49 0 107 -35q59 -35 91 -35q58 0 107 55l49 -75q-73 -76 -156 -76q-49 0 -108 35q-58 35 -90 35q-55 0 -107 -54zM84 117l-50 75q76 75 157 75q49 0 107 -35q59 -35 91 -35q58 0 107 55l49 -75q-75 -75 -156 -75q-49 0 -108 35
q-58 35 -90 35q-55 0 -107 -55z" />
    <glyph glyph-name="notequal" unicode="&#x2260;" horiz-adv-x="586" 
d="M159 24l-62 39l49 71h-102v98h166l73 107h-239v98h304l77 112l61 -40l-50 -72h96v-98h-160l-74 -107h234v-98h-298z" />
    <glyph glyph-name="lessequal" unicode="&#x2264;" horiz-adv-x="586" 
d="M492 31l-481 214v82l481 214v-111l-347 -143v-2l347 -143v-111zM13 -183v98h479v-98h-479z" />
    <glyph glyph-name="greaterequal" unicode="&#x2265;" horiz-adv-x="586" 
d="M513 245l-481 -214v111l346 143v2l-346 143v111l481 -214v-82zM32 -183v98h479v-98h-479z" />
    <glyph glyph-name="commaaccent" unicode="&#xf6c3;" horiz-adv-x="335" 
d="M59 -55h105v-16q0 -64 -49 -135h-93q40 71 40 122q0 12 -3 29z" />
    <glyph glyph-name="cyrbreve" unicode="&#xf6d4;" horiz-adv-x="276" 
d="M231 742q-66 0 -108 31.5t-42 81.5q0 14 6 38h98q-3 -11 -3 -25q0 -24 14.5 -37.5t40.5 -13.5q72 0 82 76h96q-12 -75 -61.5 -113t-122.5 -38z" />
    <glyph glyph-name="apple" unicode="&#xf8ff;" horiz-adv-x="1130" 
d="M432 -146l-265 141v152l-126 72v278l126 71v151l265 142l134 -71l132 71l265 -142v-151l124 -71v-278l-124 -72v-152l-265 -141l-132 71zM207 169v-139l238 -126l121 66l118 -66l238 126v139l114 64v249l-114 66v136l-238 126l-118 -64l-121 64l-238 -126v-136l-114 -66
v-249zM456 -50l-215 114v121l-99 60v225l99 58v123l215 114l110 -59l107 59l214 -114v-123l100 -58v-225l-100 -60v-121l-214 -114l-107 58zM446 551v-460h43v228h228v40h-228v192h199q17 0 23 -6.5t6 -22.5v-42h42v54q0 30 -13 43.5t-45 13.5h-320v-40h65z" />
    <glyph glyph-name="NULL" horiz-adv-x="0" 
 />
    <glyph glyph-name="CR" horiz-adv-x="333" 
 />
    <glyph glyph-name="zero.tnum" horiz-adv-x="586" 
d="M33 228q0 127 44 252q23 66 59 120q37 55 95 88.5t126 33.5q219 0 219 -239q0 -128 -45 -252q-25 -70 -60 -121q-37 -55 -94 -88.5t-125 -33.5q-219 0 -219 240zM165 232q0 -126 91 -126q46 0 84 38t60 99q43 123 43 233q0 127 -91 127q-45 0 -83 -37.5t-60 -98.5
q-44 -121 -44 -235z" />
    <glyph glyph-name="one.tnum" horiz-adv-x="586" 
d="M470 0h-432l20 111h154l76 384l11 48h-2q-12 -18 -40 -40l-66 -54l-66 88l217 173h113l-117 -599h153z" />
    <glyph glyph-name="two.tnum" horiz-adv-x="586" 
d="M475 0h-470q1 97 53 176q22 33 57 65q38 34 65 52q21 14 72 46l25 15q26 14 50 30q15 10 41 29q34 24 48 47t18 57q0 38 -25.5 60.5t-67.5 22.5q-85 0 -147 -84l-91 71q108 135 251 135q91 0 152 -52q62 -51 62 -139q-6 -90 -62 -150q-28 -28 -39 -38q-16 -14 -47 -35
l-47 -31q-38 -22 -49 -29q-26 -15 -74 -46q-67 -43 -79 -91h326z" />
    <glyph glyph-name="three.tnum" horiz-adv-x="586" 
d="M-1 83l76 91q57 -64 156 -64q65 0 109 36q44 38 44 91q0 43 -34.5 66t-95.5 23h-57l-15 66l154 154q32 32 54 48l9 6v2q-22 -3 -64 -3h-205l21 111h433l-15 -81l-212 -207q60 -9 108 -54q49 -45 49 -126q0 -102 -78 -178q-77 -76 -204 -76q-147 0 -233 95z" />
    <glyph glyph-name="four.tnum" horiz-adv-x="586" 
d="M325 183h-332l15 79l382 448h164l-81 -420h91l-21 -107h-91l-36 -183h-127zM157 292v-2h189l42 220l19 74h-2q-18 -29 -47 -65z" />
    <glyph glyph-name="five.tnum" horiz-adv-x="586" 
d="M10 84l79 90q58 -64 142 -64q65 0 114 41q48 41 48 100q0 47 -34 75t-89 28q-54 0 -100 -22l-15 -8l-71 27l103 359h377l-21 -111h-262l-34 -115l-11 -33h2q34 14 78 14q91 0 150 -59q60 -58 60 -149q0 -111 -87 -190q-85 -79 -210 -79q-65 0 -123.5 25t-95.5 71z" />
    <glyph glyph-name="six.tnum" horiz-adv-x="586" 
d="M41 252q0 153 103 306q51 74 128.5 119t164.5 45q89 0 155 -32l-55 -104q-51 17 -98 17q-79 0 -137 -55q-58 -54 -90 -135h2q21 23 57.5 36.5t72.5 13.5q92 0 144.5 -55.5t52.5 -146.5q0 -103 -74 -189q-73 -84 -187 -84q-105 0 -172 70t-67 194zM172 245q0 -58 31 -98
q32 -41 78 -41q57 0 95 45q38 46 38 106q0 46 -28 73t-80 27q-54 0 -94 -33q-40 -31 -40 -79z" />
    <glyph glyph-name="seven.tnum" horiz-adv-x="586" 
d="M174 0h-143l370 534q26 41 49 58l7 7v2q-18 -2 -50 -2h-294l22 111h488l-17 -90z" />
    <glyph glyph-name="eight.tnum" horiz-adv-x="586" 
d="M18 186q0 79 65 141q48 45 81 67q-56 51 -56 117q0 81 68 146q70 65 183 65q99 0 156.5 -47t57.5 -129q0 -68 -52 -133q-37 -47 -63 -70q70 -52 70 -126q0 -92 -79 -161q-79 -68 -197 -68q-109 0 -172 54q-62 56 -62 144zM344 405l21 -10q78 70 78 140q0 34 -24 53
t-66 19q-51 0 -83.5 -28t-32.5 -68q0 -32 33 -62l34 -23l19 -10q7 -5 21 -11zM153 195q0 -41 29 -67t73 -26q54 0 97 32q43 31 43 83q0 33 -32 56q-10 7 -30 20q-13 9 -42 23l-40 21q-98 -69 -98 -142z" />
    <glyph glyph-name="nine.tnum" horiz-adv-x="586" 
d="M17 19l56 105q43 -18 98 -18q78 0 136 54q59 56 90 136h-2q-16 -19 -53.5 -34.5t-76.5 -15.5q-93 0 -146 56q-51 57 -51 146q0 103 74 189q75 85 189 85q106 0 172 -70t66 -194q0 -123 -68 -248q-51 -97 -137 -159.5t-192 -62.5q-94 0 -155 31zM303 352q53 0 93 33
q42 33 42 80q0 57 -31 97q-32 41 -79 41q-58 0 -95 -45q-38 -44 -38 -105q0 -46 28 -73.5t80 -27.5z" />
    <glyph glyph-name="hyphen.case" horiz-adv-x="434" 
d="M366 292h-301l21 111h301z" />
    <glyph glyph-name="parenleft.case" horiz-adv-x="309" 
d="M205 -65h-103q-55 131 -55 271q0 324 210 565h111q-209 -260 -209 -568q0 -142 46 -268z" />
    <glyph glyph-name="parenright.case" horiz-adv-x="309" 
d="M74 -65h-111q209 260 209 568q0 145 -46 268h103q55 -129 55 -271q0 -325 -210 -565z" />
    <glyph glyph-name="bracketleft.case" horiz-adv-x="322" 
d="M207 -65h-198l163 836h197l-18 -92h-89l-126 -652h89z" />
    <glyph glyph-name="bracketright.case" horiz-adv-x="321" 
d="M-25 -65l17 92h89l126 652h-89l19 92h197l-163 -836h-196z" />
    <glyph glyph-name="braceleft.case" horiz-adv-x="371" 
d="M81 64q0 15 5 47l17 87q3 15 3 28q0 32 -18 52t-50 24l22 111q40 4 68 32.5t37 73.5l19 95q31 160 208 160q4 0 15 -0.5t15 -0.5l-18 -94l-6 1h-12q-81 0 -97 -85l-24 -119q-8 -42 -36.5 -73.5t-70.5 -44.5v-2q28 -12 44.5 -40.5t16.5 -63.5q0 -15 -3 -31l-22 -110
q-2 -12 -2 -26q0 -59 68 -59q13 0 18 1l-19 -94q-34 -6 -72 3q-41 7 -75 39t-31 89z" />
    <glyph glyph-name="braceright.case" horiz-adv-x="370" 
d="M7 26q80 0 96 85l25 127q9 45 37.5 76.5t69.5 43.5v2q-60 25 -60 103q0 13 3 31l19 101q3 14 3 26q0 59 -69 59q-3 0 -10 -0.5t-8 -0.5l19 94q5 1 31 1q20 0 41 -4.5t47 -17t42.5 -41.5t16.5 -70q0 -14 -5 -46l-15 -78q-3 -17 -3 -28q0 -32 18 -52.5t50 -23.5l-22 -111
q-37 -6 -66.5 -33t-38.5 -74l-21 -104q-33 -160 -208 -160q-2 0 -6 0.5t-11 1t-13 0.5l18 94q4 -1 20 -1z" />
    <glyph glyph-name="at.case" horiz-adv-x="817" 
d="M58 289q0 115 60 216q63 102 163 160q102 60 218 60q127 0 188 -48.5t61 -135.5q0 -18 -5 -48l-45 -235h72l-17 -91h-265q-90 0 -143 47q-51 47 -51 118q0 79 68 141q69 63 173 63h97q0 1 0.5 6t0.5 7q0 34 -37.5 54.5t-97.5 20.5q-126 0 -220 -102q-94 -101 -94 -226
q0 -92 59 -153q60 -60 166 -60l-19 -97q-147 0 -239 85q-93 85 -93 218zM421 335q0 -34 21.5 -55.5t59.5 -21.5h76l38 196h-74q-50 0 -86 -36q-35 -37 -35 -83z" />
    <glyph glyph-name="guillemotleft.case" horiz-adv-x="601" 
d="M516 137h-116l-129 206l210 205h128l-221 -211zM293 137h-116l-129 206l191 205h127l-201 -211z" />
    <glyph glyph-name="guillemotright.case" horiz-adv-x="602" 
d="M380 137h-126l201 211l-128 200h116l129 -206zM139 137h-128l221 211l-128 200h116l129 -206z" />
    <glyph glyph-name="guilsinglleft.case" horiz-adv-x="369" 
d="M293 137h-116l-129 206l191 205h127l-201 -211z" />
    <glyph glyph-name="guilsinglright.case" horiz-adv-x="365" 
d="M143 137h-126l201 211l-129 200h116l130 -206z" />
    <glyph glyph-name="endash.case" horiz-adv-x="687" 
d="M619 296h-553l18 99h554z" />
    <glyph glyph-name="emdash.case" horiz-adv-x="888" 
d="M820 296h-753l18 99h754z" />
    <glyph glyph-name="periodcentered.case" horiz-adv-x="257" 
d="M187 281h-124l24 129h124z" />
    <glyph glyph-name="questiondown.case" horiz-adv-x="488" 
d="M398 591h-123l23 119h123zM20 156q0 94 75 157q14 11 48 36.5t51 39.5t35 36.5t22 42.5l8 37h122l-9 -46q-15 -77 -90 -137q-10 -8 -35 -27t-36.5 -29.5t-27.5 -27t-22.5 -32.5t-6.5 -33q0 -30 23 -49.5t59 -19.5q56 0 114 43l57 -95q-36 -28 -88.5 -46t-101.5 -18
q-84 0 -141 45q-56 45 -56 123z" />
    <glyph glyph-name="exclamdown.case" horiz-adv-x="289" 
d="M262 591h-123l23 119h123zM153 0h-132l109 505h111z" />
    <glyph glyph-name="bullet.case" horiz-adv-x="496" 
d="M258 187q-69 0 -118 49q-48 50 -48 118q0 70 48 118q49 49 118 49q70 0 118 -49q49 -48 49 -118q0 -69 -49 -118q-48 -49 -118 -49z" />
    <glyph glyph-name="zero.p_osf" horiz-adv-x="588" 
d="M36 207q0 130 73 237q37 55 93.5 86.5t123.5 31.5q111 0 164 -62t53 -159q0 -83 -32 -164q-30 -77 -100 -134q-67 -55 -157 -55q-113 0 -165 61q-53 62 -53 158zM164 210q0 -53 23 -83.5t68 -30.5q49 0 87 39q73 76 73 202q0 54 -23 85.5t-67 31.5q-49 0 -88 -41
q-73 -76 -73 -203z" />
    <glyph glyph-name="one.p_osf" horiz-adv-x="496" 
d="M413 0h-407l21 108h148l47 242l14 65h-2q-20 -17 -45 -30l-82 -43l-43 92l210 116h110l-86 -442h136z" />
    <glyph glyph-name="two.p_osf" horiz-adv-x="548" 
d="M446 0h-446l17 86q9 5 101 59q37 22 92 60q50 35 81 63q74 67 74 120q0 31 -22 47t-59 16q-72 0 -158 -74l-55 90q45 43 108 69t123 26q88 0 140.5 -42t52.5 -116q0 -84 -70.5 -154.5t-212.5 -143.5v-2q20 4 64 4h192z" />
    <glyph glyph-name="three.p_osf" horiz-adv-x="541" 
d="M-38 -40l71 82q57 -62 147 -62q63 0 106 34q44 35 44 88q0 43 -37 66.5t-93 23.5h-56l-19 62l144 138q23 24 53 46l8 5v2q-20 -4 -63 -4h-174l21 109h410l-14 -74l-212 -195q64 -7 113 -53q49 -45 49 -121q0 -95 -81 -165q-80 -70 -200 -70q-60 0 -123 23q-60 23 -94 65z
" />
    <glyph glyph-name="four.p_osf" horiz-adv-x="598" 
d="M293 29h-320l15 79l371 442h160l-81 -413h95l-21 -108h-95l-28 -145h-125zM136 139v-2h177l43 216q15 74 19 74h-2q0 -7 -48 -68z" />
    <glyph glyph-name="five.p_osf" horiz-adv-x="550" 
d="M-26 -36l70 81q52 -61 143 -61q61 0 110 36q51 38 51 102q0 43 -32.5 68.5t-84.5 25.5q-57 0 -119 -27l-68 25l98 336h365l-21 -109h-251l-33 -107l-11 -31h2q35 13 77 13q92 0 150 -52q59 -53 59 -136q0 -112 -88 -182q-86 -70 -204 -70q-63 0 -120 23t-93 65z" />
    <glyph glyph-name="six.p_osf" horiz-adv-x="599" 
d="M44 232q0 70 26.5 146.5t73.5 143.5q50 70 125.5 113t160.5 43q88 0 154 -32l-54 -95q-31 19 -97 19q-77 0 -135 -54q-59 -53 -88 -130h2q21 21 58.5 34.5t72.5 13.5q93 0 146 -53t53 -136q0 -99 -75 -178q-73 -79 -187 -79q-106 0 -171 64q-65 65 -65 180zM173 227
q0 -55 30.5 -93t79.5 -38q53 0 91 41t38 102q0 43 -28 69t-79 26q-52 0 -93 -32q-39 -32 -39 -75z" />
    <glyph glyph-name="seven.p_osf" horiz-adv-x="525" 
d="M129 -116h-141l349 498q18 26 43 55l6 6v2q-10 -3 -46 -3h-281l21 108h476l-17 -85z" />
    <glyph glyph-name="eight.p_osf" horiz-adv-x="595" 
d="M26 170q0 102 139 199q-52 43 -52 105q0 80 66 141q68 62 175 62q96 0 153.5 -42.5t57.5 -114.5q0 -81 -106 -199q65 -47 65 -116q0 -85 -77 -151t-192 -66q-105 0 -167 51t-62 131zM325 390l44 -20q70 70 70 132q0 32 -24 50t-65 18q-49 0 -81 -26t-32 -64q0 -33 33 -58
q4 -2 15 -9.5t20 -12.5zM156 183q0 -39 29 -63.5t72 -24.5q53 0 95 30q43 31 43 78q0 30 -33 52q-14 10 -30 19q-1 1 -42 20l-40 20q-94 -57 -94 -131z" />
    <glyph glyph-name="nine.p_osf" horiz-adv-x="583" 
d="M0 -96l53 95q35 -19 97 -19q76 0 135 53q60 56 88 130h-2q-21 -21 -58 -34t-73 -13q-93 0 -146 53q-52 52 -52 136q0 97 74 177q75 80 187 80q107 0 171 -64q65 -65 65 -180q0 -147 -100 -291q-49 -69 -125 -112t-160 -43q-92 0 -154 32zM278 216q53 0 93 31t40 76
q0 55 -30.5 93t-80.5 38q-54 0 -91 -42q-38 -41 -38 -101q0 -43 28 -69t79 -26z" />
    <glyph glyph-name="zero.t_osf" horiz-adv-x="586" 
d="M35 207q0 130 73 237q37 55 93.5 86.5t123.5 31.5q111 0 164 -62t53 -159q0 -83 -32 -164q-30 -77 -100 -134q-67 -55 -157 -55q-113 0 -165 61q-53 62 -53 158zM163 210q0 -53 23 -83.5t68 -30.5q50 0 87 39q73 76 73 202q0 54 -23 85.5t-67 31.5q-49 0 -88 -41
q-73 -76 -73 -203z" />
    <glyph glyph-name="one.t_osf" horiz-adv-x="586" 
d="M458 0h-407l21 108h148l47 242l14 65h-2q-19 -17 -45 -30l-82 -43l-43 92l210 116h110l-86 -442h136z" />
    <glyph glyph-name="two.t_osf" horiz-adv-x="586" 
d="M466 0h-446l17 86q9 5 101 59q37 22 92 60q50 35 81 63q74 67 74 120q0 31 -22 47t-59 16q-72 0 -158 -74l-55 90q45 43 108 69t123 26q88 0 140.5 -42t52.5 -116q0 -84 -70.5 -154.5t-212.5 -143.5v-2q20 4 64 4h192z" />
    <glyph glyph-name="three.t_osf" horiz-adv-x="586" 
d="M-15 -39l71 82q57 -62 147 -62q62 0 105 34q44 35 44 88q0 42 -37 65.5t-93 23.5h-55l-19 62l143 138q23 24 53 46l8 5v2q-20 -4 -63 -4h-173l21 109h409l-14 -74l-212 -195q64 -7 113 -53q49 -45 49 -120q0 -94 -81 -165q-80 -70 -199 -70q-60 0 -123 23q-60 23 -94 65z
" />
    <glyph glyph-name="four.t_osf" horiz-adv-x="586" 
d="M288 29h-320l15 79l371 442h160l-81 -413h95l-21 -108h-95l-28 -145h-125zM131 139v-2h177l43 216q15 74 19 74h-2q0 -7 -48 -68z" />
    <glyph glyph-name="five.t_osf" horiz-adv-x="586" 
d="M-8 -36l70 81q52 -61 143 -61q61 0 110 36q51 38 51 102q0 43 -32.5 68.5t-84.5 25.5q-58 0 -119 -27l-68 25l98 336h365l-21 -109h-251l-33 -107l-11 -31h2q35 13 77 13q92 0 150 -52q59 -53 59 -136q0 -112 -88 -182q-86 -70 -204 -70q-63 0 -120 23t-93 65z" />
    <glyph glyph-name="six.t_osf" horiz-adv-x="586" 
d="M39 232q0 70 26.5 146.5t73.5 143.5q50 70 125.5 113t160.5 43q88 0 154 -32l-54 -95q-31 19 -97 19q-76 0 -135 -54q-59 -53 -88 -130h2q21 21 58.5 34.5t72.5 13.5q93 0 146 -53t53 -136q0 -99 -75 -178q-73 -79 -187 -79q-106 0 -171 64q-65 65 -65 180zM168 227
q0 -55 30.5 -93t79.5 -38q53 0 91 41t38 102q0 43 -28 69t-79 26q-52 0 -93 -32q-39 -32 -39 -75z" />
    <glyph glyph-name="seven.t_osf" horiz-adv-x="586" 
d="M158 -116h-141l349 498q23 34 44 55l5 6v2q-11 -3 -46 -3h-281l21 108h476l-17 -85z" />
    <glyph glyph-name="eight.t_osf" horiz-adv-x="586" 
d="M22 170q0 102 139 199q-52 43 -52 105q0 80 66 141q68 62 175 62q96 0 153.5 -42.5t57.5 -114.5q0 -81 -106 -199q65 -47 65 -116q0 -85 -77 -151t-192 -66q-105 0 -167 51t-62 131zM321 390l44 -20q70 70 70 132q0 32 -24 50t-65 18q-49 0 -81 -26t-32 -64q0 -33 33 -58
q4 -2 15 -9.5t20 -12.5zM152 183q0 -39 29 -63.5t72 -24.5q53 0 95 30q43 31 43 78q0 30 -33 52q-14 10 -30 19q-1 1 -42 20l-40 20q-94 -57 -94 -131z" />
    <glyph glyph-name="nine.t_osf" horiz-adv-x="586" 
d="M1 -96l53 95q35 -19 97 -19q76 0 135 53q60 56 88 130h-2q-21 -21 -58 -34t-73 -13q-93 0 -146 53q-52 52 -52 136q0 97 74 177q75 80 187 80q107 0 171 -64q65 -65 65 -180q0 -147 -100 -291q-49 -69 -125 -112t-160 -43q-92 0 -154 32zM279 216q53 0 93 31t40 76
q0 55 -30.5 93t-80.5 38q-53 0 -91 -42q-38 -41 -38 -101q0 -43 28 -69t79 -26z" />
    <glyph glyph-name="dollar.osf" horiz-adv-x="531" 
d="M0 84l73 86q67 -69 150 -69q44 0 74 19.5t30 50.5q0 35 -86 71q-33 15 -54 27t-48 32.5t-40.5 48t-13.5 61.5q0 68 56 118q55 49 147 60l17 89h86l-18 -90q85 -12 141 -64l-64 -93q-22 21 -58 35t-71 14q-45 0 -74.5 -17.5t-29.5 -51.5q0 -33 85 -71q31 -12 54.5 -24.5
t49.5 -32.5t39.5 -47t13.5 -60q0 -77 -60 -128q-60 -50 -147 -57l-18 -92h-85l19 95q-106 20 -168 90z" />
    <glyph glyph-name="cent.osf" horiz-adv-x="559" 
d="M277 -28h-89l17 86q-77 17 -120 71t-43 132q0 105 73 185q73 82 185 99l16 82h89l-17 -81q93 -13 152 -79l-70 -84q-44 54 -120 54t-128 -50q-51 -49 -51 -115q0 -50 33.5 -80t92.5 -30q75 0 139 58l43 -98q-79 -67 -187 -73z" />
    <glyph glyph-name="sterling.osf" horiz-adv-x="605" 
d="M496 0h-497l20 108h59l25 129h-44l16 84h44l15 75q20 92 91 144q74 53 170 53q110 0 180 -61l-70 -86q-43 34 -117 34q-47 0 -83 -26t-44 -65l-14 -68h202l-16 -84h-202l-25 -129h311z" />
    <glyph glyph-name="yen.osf" horiz-adv-x="641" 
d="M224 136h-164l15 77h164l3 15l-25 59h-128l15 76h82l-86 218h139l54 -158l29 -98h2q22 44 58 98l113 158h153l-171 -218h87l-15 -76h-133l-46 -59l-3 -15h168l-15 -77h-168l-26 -136h-128z" />
    <glyph glyph-name="florin.osf" horiz-adv-x="554" 
d="M-61 -118l22 106q29 -6 64 -6q22 0 43 6q24 6 48 29.5t33 57.5l60 214h-74l20 101h83l31 107q52 181 241 181q42 0 98 -9l-22 -106q-32 6 -76 6q-97 0 -123 -92l-24 -87h108l-20 -101h-117l-66 -236q-15 -55 -45.5 -94t-68.5 -57q-62 -29 -129 -29q-37 0 -86 9z" />
    <glyph glyph-name="Euro.osf" horiz-adv-x="594" 
d="M109 192h-83l14 70h63q2 30 8 55h-60l13 70h71q40 89 126 148q85 58 202 58q67 0 119 -18l-45 -96q-33 10 -72 10q-123 0 -189 -102h224l-29 -70h-231q-9 -32 -9 -55h221l-27 -70h-180q13 -45 51 -71.5t97 -26.5q37 0 90 14l1 -105q-46 -15 -95 -15q-117 0 -189.5 55.5
t-90.5 148.5z" />
    <glyph glyph-name="zero.numerator" 
d="M205 262q-143 0 -143 150q0 99 44 198q22 50 63.5 80.5t93.5 30.5q143 0 143 -151q0 -99 -44 -198q-23 -50 -64 -80t-93 -30zM205 349q48 0 75 68q28 68 28 147q0 69 -46 69q-33 0 -58 -37q-45 -68 -45 -179q0 -68 46 -68z" />
    <glyph glyph-name="one.numerator" 
d="M341 272h-278l16 83h92l38 201l9 29h-2q-5 -9 -19 -20l-35 -27l-46 64l135 109h84l-69 -356h91z" />
    <glyph glyph-name="two.numerator" 
d="M345 272h-305q0 73 36.5 120t96.5 83q13 8 38 22t37 22t27.5 20t22 24.5t6.5 27.5q0 19 -14.5 30.5t-37.5 11.5q-40 0 -89 -46l-56 60q74 74 152 74q62 0 102.5 -33t40.5 -88q0 -50 -35 -91q-34 -40 -77 -61q-40 -19 -82 -45q-40 -26 -47 -48h201z" />
    <glyph glyph-name="three.numerator" 
d="M191 262q-94 0 -154 67l57 62q36 -42 98 -42q33 0 57 20.5t24 50.5q0 23 -19 36t-49 13h-35l-14 45l94 90l29 24v2q-20 -3 -35 -3h-125l16 84h280l-11 -61l-120 -112q38 -10 62.5 -41t24.5 -74q0 -63 -51 -112q-50 -49 -129 -49z" />
    <glyph glyph-name="four.numerator" 
d="M307 272h-93l19 99h-204l12 64l238 276h113l-50 -258h59l-16 -82h-58zM147 455v-2h102l21 110l15 55h-2q-16 -27 -35 -47z" />
    <glyph glyph-name="five.numerator" 
d="M192 262q-43 0 -84 17.5t-67 49.5l60 62q33 -42 91 -42q34 0 61.5 23.5t27.5 56.5q0 25 -19 41t-48 16q-36 0 -74 -18l-50 19l66 224h247l-16 -84h-168l-14 -47l-9 -25l1 -1q22 8 47 8q58 0 95 -37q39 -37 39 -92q0 -67 -54 -119q-53 -52 -132 -52z" />
    <glyph glyph-name="six.numerator" 
d="M215 262q-68 0 -109.5 43.5t-41.5 119.5q0 60 29 129q30 67 89 117q61 50 132 50q61 0 102 -25l-40 -76q-32 13 -65 13q-37 0 -69 -26.5t-50 -70.5h2q28 21 67 21q55 0 90 -34.5t35 -87.5q0 -69 -50 -122q-50 -51 -121 -51zM219 349q30 0 50.5 24.5t20.5 57.5
q0 25 -15 40t-42 15q-31 0 -51.5 -18.5t-20.5 -45.5q0 -31 16 -52t42 -21z" />
    <glyph glyph-name="seven.numerator" 
d="M153 272h-109l236 317l32 38v2q-26 -2 -40 -2h-161l16 84h314l-12 -65z" />
    <glyph glyph-name="eight.numerator" 
d="M203 261q-68 0 -112.5 32.5t-44.5 88.5q0 40 30 75q31 36 63 56q-32 29 -32 69q0 64 49 101t112 37t102 -29t39 -77q0 -26 -18 -58q-24 -40 -59 -71q47 -33 47 -82q0 -62 -55 -102q-53 -40 -121 -40zM269 519q23 20 35 44q18 31 6 53t-47 22q-27 0 -46 -14t-19 -39
q0 -15 12 -28q16 -17 59 -38zM205 342q29 0 53 17.5t24 42.5q0 24 -27 41q-10 7 -17 10q-16 10 -40 22q-55 -40 -55 -83q0 -23 18 -36.5t44 -13.5z" />
    <glyph glyph-name="nine.numerator" 
d="M51 286l40 77q22 -13 65 -13q37 0 69 26t50 70h-2q-31 -21 -67 -21q-55 0 -90 34.5t-35 88.5q0 69 50 121q49 52 121 52q68 0 109.5 -43.5t41.5 -119.5q0 -62 -30 -129q-28 -67 -89 -117q-59 -50 -131 -50q-59 0 -102 24zM234 497q31 0 51 18t20 45q0 31 -15.5 52
t-41.5 21q-30 0 -50.5 -24.5t-20.5 -57.5q0 -25 15 -39.5t42 -14.5z" />
    <glyph glyph-name="zero.denominator" 
d="M152 -10q-143 0 -143 150q0 99 44 198q22 50 63.5 80.5t93.5 30.5q143 0 143 -151q0 -99 -44 -198q-23 -50 -64 -80t-93 -30zM152 77q48 0 75 68q28 68 28 147q0 69 -46 69q-33 0 -58 -37q-45 -68 -45 -179q0 -68 46 -68z" />
    <glyph glyph-name="one.denominator" 
d="M288 0h-278l16 83h92l38 201l9 29h-2q-5 -9 -19 -20l-35 -27l-46 64l135 109h84l-69 -356h91z" />
    <glyph glyph-name="two.denominator" 
d="M292 0h-305q0 73 36.5 120t96.5 83q13 8 38 22t37 22t27.5 20t22 24.5t6.5 27.5q0 19 -14.5 30.5t-37.5 11.5q-40 0 -89 -46l-56 60q74 74 152 74q62 0 102.5 -33t40.5 -88q0 -50 -35 -91q-34 -40 -77 -61q-40 -19 -82 -45q-40 -26 -47 -48h201z" />
    <glyph glyph-name="three.denominator" 
d="M138 -10q-94 0 -154 67l57 62q36 -42 98 -42q33 0 57 20.5t24 50.5q0 23 -19 36t-49 13h-35l-14 45l94 90l29 24v2q-19 -3 -35 -3h-125l16 84h280l-11 -61l-120 -112q38 -10 62.5 -41t24.5 -74q0 -62 -51 -112q-50 -49 -129 -49z" />
    <glyph glyph-name="four.denominator" 
d="M254 0h-93l19 99h-204l12 64l238 276h113l-50 -258h59l-16 -82h-58zM94 183v-2h102l21 110l15 55h-2q-16 -27 -35 -47z" />
    <glyph glyph-name="five.denominator" 
d="M140 -10q-43 0 -84 17.5t-67 49.5l60 62q33 -42 91 -42q34 0 61.5 23.5t27.5 56.5q0 25 -19 41t-48 16q-36 0 -74 -18l-50 19l66 224h247l-16 -84h-168l-14 -47l-9 -25l1 -1q22 8 47 8q58 0 95 -37q39 -37 39 -92q0 -67 -54 -119q-53 -52 -132 -52z" />
    <glyph glyph-name="six.denominator" 
d="M162 -10q-68 0 -109.5 43.5t-41.5 119.5q0 60 29 129q30 67 89 117q61 50 132 50q61 0 102 -25l-40 -76q-32 13 -65 13q-37 0 -69 -26.5t-50 -70.5h2q29 21 67 21q55 0 90 -34.5t35 -87.5q0 -69 -50 -122q-49 -51 -121 -51zM166 77q30 0 50.5 24.5t20.5 57.5q0 25 -15 40
t-42 15q-31 0 -51.5 -18.5t-20.5 -45.5q0 -31 16 -52t42 -21z" />
    <glyph glyph-name="seven.denominator" 
d="M99 0h-109l236 317l32 38v2q-26 -2 -40 -2h-161l16 84h314l-12 -65z" />
    <glyph glyph-name="eight.denominator" 
d="M151 -10q-68 0 -112.5 32.5t-44.5 88.5q0 41 30 75q31 36 63 56q-32 29 -32 69q0 64 49 101t112 37t102 -29t39 -77q0 -27 -18 -58q-24 -40 -59 -71q47 -33 47 -82q0 -62 -55 -102q-53 -40 -121 -40zM217 248q23 20 35 44q18 31 6 53t-47 22q-27 0 -46 -14t-19 -39
q0 -15 12 -28q16 -17 59 -38zM153 71q29 0 53 17.5t24 42.5q0 24 -27 41q-10 7 -17 10q-16 10 -40 22q-55 -40 -55 -83q0 -23 18 -36.5t44 -13.5z" />
    <glyph glyph-name="nine.denominator" 
d="M-2 14l40 77q22 -13 65 -13q37 0 69 26t50 70h-2q-32 -21 -67 -21q-55 0 -90 34.5t-35 88.5q0 69 50 121q49 52 121 52q68 0 109.5 -43.5t41.5 -119.5q0 -62 -30 -129q-28 -67 -89 -117q-59 -50 -131 -50q-58 0 -102 24zM181 225q31 0 51 18t20 45q0 31 -15.5 52
t-41.5 21q-30 0 -50.5 -24.5t-20.5 -57.5q0 -25 15 -39.5t42 -14.5z" />
    <glyph glyph-name="uni0433.BUL" horiz-adv-x="460" 
d="M1 119q0 46 30 83t77 59q20 10 53.5 23t55 22.5t44 21.5t34 25t11.5 27q0 37 -53 37q-82 0 -140 -40l-40 91q84 54 191 54q76 0 120.5 -34.5t44.5 -95.5q0 -46 -30 -84t-78 -61q-20 -10 -52 -23t-54.5 -23t-44.5 -21.5t-33.5 -23.5t-11.5 -25q0 -38 60 -38q87 0 155 53
l51 -91q-98 -67 -219 -67q-80 0 -125.5 35t-45.5 96z" />
    <glyph glyph-name="uni0434.BUL" horiz-adv-x="605" 
d="M-1 -162l52 93q49 -33 138 -33q66 0 111 31t57 93l5 30l8 29h-2q-56 -71 -143 -71q-92 0 -144 57t-52 152q0 73 30 141q32 70 94 115q65 47 146 47q112 0 148 -70h3q0 13 1 18l8 40h119l-94 -487q-17 -83 -64.5 -137.5t-103.5 -75t-123 -20.5q-117 0 -194 48zM158 229
q0 -53 26.5 -82.5t75.5 -29.5q70 0 111 63q42 64 42 138q0 96 -103 96q-69 0 -111 -55q-41 -56 -41 -130z" />
    <glyph glyph-name="uni0436.BUL" horiz-adv-x="788" 
d="M98 0h-140l202 271v2l-93 237h125l77 -198h66l78 398h119l-78 -398h67l139 198h140l-188 -257v-2l102 -251h-130l-79 205h-72l-40 -205h-119l40 205h-66z" />
    <glyph glyph-name="uni0438.BUL" horiz-adv-x="606" 
d="M35 127q0 25 7 61l62 322h127l-58 -298q-5 -33 -5 -47q0 -61 65 -61q63 0 112 52t63 124l44 230h127l-99 -510h-123l9 46l13 49h-2q-25 -42 -76 -74q-53 -33 -114 -33q-71 0 -111.5 34.5t-40.5 104.5z" />
    <glyph glyph-name="uni0439.BUL" horiz-adv-x="606" 
d="M35 127q0 25 7 61l62 322h127l-58 -298q-5 -33 -5 -47q0 -61 65 -61q63 0 112 52t63 124l44 230h127l-99 -510h-123l9 46l13 49h-2q-25 -42 -76 -74q-53 -33 -114 -33q-71 0 -111.5 34.5t-40.5 104.5zM359 559q-66 0 -108 31.5t-42 81.5q0 14 6 38h98q-3 -10 -3 -25
q0 -24 14.5 -37.5t40.5 -13.5q72 0 82 76h96q-12 -75 -61.5 -113t-122.5 -38z" />
    <glyph glyph-name="uni043A.BUL" horiz-adv-x="552" 
d="M138 0h-127l139 710h126l-74 -380h61l159 180h150l-212 -234v-2l124 -274h-135l-95 223h-72z" />
    <glyph glyph-name="uni043B.BUL" horiz-adv-x="545" 
d="M95 0h-139l283 510h151l83 -510h-128l-44 316l-3 76h-2q-19 -50 -33 -76z" />
    <glyph glyph-name="uni043F.BUL" horiz-adv-x="612" 
d="M138 0h-127l99 510h123l-8 -46l-14 -50h2q24 41 78 74q53 34 116 34q73 0 113.5 -34.5t40.5 -104.5q0 -26 -7 -61l-62 -322h-127l58 298q5 32 5 46q0 62 -64 62t-116 -52q-53 -53 -66 -124z" />
    <glyph glyph-name="uni0442.BUL" horiz-adv-x="912" 
d="M138 0h-127l99 510h123l-11 -55l-11 -41h2q27 44 75 75q48 33 104 33q116 0 135 -105h2q29 45 79 74q52 31 108 31q144 0 144 -137q0 -25 -8 -70l-61 -315h-126l58 301q5 27 5 45q0 60 -57 60q-59 0 -104 -55q-45 -56 -58 -127l-44 -224h-127l59 301q5 35 5 46
q0 59 -56 59q-58 0 -104 -55q-47 -54 -60 -127z" />
    <glyph glyph-name="uni0446.BUL" horiz-adv-x="643" 
d="M35 127q0 25 7 61l62 322h127l-58 -298q-5 -32 -5 -47q0 -61 63 -61q65 0 114 51q52 53 65 125l44 230h127l-78 -402h82l-44 -228h-114l23 120h-91l8 46l14 49h-2q-24 -41 -77 -74q-52 -33 -114 -33q-73 0 -113 34.5t-40 104.5z" />
    <glyph glyph-name="uni0448.BUL" horiz-adv-x="911" 
d="M756 509h127l-99 -510h-123l11 55l11 41h-2q-26 -43 -75 -76q-49 -32 -104 -32q-116 0 -135 105h-2q-29 -44 -80 -75q-51 -30 -107 -30q-144 0 -144 137q0 25 8 70l61 315h126l-58 -301q-5 -27 -5 -45q0 -60 57 -60q59 0 103 54q46 57 59 128l44 224h127l-59 -301
q-5 -35 -5 -46q0 -59 56 -59q58 0 104 54q47 56 60 128z" />
    <glyph glyph-name="uni0449.BUL" horiz-adv-x="946" 
d="M756 509h127l-78 -401h83l-44 -228h-114l23 119h-92l11 55l11 41h-2q-26 -43 -75 -76q-49 -32 -104 -32q-116 0 -135 105h-2q-29 -44 -80 -75q-51 -30 -107 -30q-144 0 -144 137q0 25 8 70l61 315h126l-58 -301q-5 -27 -5 -45q0 -60 57 -60q59 0 103 54q46 57 59 128
l44 224h127l-59 -301q-5 -35 -5 -46q0 -59 56 -59q58 0 104 54q47 56 60 128z" />
    <glyph glyph-name="uni044A.BUL" horiz-adv-x="585" 
d="M97 150q0 23 7 55l39 197h-102l20 108h229l-27 -137l-9 -41h2q52 43 129 43q71 0 113.5 -42.5t42.5 -114.5q0 -98 -72 -164t-183 -66q-87 0 -138 42t-51 120zM225 172q-3 -39 16 -63.5t57 -24.5q50 0 81 37q32 38 32 88q0 70 -71 70q-45 0 -78 -31t-37 -76z" />
    <glyph glyph-name="uni044C.BUL" horiz-adv-x="525" 
d="M38 150q0 25 6 55l60 305h126l-27 -137q-2 -12 -9 -41h2q53 43 129 43q73 0 115 -41.5t42 -115.5q0 -98 -73 -164q-72 -66 -183 -66q-86 0 -137 42t-51 120zM164 160q0 -35 19.5 -55.5t54.5 -20.5q51 0 82 37q32 38 32 88q0 70 -72 70q-48 0 -83 -35q-33 -34 -33 -84z
" />
    <glyph glyph-name="uni044E.BUL" horiz-adv-x="854" 
d="M137 0h-126l138 710h126l-78 -402h78q31 94 114 154q84 60 180 60q107 0 175 -63q69 -61 69 -162q0 -130 -95 -220q-95 -89 -214 -89q-106 0 -174 59q-67 60 -70 158h-83zM388 220q0 -56 33 -90t85 -34q68 0 123 55t55 138q0 56 -33 90.5t-84 34.5q-69 0 -124 -57
q-55 -55 -55 -137z" />
    <glyph glyph-name="uni0432.BUL" horiz-adv-x="602" 
d="M39 193q0 27 7 59l38 196q22 123 98 199q76 75 193 75q84 0 134.5 -39t50.5 -100q0 -97 -142 -166v-2q59 -7 97.5 -50.5t38.5 -112.5q0 -112 -88 -188q-86 -76 -208 -76q-102 0 -161 57q-58 57 -58 148zM215 474l-19 -82h2q22 25 79 55l49 24q55 27 81.5 50.5t26.5 51.5
q0 24 -19 37t-52 13q-53 0 -92.5 -39.5t-55.5 -109.5zM162 195q0 -46 27.5 -71t74.5 -25q67 0 114 47q47 49 47 109q0 45 -29 68t-76 23q-68 0 -113 -45q-45 -43 -45 -106z" />
    <glyph glyph-name="uni0437.BUL" horiz-adv-x="458" 
d="M-80 -161l56 95q44 -35 110 -35q64 0 111 41q46 40 46 99q0 85 -109 85h-66l20 101h67q54 0 94 34q42 35 42 83q0 35 -23.5 54t-63.5 19q-62 0 -117 -44l-51 84q91 67 200 67q85 0 134.5 -44t49.5 -114q0 -61 -38.5 -112t-100.5 -76v-2q90 -44 90 -142q0 -104 -85 -173
q-84 -69 -193 -69q-48 0 -97 13.5t-76 35.5z" />
    <glyph glyph-name="uni0414.ALT" horiz-adv-x="725" 
d="M40 -140h-115l49 251h73l328 599h134l94 -599h77l-49 -251h-116l28 140h-475zM370 461l-184 -350h288l-49 350l-8 104h-2q-23 -59 -45 -104z" />
    <glyph glyph-name="uni041B.ALT" horiz-adv-x="649" 
d="M93 0h-144l390 710h134l113 -710h-131l-65 461l-6 104h-2q-25 -64 -46 -104z" />
    <glyph glyph-name="uni0434.ALT" horiz-adv-x="622" 
d="M50 -120h-114l44 222h61l232 408h157l72 -408h66l-44 -222h-114l23 120h-360zM299 329l-127 -227h208l-38 227l-5 76h-2q-21 -50 -36 -76z" />
    <glyph glyph-name="uni043B.ALT" horiz-adv-x="545" 
d="M95 0h-139l283 510h151l83 -510h-128l-44 316l-3 76h-2q-19 -50 -33 -76z" />
    <glyph glyph-name="uni0409.ALT" horiz-adv-x="915" 
d="M94 0h-140l398 710h263l-54 -279h120q89 0 145 -53q55 -52 55 -137q0 -98 -76 -170q-76 -71 -185 -71h-271l116 599h-38zM539 320l-40 -209h110q56 0 99 35q42 36 42 91q0 39 -27 61t-75 22h-109z" />
    <glyph glyph-name="uni0459.ALT" horiz-adv-x="781" 
d="M88 0h-132l305 510h254l-37 -185h88q82 0 125.5 -36t43.5 -105q0 -86 -63 -136q-62 -48 -160 -48h-224l81 415h-38zM462 237l-30 -150h76q44 0 74 24t30 64q0 62 -76 62h-74z" />
    <glyph glyph-name="uni04C5.ALT" horiz-adv-x="742" 
d="M92 0h-143l389 710h134l96 -599h138l-14 -70l-114 -181h-90l66 140h-100l-65 461l-6 104h-2q-19 -47 -46 -104z" />
    <glyph glyph-name="uni04C6.ALT" horiz-adv-x="613" 
d="M435 0h-91l-45 316l-3 76h-2q-19 -50 -33 -76l-168 -316h-137l283 510h150l66 -403h122l-12 -67l-101 -160h-85z" />
    </font>
</defs>
</svg>
